<svg xmlns="http://www.w3.org/2000/svg" xmlns:xlink="http://www.w3.org/1999/xlink" contentStyleType="text/css" data-diagram-type="CLASS" height="564px" preserveAspectRatio="none" style="width:446px;height:564px;background:#FFFFFF;" version="1.1" viewBox="0 0 446 564" width="446px" zoomAndPan="magnify"><?plantuml 1.2026.4beta2?><defs/><g><g class="title" data-source-line="1"><text fill="#000000" font-family="sans-serif" font-size="14" font-weight="700" lengthAdjust="spacing" textLength="285.1885" x="76.9478" y="22.9951">Plugin Architecture (Teaching View)</text></g><!--class Plugin--><g class="entity" data-qualified-name="Plugin" data-source-line="3" id="ent0002"><rect fill="#F1F1F1" height="64.2969" rx="2.5" ry="2.5" style="stroke:#181818;stroke-width:0.5;" width="151.8223" x="143.13" y="359.4869"/><ellipse cx="193.3639" cy="375.4869" fill="#ADD1B2" rx="11" ry="11" style="stroke:#181818;stroke-width:1;"/><path d="M196.3326,381.1275 Q195.7545,381.4244 195.1139,381.565 Q194.4733,381.7212 193.7701,381.7212 Q191.2701,381.7212 189.942,380.0806 Q188.6295,378.4244 188.6295,375.2994 Q188.6295,372.1744 189.942,370.5181 Q191.2701,368.8619 193.7701,368.8619 Q194.4733,368.8619 195.1139,369.0181 Q195.7701,369.1744 196.3326,369.4712 L196.3326,372.19 Q195.7076,371.6119 195.1139,371.3462 Q194.5201,371.065 193.8951,371.065 Q192.5514,371.065 191.8639,372.1431 Q191.1764,373.2056 191.1764,375.2994 Q191.1764,377.3931 191.8639,378.4712 Q192.5514,379.5337 193.8951,379.5337 Q194.5201,379.5337 195.1139,379.2681 Q195.7076,378.9869 196.3326,378.4087 L196.3326,381.1275 Z " fill="#000000"/><text fill="#000000" font-family="sans-serif" font-size="14" lengthAdjust="spacing" textLength="42.8545" x="213.8639" y="380.3336">Plugin</text><line style="stroke:#181818;stroke-width:0.5;" x1="144.13" x2="293.9523" y1="391.4869" y2="391.4869"/><line style="stroke:#181818;stroke-width:0.5;" x1="144.13" x2="293.9523" y1="399.4869" y2="399.4869"/><g data-visibility-modifier="PUBLIC_METHOD"><ellipse cx="154.13" cy="413.1353" fill="#84BE84" rx="3" ry="3" style="stroke:#038048;stroke-width:1;"/></g><text fill="#000000" font-family="sans-serif" font-size="14" font-style="italic" lengthAdjust="spacing" textLength="125.8223" x="163.13" y="416.482">run(data: str) : str</text></g><!--class Application--><g class="entity" data-qualified-name="Application" data-source-line="7" id="ent0003"><rect fill="#F1F1F1" height="96.8906" rx="2.5" ry="2.5" style="stroke:#181818;stroke-width:0.5;" width="280.085" x="79" y="185.5969"/><ellipse cx="175.6807" cy="201.5969" fill="#ADD1B2" rx="11" ry="11" style="stroke:#181818;stroke-width:1;"/><path d="M178.6494,207.2375 Q178.0713,207.5344 177.4307,207.675 Q176.79,207.8312 176.0869,207.8312 Q173.5869,207.8312 172.2588,206.1906 Q170.9463,204.5344 170.9463,201.4094 Q170.9463,198.2844 172.2588,196.6281 Q173.5869,194.9719 176.0869,194.9719 Q176.79,194.9719 177.4307,195.1281 Q178.0869,195.2844 178.6494,195.5812 L178.6494,198.3 Q178.0244,197.7219 177.4307,197.4562 Q176.8369,197.175 176.2119,197.175 Q174.8682,197.175 174.1807,198.2531 Q173.4932,199.3156 173.4932,201.4094 Q173.4932,203.5031 174.1807,204.5812 Q174.8682,205.6437 176.2119,205.6437 Q176.8369,205.6437 177.4307,205.3781 Q178.0244,205.0969 178.6494,204.5187 L178.6494,207.2375 Z " fill="#000000"/><text fill="#000000" font-family="sans-serif" font-size="14" lengthAdjust="spacing" textLength="78.2236" x="196.1807" y="206.4436">Application</text><line style="stroke:#181818;stroke-width:0.5;" x1="80" x2="358.085" y1="217.5969" y2="217.5969"/><g data-visibility-modifier="PRIVATE_FIELD"><rect fill="none" height="6" style="stroke:#C82930;stroke-width:1;" width="6" x="87" y="228.2453"/></g><text fill="#000000" font-family="sans-serif" font-size="14" lengthAdjust="spacing" textLength="153.6377" x="99" y="234.592">_plugins: list&lt;Plugin&gt;</text><line style="stroke:#181818;stroke-width:0.5;" x1="80" x2="358.085" y1="241.8937" y2="241.8937"/><g data-visibility-modifier="PUBLIC_METHOD"><ellipse cx="90" cy="255.5422" fill="#84BE84" rx="3" ry="3" style="stroke:#038048;stroke-width:1;"/></g><text fill="#000000" font-family="sans-serif" font-size="14" lengthAdjust="spacing" textLength="254.085" x="99" y="258.8889">register_plugin(plugin: Plugin) : void</text><g data-visibility-modifier="PUBLIC_METHOD"><ellipse cx="90" cy="271.8391" fill="#84BE84" rx="3" ry="3" style="stroke:#038048;stroke-width:1;"/></g><text fill="#000000" font-family="sans-serif" font-size="14" lengthAdjust="spacing" textLength="136.9102" x="99" y="275.1857">run(data: str) : void</text></g><!--class load_plugins--><g class="entity" data-qualified-name="load_plugins" data-source-line="14" id="ent0004"><rect fill="#F1F1F1" height="64.2969" rx="2.5" ry="2.5" style="stroke:#181818;stroke-width:0.5;" width="424.084" x="7" y="44.2969"/><ellipse cx="171.0352" cy="60.2969" fill="#ADD1B2" rx="11" ry="11" style="stroke:#181818;stroke-width:1;"/><path d="M174.0039,65.9375 Q173.4258,66.2344 172.7852,66.375 Q172.1445,66.5313 171.4414,66.5313 Q168.9414,66.5313 167.6133,64.8906 Q166.3008,63.2344 166.3008,60.1094 Q166.3008,56.9844 167.6133,55.3281 Q168.9414,53.6719 171.4414,53.6719 Q172.1445,53.6719 172.7852,53.8281 Q173.4414,53.9844 174.0039,54.2813 L174.0039,57 Q173.3789,56.4219 172.7852,56.1563 Q172.1914,55.875 171.5664,55.875 Q170.2227,55.875 169.5352,56.9531 Q168.8477,58.0156 168.8477,60.1094 Q168.8477,62.2031 169.5352,63.2813 Q170.2227,64.3438 171.5664,64.3438 Q172.1914,64.3438 172.7852,64.0781 Q173.3789,63.7969 174.0039,63.2188 L174.0039,65.9375 Z " fill="#000000"/><text fill="#000000" font-family="sans-serif" font-size="14" lengthAdjust="spacing" textLength="87.5137" x="191.5352" y="65.1436">load_plugins</text><line style="stroke:#181818;stroke-width:0.5;" x1="8" x2="430.084" y1="76.2969" y2="76.2969"/><line style="stroke:#181818;stroke-width:0.5;" x1="8" x2="430.084" y1="84.2969" y2="84.2969"/><g data-visibility-modifier="PUBLIC_METHOD"><ellipse cx="18" cy="97.9453" fill="#84BE84" rx="3" ry="3" style="stroke:#038048;stroke-width:1;"/></g><text fill="#000000" font-family="sans-serif" font-size="14" lengthAdjust="spacing" textLength="398.084" x="27" y="101.292">load_plugins(app: Application, package_name: str) : void</text></g><!--class UppercasePlugin--><g class="entity" data-qualified-name="UppercasePlugin" data-source-line="18" id="ent0005"><rect fill="#F1F1F1" height="64.2969" rx="2.5" ry="2.5" style="stroke:#181818;stroke-width:0.5;" width="151.8223" x="50.13" y="484.7769"/><ellipse cx="66.2075" cy="500.7769" fill="#ADD1B2" rx="11" ry="11" style="stroke:#181818;stroke-width:1;"/><path d="M69.1763,506.4175 Q68.5982,506.7144 67.9575,506.855 Q67.3169,507.0112 66.6138,507.0112 Q64.1138,507.0112 62.7857,505.3706 Q61.4732,503.7144 61.4732,500.5894 Q61.4732,497.4644 62.7857,495.8081 Q64.1138,494.1519 66.6138,494.1519 Q67.3169,494.1519 67.9575,494.3081 Q68.6138,494.4644 69.1763,494.7612 L69.1763,497.48 Q68.5513,496.9019 67.9575,496.6362 Q67.3638,496.355 66.7388,496.355 Q65.395,496.355 64.7075,497.4331 Q64.02,498.4956 64.02,500.5894 Q64.02,502.6831 64.7075,503.7612 Q65.395,504.8237 66.7388,504.8237 Q67.3638,504.8237 67.9575,504.5581 Q68.5513,504.2769 69.1763,503.6987 L69.1763,506.4175 Z " fill="#000000"/><text fill="#000000" font-family="sans-serif" font-size="14" lengthAdjust="spacing" textLength="117.4277" x="80.447" y="505.6236">UppercasePlugin</text><line style="stroke:#181818;stroke-width:0.5;" x1="51.13" x2="200.9523" y1="516.7769" y2="516.7769"/><line style="stroke:#181818;stroke-width:0.5;" x1="51.13" x2="200.9523" y1="524.7769" y2="524.7769"/><g data-visibility-modifier="PUBLIC_METHOD"><ellipse cx="61.13" cy="538.4253" fill="#84BE84" rx="3" ry="3" style="stroke:#038048;stroke-width:1;"/></g><text fill="#000000" font-family="sans-serif" font-size="14" lengthAdjust="spacing" textLength="125.8223" x="70.13" y="541.772">run(data: str) : str</text></g><!--class ReversePlugin--><g class="entity" data-qualified-name="ReversePlugin" data-source-line="22" id="ent0006"><rect fill="#F1F1F1" height="64.2969" rx="2.5" ry="2.5" style="stroke:#181818;stroke-width:0.5;" width="151.8223" x="237.13" y="484.7769"/><ellipse cx="261.1594" cy="500.7769" fill="#ADD1B2" rx="11" ry="11" style="stroke:#181818;stroke-width:1;"/><path d="M264.1282,506.4175 Q263.5501,506.7144 262.9094,506.855 Q262.2688,507.0112 261.5657,507.0112 Q259.0657,507.0112 257.7376,505.3706 Q256.4251,503.7144 256.4251,500.5894 Q256.4251,497.4644 257.7376,495.8081 Q259.0657,494.1519 261.5657,494.1519 Q262.2688,494.1519 262.9094,494.3081 Q263.5657,494.4644 264.1282,494.7612 L264.1282,497.48 Q263.5032,496.9019 262.9094,496.6362 Q262.3157,496.355 261.6907,496.355 Q260.3469,496.355 259.6594,497.4331 Q258.9719,498.4956 258.9719,500.5894 Q258.9719,502.6831 259.6594,503.7612 Q260.3469,504.8237 261.6907,504.8237 Q262.3157,504.8237 262.9094,504.5581 Q263.5032,504.2769 264.1282,503.6987 L264.1282,506.4175 Z " fill="#000000"/><text fill="#000000" font-family="sans-serif" font-size="14" lengthAdjust="spacing" textLength="99.7568" x="277.166" y="505.6236">ReversePlugin</text><line style="stroke:#181818;stroke-width:0.5;" x1="238.13" x2="387.9523" y1="516.7769" y2="516.7769"/><line style="stroke:#181818;stroke-width:0.5;" x1="238.13" x2="387.9523" y1="524.7769" y2="524.7769"/><g data-visibility-modifier="PUBLIC_METHOD"><ellipse cx="248.13" cy="538.4253" fill="#84BE84" rx="3" ry="3" style="stroke:#038048;stroke-width:1;"/></g><text fill="#000000" font-family="sans-serif" font-size="14" lengthAdjust="spacing" textLength="125.8223" x="257.13" y="541.772">run(data: str) : str</text></g><!--reverse link Plugin to UppercasePlugin--><g class="link" data-entity-1="ent0002" data-entity-2="ent0005" data-link-type="extension" data-source-line="29" id="lnk7"><path codeLine="29" d="M184.4916,438.438 C170.5016,456.988 163.69,466.0169 149.71,484.5569" fill="none" id="Plugin-backto-UppercasePlugin" style="stroke:#181818;stroke-width:1;"/><polygon fill="none" points="195.33,424.0669,179.7012,434.8252,189.282,442.0508,195.33,424.0669" style="stroke:#181818;stroke-width:1;"/></g><!--reverse link Plugin to ReversePlugin--><g class="link" data-entity-1="ent0002" data-entity-2="ent0006" data-link-type="extension" data-source-line="30" id="lnk8"><path codeLine="30" d="M253.922,438.3822 C268.062,456.9322 274.99,466.0169 289.12,484.5569" fill="none" id="Plugin-backto-ReversePlugin" style="stroke:#181818;stroke-width:1;"/><polygon fill="none" points="243.01,424.0669,249.1503,442.0195,258.6938,434.7448,243.01,424.0669" style="stroke:#181818;stroke-width:1;"/></g><!--reverse link Application to Plugin--><g class="link" data-entity-1="ent0003" data-entity-2="ent0002" data-link-type="aggregation" data-source-line="37" id="lnk9"><path codeLine="37" d="M124.662,291.2593 C111.052,304.9893 112.62,312.4069 122.04,329.4869 C128.58,341.3369 138.49,351.2069 149.52,359.3069" fill="none" id="Application-backto-Plugin" style="stroke:#181818;stroke-width:1;"/><polygon fill="none" points="133.11,282.7369,126.0452,284.1821,124.662,291.2593,131.7268,289.8141,133.11,282.7369" style="stroke:#181818;stroke-width:1;"/><text fill="#000000" font-family="sans-serif" font-size="13" lengthAdjust="spacing" textLength="146.377" x="123.04" y="325.5538">stores runtime plugins</text></g><!--link Application to Plugin--><g class="link" data-entity-1="ent0003" data-entity-2="ent0002" data-link-type="dependency" data-source-line="40" id="lnk10"><path codeLine="40" d="M259.49,282.5569 C265.48,291.9469 270.73,302.1169 274.04,312.4869 C279.44,329.3969 274.7107,341.3553 262.7307,354.7453" fill="none" id="Application-to-Plugin" style="stroke:#181818;stroke-width:1;stroke-dasharray:7,7;"/><polygon fill="#181818" points="258.73,359.2169,267.712,355.1767,262.0639,355.4906,261.75,349.8425,258.73,359.2169" style="stroke:#181818;stroke-width:1;"/><text fill="#000000" font-family="sans-serif" font-size="13" lengthAdjust="spacing" textLength="153.6704" x="276.04" y="325.5538">depends on abstraction</text></g><!--link load_plugins to Application--><g class="link" data-entity-1="ent0004" data-entity-2="ent0003" data-link-type="dependency" data-source-line="43" id="lnk11"><path codeLine="43" d="M219.04,108.9269 C219.04,130.8669 219.04,154.5169 219.04,179.3369" fill="none" id="load_plugins-to-Application" style="stroke:#181818;stroke-width:1;"/><polygon fill="#181818" points="219.04,185.3369,223.04,176.3369,219.04,180.3369,215.04,176.3369,219.04,185.3369" style="stroke:#181818;stroke-width:1;"/><text fill="#000000" font-family="sans-serif" font-size="13" lengthAdjust="spacing" textLength="108.3037" x="220.04" y="151.6638">registers plugins</text></g><?plantuml-src ZL9VJy8m47_VfxWtHt1yW0L9YAAIW5lue-69rEwSZMDjsW8no7UtsrhSKC2-TBtx_RcxdMOwGuYpTSfow4lwpZHIlPO8_Wo9UUOfF3FSjZoFPaGf1zrvOCwEl2ej2TLxQCjrxYT4an1Cg0NbvUqThIz4nYZHZ3jki1Ibb0eXOqftA-6ULoRR4bCJH6b1VdM5rhwGtt2MMEonSvawM6US9CxBUhVhCPy84TOBl0P1w0T9SPcJ5PvGdGk1aXA5ZO5ScC84DoZ_Ixc2crF7vE9ej1X7a_XnE1sVXLgpxbSG71VTo3Lgk-H-6qq648_c3yCdc2wciy4OxaVHorcMITQtG6akKO7xCRuPWsOh1CfNWYjMO5fUdS1DaRRWqB4ToQeK7dSeC4ymfv_0ygAbWklNXP8IeS1ykltzPTRfz7xC_YOKPXPIRQkig6yPttgDfGk2NgFr4Dnw7_h_1W00?></g></svg>