<svg xmlns="http://www.w3.org/2000/svg" xmlns:xlink="http://www.w3.org/1999/xlink" contentStyleType="text/css" data-diagram-type="CLASS" height="434px" preserveAspectRatio="none" style="width:731px;height:434px;background:#FFFFFF;" version="1.1" viewBox="0 0 731 434" width="731px" zoomAndPan="magnify"><?plantuml 1.2026.4beta2?><defs/><g><!--class Step--><g class="entity" data-qualified-name="Step" data-source-line="4" id="ent0002"><rect fill="#F1F1F1" height="64.2969" rx="2.5" ry="2.5" style="stroke:#181818;stroke-width:0.5;" width="213.4072" x="255" y="229.79"/><ellipse cx="341.5156" cy="245.79" fill="#A9DCDF" rx="11" ry="11" style="stroke:#181818;stroke-width:1;"/><path d="M341.625,241.1338 L340.4688,246.2119 L342.7969,246.2119 L341.625,241.1338 Z M340.1406,238.8994 L343.125,238.8994 L346.4844,251.29 L344.0313,251.29 L343.2656,248.2275 L339.9844,248.2275 L339.2344,251.29 L336.7969,251.29 L340.1406,238.8994 Z " fill="#000000"/><text fill="#000000" font-family="sans-serif" font-size="14" font-style="italic" lengthAdjust="spacing" textLength="31.876" x="362.0156" y="250.6367">Step</text><line style="stroke:#181818;stroke-width:0.5;" x1="256" x2="467.4072" y1="261.79" y2="261.79"/><line style="stroke:#181818;stroke-width:0.5;" x1="256" x2="467.4072" y1="269.79" y2="269.79"/><g data-visibility-modifier="PUBLIC_METHOD"><ellipse cx="266" cy="283.4384" fill="#84BE84" rx="3" ry="3" style="stroke:#038048;stroke-width:1;"/></g><text fill="#000000" font-family="sans-serif" font-size="14" lengthAdjust="spacing" textLength="187.4072" x="275" y="286.7851">execute(context: dict) : str</text></g><!--class StepA--><g class="entity" data-qualified-name="StepA" data-source-line="11" id="ent0003"><rect fill="#F1F1F1" height="64.2969" rx="2.5" ry="2.5" style="stroke:#181818;stroke-width:0.5;" width="213.4072" x="7" y="355.08"/><ellipse cx="88.7271" cy="371.08" fill="#ADD1B2" rx="11" ry="11" style="stroke:#181818;stroke-width:1;"/><path d="M91.6958,376.7206 Q91.1177,377.0175 90.4771,377.1581 Q89.8364,377.3144 89.1333,377.3144 Q86.6333,377.3144 85.3052,375.6738 Q83.9927,374.0175 83.9927,370.8925 Q83.9927,367.7675 85.3052,366.1113 Q86.6333,364.455 89.1333,364.455 Q89.8364,364.455 90.4771,364.6113 Q91.1333,364.7675 91.6958,365.0644 L91.6958,367.7831 Q91.0708,367.205 90.4771,366.9394 Q89.8833,366.6581 89.2583,366.6581 Q87.9146,366.6581 87.2271,367.7363 Q86.5396,368.7988 86.5396,370.8925 Q86.5396,372.9863 87.2271,374.0644 Q87.9146,375.1269 89.2583,375.1269 Q89.8833,375.1269 90.4771,374.8613 Q91.0708,374.58 91.6958,374.0019 L91.6958,376.7206 Z " fill="#000000"/><text fill="#000000" font-family="sans-serif" font-size="14" lengthAdjust="spacing" textLength="41.4531" x="109.2271" y="375.9267">StepA</text><line style="stroke:#181818;stroke-width:0.5;" x1="8" x2="219.4072" y1="387.08" y2="387.08"/><line style="stroke:#181818;stroke-width:0.5;" x1="8" x2="219.4072" y1="395.08" y2="395.08"/><g data-visibility-modifier="PUBLIC_METHOD"><ellipse cx="18" cy="408.7284" fill="#84BE84" rx="3" ry="3" style="stroke:#038048;stroke-width:1;"/></g><text fill="#000000" font-family="sans-serif" font-size="14" lengthAdjust="spacing" textLength="187.4072" x="27" y="412.0751">execute(context: dict) : str</text></g><!--class StepB--><g class="entity" data-qualified-name="StepB" data-source-line="15" id="ent0004"><rect fill="#F1F1F1" height="64.2969" rx="2.5" ry="2.5" style="stroke:#181818;stroke-width:0.5;" width="213.4072" x="255" y="355.08"/><ellipse cx="336.7134" cy="371.08" fill="#ADD1B2" rx="11" ry="11" style="stroke:#181818;stroke-width:1;"/><path d="M339.6821,376.7206 Q339.104,377.0175 338.4634,377.1581 Q337.8228,377.3144 337.1196,377.3144 Q334.6196,377.3144 333.2915,375.6738 Q331.979,374.0175 331.979,370.8925 Q331.979,367.7675 333.2915,366.1113 Q334.6196,364.455 337.1196,364.455 Q337.8228,364.455 338.4634,364.6113 Q339.1196,364.7675 339.6821,365.0644 L339.6821,367.7831 Q339.0571,367.205 338.4634,366.9394 Q337.8696,366.6581 337.2446,366.6581 Q335.9009,366.6581 335.2134,367.7363 Q334.5259,368.7988 334.5259,370.8925 Q334.5259,372.9863 335.2134,374.0644 Q335.9009,375.1269 337.2446,375.1269 Q337.8696,375.1269 338.4634,374.8613 Q339.0571,374.58 339.6821,374.0019 L339.6821,376.7206 Z " fill="#000000"/><text fill="#000000" font-family="sans-serif" font-size="14" lengthAdjust="spacing" textLength="41.4805" x="357.2134" y="375.9267">StepB</text><line style="stroke:#181818;stroke-width:0.5;" x1="256" x2="467.4072" y1="387.08" y2="387.08"/><line style="stroke:#181818;stroke-width:0.5;" x1="256" x2="467.4072" y1="395.08" y2="395.08"/><g data-visibility-modifier="PUBLIC_METHOD"><ellipse cx="266" cy="408.7284" fill="#84BE84" rx="3" ry="3" style="stroke:#038048;stroke-width:1;"/></g><text fill="#000000" font-family="sans-serif" font-size="14" lengthAdjust="spacing" textLength="187.4072" x="275" y="412.0751">execute(context: dict) : str</text></g><!--class StepC--><g class="entity" data-qualified-name="StepC" data-source-line="19" id="ent0005"><rect fill="#F1F1F1" height="64.2969" rx="2.5" ry="2.5" style="stroke:#181818;stroke-width:0.5;" width="213.4072" x="503" y="355.08"/><ellipse cx="584.6279" cy="371.08" fill="#ADD1B2" rx="11" ry="11" style="stroke:#181818;stroke-width:1;"/><path d="M587.5967,376.7206 Q587.0186,377.0175 586.3779,377.1581 Q585.7373,377.3144 585.0342,377.3144 Q582.5342,377.3144 581.2061,375.6738 Q579.8936,374.0175 579.8936,370.8925 Q579.8936,367.7675 581.2061,366.1113 Q582.5342,364.455 585.0342,364.455 Q585.7373,364.455 586.3779,364.6113 Q587.0342,364.7675 587.5967,365.0644 L587.5967,367.7831 Q586.9717,367.205 586.3779,366.9394 Q585.7842,366.6581 585.1592,366.6581 Q583.8154,366.6581 583.1279,367.7363 Q582.4404,368.7988 582.4404,370.8925 Q582.4404,372.9863 583.1279,374.0644 Q583.8154,375.1269 585.1592,375.1269 Q585.7842,375.1269 586.3779,374.8613 Q586.9717,374.58 587.5967,374.0019 L587.5967,376.7206 Z " fill="#000000"/><text fill="#000000" font-family="sans-serif" font-size="14" lengthAdjust="spacing" textLength="41.6514" x="605.1279" y="375.9267">StepC</text><line style="stroke:#181818;stroke-width:0.5;" x1="504" x2="715.4072" y1="387.08" y2="387.08"/><line style="stroke:#181818;stroke-width:0.5;" x1="504" x2="715.4072" y1="395.08" y2="395.08"/><g data-visibility-modifier="PUBLIC_METHOD"><ellipse cx="514" cy="408.7284" fill="#84BE84" rx="3" ry="3" style="stroke:#038048;stroke-width:1;"/></g><text fill="#000000" font-family="sans-serif" font-size="14" lengthAdjust="spacing" textLength="187.4072" x="523" y="412.0751">execute(context: dict) : str</text></g><!--class FlowEngine--><g class="entity" data-qualified-name="FlowEngine" data-source-line="31" id="ent0009"><rect fill="#F1F1F1" height="145.7813" rx="2.5" ry="2.5" style="stroke:#181818;stroke-width:0.5;" width="528.1133" x="97.65" y="7"/><ellipse cx="317.4869" cy="23" fill="#ADD1B2" rx="11" ry="11" style="stroke:#181818;stroke-width:1;"/><path d="M320.4557,28.6406 Q319.8775,28.9375 319.2369,29.0781 Q318.5963,29.2344 317.8932,29.2344 Q315.3932,29.2344 314.065,27.5938 Q312.7525,25.9375 312.7525,22.8125 Q312.7525,19.6875 314.065,18.0313 Q315.3932,16.375 317.8932,16.375 Q318.5963,16.375 319.2369,16.5313 Q319.8932,16.6875 320.4557,16.9844 L320.4557,19.7031 Q319.8307,19.125 319.2369,18.8594 Q318.6432,18.5781 318.0182,18.5781 Q316.6744,18.5781 315.9869,19.6563 Q315.2994,20.7188 315.2994,22.8125 Q315.2994,24.9063 315.9869,25.9844 Q316.6744,27.0469 318.0182,27.0469 Q318.6432,27.0469 319.2369,26.7813 Q319.8307,26.5 320.4557,25.9219 L320.4557,28.6406 Z " fill="#000000"/><text fill="#000000" font-family="sans-serif" font-size="14" lengthAdjust="spacing" textLength="79.9395" x="337.9869" y="27.8467">FlowEngine</text><line style="stroke:#181818;stroke-width:0.5;" x1="98.65" x2="624.7633" y1="39" y2="39"/><g data-visibility-modifier="PRIVATE_FIELD"><rect fill="none" height="6" style="stroke:#C82930;stroke-width:1;" width="6" x="105.65" y="49.6484"/></g><text fill="#000000" font-family="sans-serif" font-size="14" lengthAdjust="spacing" textLength="323.873" x="117.65" y="55.9951">flow_map: Dict[Step, Dict[str, Optional[Step]]]</text><g data-visibility-modifier="PRIVATE_FIELD"><rect fill="none" height="6" style="stroke:#C82930;stroke-width:1;" width="6" x="105.65" y="65.9453"/></g><text fill="#000000" font-family="sans-serif" font-size="14" lengthAdjust="spacing" textLength="181.0498" x="117.65" y="72.292">start_step: Optional[Step]</text><line style="stroke:#181818;stroke-width:0.5;" x1="98.65" x2="624.7633" y1="79.5938" y2="79.5938"/><g data-visibility-modifier="PUBLIC_METHOD"><ellipse cx="108.65" cy="93.2422" fill="#84BE84" rx="3" ry="3" style="stroke:#038048;stroke-width:1;"/></g><text fill="#000000" font-family="sans-serif" font-size="14" lengthAdjust="spacing" textLength="90.8633" x="117.65" y="96.5889">FlowEngine()</text><g data-visibility-modifier="PUBLIC_METHOD"><ellipse cx="108.65" cy="109.5391" fill="#84BE84" rx="3" ry="3" style="stroke:#038048;stroke-width:1;"/></g><text fill="#000000" font-family="sans-serif" font-size="14" lengthAdjust="spacing" textLength="143.2539" x="117.65" y="112.8857">set_start(step: Step)</text><g data-visibility-modifier="PUBLIC_METHOD"><ellipse cx="108.65" cy="125.8359" fill="#84BE84" rx="3" ry="3" style="stroke:#038048;stroke-width:1;"/></g><text fill="#000000" font-family="sans-serif" font-size="14" lengthAdjust="spacing" textLength="502.1133" x="117.65" y="129.1826">add_transition(from_step: Step, result_key: str, to_step: Optional[Step])</text><g data-visibility-modifier="PUBLIC_METHOD"><ellipse cx="108.65" cy="142.1328" fill="#84BE84" rx="3" ry="3" style="stroke:#038048;stroke-width:1;"/></g><text fill="#000000" font-family="sans-serif" font-size="14" lengthAdjust="spacing" textLength="122.5684" x="117.65" y="145.4795">run(context: dict)</text></g><!--reverse link Step to StepA--><g class="link" data-entity-1="ent0002" data-entity-2="ent0003" data-link-type="extension" data-source-line="23" id="lnk6"><path codeLine="23" d="M282.0421,302.5434 C244.8721,321.0234 214.22,336.26 177.08,354.72" fill="none" id="Step-backto-StepA" style="stroke:#181818;stroke-width:1;"/><polygon fill="none" points="298.16,294.53,279.371,297.1708,284.7133,307.916,298.16,294.53" style="stroke:#181818;stroke-width:1;"/></g><!--reverse link Step to StepB--><g class="link" data-entity-1="ent0002" data-entity-2="ent0004" data-link-type="extension" data-source-line="24" id="lnk7"><path codeLine="24" d="M361.7,312.37 C361.7,330.92 361.7,336.32 361.7,354.86" fill="none" id="Step-backto-StepB" style="stroke:#181818;stroke-width:1;"/><polygon fill="none" points="361.7,294.37,355.7,312.37,367.7,312.37,361.7,294.37" style="stroke:#181818;stroke-width:1;"/></g><!--reverse link Step to StepC--><g class="link" data-entity-1="ent0002" data-entity-2="ent0005" data-link-type="extension" data-source-line="25" id="lnk8"><path codeLine="25" d="M441.3679,302.5434 C478.5379,321.0234 509.18,336.26 546.32,354.72" fill="none" id="Step-backto-StepC" style="stroke:#181818;stroke-width:1;"/><polygon fill="none" points="425.25,294.53,438.6967,307.916,444.039,297.1708,425.25,294.53" style="stroke:#181818;stroke-width:1;"/></g><!--link FlowEngine to Step--><g class="link" data-entity-1="ent0009" data-entity-2="ent0002" data-link-type="dependency" data-source-line="41" id="lnk10"><path codeLine="41" d="M310.11,153.24 C304.72,168.47 303.02,184.54 308.7,199.79 C312.73,210.58 315.7232,216.1591 323.2232,224.9791" fill="none" id="FlowEngine-to-Step" style="stroke:#181818;stroke-width:1;"/><polygon fill="#181818" points="327.11,229.55,324.3271,220.1025,323.871,225.7409,318.2326,225.2849,327.11,229.55" style="stroke:#181818;stroke-width:1;"/><text fill="#000000" font-family="sans-serif" font-size="13" lengthAdjust="spacing" textLength="58.9443" x="309.7" y="195.8569">executes</text></g><!--link FlowEngine to Step--><g class="link" data-entity-1="ent0009" data-entity-2="ent0002" data-link-type="dependency" data-source-line="42" id="lnk11"><path codeLine="42" d="M372.59,153.19 C373.73,168.57 374.05,184.71 372.7,199.79 C371.84,209.46 371.3154,213.979 369.5754,223.439" fill="none" id="FlowEngine-to-Step-1" style="stroke:#181818;stroke-width:1;"/><polygon fill="#181818" points="368.49,229.34,374.0521,221.2121,369.3945,224.4225,366.1841,219.7649,368.49,229.34" style="stroke:#181818;stroke-width:1;"/><text fill="#000000" font-family="sans-serif" font-size="13" lengthAdjust="spacing" textLength="112.7788" x="373.7" y="195.8569">stores transitions</text></g><?plantuml-src dL9TQuCm57tFhxXlMgP_GBP1ws8f31rLsCCGoJGjCfk8kRAERVzzyGkBp4wMf-JUS-uvEOa1TtEB6116z0bsVaJttjgbkZ0FPgyAAvOYf0LJ2aBa9NmIqEi6-9cdDN8pbGBv6Ht8yXHNu82ca6zoTQu1Rk2xUnhHraru5JnghnUBZvpDFpZkOawRoEsNRNV-9kVDvEoIlsBn7eDdeFvsvzC5cNY5VAVYc0lU6xRXe4l9YPKEF6YdBusgrMsrOmk24dCfMD4suZZkMGfPXOdIDMS28NqGevIvwakADnHDD3jYWnzwBCiI_NE4ofjXvg6IfsH4ML1nLHUOlF6FDaeBKFugFyohQZ5vWoRzY_lRzdttFPtXpTHCMw7KwZ2wKpy0?></g></svg>