<svg xmlns="http://www.w3.org/2000/svg" xmlns:xlink="http://www.w3.org/1999/xlink" version="1.1" data-diagram-type="CLASS" style="width:412px;height:296px;background:#FFFFFF;" width="412px" height="296px" viewBox="0 0 412 296" zoomAndPan="magnify" preserveAspectRatio="none" contentStyleType="text/css"><?plantuml 1.2026.8beta1?><defs/><g font-family="sans-serif" lengthAdjust="spacing"><!--class User--><g class="entity" data-qualified-name="User" id="ent0001" data-source-line="1"><rect x="7" y="7" width="392.714" height="276.156" fill="#F1F1F1" style="stroke:#181818;stroke-width:0.5;" rx="2.5" ry="2.5"/><ellipse cx="183.152" cy="23" rx="11" ry="11" fill="#ADD1B2" style="stroke:#181818;stroke-width:1;"/><path d="M186.121,28.641 Q185.542,28.938 184.902,29.078 Q184.261,29.234 183.558,29.234 Q181.058,29.234 179.73,27.594 Q178.417,25.938 178.417,22.813 Q178.417,19.688 179.73,18.031 Q181.058,16.375 183.558,16.375 Q184.261,16.375 184.902,16.531 Q185.558,16.688 186.121,16.984 L186.121,19.703 Q185.496,19.125 184.902,18.859 Q184.308,18.578 183.683,18.578 Q182.339,18.578 181.652,19.656 Q180.964,20.719 180.964,22.813 Q180.964,24.906 181.652,25.984 Q182.339,27.047 183.683,27.047 Q184.308,27.047 184.902,26.781 Q185.496,26.5 186.121,25.922 L186.121,28.641 Z " fill="#000"/><text x="203.652" y="27.847" fill="#000" font-size="14" textLength="31.91">User</text><line x1="8" y1="39" x2="398.714" y2="39" style="stroke:#181818;stroke-width:0.5;"/><g data-visibility-modifier="PRIVATE_FIELD"><rect x="15" y="49.648" width="6" height="6" fill="none" style="stroke:#C82930;stroke-width:1;"/></g><text x="27" y="55.995" fill="#000" font-size="14" textLength="131.612">name_ : std::string</text><g data-visibility-modifier="PRIVATE_FIELD"><rect x="15" y="65.945" width="6" height="6" fill="none" style="stroke:#C82930;stroke-width:1;"/></g><text x="27" y="72.292" fill="#000" font-size="14" textLength="130.519">email_ : std::string</text><g data-visibility-modifier="PRIVATE_FIELD"><rect x="15" y="82.242" width="6" height="6" fill="none" style="stroke:#C82930;stroke-width:1;"/></g><text x="27" y="88.589" fill="#000" font-size="14" textLength="64.948">age_ : int</text><line x1="8" y1="95.891" x2="398.714" y2="95.891" style="stroke:#181818;stroke-width:0.5;"/><g data-visibility-modifier="PRIVATE_METHOD"><rect x="15" y="106.539" width="6" height="6" fill="#F24D5C" style="stroke:#C82930;stroke-width:1;"/></g><text x="27" y="112.886" fill="#000" font-size="14" textLength="334.981" text-decoration="underline">validate_name(name : const std::string&amp;) : void</text><g data-visibility-modifier="PRIVATE_METHOD"><rect x="15" y="122.836" width="6" height="6" fill="#F24D5C" style="stroke:#C82930;stroke-width:1;"/></g><text x="27" y="129.183" fill="#000" font-size="14" textLength="332.794" text-decoration="underline">validate_email(email : const std::string&amp;) : void</text><g data-visibility-modifier="PRIVATE_METHOD"><rect x="15" y="139.133" width="6" height="6" fill="#F24D5C" style="stroke:#C82930;stroke-width:1;"/></g><text x="27" y="145.479" fill="#000" font-size="14" textLength="201.407" text-decoration="underline">validate_age(age : int) : void</text><text x="27" y="161.776" fill="#000" font-size="14"> </text><g data-visibility-modifier="PUBLIC_METHOD"><ellipse cx="18" cy="174.727" rx="3" ry="3" fill="#84BE84" style="stroke:#038048;stroke-width:1;"/></g><text x="27" y="178.073" fill="#000" font-size="14" textLength="366.714">User(name : std::string, email : std::string, age : int)</text><g data-visibility-modifier="PUBLIC_METHOD"><ellipse cx="18" cy="191.023" rx="3" ry="3" fill="#84BE84" style="stroke:#038048;stroke-width:1;"/></g><text x="27" y="194.37" fill="#000" font-size="14" textLength="188.822">name() : const std::string&amp;</text><g data-visibility-modifier="PUBLIC_METHOD"><ellipse cx="18" cy="207.32" rx="3" ry="3" fill="#84BE84" style="stroke:#038048;stroke-width:1;"/></g><text x="27" y="210.667" fill="#000" font-size="14" textLength="187.729">email() : const std::string&amp;</text><g data-visibility-modifier="PUBLIC_METHOD"><ellipse cx="18" cy="223.617" rx="3" ry="3" fill="#84BE84" style="stroke:#038048;stroke-width:1;"/></g><text x="27" y="226.964" fill="#000" font-size="14" textLength="68.872">age() : int</text><g data-visibility-modifier="PUBLIC_METHOD"><ellipse cx="18" cy="239.914" rx="3" ry="3" fill="#84BE84" style="stroke:#038048;stroke-width:1;"/></g><text x="27" y="243.261" fill="#000" font-size="14" textLength="246.88">set_name(name : std::string) : void</text><g data-visibility-modifier="PUBLIC_METHOD"><ellipse cx="18" cy="256.211" rx="3" ry="3" fill="#84BE84" style="stroke:#038048;stroke-width:1;"/></g><text x="27" y="259.558" fill="#000" font-size="14" textLength="244.692">set_email(email : std::string) : void</text><g data-visibility-modifier="PUBLIC_METHOD"><ellipse cx="18" cy="272.508" rx="3" ry="3" fill="#84BE84" style="stroke:#038048;stroke-width:1;"/></g><text x="27" y="275.854" fill="#000" font-size="14" textLength="166.592">set_age(age : int) : void</text></g><?plantuml-src dL312eCm3Btx5JaDPTiF-1yxIwX50bh112_YlwzDTMkXyx130qtUUtalPaHcUB5TOAi0dk1miXsqmDAtBSj2Rj2-dP36qW07nPEJIlyR2mgP7LOSgKUnNP2iG_4mCpkMLEFM-EuwK_-3h7jhhV_GlRlQlsZmW_NWkuO-RIMA3pYNPSslY98rKrDqfFDe-m8GZ3N7tSAVhMI7IWX9n8ZBRtA5BCVVtm00?></g></svg>