<svg xmlns="http://www.w3.org/2000/svg" xmlns:xlink="http://www.w3.org/1999/xlink" contentStyleType="text/css" data-diagram-type="CLASS" height="548px" preserveAspectRatio="none" style="width:1393px;height:548px;background:#FFFFFF;" version="1.1" viewBox="0 0 1393 548" width="1393px" zoomAndPan="magnify"><?plantuml 1.2026.4beta2?><defs/><g><!--class Attack--><g class="entity" data-qualified-name="Attack" data-source-line="4" id="ent0002"><rect fill="#F1F1F1" height="64.2969" rx="2.5" ry="2.5" style="stroke:#181818;stroke-width:0.5;" width="179.7744" x="330" y="311.26"/><ellipse cx="393.1675" cy="327.26" fill="#A9DCDF" rx="11" ry="11" style="stroke:#181818;stroke-width:1;"/><path d="M393.2769,322.6038 L392.1206,327.6819 L394.4487,327.6819 L393.2769,322.6038 Z M391.7925,320.3694 L394.7769,320.3694 L398.1362,332.76 L395.6831,332.76 L394.9175,329.6975 L391.6362,329.6975 L390.8862,332.76 L388.4487,332.76 L391.7925,320.3694 Z " fill="#000000"/><text fill="#000000" font-family="sans-serif" font-size="14" font-style="italic" lengthAdjust="spacing" textLength="44.9395" x="413.6675" y="332.1067">Attack</text><line style="stroke:#181818;stroke-width:0.5;" x1="331" x2="508.7744" y1="343.26" y2="343.26"/><line style="stroke:#181818;stroke-width:0.5;" x1="331" x2="508.7744" y1="351.26" y2="351.26"/><g data-visibility-modifier="PUBLIC_METHOD"><ellipse cx="341" cy="364.9084" fill="#84BE84" rx="3" ry="3" style="stroke:#038048;stroke-width:1;"/></g><text fill="#000000" font-family="sans-serif" font-size="14" lengthAdjust="spacing" textLength="153.7744" x="350" y="368.2551">attack(character) : int</text></g><!--class Sword--><g class="entity" data-qualified-name="Sword" data-source-line="8" id="ent0003"><rect fill="#F1F1F1" height="64.2969" rx="2.5" ry="2.5" style="stroke:#181818;stroke-width:0.5;" width="179.7744" x="7" y="452.86"/><ellipse cx="70.8647" cy="468.86" fill="#ADD1B2" rx="11" ry="11" style="stroke:#181818;stroke-width:1;"/><path d="M73.8335,474.5006 Q73.2554,474.7975 72.6147,474.9381 Q71.9741,475.0944 71.271,475.0944 Q68.771,475.0944 67.4429,473.4538 Q66.1304,471.7975 66.1304,468.6725 Q66.1304,465.5475 67.4429,463.8913 Q68.771,462.235 71.271,462.235 Q71.9741,462.235 72.6147,462.3913 Q73.271,462.5475 73.8335,462.8444 L73.8335,465.5631 Q73.2085,464.985 72.6147,464.7194 Q72.021,464.4381 71.396,464.4381 Q70.0522,464.4381 69.3647,465.5163 Q68.6772,466.5788 68.6772,468.6725 Q68.6772,470.7663 69.3647,471.8444 Q70.0522,472.9069 71.396,472.9069 Q72.021,472.9069 72.6147,472.6413 Q73.2085,472.36 73.8335,471.7819 L73.8335,474.5006 Z " fill="#000000"/><text fill="#000000" font-family="sans-serif" font-size="14" lengthAdjust="spacing" textLength="43.5449" x="91.3647" y="473.7067">Sword</text><line style="stroke:#181818;stroke-width:0.5;" x1="8" x2="185.7744" y1="484.86" y2="484.86"/><line style="stroke:#181818;stroke-width:0.5;" x1="8" x2="185.7744" y1="492.86" y2="492.86"/><g data-visibility-modifier="PUBLIC_METHOD"><ellipse cx="18" cy="506.5084" fill="#84BE84" rx="3" ry="3" style="stroke:#038048;stroke-width:1;"/></g><text fill="#000000" font-family="sans-serif" font-size="14" lengthAdjust="spacing" textLength="153.7744" x="27" y="509.8551">attack(character) : int</text></g><!--class Bow--><g class="entity" data-qualified-name="Bow" data-source-line="12" id="ent0004"><rect fill="#F1F1F1" height="64.2969" rx="2.5" ry="2.5" style="stroke:#181818;stroke-width:0.5;" width="179.7744" x="222" y="452.86"/><ellipse cx="292.8271" cy="468.86" fill="#ADD1B2" rx="11" ry="11" style="stroke:#181818;stroke-width:1;"/><path d="M295.7959,474.5006 Q295.2178,474.7975 294.5771,474.9381 Q293.9365,475.0944 293.2334,475.0944 Q290.7334,475.0944 289.4053,473.4538 Q288.0928,471.7975 288.0928,468.6725 Q288.0928,465.5475 289.4053,463.8913 Q290.7334,462.235 293.2334,462.235 Q293.9365,462.235 294.5771,462.3913 Q295.2334,462.5475 295.7959,462.8444 L295.7959,465.5631 Q295.1709,464.985 294.5771,464.7194 Q293.9834,464.4381 293.3584,464.4381 Q292.0146,464.4381 291.3271,465.5163 Q290.6396,466.5788 290.6396,468.6725 Q290.6396,470.7663 291.3271,471.8444 Q292.0146,472.9069 293.3584,472.9069 Q293.9834,472.9069 294.5771,472.6413 Q295.1709,472.36 295.7959,471.7819 L295.7959,474.5006 Z " fill="#000000"/><text fill="#000000" font-family="sans-serif" font-size="14" lengthAdjust="spacing" textLength="29.6201" x="313.3271" y="473.7067">Bow</text><line style="stroke:#181818;stroke-width:0.5;" x1="223" x2="400.7744" y1="484.86" y2="484.86"/><line style="stroke:#181818;stroke-width:0.5;" x1="223" x2="400.7744" y1="492.86" y2="492.86"/><g data-visibility-modifier="PUBLIC_METHOD"><ellipse cx="233" cy="506.5084" fill="#84BE84" rx="3" ry="3" style="stroke:#038048;stroke-width:1;"/></g><text fill="#000000" font-family="sans-serif" font-size="14" lengthAdjust="spacing" textLength="153.7744" x="242" y="509.8551">attack(character) : int</text></g><!--class Spell--><g class="entity" data-qualified-name="Spell" data-source-line="16" id="ent0005"><rect fill="#F1F1F1" height="64.2969" rx="2.5" ry="2.5" style="stroke:#181818;stroke-width:0.5;" width="179.7744" x="437" y="452.86"/><ellipse cx="505.5542" cy="468.86" fill="#ADD1B2" rx="11" ry="11" style="stroke:#181818;stroke-width:1;"/><path d="M508.5229,474.5006 Q507.9448,474.7975 507.3042,474.9381 Q506.6636,475.0944 505.9604,475.0944 Q503.4604,475.0944 502.1323,473.4538 Q500.8198,471.7975 500.8198,468.6725 Q500.8198,465.5475 502.1323,463.8913 Q503.4604,462.235 505.9604,462.235 Q506.6636,462.235 507.3042,462.3913 Q507.9604,462.5475 508.5229,462.8444 L508.5229,465.5631 Q507.8979,464.985 507.3042,464.7194 Q506.7104,464.4381 506.0854,464.4381 Q504.7417,464.4381 504.0542,465.5163 Q503.3667,466.5788 503.3667,468.6725 Q503.3667,470.7663 504.0542,471.8444 Q504.7417,472.9069 506.0854,472.9069 Q506.7104,472.9069 507.3042,472.6413 Q507.8979,472.36 508.5229,471.7819 L508.5229,474.5006 Z " fill="#000000"/><text fill="#000000" font-family="sans-serif" font-size="14" lengthAdjust="spacing" textLength="34.166" x="526.0542" y="473.7067">Spell</text><line style="stroke:#181818;stroke-width:0.5;" x1="438" x2="615.7744" y1="484.86" y2="484.86"/><line style="stroke:#181818;stroke-width:0.5;" x1="438" x2="615.7744" y1="492.86" y2="492.86"/><g data-visibility-modifier="PUBLIC_METHOD"><ellipse cx="448" cy="506.5084" fill="#84BE84" rx="3" ry="3" style="stroke:#038048;stroke-width:1;"/></g><text fill="#000000" font-family="sans-serif" font-size="14" lengthAdjust="spacing" textLength="153.7744" x="457" y="509.8551">attack(character) : int</text></g><!--class Ability--><g class="entity" data-qualified-name="Ability" data-source-line="27" id="ent0009"><rect fill="#F1F1F1" height="64.2969" rx="2.5" ry="2.5" style="stroke:#181818;stroke-width:0.5;" width="128.7441" x="693.52" y="311.26"/><ellipse cx="732.2966" cy="327.26" fill="#A9DCDF" rx="11" ry="11" style="stroke:#181818;stroke-width:1;"/><path d="M732.406,322.6038 L731.2497,327.6819 L733.5779,327.6819 L732.406,322.6038 Z M730.9216,320.3694 L733.906,320.3694 L737.2654,332.76 L734.8122,332.76 L734.0466,329.6975 L730.7654,329.6975 L730.0154,332.76 L727.5779,332.76 L730.9216,320.3694 Z " fill="#000000"/><text fill="#000000" font-family="sans-serif" font-size="14" font-style="italic" lengthAdjust="spacing" textLength="43.9072" x="751.5803" y="332.1067">Ability</text><line style="stroke:#181818;stroke-width:0.5;" x1="694.52" x2="821.2641" y1="343.26" y2="343.26"/><line style="stroke:#181818;stroke-width:0.5;" x1="694.52" x2="821.2641" y1="351.26" y2="351.26"/><g data-visibility-modifier="PUBLIC_METHOD"><ellipse cx="704.52" cy="364.9084" fill="#84BE84" rx="3" ry="3" style="stroke:#038048;stroke-width:1;"/></g><text fill="#000000" font-family="sans-serif" font-size="14" lengthAdjust="spacing" textLength="102.7441" x="713.52" y="368.2551">use(character)</text></g><!--class Recover--><g class="entity" data-qualified-name="Recover" data-source-line="31" id="ent0010"><rect fill="#F1F1F1" height="96.8906" rx="2.5" ry="2.5" style="stroke:#181818;stroke-width:0.5;" width="212.5732" x="651.6" y="436.56"/><ellipse cx="725.0077" cy="452.56" fill="#ADD1B2" rx="11" ry="11" style="stroke:#181818;stroke-width:1;"/><path d="M727.9765,458.2006 Q727.3983,458.4975 726.7577,458.6381 Q726.1171,458.7944 725.414,458.7944 Q722.914,458.7944 721.5858,457.1538 Q720.2733,455.4975 720.2733,452.3725 Q720.2733,449.2475 721.5858,447.5913 Q722.914,445.935 725.414,445.935 Q726.1171,445.935 726.7577,446.0913 Q727.414,446.2475 727.9765,446.5444 L727.9765,449.2631 Q727.3515,448.685 726.7577,448.4194 Q726.164,448.1381 725.539,448.1381 Q724.1952,448.1381 723.5077,449.2163 Q722.8202,450.2788 722.8202,452.3725 Q722.8202,454.4663 723.5077,455.5444 Q724.1952,456.6069 725.539,456.6069 Q726.164,456.6069 726.7577,456.3413 Q727.3515,456.06 727.9765,455.4819 L727.9765,458.2006 Z " fill="#000000"/><text fill="#000000" font-family="sans-serif" font-size="14" lengthAdjust="spacing" textLength="57.2578" x="745.5077" y="457.4067">Recover</text><line style="stroke:#181818;stroke-width:0.5;" x1="652.6" x2="863.1732" y1="468.56" y2="468.56"/><g data-visibility-modifier="PRIVATE_FIELD"><rect fill="none" height="6" style="stroke:#C82930;stroke-width:1;" width="6" x="659.6" y="479.2084"/></g><text fill="#000000" font-family="sans-serif" font-size="14" lengthAdjust="spacing" textLength="122.8418" x="671.6" y="485.5551">heal_amount : int</text><line style="stroke:#181818;stroke-width:0.5;" x1="652.6" x2="863.1732" y1="492.8569" y2="492.8569"/><g data-visibility-modifier="PUBLIC_METHOD"><ellipse cx="662.6" cy="506.5053" fill="#84BE84" rx="3" ry="3" style="stroke:#038048;stroke-width:1;"/></g><text fill="#000000" font-family="sans-serif" font-size="14" lengthAdjust="spacing" textLength="186.5732" x="671.6" y="509.852">Recover(heal_amount: int)</text><g data-visibility-modifier="PUBLIC_METHOD"><ellipse cx="662.6" cy="522.8022" fill="#84BE84" rx="3" ry="3" style="stroke:#038048;stroke-width:1;"/></g><text fill="#000000" font-family="sans-serif" font-size="14" lengthAdjust="spacing" textLength="102.7441" x="671.6" y="526.1489">use(character)</text></g><!--class IncreaseRange--><g class="entity" data-qualified-name="IncreaseRange" data-source-line="37" id="ent0011"><rect fill="#F1F1F1" height="96.8906" rx="2.5" ry="2.5" style="stroke:#181818;stroke-width:0.5;" width="288.9102" x="899.43" y="436.56"/><ellipse cx="987.5179" cy="452.56" fill="#ADD1B2" rx="11" ry="11" style="stroke:#181818;stroke-width:1;"/><path d="M990.4866,458.2006 Q989.9085,458.4975 989.2679,458.6381 Q988.6273,458.7944 987.9241,458.7944 Q985.4241,458.7944 984.096,457.1538 Q982.7835,455.4975 982.7835,452.3725 Q982.7835,449.2475 984.096,447.5913 Q985.4241,445.935 987.9241,445.935 Q988.6273,445.935 989.2679,446.0913 Q989.9241,446.2475 990.4866,446.5444 L990.4866,449.2631 Q989.8616,448.685 989.2679,448.4194 Q988.6741,448.1381 988.0491,448.1381 Q986.7054,448.1381 986.0179,449.2163 Q985.3304,450.2788 985.3304,452.3725 Q985.3304,454.4663 986.0179,455.5444 Q986.7054,456.6069 988.0491,456.6069 Q988.6741,456.6069 989.2679,456.3413 Q989.8616,456.06 990.4866,455.4819 L990.4866,458.2006 Z " fill="#000000"/><text fill="#000000" font-family="sans-serif" font-size="14" lengthAdjust="spacing" textLength="104.2344" x="1008.0179" y="457.4067">IncreaseRange</text><line style="stroke:#181818;stroke-width:0.5;" x1="900.43" x2="1187.3402" y1="468.56" y2="468.56"/><g data-visibility-modifier="PRIVATE_FIELD"><rect fill="none" height="6" style="stroke:#C82930;stroke-width:1;" width="6" x="907.43" y="479.2084"/></g><text fill="#000000" font-family="sans-serif" font-size="14" lengthAdjust="spacing" textLength="152.2021" x="919.43" y="485.5551">increase_amount : int</text><line style="stroke:#181818;stroke-width:0.5;" x1="900.43" x2="1187.3402" y1="492.8569" y2="492.8569"/><g data-visibility-modifier="PUBLIC_METHOD"><ellipse cx="910.43" cy="506.5053" fill="#84BE84" rx="3" ry="3" style="stroke:#038048;stroke-width:1;"/></g><text fill="#000000" font-family="sans-serif" font-size="14" lengthAdjust="spacing" textLength="262.9102" x="919.43" y="509.852">IncreaseRange(increase_amount: int)</text><g data-visibility-modifier="PUBLIC_METHOD"><ellipse cx="910.43" cy="522.8022" fill="#84BE84" rx="3" ry="3" style="stroke:#038048;stroke-width:1;"/></g><text fill="#000000" font-family="sans-serif" font-size="14" lengthAdjust="spacing" textLength="102.7441" x="919.43" y="526.1489">use(character)</text></g><!--class Character--><g class="entity" data-qualified-name="Character" data-source-line="49" id="ent0014"><rect fill="#F1F1F1" height="227.2656" rx="2.5" ry="2.5" style="stroke:#181818;stroke-width:0.5;" width="673.4795" x="599.15" y="7"/><ellipse cx="897.0807" cy="23" fill="#ADD1B2" rx="11" ry="11" style="stroke:#181818;stroke-width:1;"/><path d="M900.0494,28.6406 Q899.4713,28.9375 898.8307,29.0781 Q898.19,29.2344 897.4869,29.2344 Q894.9869,29.2344 893.6588,27.5938 Q892.3463,25.9375 892.3463,22.8125 Q892.3463,19.6875 893.6588,18.0313 Q894.9869,16.375 897.4869,16.375 Q898.19,16.375 898.8307,16.5313 Q899.4869,16.6875 900.0494,16.9844 L900.0494,19.7031 Q899.4244,19.125 898.8307,18.8594 Q898.2369,18.5781 897.6119,18.5781 Q896.2682,18.5781 895.5807,19.6563 Q894.8932,20.7188 894.8932,22.8125 Q894.8932,24.9063 895.5807,25.9844 Q896.2682,27.0469 897.6119,27.0469 Q898.2369,27.0469 898.8307,26.7813 Q899.4244,26.5 900.0494,25.9219 L900.0494,28.6406 Z " fill="#000000"/><text fill="#000000" font-family="sans-serif" font-size="14" lengthAdjust="spacing" textLength="69.1182" x="917.5807" y="27.8467">Character</text><line style="stroke:#181818;stroke-width:0.5;" x1="600.15" x2="1271.6295" y1="39" y2="39"/><g data-visibility-modifier="PUBLIC_FIELD"><ellipse cx="610.15" cy="52.6484" fill="none" rx="3" ry="3" style="stroke:#038048;stroke-width:1;"/></g><text fill="#000000" font-family="sans-serif" font-size="14" lengthAdjust="spacing" textLength="71.8594" x="619.15" y="55.9951">name : str</text><g data-visibility-modifier="PUBLIC_FIELD"><ellipse cx="610.15" cy="68.9453" fill="none" rx="3" ry="3" style="stroke:#038048;stroke-width:1;"/></g><text fill="#000000" font-family="sans-serif" font-size="14" lengthAdjust="spacing" textLength="76.1865" x="619.15" y="72.292">health : int</text><g data-visibility-modifier="PUBLIC_FIELD"><ellipse cx="610.15" cy="85.2422" fill="none" rx="3" ry="3" style="stroke:#038048;stroke-width:1;"/></g><text fill="#000000" font-family="sans-serif" font-size="14" lengthAdjust="spacing" textLength="75.1406" x="619.15" y="88.5889">power : int</text><g data-visibility-modifier="PUBLIC_FIELD"><ellipse cx="610.15" cy="101.5391" fill="none" rx="3" ry="3" style="stroke:#038048;stroke-width:1;"/></g><text fill="#000000" font-family="sans-serif" font-size="14" lengthAdjust="spacing" textLength="123.5186" x="619.15" y="104.8857">attack_range : int</text><g data-visibility-modifier="PUBLIC_FIELD"><ellipse cx="610.15" cy="117.8359" fill="none" rx="3" ry="3" style="stroke:#038048;stroke-width:1;"/></g><text fill="#000000" font-family="sans-serif" font-size="14" lengthAdjust="spacing" textLength="162.0596" x="619.15" y="121.1826">distance_to_target : int</text><text fill="#000000" font-family="sans-serif" font-size="14" lengthAdjust="spacing" textLength="4.4502" x="619.15" y="137.4795">&#160;</text><g data-visibility-modifier="PRIVATE_FIELD"><rect fill="none" height="6" style="stroke:#C82930;stroke-width:1;" width="6" x="607.15" y="147.4297"/></g><text fill="#000000" font-family="sans-serif" font-size="14" lengthAdjust="spacing" textLength="109.498" x="619.15" y="153.7764">_attack : Attack</text><g data-visibility-modifier="PRIVATE_FIELD"><rect fill="none" height="6" style="stroke:#C82930;stroke-width:1;" width="6" x="607.15" y="163.7266"/></g><text fill="#000000" font-family="sans-serif" font-size="14" lengthAdjust="spacing" textLength="107.4336" x="619.15" y="170.0732">_ability : Ability</text><line style="stroke:#181818;stroke-width:0.5;" x1="600.15" x2="1271.6295" y1="177.375" y2="177.375"/><g data-visibility-modifier="PUBLIC_METHOD"><ellipse cx="610.15" cy="191.0234" fill="#84BE84" rx="3" ry="3" style="stroke:#038048;stroke-width:1;"/></g><text fill="#000000" font-family="sans-serif" font-size="14" lengthAdjust="spacing" textLength="647.4795" x="619.15" y="194.3701">Character(name: str, health: int, power: int, attack_range: int, attack: Attack, ability: Ability)</text><g data-visibility-modifier="PUBLIC_METHOD"><ellipse cx="610.15" cy="207.3203" fill="#84BE84" rx="3" ry="3" style="stroke:#038048;stroke-width:1;"/></g><text fill="#000000" font-family="sans-serif" font-size="14" lengthAdjust="spacing" textLength="149.8779" x="619.15" y="210.667">perform_attack() : int</text><g data-visibility-modifier="PUBLIC_METHOD"><ellipse cx="610.15" cy="223.6172" fill="#84BE84" rx="3" ry="3" style="stroke:#038048;stroke-width:1;"/></g><text fill="#000000" font-family="sans-serif" font-size="14" lengthAdjust="spacing" textLength="85.6133" x="619.15" y="226.9639">use_ability()</text></g><!--class Warrior--><g class="entity" data-qualified-name="Warrior" data-source-line="70" id="ent0017"><rect fill="#F1F1F1" height="64.2969" rx="2.5" ry="2.5" style="stroke:#181818;stroke-width:0.5;" width="156.4775" x="857.65" y="311.26"/><ellipse cx="905.5665" cy="327.26" fill="#ADD1B2" rx="11" ry="11" style="stroke:#181818;stroke-width:1;"/><path d="M908.5353,332.9006 Q907.9571,333.1975 907.3165,333.3381 Q906.6759,333.4944 905.9728,333.4944 Q903.4728,333.4944 902.1446,331.8538 Q900.8321,330.1975 900.8321,327.0725 Q900.8321,323.9475 902.1446,322.2913 Q903.4728,320.635 905.9728,320.635 Q906.6759,320.635 907.3165,320.7913 Q907.9728,320.9475 908.5353,321.2444 L908.5353,323.9631 Q907.9103,323.385 907.3165,323.1194 Q906.7228,322.8381 906.0978,322.8381 Q904.754,322.8381 904.0665,323.9163 Q903.379,324.9788 903.379,327.0725 Q903.379,329.1663 904.0665,330.2444 Q904.754,331.3069 906.0978,331.3069 Q906.7228,331.3069 907.3165,331.0413 Q907.9103,330.76 908.5353,330.1819 L908.5353,332.9006 Z " fill="#000000"/><text fill="#000000" font-family="sans-serif" font-size="14" lengthAdjust="spacing" textLength="52.1445" x="926.0665" y="332.1067">Warrior</text><line style="stroke:#181818;stroke-width:0.5;" x1="858.65" x2="1013.1275" y1="343.26" y2="343.26"/><line style="stroke:#181818;stroke-width:0.5;" x1="858.65" x2="1013.1275" y1="351.26" y2="351.26"/><g data-visibility-modifier="PUBLIC_METHOD"><ellipse cx="868.65" cy="364.9084" fill="#84BE84" rx="3" ry="3" style="stroke:#038048;stroke-width:1;"/></g><text fill="#000000" font-family="sans-serif" font-size="14" lengthAdjust="spacing" textLength="130.4775" x="877.65" y="368.2551">Warrior(name: str)</text></g><!--class Archer--><g class="entity" data-qualified-name="Archer" data-source-line="74" id="ent0018"><rect fill="#F1F1F1" height="64.2969" rx="2.5" ry="2.5" style="stroke:#181818;stroke-width:0.5;" width="150.6055" x="1049.58" y="311.26"/><ellipse cx="1097.4965" cy="327.26" fill="#ADD1B2" rx="11" ry="11" style="stroke:#181818;stroke-width:1;"/><path d="M1100.4653,332.9006 Q1099.8871,333.1975 1099.2465,333.3381 Q1098.6059,333.4944 1097.9028,333.4944 Q1095.4028,333.4944 1094.0746,331.8538 Q1092.7621,330.1975 1092.7621,327.0725 Q1092.7621,323.9475 1094.0746,322.2913 Q1095.4028,320.635 1097.9028,320.635 Q1098.6059,320.635 1099.2465,320.7913 Q1099.9028,320.9475 1100.4653,321.2444 L1100.4653,323.9631 Q1099.8403,323.385 1099.2465,323.1194 Q1098.6528,322.8381 1098.0278,322.8381 Q1096.684,322.8381 1095.9965,323.9163 Q1095.309,324.9788 1095.309,327.0725 Q1095.309,329.1663 1095.9965,330.2444 Q1096.684,331.3069 1098.0278,331.3069 Q1098.6528,331.3069 1099.2465,331.0413 Q1099.8403,330.76 1100.4653,330.1819 L1100.4653,332.9006 Z " fill="#000000"/><text fill="#000000" font-family="sans-serif" font-size="14" lengthAdjust="spacing" textLength="46.2725" x="1117.9965" y="332.1067">Archer</text><line style="stroke:#181818;stroke-width:0.5;" x1="1050.58" x2="1199.1855" y1="343.26" y2="343.26"/><line style="stroke:#181818;stroke-width:0.5;" x1="1050.58" x2="1199.1855" y1="351.26" y2="351.26"/><g data-visibility-modifier="PUBLIC_METHOD"><ellipse cx="1060.58" cy="364.9084" fill="#84BE84" rx="3" ry="3" style="stroke:#038048;stroke-width:1;"/></g><text fill="#000000" font-family="sans-serif" font-size="14" lengthAdjust="spacing" textLength="124.6055" x="1069.58" y="368.2551">Archer(name: str)</text></g><!--class Mage--><g class="entity" data-qualified-name="Mage" data-source-line="78" id="ent0019"><rect fill="#F1F1F1" height="64.2969" rx="2.5" ry="2.5" style="stroke:#181818;stroke-width:0.5;" width="142.4912" x="1235.64" y="311.26"/><ellipse cx="1283.5565" cy="327.26" fill="#ADD1B2" rx="11" ry="11" style="stroke:#181818;stroke-width:1;"/><path d="M1286.5253,332.9006 Q1285.9471,333.1975 1285.3065,333.3381 Q1284.6659,333.4944 1283.9628,333.4944 Q1281.4628,333.4944 1280.1346,331.8538 Q1278.8221,330.1975 1278.8221,327.0725 Q1278.8221,323.9475 1280.1346,322.2913 Q1281.4628,320.635 1283.9628,320.635 Q1284.6659,320.635 1285.3065,320.7913 Q1285.9628,320.9475 1286.5253,321.2444 L1286.5253,323.9631 Q1285.9003,323.385 1285.3065,323.1194 Q1284.7128,322.8381 1284.0878,322.8381 Q1282.744,322.8381 1282.0565,323.9163 Q1281.369,324.9788 1281.369,327.0725 Q1281.369,329.1663 1282.0565,330.2444 Q1282.744,331.3069 1284.0878,331.3069 Q1284.7128,331.3069 1285.3065,331.0413 Q1285.9003,330.76 1286.5253,330.1819 L1286.5253,332.9006 Z " fill="#000000"/><text fill="#000000" font-family="sans-serif" font-size="14" lengthAdjust="spacing" textLength="38.1582" x="1304.0565" y="332.1067">Mage</text><line style="stroke:#181818;stroke-width:0.5;" x1="1236.64" x2="1377.1312" y1="343.26" y2="343.26"/><line style="stroke:#181818;stroke-width:0.5;" x1="1236.64" x2="1377.1312" y1="351.26" y2="351.26"/><g data-visibility-modifier="PUBLIC_METHOD"><ellipse cx="1246.64" cy="364.9084" fill="#84BE84" rx="3" ry="3" style="stroke:#038048;stroke-width:1;"/></g><text fill="#000000" font-family="sans-serif" font-size="14" lengthAdjust="spacing" textLength="116.4912" x="1255.64" y="368.2551">Mage(name: str)</text></g><!--reverse link Attack to Sword--><g class="link" data-entity-1="ent0002" data-entity-2="ent0003" data-link-type="extension" data-source-line="20" id="lnk6"><path codeLine="20" d="M329.1363,383.0893 C287.6663,400.7993 251.64,416.27 204.89,436.56 C193.15,441.65 180.7,447.09 168.59,452.4" fill="none" id="Attack-backto-Sword" style="stroke:#181818;stroke-width:1;"/><polygon fill="none" points="345.69,376.02,326.7799,377.5715,331.4928,388.6072,345.69,376.02" style="stroke:#181818;stroke-width:1;"/></g><!--reverse link Attack to Bow--><g class="link" data-entity-1="ent0002" data-entity-2="ent0004" data-link-type="extension" data-source-line="21" id="lnk7"><path codeLine="21" d="M384.6343,389.9756 C366.8443,412.9656 353.81,429.82 336.04,452.78" fill="none" id="Attack-backto-Bow" style="stroke:#181818;stroke-width:1;"/><polygon fill="none" points="395.65,375.74,379.889,386.3037,389.3795,393.6476,395.65,375.74" style="stroke:#181818;stroke-width:1;"/></g><!--reverse link Attack to Spell--><g class="link" data-entity-1="ent0002" data-entity-2="ent0005" data-link-type="extension" data-source-line="22" id="lnk8"><path codeLine="22" d="M454.8495,390.0266 C472.4695,413.0166 485.35,429.82 502.95,452.78" fill="none" id="Attack-backto-Spell" style="stroke:#181818;stroke-width:1;"/><polygon fill="none" points="443.9,375.74,450.0873,393.6765,459.6118,386.3768,443.9,375.74" style="stroke:#181818;stroke-width:1;"/></g><!--reverse link Ability to Recover--><g class="link" data-entity-1="ent0009" data-entity-2="ent0010" data-link-type="extension" data-source-line="43" id="lnk12"><path codeLine="43" d="M757.89,393.74 C757.89,411.58 757.89,416.31 757.89,436.33" fill="none" id="Ability-backto-Recover" style="stroke:#181818;stroke-width:1;"/><polygon fill="none" points="757.89,375.74,751.89,393.74,763.89,393.74,757.89,375.74" style="stroke:#181818;stroke-width:1;"/></g><!--reverse link Ability to IncreaseRange--><g class="link" data-entity-1="ent0009" data-entity-2="ent0011" data-link-type="extension" data-source-line="44" id="lnk13"><path codeLine="44" d="M838.6063,383.8049 C875.0163,401.5749 905.08,416.25 945.88,436.17" fill="none" id="Ability-backto-IncreaseRange" style="stroke:#181818;stroke-width:1;"/><polygon fill="none" points="822.43,375.91,835.9746,389.1969,841.2379,378.4128,822.43,375.91" style="stroke:#181818;stroke-width:1;"/></g><!--link Character to Attack--><g class="link" data-entity-1="ent0014" data-entity-2="ent0002" data-link-type="dependency" data-source-line="64" id="lnk15"><path codeLine="64" d="M671.84,234.61 C606.26,262.67 546.7064,288.1501 499.1364,308.5001" fill="none" id="Character-to-Attack" style="stroke:#181818;stroke-width:1;"/><polygon fill="#181818" points="493.62,310.86,503.4679,310.9978,498.217,308.8934,500.3214,303.6426,493.62,310.86" style="stroke:#181818;stroke-width:1;"/><text fill="#000000" font-family="sans-serif" font-size="13" lengthAdjust="spacing" textLength="29.7832" x="602.89" y="277.3269">uses</text></g><!--link Character to Ability--><g class="link" data-entity-1="ent0014" data-entity-2="ent0009" data-link-type="dependency" data-source-line="65" id="lnk16"><path codeLine="65" d="M844.8,234.61 C822.05,262.83 803.246,286.1491 786.806,306.5391" fill="none" id="Character-to-Ability" style="stroke:#181818;stroke-width:1;"/><polygon fill="#181818" points="783.04,311.21,791.803,306.7144,786.1784,307.3176,785.5751,301.693,783.04,311.21" style="stroke:#181818;stroke-width:1;"/><text fill="#000000" font-family="sans-serif" font-size="13" lengthAdjust="spacing" textLength="29.7832" x="821.89" y="277.3269">uses</text></g><!--reverse link Character to Warrior--><g class="link" data-entity-1="ent0014" data-entity-2="ent0017" data-link-type="extension" data-source-line="82" id="lnk20"><path codeLine="82" d="M935.89,252.61 C935.89,280.83 935.89,290.82 935.89,311.21" fill="none" id="Character-backto-Warrior" style="stroke:#181818;stroke-width:1;"/><polygon fill="none" points="935.89,234.61,929.89,252.61,941.89,252.61,935.89,234.61" style="stroke:#181818;stroke-width:1;"/></g><!--reverse link Character to Archer--><g class="link" data-entity-1="ent0014" data-entity-2="ent0018" data-link-type="extension" data-source-line="83" id="lnk21"><path codeLine="83" d="M1044.3063,248.2835 C1068.4663,276.5035 1080.73,290.82 1098.18,311.21" fill="none" id="Character-backto-Archer" style="stroke:#181818;stroke-width:1;"/><polygon fill="none" points="1032.6,234.61,1039.7484,252.1855,1048.8641,244.3814,1032.6,234.61" style="stroke:#181818;stroke-width:1;"/></g><!--reverse link Character to Mage--><g class="link" data-entity-1="ent0014" data-entity-2="ent0019" data-link-type="extension" data-source-line="84" id="lnk22"><path codeLine="84" d="M1141.1994,243.8131 C1188.4494,271.9231 1219.85,290.61 1254.07,310.98" fill="none" id="Character-backto-Mage" style="stroke:#181818;stroke-width:1;"/><polygon fill="none" points="1125.73,234.61,1138.1317,248.9696,1144.2671,238.6566,1125.73,234.61" style="stroke:#181818;stroke-width:1;"/></g><?plantuml-src dLJHJeCm57tdA_esbeqVM8n9HuWkJas0nEo9T5qTH4QNqhaOzTyjxQLGChSfJzpJS-yzzzp220Md7s-4S9hYy04bQOpJw6wbaD-uP5rBGQX4j2HrZR2KXBwXJm-fPuA83dsQauR3n1ZDK559xzlp33yvSh6vdZxdnp_KthEol8OEec--Wi08SX3LqsKqPRqpbYZxvelb8btznxzrKHRomwe-rAmdkPijPfI_Cm6y0EMCb1dPyKCbOIwJ3po_TwwFnnVgBoeg6AbPJAejirqAG4zrSZBy0VD2ptPgxIz8Ta6d-ddpmtiSup2DOZJ7IOJ29KwICmbcth3LOvslo8wf0TLs06WibBapyvuVLKOVCRSi4zgs_i6cg2MfACiapoGHMzQw1zPc9bE1vgvP65oOjLV3Wu9MiTyerKAde54NdXfryDxNvK1jFnMR-hPHkwuz4wzSx42WFtR6EZGhDdnVhx8pCWXksz_1hE7LmpCxcJuylzFdfp2EqgXRxkMLlX0X2juj5EBEhjvrnuBclTsRy2JpaTZlOQA30QkRKTzRQ3g4JOCXsfJx0G00?></g></svg>