<svg xmlns="http://www.w3.org/2000/svg" xmlns:xlink="http://www.w3.org/1999/xlink" contentStyleType="text/css" data-diagram-type="CLASS" height="418px" preserveAspectRatio="none" style="width:1529px;height:418px;background:#FFFFFF;" version="1.1" viewBox="0 0 1529 418" width="1529px" zoomAndPan="magnify"><?plantuml 1.2026.4beta2?><defs/><g><!--class Applicant--><g class="entity" data-qualified-name="Applicant" data-source-line="4" id="ent0002"><rect fill="#F1F1F1" height="113.1875" rx="2.5" ry="2.5" style="stroke:#181818;stroke-width:0.5;" width="196.2354" x="7" y="289.89"/><ellipse cx="67.9834" cy="305.89" fill="#ADD1B2" rx="11" ry="11" style="stroke:#181818;stroke-width:1;"/><path d="M70.9521,311.5306 Q70.374,311.8275 69.7334,311.9681 Q69.0928,312.1244 68.3896,312.1244 Q65.8896,312.1244 64.5615,310.4838 Q63.249,308.8275 63.249,305.7025 Q63.249,302.5775 64.5615,300.9213 Q65.8896,299.265 68.3896,299.265 Q69.0928,299.265 69.7334,299.4213 Q70.3896,299.5775 70.9521,299.8744 L70.9521,302.5931 Q70.3271,302.015 69.7334,301.7494 Q69.1396,301.4681 68.5146,301.4681 Q67.1709,301.4681 66.4834,302.5463 Q65.7959,303.6088 65.7959,305.7025 Q65.7959,307.7963 66.4834,308.8744 Q67.1709,309.9369 68.5146,309.9369 Q69.1396,309.9369 69.7334,309.6713 Q70.3271,309.39 70.9521,308.8119 L70.9521,311.5306 Z " fill="#000000"/><text fill="#000000" font-family="sans-serif" font-size="14" lengthAdjust="spacing" textLength="65.7686" x="88.4834" y="310.7367">Applicant</text><line style="stroke:#181818;stroke-width:0.5;" x1="8" x2="202.2354" y1="321.89" y2="321.89"/><g data-visibility-modifier="PUBLIC_FIELD"><ellipse cx="18" cy="335.5384" fill="none" rx="3" ry="3" style="stroke:#038048;stroke-width:1;"/></g><text fill="#000000" font-family="sans-serif" font-size="14" lengthAdjust="spacing" textLength="131.5439" x="27" y="338.8851">loan_amount: float</text><g data-visibility-modifier="PUBLIC_FIELD"><ellipse cx="18" cy="351.8353" fill="none" rx="3" ry="3" style="stroke:#038048;stroke-width:1;"/></g><text fill="#000000" font-family="sans-serif" font-size="14" lengthAdjust="spacing" textLength="112.6768" x="27" y="355.182">credit_score: int</text><g data-visibility-modifier="PUBLIC_FIELD"><ellipse cx="18" cy="368.1322" fill="none" rx="3" ry="3" style="stroke:#038048;stroke-width:1;"/></g><text fill="#000000" font-family="sans-serif" font-size="14" lengthAdjust="spacing" textLength="170.2354" x="27" y="371.4789">suspicious_activity: bool</text><line style="stroke:#181818;stroke-width:0.5;" x1="8" x2="202.2354" y1="378.7806" y2="378.7806"/><g data-visibility-modifier="PUBLIC_METHOD"><ellipse cx="18" cy="392.4291" fill="#84BE84" rx="3" ry="3" style="stroke:#038048;stroke-width:1;"/></g><text fill="#000000" font-family="sans-serif" font-size="14" lengthAdjust="spacing" textLength="137.0947" x="27" y="395.7757">__post_init__(): void</text></g><!--class Rule--><g class="entity" data-qualified-name="Rule" data-source-line="14" id="ent0003"><rect fill="#F1F1F1" height="64.2969" rx="2.5" ry="2.5" style="stroke:#181818;stroke-width:0.5;" width="292.752" x="565.74" y="148.6"/><ellipse cx="692.3142" cy="164.6" fill="#A9DCDF" rx="11" ry="11" style="stroke:#181818;stroke-width:1;"/><path d="M692.4236,159.9438 L691.2673,165.0219 L693.5955,165.0219 L692.4236,159.9438 Z M690.9392,157.7094 L693.9236,157.7094 L697.283,170.1 L694.8298,170.1 L694.0642,167.0375 L690.783,167.0375 L690.033,170.1 L687.5955,170.1 L690.9392,157.7094 Z " fill="#000000"/><text fill="#000000" font-family="sans-serif" font-size="14" font-style="italic" lengthAdjust="spacing" textLength="31.1035" x="712.8142" y="169.4467">Rule</text><line style="stroke:#181818;stroke-width:0.5;" x1="566.74" x2="857.492" y1="180.6" y2="180.6"/><line style="stroke:#181818;stroke-width:0.5;" x1="566.74" x2="857.492" y1="188.6" y2="188.6"/><g data-visibility-modifier="PUBLIC_METHOD"><ellipse cx="576.74" cy="202.2484" fill="#84BE84" rx="3" ry="3" style="stroke:#038048;stroke-width:1;"/></g><text fill="#000000" font-family="sans-serif" font-size="14" lengthAdjust="spacing" textLength="266.752" x="585.74" y="205.5951">is_satisfied(applicant: Applicant): bool</text></g><!--class LoanAmountRule--><g class="entity" data-qualified-name="LoanAmountRule" data-source-line="18" id="ent0004"><rect fill="#F1F1F1" height="96.8906" rx="2.5" ry="2.5" style="stroke:#181818;stroke-width:0.5;" width="292.752" x="237.74" y="298.04"/><ellipse cx="319.8977" cy="314.04" fill="#ADD1B2" rx="11" ry="11" style="stroke:#181818;stroke-width:1;"/><path d="M322.8665,319.6806 Q322.2883,319.9775 321.6477,320.1181 Q321.0071,320.2744 320.304,320.2744 Q317.804,320.2744 316.4758,318.6337 Q315.1633,316.9775 315.1633,313.8525 Q315.1633,310.7275 316.4758,309.0712 Q317.804,307.415 320.304,307.415 Q321.0071,307.415 321.6477,307.5712 Q322.304,307.7275 322.8665,308.0244 L322.8665,310.7431 Q322.2415,310.165 321.6477,309.8994 Q321.054,309.6181 320.429,309.6181 Q319.0852,309.6181 318.3977,310.6962 Q317.7102,311.7587 317.7102,313.8525 Q317.7102,315.9462 318.3977,317.0244 Q319.0852,318.0869 320.429,318.0869 Q321.054,318.0869 321.6477,317.8212 Q322.2415,317.54 322.8665,316.9619 L322.8665,319.6806 Z " fill="#000000"/><text fill="#000000" font-family="sans-serif" font-size="14" lengthAdjust="spacing" textLength="119.9365" x="340.3977" y="318.8867">LoanAmountRule</text><line style="stroke:#181818;stroke-width:0.5;" x1="238.74" x2="529.492" y1="330.04" y2="330.04"/><g data-visibility-modifier="PUBLIC_FIELD"><ellipse cx="248.74" cy="343.6884" fill="none" rx="3" ry="3" style="stroke:#038048;stroke-width:1;"/></g><text fill="#000000" font-family="sans-serif" font-size="14" lengthAdjust="spacing" textLength="132.1387" x="257.74" y="347.0351">max_amount: float</text><line style="stroke:#181818;stroke-width:0.5;" x1="238.74" x2="529.492" y1="354.3369" y2="354.3369"/><g data-visibility-modifier="PUBLIC_METHOD"><ellipse cx="248.74" cy="367.9853" fill="#84BE84" rx="3" ry="3" style="stroke:#038048;stroke-width:1;"/></g><text fill="#000000" font-family="sans-serif" font-size="14" lengthAdjust="spacing" textLength="137.0947" x="257.74" y="371.332">__post_init__(): void</text><g data-visibility-modifier="PUBLIC_METHOD"><ellipse cx="248.74" cy="384.2822" fill="#84BE84" rx="3" ry="3" style="stroke:#038048;stroke-width:1;"/></g><text fill="#000000" font-family="sans-serif" font-size="14" lengthAdjust="spacing" textLength="266.752" x="257.74" y="387.6289">is_satisfied(applicant: Applicant): bool</text></g><!--class CreditScoreRule--><g class="entity" data-qualified-name="CreditScoreRule" data-source-line="19" id="ent0006"><rect fill="#F1F1F1" height="96.8906" rx="2.5" ry="2.5" style="stroke:#181818;stroke-width:0.5;" width="292.752" x="565.74" y="298.04"/><ellipse cx="651.3499" cy="314.04" fill="#ADD1B2" rx="11" ry="11" style="stroke:#181818;stroke-width:1;"/><path d="M654.3186,319.6806 Q653.7405,319.9775 653.0999,320.1181 Q652.4592,320.2744 651.7561,320.2744 Q649.2561,320.2744 647.928,318.6337 Q646.6155,316.9775 646.6155,313.8525 Q646.6155,310.7275 647.928,309.0712 Q649.2561,307.415 651.7561,307.415 Q652.4592,307.415 653.0999,307.5712 Q653.7561,307.7275 654.3186,308.0244 L654.3186,310.7431 Q653.6936,310.165 653.0999,309.8994 Q652.5061,309.6181 651.8811,309.6181 Q650.5374,309.6181 649.8499,310.6962 Q649.1624,311.7587 649.1624,313.8525 Q649.1624,315.9462 649.8499,317.0244 Q650.5374,318.0869 651.8811,318.0869 Q652.5061,318.0869 653.0999,317.8212 Q653.6936,317.54 654.3186,316.9619 L654.3186,319.6806 Z " fill="#000000"/><text fill="#000000" font-family="sans-serif" font-size="14" lengthAdjust="spacing" textLength="113.0322" x="671.8499" y="318.8867">CreditScoreRule</text><line style="stroke:#181818;stroke-width:0.5;" x1="566.74" x2="857.492" y1="330.04" y2="330.04"/><g data-visibility-modifier="PUBLIC_FIELD"><ellipse cx="576.74" cy="343.6884" fill="none" rx="3" ry="3" style="stroke:#038048;stroke-width:1;"/></g><text fill="#000000" font-family="sans-serif" font-size="14" lengthAdjust="spacing" textLength="98.7451" x="585.74" y="347.0351">min_score: int</text><line style="stroke:#181818;stroke-width:0.5;" x1="566.74" x2="857.492" y1="354.3369" y2="354.3369"/><g data-visibility-modifier="PUBLIC_METHOD"><ellipse cx="576.74" cy="367.9853" fill="#84BE84" rx="3" ry="3" style="stroke:#038048;stroke-width:1;"/></g><text fill="#000000" font-family="sans-serif" font-size="14" lengthAdjust="spacing" textLength="137.0947" x="585.74" y="371.332">__post_init__(): void</text><g data-visibility-modifier="PUBLIC_METHOD"><ellipse cx="576.74" cy="384.2822" fill="#84BE84" rx="3" ry="3" style="stroke:#038048;stroke-width:1;"/></g><text fill="#000000" font-family="sans-serif" font-size="14" lengthAdjust="spacing" textLength="266.752" x="585.74" y="387.6289">is_satisfied(applicant: Applicant): bool</text></g><!--class FraudCheckRule--><g class="entity" data-qualified-name="FraudCheckRule" data-source-line="20" id="ent0008"><rect fill="#F1F1F1" height="64.2969" rx="2.5" ry="2.5" style="stroke:#181818;stroke-width:0.5;" width="292.752" x="893.74" y="314.34"/><ellipse cx="978.7073" cy="330.34" fill="#ADD1B2" rx="11" ry="11" style="stroke:#181818;stroke-width:1;"/><path d="M981.676,335.9806 Q981.0979,336.2775 980.4573,336.4181 Q979.8167,336.5744 979.1135,336.5744 Q976.6135,336.5744 975.2854,334.9338 Q973.9729,333.2775 973.9729,330.1525 Q973.9729,327.0275 975.2854,325.3713 Q976.6135,323.715 979.1135,323.715 Q979.8167,323.715 980.4573,323.8713 Q981.1135,324.0275 981.676,324.3244 L981.676,327.0431 Q981.051,326.465 980.4573,326.1994 Q979.8635,325.9181 979.2385,325.9181 Q977.8948,325.9181 977.2073,326.9963 Q976.5198,328.0588 976.5198,330.1525 Q976.5198,332.2463 977.2073,333.3244 Q977.8948,334.3869 979.2385,334.3869 Q979.8635,334.3869 980.4573,334.1213 Q981.051,333.84 981.676,333.2619 L981.676,335.9806 Z " fill="#000000"/><text fill="#000000" font-family="sans-serif" font-size="14" lengthAdjust="spacing" textLength="114.3174" x="999.2073" y="335.1867">FraudCheckRule</text><line style="stroke:#181818;stroke-width:0.5;" x1="894.74" x2="1185.492" y1="346.34" y2="346.34"/><line style="stroke:#181818;stroke-width:0.5;" x1="894.74" x2="1185.492" y1="354.34" y2="354.34"/><g data-visibility-modifier="PUBLIC_METHOD"><ellipse cx="904.74" cy="367.9884" fill="#84BE84" rx="3" ry="3" style="stroke:#038048;stroke-width:1;"/></g><text fill="#000000" font-family="sans-serif" font-size="14" lengthAdjust="spacing" textLength="266.752" x="913.74" y="371.3351">is_satisfied(applicant: Applicant): bool</text></g><!--class AndSpecification--><g class="entity" data-qualified-name="AndSpecification" data-source-line="21" id="ent0010"><rect fill="#F1F1F1" height="80.5938" rx="2.5" ry="2.5" style="stroke:#181818;stroke-width:0.5;" width="292.752" x="1221.74" y="306.19"/><ellipse cx="1305.2546" cy="322.19" fill="#ADD1B2" rx="11" ry="11" style="stroke:#181818;stroke-width:1;"/><path d="M1308.2234,327.8306 Q1307.6453,328.1275 1307.0046,328.2681 Q1306.364,328.4244 1305.6609,328.4244 Q1303.1609,328.4244 1301.8328,326.7838 Q1300.5203,325.1275 1300.5203,322.0025 Q1300.5203,318.8775 1301.8328,317.2213 Q1303.1609,315.565 1305.6609,315.565 Q1306.364,315.565 1307.0046,315.7213 Q1307.6609,315.8775 1308.2234,316.1744 L1308.2234,318.8931 Q1307.5984,318.315 1307.0046,318.0494 Q1306.4109,317.7681 1305.7859,317.7681 Q1304.4421,317.7681 1303.7546,318.8463 Q1303.0671,319.9088 1303.0671,322.0025 Q1303.0671,324.0963 1303.7546,325.1744 Q1304.4421,326.2369 1305.7859,326.2369 Q1306.4109,326.2369 1307.0046,325.9713 Q1307.5984,325.69 1308.2234,325.1119 L1308.2234,327.8306 Z " fill="#000000"/><text fill="#000000" font-family="sans-serif" font-size="14" lengthAdjust="spacing" textLength="117.2227" x="1325.7546" y="327.0367">AndSpecification</text><line style="stroke:#181818;stroke-width:0.5;" x1="1222.74" x2="1513.492" y1="338.19" y2="338.19"/><g data-visibility-modifier="PRIVATE_FIELD"><rect fill="none" height="6" style="stroke:#C82930;stroke-width:1;" width="6" x="1229.74" y="348.8384"/></g><text fill="#000000" font-family="sans-serif" font-size="14" lengthAdjust="spacing" textLength="92.6201" x="1241.74" y="355.1851">rules: Rule[*]</text><line style="stroke:#181818;stroke-width:0.5;" x1="1222.74" x2="1513.492" y1="362.4869" y2="362.4869"/><g data-visibility-modifier="PUBLIC_METHOD"><ellipse cx="1232.74" cy="376.1353" fill="#84BE84" rx="3" ry="3" style="stroke:#038048;stroke-width:1;"/></g><text fill="#000000" font-family="sans-serif" font-size="14" lengthAdjust="spacing" textLength="266.752" x="1241.74" y="379.482">is_satisfied(applicant: Applicant): bool</text></g><!--class LoanApprovalService--><g class="entity" data-qualified-name="LoanApprovalService" data-source-line="55" id="ent0013"><rect fill="#F1F1F1" height="80.5938" rx="2.5" ry="2.5" style="stroke:#181818;stroke-width:0.5;" width="273.2764" x="38.48" y="7"/><ellipse cx="96.876" cy="23" fill="#ADD1B2" rx="11" ry="11" style="stroke:#181818;stroke-width:1;"/><path d="M99.8447,28.6406 Q99.2666,28.9375 98.626,29.0781 Q97.9854,29.2344 97.2822,29.2344 Q94.7822,29.2344 93.4541,27.5938 Q92.1416,25.9375 92.1416,22.8125 Q92.1416,19.6875 93.4541,18.0313 Q94.7822,16.375 97.2822,16.375 Q97.9854,16.375 98.626,16.5313 Q99.2822,16.6875 99.8447,16.9844 L99.8447,19.7031 Q99.2197,19.125 98.626,18.8594 Q98.0322,18.5781 97.4072,18.5781 Q96.0635,18.5781 95.376,19.6563 Q94.6885,20.7188 94.6885,22.8125 Q94.6885,24.9063 95.376,25.9844 Q96.0635,27.0469 97.4072,27.0469 Q98.0322,27.0469 98.626,26.7813 Q99.2197,26.5 99.8447,25.9219 L99.8447,28.6406 Z " fill="#000000"/><text fill="#000000" font-family="sans-serif" font-size="14" lengthAdjust="spacing" textLength="147.9844" x="117.376" y="27.8467">LoanApprovalService</text><line style="stroke:#181818;stroke-width:0.5;" x1="39.48" x2="310.7564" y1="39" y2="39"/><g data-visibility-modifier="PRIVATE_FIELD"><rect fill="none" height="6" style="stroke:#C82930;stroke-width:1;" width="6" x="46.48" y="49.6484"/></g><text fill="#000000" font-family="sans-serif" font-size="14" lengthAdjust="spacing" textLength="67.4023" x="58.48" y="55.9951">rule: Rule</text><line style="stroke:#181818;stroke-width:0.5;" x1="39.48" x2="310.7564" y1="63.2969" y2="63.2969"/><g data-visibility-modifier="PUBLIC_METHOD"><ellipse cx="49.48" cy="76.9453" fill="#84BE84" rx="3" ry="3" style="stroke:#038048;stroke-width:1;"/></g><text fill="#000000" font-family="sans-serif" font-size="14" lengthAdjust="spacing" textLength="247.2764" x="58.48" y="80.292">approve(applicant: Applicant): bool</text></g><!--reverse link Rule to LoanAmountRule--><g class="link" data-entity-1="ent0003" data-entity-2="ent0004" data-link-type="extension" data-source-line="18" id="lnk5"><path codeLine="18" d="M632.7743,221.3577 C584.9243,245.2377 534.51,270.41 480.12,297.56" fill="none" id="Rule-backto-LoanAmountRule" style="stroke:#181818;stroke-width:1;"/><polygon fill="none" points="648.88,213.32,630.095,215.9891,635.4535,226.7263,648.88,213.32" style="stroke:#181818;stroke-width:1;"/></g><!--reverse link Rule to CreditScoreRule--><g class="link" data-entity-1="ent0003" data-entity-2="ent0006" data-link-type="extension" data-source-line="19" id="lnk7"><path codeLine="19" d="M712.12,231.32 C712.12,255.2 712.12,270.41 712.12,297.56" fill="none" id="Rule-backto-CreditScoreRule" style="stroke:#181818;stroke-width:1;"/><polygon fill="none" points="712.12,213.32,706.12,231.32,718.12,231.32,712.12,213.32" style="stroke:#181818;stroke-width:1;"/></g><!--reverse link Rule to FraudCheckRule--><g class="link" data-entity-1="ent0003" data-entity-2="ent0008" data-link-type="extension" data-source-line="20" id="lnk9"><path codeLine="20" d="M791.4658,221.3576 C849.4558,250.2976 918.78,284.91 976.79,313.87" fill="none" id="Rule-backto-FraudCheckRule" style="stroke:#181818;stroke-width:1;"/><polygon fill="none" points="775.36,213.32,788.7866,226.7262,794.145,215.989,775.36,213.32" style="stroke:#181818;stroke-width:1;"/></g><!--reverse link Rule to AndSpecification--><g class="link" data-entity-1="ent0003" data-entity-2="ent0010" data-link-type="extension" data-source-line="21" id="lnk11"><path codeLine="21" d="M876.3882,213.1011 C974.7682,232.8411 1089.22,257.9 1204.12,289.89 C1221.06,294.61 1238.82,300.08 1256.15,305.7" fill="none" id="Rule-backto-AndSpecification" style="stroke:#181818;stroke-width:1;"/><polygon fill="none" points="858.74,209.56,875.2079,218.9839,877.5686,207.2184,858.74,209.56" style="stroke:#181818;stroke-width:1;"/></g><!--reverse link AndSpecification to Rule--><g class="link" data-entity-1="ent0010" data-entity-2="ent0003" data-link-type="aggregation" data-source-line="50" id="lnk12"><path codeLine="50" d="M1256.8279,301.4762 C1200.7979,280.4062 1140.49,259.71 1075.12,242.89 C1004.71,224.78 925.21,210.69 858.59,200.62" fill="none" id="AndSpecification-backto-Rule" style="stroke:#181818;stroke-width:1;"/><polygon fill="none" points="1268.06,305.7,1263.8519,299.8441,1256.8279,301.4762,1261.036,307.3321,1268.06,305.7" style="stroke:#181818;stroke-width:1;"/><text fill="#000000" font-family="sans-serif" font-size="13" lengthAdjust="spacing" textLength="55.0278" x="1133.12" y="255.9569">contains</text><text fill="#000000" font-family="sans-serif" font-size="13" lengthAdjust="spacing" textLength="36.5625" x="866.5703" y="198.2894">many</text></g><!--link LoanApprovalService to Rule--><g class="link" data-entity-1="ent0013" data-entity-2="ent0003" data-link-type="dependency" data-source-line="60" id="lnk14"><path codeLine="60" d="M312.01,81.81 C395.29,102.19 495.1821,126.6431 577.0321,146.6831" fill="none" id="LoanApprovalService-to-Rule" style="stroke:#181818;stroke-width:1;stroke-dasharray:7,7;"/><polygon fill="#181818" points="582.86,148.11,575.0695,142.0844,578.0034,146.9209,573.1669,149.8549,582.86,148.11" style="stroke:#181818;stroke-width:1;"/></g><!--link LoanApprovalService to Applicant--><g class="link" data-entity-1="ent0013" data-entity-2="ent0002" data-link-type="dependency" data-source-line="61" id="lnk15"><path codeLine="61" d="M165.75,88.07 C153.55,139.87 133.5256,224.8798 119.6856,283.6398" fill="none" id="LoanApprovalService-to-Applicant" style="stroke:#181818;stroke-width:1;stroke-dasharray:7,7;"/><polygon fill="#181818" points="118.31,289.48,124.2668,281.6368,119.4563,284.6132,116.4799,279.8027,118.31,289.48" style="stroke:#181818;stroke-width:1;"/></g><!--link Rule to Applicant--><g class="link" data-entity-1="ent0003" data-entity-2="ent0002" data-link-type="dependency" data-source-line="66" id="lnk16"><path codeLine="66" d="M565.41,204.71 C466.28,222.47 333.34,250.69 220.12,289.89 C214.67,291.78 214.715,291.6421 209.185,293.8421" fill="none" id="Rule-to-Applicant" style="stroke:#181818;stroke-width:1;stroke-dasharray:7,7;"/><polygon fill="#181818" points="203.61,296.06,213.4511,296.4498,208.2559,294.2117,210.4939,289.0165,203.61,296.06" style="stroke:#181818;stroke-width:1;"/></g><?plantuml-src hLHVIyCm47_lfpZsiatPFa1HOLG4OOAuHv6IfIaxR9EGfCMXVdTlIJVN_UicvgrtkRlVdqlxS7liH7r8b15mhqg64fvK9WgA7R_F2sOjJBGka3Ffu3C2EjU5OZ9bfQgaYo6dBnVYt8WCNMev3Oa1PHEsbTN8KLKsPTnXZMuPmrof8gJJL2lhKfHKcWw6CTGAi-WxEeci3ozL8U1HEc5onWKCPbfmp0cdGoNXcJdAoE799cnkdI5847ZwZWr5jAcbJZP7aGtOMe3uLujXGu5m-hgRhz48fYJCnEkoYcqb4g_CR2NCJkR1i2fB5eA_xoGcCcjHwj8ZKPBqTyBJi6VOsWQx9bwoZqFM7ZRfOgd2v1qrDgDHxktElyvjQ_qNgxiiA0ajaWTjvyvuOZjcDzX6PkLbx2rzlNgx7EzUNqMRrIkPNFR2kiV0bNJqDx1Tv6R2r4WFRSgMmfoxNbeRLRDYNRl5Af0AZ9Y_9hh87Eeu7j-5HiUIcqQT_nDHU8di0hK5fxOgJnLw5Lk3VW00?></g></svg>