<svg xmlns="http://www.w3.org/2000/svg" xmlns:xlink="http://www.w3.org/1999/xlink" contentStyleType="text/css" data-diagram-type="CLASS" height="281px" preserveAspectRatio="none" style="width:528px;height:281px;background:#FFFFFF;" version="1.1" viewBox="0 0 528 281" width="528px" zoomAndPan="magnify"><?plantuml 1.2026.4beta2?><defs/><g><!--class User--><g class="entity" data-qualified-name="User" data-source-line="1" id="ent0002"><rect fill="#F1F1F1" height="259.8594" rx="2.5" ry="2.5" style="stroke:#181818;stroke-width:0.5;" width="209.7637" x="7" y="7"/><ellipse cx="91.6768" cy="23" fill="#ADD1B2" rx="11" ry="11" style="stroke:#181818;stroke-width:1;"/><path d="M94.6455,28.6406 Q94.0674,28.9375 93.4268,29.0781 Q92.7861,29.2344 92.083,29.2344 Q89.583,29.2344 88.2549,27.5938 Q86.9424,25.9375 86.9424,22.8125 Q86.9424,19.6875 88.2549,18.0313 Q89.583,16.375 92.083,16.375 Q92.7861,16.375 93.4268,16.5313 Q94.083,16.6875 94.6455,16.9844 L94.6455,19.7031 Q94.0205,19.125 93.4268,18.8594 Q92.833,18.5781 92.208,18.5781 Q90.8643,18.5781 90.1768,19.6563 Q89.4893,20.7188 89.4893,22.8125 Q89.4893,24.9063 90.1768,25.9844 Q90.8643,27.0469 92.208,27.0469 Q92.833,27.0469 93.4268,26.7813 Q94.0205,26.5 94.6455,25.9219 L94.6455,28.6406 Z " fill="#000000"/><text fill="#000000" font-family="sans-serif" font-size="14" lengthAdjust="spacing" textLength="31.9102" x="112.1768" y="27.8467">User</text><line style="stroke:#181818;stroke-width:0.5;" x1="8" x2="215.7637" y1="39" y2="39"/><g data-visibility-modifier="PRIVATE_FIELD"><rect fill="none" height="6" style="stroke:#C82930;stroke-width:1;" width="6" x="15" y="49.6484"/></g><text fill="#000000" font-family="sans-serif" font-size="14" lengthAdjust="spacing" textLength="74.4092" x="27" y="55.9951">_name: str</text><g data-visibility-modifier="PRIVATE_FIELD"><rect fill="none" height="6" style="stroke:#C82930;stroke-width:1;" width="6" x="15" y="65.9453"/></g><text fill="#000000" font-family="sans-serif" font-size="14" lengthAdjust="spacing" textLength="73.3154" x="27" y="72.292">_email: str</text><g data-visibility-modifier="PRIVATE_FIELD"><rect fill="none" height="6" style="stroke:#C82930;stroke-width:1;" width="6" x="15" y="82.2422"/></g><text fill="#000000" font-family="sans-serif" font-size="14" lengthAdjust="spacing" textLength="60.498" x="27" y="88.5889">_age: int</text><line style="stroke:#181818;stroke-width:0.5;" x1="8" x2="215.7637" y1="95.8906" y2="95.8906"/><g data-visibility-modifier="PUBLIC_METHOD"><ellipse cx="18" cy="109.5391" fill="#84BE84" rx="3" ry="3" style="stroke:#038048;stroke-width:1;"/></g><text fill="#000000" font-family="sans-serif" font-size="14" lengthAdjust="spacing" textLength="108.3223" x="27" y="112.8857">get_name(): str</text><g data-visibility-modifier="PUBLIC_METHOD"><ellipse cx="18" cy="125.8359" fill="#84BE84" rx="3" ry="3" style="stroke:#038048;stroke-width:1;"/></g><text fill="#000000" font-family="sans-serif" font-size="14" lengthAdjust="spacing" textLength="183.7637" x="27" y="129.1826">set_name(value: str): void</text><text fill="#000000" font-family="sans-serif" font-size="14" lengthAdjust="spacing" textLength="4.4502" x="27" y="145.4795">&#160;</text><g data-visibility-modifier="PUBLIC_METHOD"><ellipse cx="18" cy="158.4297" fill="#84BE84" rx="3" ry="3" style="stroke:#038048;stroke-width:1;"/></g><text fill="#000000" font-family="sans-serif" font-size="14" lengthAdjust="spacing" textLength="107.2285" x="27" y="161.7764">get_email(): str</text><g data-visibility-modifier="PUBLIC_METHOD"><ellipse cx="18" cy="174.7266" fill="#84BE84" rx="3" ry="3" style="stroke:#038048;stroke-width:1;"/></g><text fill="#000000" font-family="sans-serif" font-size="14" lengthAdjust="spacing" textLength="182.6699" x="27" y="178.0732">set_email(value: str): void</text><text fill="#000000" font-family="sans-serif" font-size="14" lengthAdjust="spacing" textLength="4.4502" x="27" y="194.3701">&#160;</text><g data-visibility-modifier="PUBLIC_METHOD"><ellipse cx="18" cy="207.3203" fill="#84BE84" rx="3" ry="3" style="stroke:#038048;stroke-width:1;"/></g><text fill="#000000" font-family="sans-serif" font-size="14" lengthAdjust="spacing" textLength="94.4111" x="27" y="210.667">get_age(): int</text><g data-visibility-modifier="PUBLIC_METHOD"><ellipse cx="18" cy="223.6172" fill="#84BE84" rx="3" ry="3" style="stroke:#038048;stroke-width:1;"/></g><text fill="#000000" font-family="sans-serif" font-size="14" lengthAdjust="spacing" textLength="169.8525" x="27" y="226.9639">set_age(value: int): void</text><text fill="#000000" font-family="sans-serif" font-size="14" lengthAdjust="spacing" textLength="4.4502" x="27" y="243.2607">&#160;</text><g data-visibility-modifier="PUBLIC_METHOD"><ellipse cx="18" cy="256.2109" fill="#84BE84" rx="3" ry="3" style="stroke:#038048;stroke-width:1;"/></g><text fill="#000000" font-family="sans-serif" font-size="14" lengthAdjust="spacing" textLength="94.876" x="27" y="259.5576">get_info(): str</text></g><g class="entity" data-qualified-name="GMN3" data-source-line="19" id="ent0004"><path d="M252.1,71.4 L252.1,132.93 L217.21,136.93 L252.1,140.93 L252.1,202.4625 A0,0 0 0 0 252.1,202.4625 L513.6698,202.4625 A0,0 0 0 0 513.6698,202.4625 L513.6698,81.4 L503.6698,71.4 L252.1,71.4 A0,0 0 0 0 252.1,71.4" fill="#FEFFDD" style="stroke:#181818;stroke-width:0.5;"/><path d="M503.6698,71.4 L503.6698,81.4 L513.6698,81.4 L503.6698,71.4" fill="#FEFFDD" style="stroke:#181818;stroke-width:0.5;"/><text fill="#000000" font-family="sans-serif" font-size="13" lengthAdjust="spacing" textLength="95.6909" x="258.1" y="88.4669">Encapsulation:</text><text fill="#000000" font-family="sans-serif" font-size="13" lengthAdjust="spacing" textLength="240.5698" x="258.1" y="103.5997">- Private fields (_name, _email, _age)</text><text fill="#000000" font-family="sans-serif" font-size="13" lengthAdjust="spacing" textLength="218.061" x="258.1" y="118.7325">- Controlled access via properties</text><text fill="#000000" font-family="sans-serif" font-size="13" lengthAdjust="spacing" textLength="4.1323" x="258.1" y="133.8653">&#160;</text><text fill="#000000" font-family="sans-serif" font-size="13" lengthAdjust="spacing" textLength="105.6821" x="258.1" y="148.9981">Validation rules:</text><text fill="#000000" font-family="sans-serif" font-size="13" lengthAdjust="spacing" textLength="160.6846" x="258.1" y="164.131">- name cannot be empty</text><text fill="#000000" font-family="sans-serif" font-size="13" lengthAdjust="spacing" textLength="163.0586" x="258.1" y="179.2638">- email must contain "@"</text><text fill="#000000" font-family="sans-serif" font-size="13" lengthAdjust="spacing" textLength="128.6479" x="258.1" y="194.3966">- age must be &gt;= 0</text></g><?plantuml-src VP11ImGn38Nl_HLXJxki2vuN546yUz6hn4vc37JIeSaCYFZVJJkxkh1WBwKlxtj96XEgmejIWQy0VWvlWYCTGQsStZGYfqi11w-pM6Zl_K3McEtkpxJNixXWcjSuBo-Pkmkg9LzXg_eVvmDKgexmIrNjnBX-pR3q-TpgEmJ9Hb1u-338VTi_F4d4IUU4nbcEuG3FXHTqMy-KEeLjM-W6rW7zzfOxjprciP9JeWumHlBlN1XXAdcYOamQmYicxbeib3cHrl2Q1H751u5t0Xed-tIvPSCugq7qN6I1pSF62zvibTryVmUtWQI3kiKF?></g></svg>