<svg xmlns="http://www.w3.org/2000/svg" xmlns:xlink="http://www.w3.org/1999/xlink" contentStyleType="text/css" data-diagram-type="CLASS" height="939px" preserveAspectRatio="none" style="width:1319px;height:939px;background:#FFFFFF;" version="1.1" viewBox="0 0 1319 939" width="1319px" zoomAndPan="magnify"><?plantuml 1.2026.4beta2?><defs/><g><!--class User--><g class="entity" data-qualified-name="User" data-source-line="4" id="ent0002"><rect fill="#F1F1F1" height="113.1875" rx="2.5" ry="2.5" style="stroke:#181818;stroke-width:0.5;" width="289.5664" x="470.52" y="811.56"/><ellipse cx="595.0981" cy="827.56" fill="#ADD1B2" rx="11" ry="11" style="stroke:#181818;stroke-width:1;"/><path d="M598.0669,833.2006 Q597.4888,833.4975 596.8481,833.6381 Q596.2075,833.7944 595.5044,833.7944 Q593.0044,833.7944 591.6763,832.1538 Q590.3638,830.4975 590.3638,827.3725 Q590.3638,824.2475 591.6763,822.5913 Q593.0044,820.935 595.5044,820.935 Q596.2075,820.935 596.8481,821.0913 Q597.5044,821.2475 598.0669,821.5444 L598.0669,824.2631 Q597.4419,823.685 596.8481,823.4194 Q596.2544,823.1381 595.6294,823.1381 Q594.2856,823.1381 593.5981,824.2163 Q592.9106,825.2788 592.9106,827.3725 Q592.9106,829.4663 593.5981,830.5444 Q594.2856,831.6069 595.6294,831.6069 Q596.2544,831.6069 596.8481,831.3413 Q597.4419,831.06 598.0669,830.4819 L598.0669,833.2006 Z " fill="#000000"/><text fill="#000000" font-family="sans-serif" font-size="14" lengthAdjust="spacing" textLength="31.9102" x="615.5981" y="832.4067">User</text><line style="stroke:#181818;stroke-width:0.5;" x1="471.52" x2="759.0864" y1="843.56" y2="843.56"/><g data-visibility-modifier="PUBLIC_FIELD"><ellipse cx="481.52" cy="857.2084" fill="none" rx="3" ry="3" style="stroke:#038048;stroke-width:1;"/></g><text fill="#000000" font-family="sans-serif" font-size="14" lengthAdjust="spacing" textLength="97.9453" x="490.52" y="860.5551">username: str</text><g data-visibility-modifier="PRIVATE_FIELD"><rect fill="none" height="6" style="stroke:#C82930;stroke-width:1;" width="6" x="478.52" y="870.5053"/></g><text fill="#000000" font-family="sans-serif" font-size="14" lengthAdjust="spacing" textLength="101.418" x="490.52" y="876.852">_password: str</text><line style="stroke:#181818;stroke-width:0.5;" x1="471.52" x2="759.0864" y1="884.1538" y2="884.1538"/><g data-visibility-modifier="PUBLIC_METHOD"><ellipse cx="481.52" cy="897.8022" fill="#84BE84" rx="3" ry="3" style="stroke:#038048;stroke-width:1;"/></g><text fill="#000000" font-family="sans-serif" font-size="14" lengthAdjust="spacing" textLength="244.0977" x="490.52" y="901.1489">User(username: str, password: str)</text><g data-visibility-modifier="PUBLIC_METHOD"><ellipse cx="481.52" cy="914.0991" fill="#84BE84" rx="3" ry="3" style="stroke:#038048;stroke-width:1;"/></g><text fill="#000000" font-family="sans-serif" font-size="14" lengthAdjust="spacing" textLength="263.5664" x="490.52" y="917.4457">check_password(password: str) : bool</text></g><!--class UserRepository--><g class="entity" data-qualified-name="UserRepository" data-source-line="14" id="ent0003"><rect fill="#F1F1F1" height="64.2969" rx="2.5" ry="2.5" style="stroke:#181818;stroke-width:0.5;" width="262.8584" x="483.87" y="480.08"/><ellipse cx="557.558" cy="496.08" fill="#A9DCDF" rx="11" ry="11" style="stroke:#181818;stroke-width:1;"/><path d="M557.6674,491.4238 L556.5111,496.5019 L558.8392,496.5019 L557.6674,491.4238 Z M556.183,489.1894 L559.1674,489.1894 L562.5267,501.58 L560.0736,501.58 L559.308,498.5175 L556.0267,498.5175 L555.2767,501.58 L552.8392,501.58 L556.183,489.1894 Z " fill="#000000"/><text fill="#000000" font-family="sans-serif" font-size="14" font-style="italic" lengthAdjust="spacing" textLength="106.9824" x="578.058" y="500.9267">UserRepository</text><line style="stroke:#181818;stroke-width:0.5;" x1="484.87" x2="745.7284" y1="512.08" y2="512.08"/><line style="stroke:#181818;stroke-width:0.5;" x1="484.87" x2="745.7284" y1="520.08" y2="520.08"/><g data-visibility-modifier="PUBLIC_METHOD"><ellipse cx="494.87" cy="533.7284" fill="#84BE84" rx="3" ry="3" style="stroke:#038048;stroke-width:1;"/></g><text fill="#000000" font-family="sans-serif" font-size="14" lengthAdjust="spacing" textLength="236.8584" x="503.87" y="537.0751">find_by_username(username: str)</text></g><!--class TokenRepository--><g class="entity" data-qualified-name="TokenRepository" data-source-line="18" id="ent0004"><rect fill="#F1F1F1" height="64.2969" rx="2.5" ry="2.5" style="stroke:#181818;stroke-width:0.5;" width="199.5166" x="983.54" y="480.08"/><ellipse cx="1020.92" cy="496.08" fill="#A9DCDF" rx="11" ry="11" style="stroke:#181818;stroke-width:1;"/><path d="M1021.0294,491.4238 L1019.8732,496.5019 L1022.2013,496.5019 L1021.0294,491.4238 Z M1019.545,489.1894 L1022.5294,489.1894 L1025.8888,501.58 L1023.4357,501.58 L1022.67,498.5175 L1019.3888,498.5175 L1018.6388,501.58 L1016.2013,501.58 L1019.545,489.1894 Z " fill="#000000"/><text fill="#000000" font-family="sans-serif" font-size="14" font-style="italic" lengthAdjust="spacing" textLength="117.7832" x="1039.8934" y="500.9267">TokenRepository</text><line style="stroke:#181818;stroke-width:0.5;" x1="984.54" x2="1182.0566" y1="512.08" y2="512.08"/><line style="stroke:#181818;stroke-width:0.5;" x1="984.54" x2="1182.0566" y1="520.08" y2="520.08"/><g data-visibility-modifier="PUBLIC_METHOD"><ellipse cx="994.54" cy="533.7284" fill="#84BE84" rx="3" ry="3" style="stroke:#038048;stroke-width:1;"/></g><text fill="#000000" font-family="sans-serif" font-size="14" lengthAdjust="spacing" textLength="173.5166" x="1003.54" y="537.0751">is_valid(token: str) : bool</text></g><!--class InMemoryUserRepository--><g class="entity" data-qualified-name="InMemoryUserRepository" data-source-line="22" id="ent0005"><rect fill="#F1F1F1" height="96.8906" rx="2.5" ry="2.5" style="stroke:#181818;stroke-width:0.5;" width="262.8584" x="483.87" y="637.67"/><ellipse cx="523.1419" cy="653.67" fill="#ADD1B2" rx="11" ry="11" style="stroke:#181818;stroke-width:1;"/><path d="M526.1106,659.3106 Q525.5325,659.6075 524.8919,659.7481 Q524.2513,659.9044 523.5481,659.9044 Q521.0481,659.9044 519.72,658.2638 Q518.4075,656.6075 518.4075,653.4825 Q518.4075,650.3575 519.72,648.7013 Q521.0481,647.045 523.5481,647.045 Q524.2513,647.045 524.8919,647.2013 Q525.5481,647.3575 526.1106,647.6544 L526.1106,650.3731 Q525.4856,649.795 524.8919,649.5294 Q524.2981,649.2481 523.6731,649.2481 Q522.3294,649.2481 521.6419,650.3263 Q520.9544,651.3888 520.9544,653.4825 Q520.9544,655.5763 521.6419,656.6544 Q522.3294,657.7169 523.6731,657.7169 Q524.2981,657.7169 524.8919,657.4513 Q525.4856,657.17 526.1106,656.5919 L526.1106,659.3106 Z " fill="#000000"/><text fill="#000000" font-family="sans-serif" font-size="14" lengthAdjust="spacing" textLength="176.9209" x="542.5356" y="658.5167">InMemoryUserRepository</text><line style="stroke:#181818;stroke-width:0.5;" x1="484.87" x2="745.7284" y1="669.67" y2="669.67"/><g data-visibility-modifier="PUBLIC_FIELD"><ellipse cx="494.87" cy="683.3184" fill="none" rx="3" ry="3" style="stroke:#038048;stroke-width:1;"/></g><text fill="#000000" font-family="sans-serif" font-size="14" lengthAdjust="spacing" textLength="72.96" x="503.87" y="686.6651">users: dict</text><line style="stroke:#181818;stroke-width:0.5;" x1="484.87" x2="745.7284" y1="693.9669" y2="693.9669"/><g data-visibility-modifier="PUBLIC_METHOD"><ellipse cx="494.87" cy="707.6153" fill="#84BE84" rx="3" ry="3" style="stroke:#038048;stroke-width:1;"/></g><text fill="#000000" font-family="sans-serif" font-size="14" lengthAdjust="spacing" textLength="187.8447" x="503.87" y="710.962">InMemoryUserRepository()</text><g data-visibility-modifier="PUBLIC_METHOD"><ellipse cx="494.87" cy="723.9122" fill="#84BE84" rx="3" ry="3" style="stroke:#038048;stroke-width:1;"/></g><text fill="#000000" font-family="sans-serif" font-size="14" lengthAdjust="spacing" textLength="236.8584" x="503.87" y="727.2589">find_by_username(username: str)</text></g><!--class InMemoryTokenRepository--><g class="entity" data-qualified-name="InMemoryTokenRepository" data-source-line="28" id="ent0006"><rect fill="#F1F1F1" height="96.8906" rx="2.5" ry="2.5" style="stroke:#181818;stroke-width:0.5;" width="224.6455" x="970.98" y="637.67"/><ellipse cx="988.1957" cy="653.67" fill="#ADD1B2" rx="11" ry="11" style="stroke:#181818;stroke-width:1;"/><path d="M991.1645,659.3106 Q990.5863,659.6075 989.9457,659.7481 Q989.3051,659.9044 988.602,659.9044 Q986.102,659.9044 984.7738,658.2638 Q983.4613,656.6075 983.4613,653.4825 Q983.4613,650.3575 984.7738,648.7013 Q986.102,647.045 988.602,647.045 Q989.3051,647.045 989.9457,647.2013 Q990.602,647.3575 991.1645,647.6544 L991.1645,650.3731 Q990.5395,649.795 989.9457,649.5294 Q989.352,649.2481 988.727,649.2481 Q987.3832,649.2481 986.6957,650.3263 Q986.0082,651.3888 986.0082,653.4825 Q986.0082,655.5763 986.6957,656.6544 Q987.3832,657.7169 988.727,657.7169 Q989.352,657.7169 989.9457,657.4513 Q990.5395,657.17 991.1645,656.5919 L991.1645,659.3106 Z " fill="#000000"/><text fill="#000000" font-family="sans-serif" font-size="14" lengthAdjust="spacing" textLength="187.7217" x="1002.6881" y="658.5167">InMemoryTokenRepository</text><line style="stroke:#181818;stroke-width:0.5;" x1="971.98" x2="1194.6255" y1="669.67" y2="669.67"/><g data-visibility-modifier="PUBLIC_FIELD"><ellipse cx="981.98" cy="683.3184" fill="none" rx="3" ry="3" style="stroke:#038048;stroke-width:1;"/></g><text fill="#000000" font-family="sans-serif" font-size="14" lengthAdjust="spacing" textLength="118.0361" x="990.98" y="686.6651">valid_tokens: set</text><line style="stroke:#181818;stroke-width:0.5;" x1="971.98" x2="1194.6255" y1="693.9669" y2="693.9669"/><g data-visibility-modifier="PUBLIC_METHOD"><ellipse cx="981.98" cy="707.6153" fill="#84BE84" rx="3" ry="3" style="stroke:#038048;stroke-width:1;"/></g><text fill="#000000" font-family="sans-serif" font-size="14" lengthAdjust="spacing" textLength="198.6455" x="990.98" y="710.962">InMemoryTokenRepository()</text><g data-visibility-modifier="PUBLIC_METHOD"><ellipse cx="981.98" cy="723.9122" fill="#84BE84" rx="3" ry="3" style="stroke:#038048;stroke-width:1;"/></g><text fill="#000000" font-family="sans-serif" font-size="14" lengthAdjust="spacing" textLength="173.5166" x="990.98" y="727.2589">is_valid(token: str) : bool</text></g><!--class FakeOAuthClient--><g class="entity" data-qualified-name="FakeOAuthClient" data-source-line="43" id="ent0010"><rect fill="#F1F1F1" height="80.5938" rx="2.5" ry="2.5" style="stroke:#181818;stroke-width:0.5;" width="234.209" x="109.2" y="645.82"/><ellipse cx="163.1971" cy="661.82" fill="#ADD1B2" rx="11" ry="11" style="stroke:#181818;stroke-width:1;"/><path d="M166.1658,667.4606 Q165.5877,667.7575 164.9471,667.8981 Q164.3064,668.0544 163.6033,668.0544 Q161.1033,668.0544 159.7752,666.4137 Q158.4627,664.7575 158.4627,661.6325 Q158.4627,658.5075 159.7752,656.8512 Q161.1033,655.195 163.6033,655.195 Q164.3064,655.195 164.9471,655.3512 Q165.6033,655.5075 166.1658,655.8044 L166.1658,658.5231 Q165.5408,657.945 164.9471,657.6794 Q164.3533,657.3981 163.7283,657.3981 Q162.3846,657.3981 161.6971,658.4762 Q161.0096,659.5387 161.0096,661.6325 Q161.0096,663.7262 161.6971,664.8044 Q162.3846,665.8669 163.7283,665.8669 Q164.3533,665.8669 164.9471,665.6012 Q165.5408,665.32 166.1658,664.7419 L166.1658,667.4606 Z " fill="#000000"/><text fill="#000000" font-family="sans-serif" font-size="14" lengthAdjust="spacing" textLength="117.7148" x="183.6971" y="666.6667">FakeOAuthClient</text><line style="stroke:#181818;stroke-width:0.5;" x1="110.2" x2="342.409" y1="677.82" y2="677.82"/><line style="stroke:#181818;stroke-width:0.5;" x1="110.2" x2="342.409" y1="685.82" y2="685.82"/><g data-visibility-modifier="PUBLIC_METHOD"><ellipse cx="120.2" cy="699.4684" fill="#84BE84" rx="3" ry="3" style="stroke:#038048;stroke-width:1;"/></g><text fill="#000000" font-family="sans-serif" font-size="14" lengthAdjust="spacing" textLength="164.5752" x="129.2" y="702.8151">get_authorize_url() : str</text><g data-visibility-modifier="PUBLIC_METHOD"><ellipse cx="120.2" cy="715.7653" fill="#84BE84" rx="3" ry="3" style="stroke:#038048;stroke-width:1;"/></g><text fill="#000000" font-family="sans-serif" font-size="14" lengthAdjust="spacing" textLength="208.209" x="129.2" y="719.112">verify_token(token: str) : bool</text></g><!--class Authenticator--><g class="entity" data-qualified-name="Authenticator" data-source-line="52" id="ent0011"><rect fill="#F1F1F1" height="64.2969" rx="2.5" ry="2.5" style="stroke:#181818;stroke-width:0.5;" width="284.1113" x="473.25" y="180.89"/><ellipse cx="563.1733" cy="196.89" fill="#A9DCDF" rx="11" ry="11" style="stroke:#181818;stroke-width:1;"/><path d="M563.2827,192.2338 L562.1265,197.3119 L564.4546,197.3119 L563.2827,192.2338 Z M561.7983,189.9994 L564.7827,189.9994 L568.1421,202.39 L565.689,202.39 L564.9233,199.3275 L561.6421,199.3275 L560.8921,202.39 L558.4546,202.39 L561.7983,189.9994 Z " fill="#000000"/><text fill="#000000" font-family="sans-serif" font-size="14" font-style="italic" lengthAdjust="spacing" textLength="95.7646" x="583.6733" y="201.7367">Authenticator</text><line style="stroke:#181818;stroke-width:0.5;" x1="474.25" x2="756.3613" y1="212.89" y2="212.89"/><line style="stroke:#181818;stroke-width:0.5;" x1="474.25" x2="756.3613" y1="220.89" y2="220.89"/><g data-visibility-modifier="PUBLIC_METHOD"><ellipse cx="484.25" cy="234.5384" fill="#84BE84" rx="3" ry="3" style="stroke:#038048;stroke-width:1;"/></g><text fill="#000000" font-family="sans-serif" font-size="14" lengthAdjust="spacing" textLength="258.1113" x="493.25" y="237.8851">authenticate(credentials: Dict) : bool</text></g><!--class OAuthAuthenticator--><g class="entity" data-qualified-name="OAuthAuthenticator" data-source-line="56" id="ent0012"><rect fill="#F1F1F1" height="80.5938" rx="2.5" ry="2.5" style="stroke:#181818;stroke-width:0.5;" width="284.1113" x="84.25" y="306.19"/><ellipse cx="152.2573" cy="322.19" fill="#A9DCDF" rx="11" ry="11" style="stroke:#181818;stroke-width:1;"/><path d="M152.3667,317.5338 L151.2104,322.6119 L153.5386,322.6119 L152.3667,317.5338 Z M150.8823,315.2994 L153.8667,315.2994 L157.2261,327.69 L154.7729,327.69 L154.0073,324.6275 L150.7261,324.6275 L149.9761,327.69 L147.5386,327.69 L150.8823,315.2994 Z " fill="#000000"/><text fill="#000000" font-family="sans-serif" font-size="14" font-style="italic" lengthAdjust="spacing" textLength="139.5967" x="172.7573" y="327.0367">OAuthAuthenticator</text><line style="stroke:#181818;stroke-width:0.5;" x1="85.25" x2="367.3613" y1="338.19" y2="338.19"/><line style="stroke:#181818;stroke-width:0.5;" x1="85.25" x2="367.3613" y1="346.19" y2="346.19"/><g data-visibility-modifier="PUBLIC_METHOD"><ellipse cx="95.25" cy="359.8384" fill="#84BE84" rx="3" ry="3" style="stroke:#038048;stroke-width:1;"/></g><text fill="#000000" font-family="sans-serif" font-size="14" lengthAdjust="spacing" textLength="258.1113" x="104.25" y="363.1851">authenticate(credentials: Dict) : bool</text><g data-visibility-modifier="PUBLIC_METHOD"><ellipse cx="95.25" cy="376.1353" fill="#84BE84" rx="3" ry="3" style="stroke:#038048;stroke-width:1;"/></g><text fill="#000000" font-family="sans-serif" font-size="14" lengthAdjust="spacing" textLength="153.2891" x="104.25" y="379.482">get_redirect_url() : str</text></g><!--class PasswordAuthenticator--><g class="entity" data-qualified-name="PasswordAuthenticator" data-source-line="67" id="ent0014"><rect fill="#F1F1F1" height="80.5938" rx="2.5" ry="2.5" style="stroke:#181818;stroke-width:0.5;" width="423.7422" x="403.43" y="306.19"/><ellipse cx="530.035" cy="322.19" fill="#ADD1B2" rx="11" ry="11" style="stroke:#181818;stroke-width:1;"/><path d="M533.0037,327.8306 Q532.4256,328.1275 531.785,328.2681 Q531.1444,328.4244 530.4412,328.4244 Q527.9412,328.4244 526.6131,326.7838 Q525.3006,325.1275 525.3006,322.0025 Q525.3006,318.8775 526.6131,317.2213 Q527.9412,315.565 530.4412,315.565 Q531.1444,315.565 531.785,315.7213 Q532.4412,315.8775 533.0037,316.1744 L533.0037,318.8931 Q532.3787,318.315 531.785,318.0494 Q531.1912,317.7681 530.5662,317.7681 Q529.2225,317.7681 528.535,318.8463 Q527.8475,319.9088 527.8475,322.0025 Q527.8475,324.0963 528.535,325.1744 Q529.2225,326.2369 530.5662,326.2369 Q531.1912,326.2369 531.785,325.9713 Q532.3787,325.69 533.0037,325.1119 L533.0037,327.8306 Z " fill="#000000"/><text fill="#000000" font-family="sans-serif" font-size="14" lengthAdjust="spacing" textLength="162.0322" x="550.535" y="327.0367">PasswordAuthenticator</text><line style="stroke:#181818;stroke-width:0.5;" x1="404.43" x2="826.1722" y1="338.19" y2="338.19"/><line style="stroke:#181818;stroke-width:0.5;" x1="404.43" x2="826.1722" y1="346.19" y2="346.19"/><g data-visibility-modifier="PUBLIC_METHOD"><ellipse cx="414.43" cy="359.8384" fill="#84BE84" rx="3" ry="3" style="stroke:#038048;stroke-width:1;"/></g><text fill="#000000" font-family="sans-serif" font-size="14" lengthAdjust="spacing" textLength="397.7422" x="423.43" y="363.1851">PasswordAuthenticator(user_repository: UserRepository)</text><g data-visibility-modifier="PUBLIC_METHOD"><ellipse cx="414.43" cy="376.1353" fill="#84BE84" rx="3" ry="3" style="stroke:#038048;stroke-width:1;"/></g><text fill="#000000" font-family="sans-serif" font-size="14" lengthAdjust="spacing" textLength="258.1113" x="423.43" y="379.482">authenticate(credentials: Dict) : bool</text></g><!--class OAuthGoogleAuthenticator--><g class="entity" data-qualified-name="OAuthGoogleAuthenticator" data-source-line="72" id="ent0015"><rect fill="#F1F1F1" height="96.8906" rx="2.5" ry="2.5" style="stroke:#181818;stroke-width:0.5;" width="438.6035" x="7" y="463.78"/><ellipse cx="127.5688" cy="479.78" fill="#ADD1B2" rx="11" ry="11" style="stroke:#181818;stroke-width:1;"/><path d="M130.5376,485.4206 Q129.9595,485.7175 129.3188,485.8581 Q128.6782,486.0144 127.9751,486.0144 Q125.4751,486.0144 124.147,484.3738 Q122.8345,482.7175 122.8345,479.5925 Q122.8345,476.4675 124.147,474.8113 Q125.4751,473.155 127.9751,473.155 Q128.6782,473.155 129.3188,473.3113 Q129.9751,473.4675 130.5376,473.7644 L130.5376,476.4831 Q129.9126,475.905 129.3188,475.6394 Q128.7251,475.3581 128.1001,475.3581 Q126.7563,475.3581 126.0688,476.4363 Q125.3813,477.4988 125.3813,479.5925 Q125.3813,481.6863 126.0688,482.7644 Q126.7563,483.8269 128.1001,483.8269 Q128.7251,483.8269 129.3188,483.5613 Q129.9126,483.28 130.5376,482.7019 L130.5376,485.4206 Z " fill="#000000"/><text fill="#000000" font-family="sans-serif" font-size="14" lengthAdjust="spacing" textLength="188.9658" x="148.0688" y="484.6267">OAuthGoogleAuthenticator</text><line style="stroke:#181818;stroke-width:0.5;" x1="8" x2="444.6035" y1="495.78" y2="495.78"/><line style="stroke:#181818;stroke-width:0.5;" x1="8" x2="444.6035" y1="503.78" y2="503.78"/><g data-visibility-modifier="PUBLIC_METHOD"><ellipse cx="18" cy="517.4284" fill="#84BE84" rx="3" ry="3" style="stroke:#038048;stroke-width:1;"/></g><text fill="#000000" font-family="sans-serif" font-size="14" lengthAdjust="spacing" textLength="412.6035" x="27" y="520.7751">OAuthGoogleAuthenticator(oauth_client: FakeOAuthClient)</text><g data-visibility-modifier="PUBLIC_METHOD"><ellipse cx="18" cy="533.7253" fill="#84BE84" rx="3" ry="3" style="stroke:#038048;stroke-width:1;"/></g><text fill="#000000" font-family="sans-serif" font-size="14" lengthAdjust="spacing" textLength="258.1113" x="27" y="537.072">authenticate(credentials: Dict) : bool</text><g data-visibility-modifier="PUBLIC_METHOD"><ellipse cx="18" cy="550.0222" fill="#84BE84" rx="3" ry="3" style="stroke:#038048;stroke-width:1;"/></g><text fill="#000000" font-family="sans-serif" font-size="14" lengthAdjust="spacing" textLength="153.2891" x="27" y="553.3689">get_redirect_url() : str</text></g><!--class ApiTokenAuthenticator--><g class="entity" data-qualified-name="ApiTokenAuthenticator" data-source-line="78" id="ent0016"><rect fill="#F1F1F1" height="80.5938" rx="2.5" ry="2.5" style="stroke:#181818;stroke-width:0.5;" width="442.4521" x="862.08" y="306.19"/><ellipse cx="998.6415" cy="322.19" fill="#ADD1B2" rx="11" ry="11" style="stroke:#181818;stroke-width:1;"/><path d="M1001.6103,327.8306 Q1001.0321,328.1275 1000.3915,328.2681 Q999.7509,328.4244 999.0478,328.4244 Q996.5478,328.4244 995.2196,326.7838 Q993.9071,325.1275 993.9071,322.0025 Q993.9071,318.8775 995.2196,317.2213 Q996.5478,315.565 999.0478,315.565 Q999.7509,315.565 1000.3915,315.7213 Q1001.0478,315.8775 1001.6103,316.1744 L1001.6103,318.8931 Q1000.9853,318.315 1000.3915,318.0494 Q999.7978,317.7681 999.1728,317.7681 Q997.829,317.7681 997.1415,318.8463 Q996.454,319.9088 996.454,322.0025 Q996.454,324.0963 997.1415,325.1744 Q997.829,326.2369 999.1728,326.2369 Q999.7978,326.2369 1000.3915,325.9713 Q1000.9853,325.69 1001.6103,325.1119 L1001.6103,327.8306 Z " fill="#000000"/><text fill="#000000" font-family="sans-serif" font-size="14" lengthAdjust="spacing" textLength="160.8291" x="1019.1415" y="327.0367">ApiTokenAuthenticator</text><line style="stroke:#181818;stroke-width:0.5;" x1="863.08" x2="1303.5321" y1="338.19" y2="338.19"/><line style="stroke:#181818;stroke-width:0.5;" x1="863.08" x2="1303.5321" y1="346.19" y2="346.19"/><g data-visibility-modifier="PUBLIC_METHOD"><ellipse cx="873.08" cy="359.8384" fill="#84BE84" rx="3" ry="3" style="stroke:#038048;stroke-width:1;"/></g><text fill="#000000" font-family="sans-serif" font-size="14" lengthAdjust="spacing" textLength="416.4521" x="882.08" y="363.1851">ApiTokenAuthenticator(token_repository: TokenRepository)</text><g data-visibility-modifier="PUBLIC_METHOD"><ellipse cx="873.08" cy="376.1353" fill="#84BE84" rx="3" ry="3" style="stroke:#038048;stroke-width:1;"/></g><text fill="#000000" font-family="sans-serif" font-size="14" lengthAdjust="spacing" textLength="258.1113" x="882.08" y="379.482">authenticate(credentials: Dict) : bool</text></g><!--class AuthenticationService--><g class="entity" data-qualified-name="AuthenticationService" data-source-line="95" id="ent0023"><rect fill="#F1F1F1" height="96.8906" rx="2.5" ry="2.5" style="stroke:#181818;stroke-width:0.5;" width="464.6484" x="382.98" y="7"/><ellipse cx="533.7979" cy="23" fill="#ADD1B2" rx="11" ry="11" style="stroke:#181818;stroke-width:1;"/><path d="M536.7666,28.6406 Q536.1885,28.9375 535.5479,29.0781 Q534.9072,29.2344 534.2041,29.2344 Q531.7041,29.2344 530.376,27.5938 Q529.0635,25.9375 529.0635,22.8125 Q529.0635,19.6875 530.376,18.0313 Q531.7041,16.375 534.2041,16.375 Q534.9072,16.375 535.5479,16.5313 Q536.2041,16.6875 536.7666,16.9844 L536.7666,19.7031 Q536.1416,19.125 535.5479,18.8594 Q534.9541,18.5781 534.3291,18.5781 Q532.9854,18.5781 532.2979,19.6563 Q531.6104,20.7188 531.6104,22.8125 Q531.6104,24.9063 532.2979,25.9844 Q532.9854,27.0469 534.3291,27.0469 Q534.9541,27.0469 535.5479,26.7813 Q536.1416,26.5 536.7666,25.9219 L536.7666,28.6406 Z " fill="#000000"/><text fill="#000000" font-family="sans-serif" font-size="14" lengthAdjust="spacing" textLength="154.5127" x="554.2979" y="27.8467">AuthenticationService</text><line style="stroke:#181818;stroke-width:0.5;" x1="383.98" x2="846.6284" y1="39" y2="39"/><g data-visibility-modifier="PUBLIC_FIELD"><ellipse cx="393.98" cy="52.6484" fill="none" rx="3" ry="3" style="stroke:#038048;stroke-width:1;"/></g><text fill="#000000" font-family="sans-serif" font-size="14" lengthAdjust="spacing" textLength="273.2119" x="402.98" y="55.9951">authenticators: Dict[str, Authenticator]</text><line style="stroke:#181818;stroke-width:0.5;" x1="383.98" x2="846.6284" y1="63.2969" y2="63.2969"/><g data-visibility-modifier="PUBLIC_METHOD"><ellipse cx="393.98" cy="76.9453" fill="#84BE84" rx="3" ry="3" style="stroke:#038048;stroke-width:1;"/></g><text fill="#000000" font-family="sans-serif" font-size="14" lengthAdjust="spacing" textLength="438.6484" x="402.98" y="80.292">AuthenticationService(authenticators: Dict[str, Authenticator])</text><g data-visibility-modifier="PUBLIC_METHOD"><ellipse cx="393.98" cy="93.2422" fill="#84BE84" rx="3" ry="3" style="stroke:#038048;stroke-width:1;"/></g><text fill="#000000" font-family="sans-serif" font-size="14" lengthAdjust="spacing" textLength="309.8525" x="402.98" y="96.5889">login(auth_type: str, credentials: Dict) : bool</text></g><!--reverse link UserRepository to InMemoryUserRepository--><g class="link" data-entity-1="ent0003" data-entity-2="ent0005" data-link-type="extension" data-source-line="34" id="lnk7"><path codeLine="34" d="M615.3,562.75 C615.3,588.63 615.3,607.69 615.3,637.23" fill="none" id="UserRepository-backto-InMemoryUserRepository" style="stroke:#181818;stroke-width:1;"/><polygon fill="none" points="615.3,544.75,609.3,562.75,621.3,562.75,615.3,544.75" style="stroke:#181818;stroke-width:1;"/></g><!--reverse link TokenRepository to InMemoryTokenRepository--><g class="link" data-entity-1="ent0004" data-entity-2="ent0006" data-link-type="extension" data-source-line="35" id="lnk8"><path codeLine="35" d="M1083.3,562.75 C1083.3,588.63 1083.3,607.69 1083.3,637.23" fill="none" id="TokenRepository-backto-InMemoryTokenRepository" style="stroke:#181818;stroke-width:1;"/><polygon fill="none" points="1083.3,544.75,1077.3,562.75,1089.3,562.75,1083.3,544.75" style="stroke:#181818;stroke-width:1;"/></g><!--link InMemoryUserRepository to User--><g class="link" data-entity-1="ent0005" data-entity-2="ent0002" data-link-type="dependency" data-source-line="37" id="lnk9"><path codeLine="37" d="M615.3,734.89 C615.3,758.33 615.3,780.71 615.3,805.17" fill="none" id="InMemoryUserRepository-to-User" style="stroke:#181818;stroke-width:1;"/><polygon fill="#181818" points="615.3,811.17,619.3,802.17,615.3,806.17,611.3,802.17,615.3,811.17" style="stroke:#181818;stroke-width:1;"/><text fill="#000000" font-family="sans-serif" font-size="13" lengthAdjust="spacing" textLength="48.3247" x="616.3" y="777.6269">creates</text></g><!--reverse link Authenticator to OAuthAuthenticator--><g class="link" data-entity-1="ent0011" data-entity-2="ent0012" data-link-type="extension" data-source-line="61" id="lnk13"><path codeLine="61" d="M505.0774,251.2828 C451.5774,269.3628 400.95,286.47 343.83,305.77" fill="none" id="Authenticator-backto-OAuthAuthenticator" style="stroke:#181818;stroke-width:1;"/><polygon fill="none" points="522.13,245.52,503.1565,245.5986,506.9984,256.967,522.13,245.52" style="stroke:#181818;stroke-width:1;"/></g><!--reverse link Authenticator to PasswordAuthenticator--><g class="link" data-entity-1="ent0011" data-entity-2="ent0014" data-link-type="extension" data-source-line="83" id="lnk17"><path codeLine="83" d="M615.3,263.52 C615.3,281.6 615.3,286.47 615.3,305.77" fill="none" id="Authenticator-backto-PasswordAuthenticator" style="stroke:#181818;stroke-width:1;"/><polygon fill="none" points="615.3,245.52,609.3,263.52,621.3,263.52,615.3,245.52" style="stroke:#181818;stroke-width:1;"/></g><!--reverse link Authenticator to ApiTokenAuthenticator--><g class="link" data-entity-1="ent0011" data-entity-2="ent0016" data-link-type="extension" data-source-line="84" id="lnk18"><path codeLine="84" d="M745.0295,250.4772 C809.2595,268.5172 873.09,286.44 941.65,305.7" fill="none" id="Authenticator-backto-ApiTokenAuthenticator" style="stroke:#181818;stroke-width:1;"/><polygon fill="none" points="727.7,245.61,743.407,256.2537,746.6519,244.7008,727.7,245.61" style="stroke:#181818;stroke-width:1;"/></g><!--reverse link OAuthAuthenticator to OAuthGoogleAuthenticator--><g class="link" data-entity-1="ent0012" data-entity-2="ent0015" data-link-type="extension" data-source-line="85" id="lnk19"><path codeLine="85" d="M226.3,405.12 C226.3,428.12 226.3,439.24 226.3,463.5" fill="none" id="OAuthAuthenticator-backto-OAuthGoogleAuthenticator" style="stroke:#181818;stroke-width:1;"/><polygon fill="none" points="226.3,387.12,220.3,405.12,232.3,405.12,226.3,387.12" style="stroke:#181818;stroke-width:1;"/></g><!--link PasswordAuthenticator to UserRepository--><g class="link" data-entity-1="ent0014" data-entity-2="ent0003" data-link-type="dependency" data-source-line="87" id="lnk20"><path codeLine="87" d="M615.3,387.12 C615.3,415.52 615.3,447.24 615.3,473.62" fill="none" id="PasswordAuthenticator-to-UserRepository" style="stroke:#181818;stroke-width:1;"/><polygon fill="#181818" points="615.3,479.62,619.3,470.62,615.3,474.62,611.3,470.62,615.3,479.62" style="stroke:#181818;stroke-width:1;"/><text fill="#000000" font-family="sans-serif" font-size="13" lengthAdjust="spacing" textLength="29.7832" x="616.3" y="429.8469">uses</text></g><!--link ApiTokenAuthenticator to TokenRepository--><g class="link" data-entity-1="ent0016" data-entity-2="ent0004" data-link-type="dependency" data-source-line="88" id="lnk21"><path codeLine="88" d="M1083.3,387.12 C1083.3,415.52 1083.3,447.24 1083.3,473.62" fill="none" id="ApiTokenAuthenticator-to-TokenRepository" style="stroke:#181818;stroke-width:1;"/><polygon fill="#181818" points="1083.3,479.62,1087.3,470.62,1083.3,474.62,1079.3,470.62,1083.3,479.62" style="stroke:#181818;stroke-width:1;"/><text fill="#000000" font-family="sans-serif" font-size="13" lengthAdjust="spacing" textLength="29.7832" x="1084.3" y="429.8469">uses</text></g><!--link OAuthGoogleAuthenticator to FakeOAuthClient--><g class="link" data-entity-1="ent0015" data-entity-2="ent0010" data-link-type="dependency" data-source-line="89" id="lnk22"><path codeLine="89" d="M226.3,561.11 C226.3,587.63 226.3,614.22 226.3,639.33" fill="none" id="OAuthGoogleAuthenticator-to-FakeOAuthClient" style="stroke:#181818;stroke-width:1;"/><polygon fill="#181818" points="226.3,645.33,230.3,636.33,226.3,640.33,222.3,636.33,226.3,645.33" style="stroke:#181818;stroke-width:1;"/><text fill="#000000" font-family="sans-serif" font-size="13" lengthAdjust="spacing" textLength="29.7832" x="227.3" y="603.7369">uses</text></g><!--link AuthenticationService to Authenticator--><g class="link" data-entity-1="ent0023" data-entity-2="ent0011" data-link-type="dependency" data-source-line="101" id="lnk24"><path codeLine="101" d="M615.3,103.97 C615.3,128.82 615.3,152.54 615.3,174.52" fill="none" id="AuthenticationService-to-Authenticator" style="stroke:#181818;stroke-width:1;"/><polygon fill="#181818" points="615.3,180.52,619.3,171.52,615.3,175.52,611.3,171.52,615.3,180.52" style="stroke:#181818;stroke-width:1;"/><text fill="#000000" font-family="sans-serif" font-size="13" lengthAdjust="spacing" textLength="76.0894" x="616.3" y="146.9569">depends on</text></g><?plantuml-src hLPTRvim57tth_1RG5t-0DecCSesf3LKGFSoJSW1DxL2SMGxcRAF_pxRWO1Tqn1jlDc-7-SUdtlD0hwR-i02HcaMmzlqBanMSZLjMJM8S_Z0COE_09JV3TpBHOkUSG2vO7fl2SkTDFj1MJritcWlpx1-0mqxlpEidd2rFOVmJ1iOm3Mb3VW3NWMwW5byd-P9aMP9d4Cl_90NMHWLIRhA_LSzqLgcGPM0GwqPtb5E16N7SzMFfAtBzR7iwp4BynKyAr11jxXrH2AyFA26r9vG1Y-AF3adxHr-bbuJQ5Ho7i2QLABRSJju_dpuPk8fz1fwgQ5B01pR-Is_Cu0BLLjrllszN4wK16naXgrr2C04aSlb-vEg0rWnZ0Jcu9A-ql2X-0oZBqcyAcRqp4UqnMcu5qzHGt0hpWHki2YHtAQC_CJbdZMUuc7ecWDcvF5uOdY2h0j05Kw9COb2sGnmt0ZNz862Bd6J2ad2pkZHi8izoLoj5gYHKhYLMXo3jC9fAlufva2VD24CLy9WJwOqmsjTl4nxaRueNKLPNCGcZ_cCAx_l1fUxJEUfxaDPK2_Cm9e__jMyZ-Z-HEccmMuqKmOULQdAIeisi5Ni_-yhwxIs8xfntL2TfwVMC9YpUlzwwXpwSLwQoz094ZXKFyZImJu0RWtruseqmGBr273WfaxPstEoSvXKXlAnXrRdCsVYm3pElYPHFADFHda9RNFC3gJ2hd50MNTBt_JFWu7tUwyELp1lRf1U90tTa5PxbUAuw_zMvgfbL8LYqUHLFjDuXzkQGzh-1G00?></g></svg>