<svg xmlns="http://www.w3.org/2000/svg" xmlns:xlink="http://www.w3.org/1999/xlink" contentStyleType="text/css" data-diagram-type="CLASS" height="434px" preserveAspectRatio="none" style="width:655px;height:434px;background:#FFFFFF;" version="1.1" viewBox="0 0 655 434" width="655px" zoomAndPan="magnify"><?plantuml 1.2026.4beta2?><defs/><g><!--class LoggerStrategy--><g class="entity" data-qualified-name="LoggerStrategy" data-source-line="4" id="ent0002"><rect fill="#F1F1F1" height="64.2969" rx="2.5" ry="2.5" style="stroke:#181818;stroke-width:0.5;" width="187.6836" x="230" y="213.49"/><ellipse cx="266.2357" cy="229.49" fill="#A9DCDF" rx="11" ry="11" style="stroke:#181818;stroke-width:1;"/><path d="M266.3451,224.8338 L265.1888,229.9119 L267.5169,229.9119 L266.3451,224.8338 Z M264.8607,222.5994 L267.8451,222.5994 L271.2044,234.99 L268.7513,234.99 L267.9857,231.9275 L264.7044,231.9275 L263.9544,234.99 L261.5169,234.99 L264.8607,222.5994 Z " fill="#000000"/><text fill="#000000" font-family="sans-serif" font-size="14" font-style="italic" lengthAdjust="spacing" textLength="108.4932" x="284.9547" y="234.3367">LoggerStrategy</text><line style="stroke:#181818;stroke-width:0.5;" x1="231" x2="416.6836" y1="245.49" y2="245.49"/><line style="stroke:#181818;stroke-width:0.5;" x1="231" x2="416.6836" y1="253.49" y2="253.49"/><g data-visibility-modifier="PUBLIC_METHOD"><ellipse cx="241" cy="267.1384" fill="#84BE84" rx="3" ry="3" style="stroke:#038048;stroke-width:1;"/></g><text fill="#000000" font-family="sans-serif" font-size="14" lengthAdjust="spacing" textLength="161.6836" x="250" y="270.4851">log(message: str): void</text></g><!--class ConsoleLogger--><g class="entity" data-qualified-name="ConsoleLogger" data-source-line="11" id="ent0003"><rect fill="#F1F1F1" height="64.2969" rx="2.5" ry="2.5" style="stroke:#181818;stroke-width:0.5;" width="187.6836" x="7" y="346.93"/><ellipse cx="45.2198" cy="362.93" fill="#ADD1B2" rx="11" ry="11" style="stroke:#181818;stroke-width:1;"/><path d="M48.1886,368.5706 Q47.6104,368.8675 46.9698,369.0081 Q46.3292,369.1644 45.6261,369.1644 Q43.1261,369.1644 41.7979,367.5238 Q40.4854,365.8675 40.4854,362.7425 Q40.4854,359.6175 41.7979,357.9613 Q43.1261,356.305 45.6261,356.305 Q46.3292,356.305 46.9698,356.4613 Q47.6261,356.6175 48.1886,356.9144 L48.1886,359.6331 Q47.5636,359.055 46.9698,358.7894 Q46.3761,358.5081 45.7511,358.5081 Q44.4073,358.5081 43.7198,359.5863 Q43.0323,360.6488 43.0323,362.7425 Q43.0323,364.8363 43.7198,365.9144 Q44.4073,366.9769 45.7511,366.9769 Q46.3761,366.9769 46.9698,366.7113 Q47.5636,366.43 48.1886,365.8519 L48.1886,368.5706 Z " fill="#000000"/><text fill="#000000" font-family="sans-serif" font-size="14" lengthAdjust="spacing" textLength="104.084" x="64.3798" y="367.7767">ConsoleLogger</text><line style="stroke:#181818;stroke-width:0.5;" x1="8" x2="193.6836" y1="378.93" y2="378.93"/><line style="stroke:#181818;stroke-width:0.5;" x1="8" x2="193.6836" y1="386.93" y2="386.93"/><g data-visibility-modifier="PUBLIC_METHOD"><ellipse cx="18" cy="400.5784" fill="#84BE84" rx="3" ry="3" style="stroke:#038048;stroke-width:1;"/></g><text fill="#000000" font-family="sans-serif" font-size="14" lengthAdjust="spacing" textLength="161.6836" x="27" y="403.9251">log(message: str): void</text></g><!--class FileLogger--><g class="entity" data-qualified-name="FileLogger" data-source-line="15" id="ent0004"><rect fill="#F1F1F1" height="80.5938" rx="2.5" ry="2.5" style="stroke:#181818;stroke-width:0.5;" width="187.6836" x="230" y="338.79"/><ellipse cx="283.1152" cy="354.79" fill="#ADD1B2" rx="11" ry="11" style="stroke:#181818;stroke-width:1;"/><path d="M286.084,360.4306 Q285.5059,360.7275 284.8652,360.8681 Q284.2246,361.0244 283.5215,361.0244 Q281.0215,361.0244 279.6934,359.3837 Q278.3809,357.7275 278.3809,354.6025 Q278.3809,351.4775 279.6934,349.8212 Q281.0215,348.165 283.5215,348.165 Q284.2246,348.165 284.8652,348.3212 Q285.5215,348.4775 286.084,348.7744 L286.084,351.4931 Q285.459,350.915 284.8652,350.6494 Q284.2715,350.3681 283.6465,350.3681 Q282.3027,350.3681 281.6152,351.4462 Q280.9277,352.5087 280.9277,354.6025 Q280.9277,356.6962 281.6152,357.7744 Q282.3027,358.8369 283.6465,358.8369 Q284.2715,358.8369 284.8652,358.5712 Q285.459,358.29 286.084,357.7119 L286.084,360.4306 Z " fill="#000000"/><text fill="#000000" font-family="sans-serif" font-size="14" lengthAdjust="spacing" textLength="72.9531" x="303.6152" y="359.6367">FileLogger</text><line style="stroke:#181818;stroke-width:0.5;" x1="231" x2="416.6836" y1="370.79" y2="370.79"/><g data-visibility-modifier="PRIVATE_FIELD"><rect fill="none" height="6" style="stroke:#C82930;stroke-width:1;" width="6" x="238" y="381.4384"/></g><text fill="#000000" font-family="sans-serif" font-size="14" lengthAdjust="spacing" textLength="88.7305" x="250" y="387.7851">filename: str</text><line style="stroke:#181818;stroke-width:0.5;" x1="231" x2="416.6836" y1="395.0869" y2="395.0869"/><g data-visibility-modifier="PUBLIC_METHOD"><ellipse cx="241" cy="408.7353" fill="#84BE84" rx="3" ry="3" style="stroke:#038048;stroke-width:1;"/></g><text fill="#000000" font-family="sans-serif" font-size="14" lengthAdjust="spacing" textLength="161.6836" x="250" y="412.082">log(message: str): void</text></g><!--class RemoteLogger--><g class="entity" data-qualified-name="RemoteLogger" data-source-line="20" id="ent0005"><rect fill="#F1F1F1" height="64.2969" rx="2.5" ry="2.5" style="stroke:#181818;stroke-width:0.5;" width="187.6836" x="453" y="346.93"/><ellipse cx="491.6382" cy="362.93" fill="#ADD1B2" rx="11" ry="11" style="stroke:#181818;stroke-width:1;"/><path d="M494.6069,368.5706 Q494.0288,368.8675 493.3882,369.0081 Q492.7476,369.1644 492.0444,369.1644 Q489.5444,369.1644 488.2163,367.5238 Q486.9038,365.8675 486.9038,362.7425 Q486.9038,359.6175 488.2163,357.9613 Q489.5444,356.305 492.0444,356.305 Q492.7476,356.305 493.3882,356.4613 Q494.0444,356.6175 494.6069,356.9144 L494.6069,359.6331 Q493.9819,359.055 493.3882,358.7894 Q492.7944,358.5081 492.1694,358.5081 Q490.8257,358.5081 490.1382,359.5863 Q489.4507,360.6488 489.4507,362.7425 Q489.4507,364.8363 490.1382,365.9144 Q490.8257,366.9769 492.1694,366.9769 Q492.7944,366.9769 493.3882,366.7113 Q493.9819,366.43 494.6069,365.8519 L494.6069,368.5706 Z " fill="#000000"/><text fill="#000000" font-family="sans-serif" font-size="14" lengthAdjust="spacing" textLength="103.1543" x="510.8911" y="367.7767">RemoteLogger</text><line style="stroke:#181818;stroke-width:0.5;" x1="454" x2="639.6836" y1="378.93" y2="378.93"/><line style="stroke:#181818;stroke-width:0.5;" x1="454" x2="639.6836" y1="386.93" y2="386.93"/><g data-visibility-modifier="PUBLIC_METHOD"><ellipse cx="464" cy="400.5784" fill="#84BE84" rx="3" ry="3" style="stroke:#038048;stroke-width:1;"/></g><text fill="#000000" font-family="sans-serif" font-size="14" lengthAdjust="spacing" textLength="161.6836" x="473" y="403.9251">log(message: str): void</text></g><!--class Logger--><g class="entity" data-qualified-name="Logger" data-source-line="31" id="ent0009"><rect fill="#F1F1F1" height="129.4844" rx="2.5" ry="2.5" style="stroke:#181818;stroke-width:0.5;" width="370.6338" x="138.52" y="7"/><ellipse cx="295.333" cy="23" fill="#ADD1B2" rx="11" ry="11" style="stroke:#181818;stroke-width:1;"/><path d="M298.3017,28.6406 Q297.7236,28.9375 297.083,29.0781 Q296.4424,29.2344 295.7392,29.2344 Q293.2392,29.2344 291.9111,27.5938 Q290.5986,25.9375 290.5986,22.8125 Q290.5986,19.6875 291.9111,18.0313 Q293.2392,16.375 295.7392,16.375 Q296.4424,16.375 297.083,16.5313 Q297.7392,16.6875 298.3017,16.9844 L298.3017,19.7031 Q297.6767,19.125 297.083,18.8594 Q296.4892,18.5781 295.8642,18.5781 Q294.5205,18.5781 293.833,19.6563 Q293.1455,20.7188 293.1455,22.8125 Q293.1455,24.9063 293.833,25.9844 Q294.5205,27.0469 295.8642,27.0469 Q296.4892,27.0469 297.083,26.7813 Q297.6767,26.5 298.3017,25.9219 L298.3017,28.6406 Z " fill="#000000"/><text fill="#000000" font-family="sans-serif" font-size="14" lengthAdjust="spacing" textLength="48.5078" x="315.833" y="27.8467">Logger</text><line style="stroke:#181818;stroke-width:0.5;" x1="139.52" x2="508.1538" y1="39" y2="39"/><g data-visibility-modifier="PRIVATE_FIELD"><rect fill="none" height="6" style="stroke:#C82930;stroke-width:1;" width="6" x="146.52" y="49.6484"/></g><text fill="#000000" font-family="sans-serif" font-size="14" lengthAdjust="spacing" textLength="235.498" x="158.52" y="55.9951">strategies: List&lt;LoggerStrategy&gt;</text><line style="stroke:#181818;stroke-width:0.5;" x1="139.52" x2="508.1538" y1="63.2969" y2="63.2969"/><g data-visibility-modifier="PUBLIC_METHOD"><ellipse cx="149.52" cy="76.9453" fill="#84BE84" rx="3" ry="3" style="stroke:#038048;stroke-width:1;"/></g><text fill="#000000" font-family="sans-serif" font-size="14" lengthAdjust="spacing" textLength="231.6016" x="158.52" y="80.292">log_message(message: str): void</text><g data-visibility-modifier="PRIVATE_METHOD"><rect fill="#F24D5C" height="6" style="stroke:#C82930;stroke-width:1;" width="6" x="146.52" y="90.2422"/></g><text fill="#000000" font-family="sans-serif" font-size="14" lengthAdjust="spacing" textLength="273.4717" x="158.52" y="96.5889">_validate_message(message: str): void</text><g data-visibility-modifier="PUBLIC_METHOD"><ellipse cx="149.52" cy="109.5391" fill="#84BE84" rx="3" ry="3" style="stroke:#038048;stroke-width:1;"/></g><text fill="#000000" font-family="sans-serif" font-size="14" lengthAdjust="spacing" textLength="317.5156" x="158.52" y="112.8857">add_strategy(strategy: LoggerStrategy): void</text><g data-visibility-modifier="PUBLIC_METHOD"><ellipse cx="149.52" cy="125.8359" fill="#84BE84" rx="3" ry="3" style="stroke:#038048;stroke-width:1;"/></g><text fill="#000000" font-family="sans-serif" font-size="14" lengthAdjust="spacing" textLength="344.6338" x="158.52" y="129.1826">remove_strategy(strategy: LoggerStrategy): void</text></g><!--reverse link LoggerStrategy to ConsoleLogger--><g class="link" data-entity-1="ent0002" data-entity-2="ent0003" data-link-type="extension" data-source-line="24" id="lnk6"><path codeLine="24" d="M254.924,287.2614 C219.744,308.0014 189.37,325.9 154.21,346.63" fill="none" id="LoggerStrategy-backto-ConsoleLogger" style="stroke:#181818;stroke-width:1;"/><polygon fill="none" points="270.43,278.12,251.8769,282.0927,257.9712,292.43,270.43,278.12" style="stroke:#181818;stroke-width:1;"/></g><!--reverse link LoggerStrategy to FileLogger--><g class="link" data-entity-1="ent0002" data-entity-2="ent0004" data-link-type="extension" data-source-line="25" id="lnk7"><path codeLine="25" d="M323.84,296.12 C323.84,314.2 323.84,319.07 323.84,338.37" fill="none" id="LoggerStrategy-backto-FileLogger" style="stroke:#181818;stroke-width:1;"/><polygon fill="none" points="323.84,278.12,317.84,296.12,329.84,296.12,323.84,278.12" style="stroke:#181818;stroke-width:1;"/></g><!--reverse link LoggerStrategy to RemoteLogger--><g class="link" data-entity-1="ent0002" data-entity-2="ent0005" data-link-type="extension" data-source-line="26" id="lnk8"><path codeLine="26" d="M392.7648,287.2633 C427.9348,308.0033 458.31,325.9 493.48,346.63" fill="none" id="LoggerStrategy-backto-RemoteLogger" style="stroke:#181818;stroke-width:1;"/><polygon fill="none" points="377.26,278.12,389.7171,292.4316,395.8126,282.095,377.26,278.12" style="stroke:#181818;stroke-width:1;"/></g><!--link Logger to LoggerStrategy--><g class="link" data-entity-1="ent0009" data-entity-2="ent0002" data-link-type="dependency" data-source-line="43" id="lnk10"><path codeLine="43" d="M323.84,136.75 C323.84,162.91 323.84,185.96 323.84,207.33" fill="none" id="Logger-to-LoggerStrategy" style="stroke:#181818;stroke-width:1;"/><polygon fill="#181818" points="323.84,213.33,327.84,204.33,323.84,208.33,319.84,204.33,323.84,213.33" style="stroke:#181818;stroke-width:1;"/><text fill="#000000" font-family="sans-serif" font-size="13" lengthAdjust="spacing" textLength="122.9922" x="324.84" y="179.5569">uses (aggregation)</text></g><?plantuml-src ZPDHQuCm4CVV_HJtfbBy0j8MdAIh87N4F6nFajKi1DI0IOMoxRilhNQROctkwRZS_-xFZuiBctlXk90J717q_0RHqoMDIP8TJFc-XBuhtTAZXcD5bO9KSixQt9GqusVuTC34gfBSgvbIbBCGJByVGYT5wNmxYxDTYBD3Z151Dry9oXSLlObODafMhFTYuQ5NxSH44doOIaFhljzo2cQrrFQh9xpMNq4mjZ_RyMTrzlc_1ml21BqIy38Sxz4LSuPz2yXZLAet89WA8HLAhyU-jiulYM8WCKlaEgleQ2LAetlOkg9bMGohpzuj2ITNE5AqXat7x4KFJnIZDBhyadoVl2mVvq0i2BRJRnB2IJ457kMyPPng8Hl_1m00?></g></svg>