<svg xmlns="http://www.w3.org/2000/svg" xmlns:xlink="http://www.w3.org/1999/xlink" version="1.1" data-diagram-type="CLASS" style="width:2013px;height:945px;background:#FFFFFF;" width="2013px" height="945px" viewBox="0 0 2013 945" zoomAndPan="magnify" preserveAspectRatio="none" contentStyleType="text/css"><?plantuml 1.2026.9beta4?><defs/><g font-family="sans-serif" lengthAdjust="spacing"><!--class PasswordAuthenticator--><g class="entity" data-qualified-name="PasswordAuthenticator" id="ent0001" data-source-line="1"><rect x="631.34" y="343.86" width="563.653" height="80.594" fill="#F1F1F1" style="stroke:#181818;stroke-width:0.5;" rx="2.5" ry="2.5"/><ellipse cx="827.901" cy="359.86" rx="11" ry="11" fill="#A9DCDF" style="stroke:#181818;stroke-width:1;"/><path d="M828.01,355.204 L826.854,360.282 L829.182,360.282 L828.01,355.204 Z M826.526,352.969 L829.51,352.969 L832.869,365.36 L830.416,365.36 L829.651,362.298 L826.369,362.298 L825.619,365.36 L823.182,365.36 L826.526,352.969 Z " fill="#000"/><text x="848.401" y="364.707" fill="#000" font-size="14" textLength="162.032" font-style="italic">PasswordAuthenticator</text><line x1="632.34" y1="375.86" x2="1193.993" y2="375.86" style="stroke:#181818;stroke-width:0.5;"/><line x1="632.34" y1="383.86" x2="1193.993" y2="383.86" style="stroke:#181818;stroke-width:0.5;"/><g data-visibility-modifier="PUBLIC_METHOD"><ellipse cx="642.34" cy="397.508" rx="3" ry="3" fill="#84BE84" style="stroke:#038048;stroke-width:1;"/></g><text x="651.34" y="400.855" fill="#000" font-size="14" textLength="184.687">~PasswordAuthenticator()</text><g data-visibility-modifier="PUBLIC_METHOD"><ellipse cx="642.34" cy="413.805" rx="3" ry="3" fill="#84BE84" style="stroke:#038048;stroke-width:1;"/></g><text x="651.34" y="417.152" fill="#000" font-size="14" textLength="537.653">authenticate(username : std::string_view, password : std::string_view) : bool</text></g><!--class OAuthAuthenticator--><g class="entity" data-qualified-name="OAuthAuthenticator" id="ent0002" data-source-line="6"><rect x="1237.52" y="343.86" width="333.303" height="80.594" fill="#F1F1F1" style="stroke:#181818;stroke-width:0.5;" rx="2.5" ry="2.5"/><ellipse cx="1330.123" cy="359.86" rx="11" ry="11" fill="#A9DCDF" style="stroke:#181818;stroke-width:1;"/><path d="M1330.232,355.204 L1329.076,360.282 L1331.404,360.282 L1330.232,355.204 Z M1328.748,352.969 L1331.732,352.969 L1335.092,365.36 L1332.639,365.36 L1331.873,362.298 L1328.592,362.298 L1327.842,365.36 L1325.404,365.36 L1328.748,352.969 Z " fill="#000"/><text x="1350.623" y="364.707" fill="#000" font-size="14" textLength="139.597" font-style="italic">OAuthAuthenticator</text><line x1="1238.52" y1="375.86" x2="1569.823" y2="375.86" style="stroke:#181818;stroke-width:0.5;"/><line x1="1238.52" y1="383.86" x2="1569.823" y2="383.86" style="stroke:#181818;stroke-width:0.5;"/><g data-visibility-modifier="PUBLIC_METHOD"><ellipse cx="1248.52" cy="397.508" rx="3" ry="3" fill="#84BE84" style="stroke:#038048;stroke-width:1;"/></g><text x="1257.52" y="400.855" fill="#000" font-size="14" textLength="162.251">~OAuthAuthenticator()</text><g data-visibility-modifier="PUBLIC_METHOD"><ellipse cx="1248.52" cy="413.805" rx="3" ry="3" fill="#84BE84" style="stroke:#038048;stroke-width:1;"/></g><text x="1257.52" y="417.152" fill="#000" font-size="14" textLength="307.303">authenticate(token : std::string_view) : bool</text></g><!--class ApiTokenAuthenticator--><g class="entity" data-qualified-name="ApiTokenAuthenticator" id="ent0003" data-source-line="11"><rect x="1625.52" y="343.86" width="333.303" height="80.594" fill="#F1F1F1" style="stroke:#181818;stroke-width:0.5;" rx="2.5" ry="2.5"/><ellipse cx="1707.507" cy="359.86" rx="11" ry="11" fill="#A9DCDF" style="stroke:#181818;stroke-width:1;"/><path d="M1707.616,355.204 L1706.46,360.282 L1708.788,360.282 L1707.616,355.204 Z M1706.132,352.969 L1709.116,352.969 L1712.476,365.36 L1710.022,365.36 L1709.257,362.298 L1705.976,362.298 L1705.226,365.36 L1702.788,365.36 L1706.132,352.969 Z " fill="#000"/><text x="1728.007" y="364.707" fill="#000" font-size="14" textLength="160.829" font-style="italic">ApiTokenAuthenticator</text><line x1="1626.52" y1="375.86" x2="1957.823" y2="375.86" style="stroke:#181818;stroke-width:0.5;"/><line x1="1626.52" y1="383.86" x2="1957.823" y2="383.86" style="stroke:#181818;stroke-width:0.5;"/><g data-visibility-modifier="PUBLIC_METHOD"><ellipse cx="1636.52" cy="397.508" rx="3" ry="3" fill="#84BE84" style="stroke:#038048;stroke-width:1;"/></g><text x="1645.52" y="400.855" fill="#000" font-size="14" textLength="183.483">~ApiTokenAuthenticator()</text><g data-visibility-modifier="PUBLIC_METHOD"><ellipse cx="1636.52" cy="413.805" rx="3" ry="3" fill="#84BE84" style="stroke:#038048;stroke-width:1;"/></g><text x="1645.52" y="417.152" fill="#000" font-size="14" textLength="307.303">authenticate(token : std::string_view) : bool</text></g><!--class PasswordStore--><g class="entity" data-qualified-name="PasswordStore" id="ent0004" data-source-line="17"><rect x="7" y="675.64" width="600.342" height="80.594" fill="#F1F1F1" style="stroke:#181818;stroke-width:0.5;" rx="2.5" ry="2.5"/><ellipse cx="251.132" cy="691.64" rx="11" ry="11" fill="#A9DCDF" style="stroke:#181818;stroke-width:1;"/><path d="M251.241,686.984 L250.085,692.062 L252.413,692.062 L251.241,686.984 Z M249.757,684.749 L252.741,684.749 L256.101,697.14 L253.647,697.14 L252.882,694.078 L249.601,694.078 L248.851,697.14 L246.413,697.14 L249.757,684.749 Z " fill="#000"/><text x="271.632" y="696.487" fill="#000" font-size="14" textLength="103.578" font-style="italic">PasswordStore</text><line x1="8" y1="707.64" x2="606.342" y2="707.64" style="stroke:#181818;stroke-width:0.5;"/><line x1="8" y1="715.64" x2="606.342" y2="715.64" style="stroke:#181818;stroke-width:0.5;"/><g data-visibility-modifier="PUBLIC_METHOD"><ellipse cx="18" cy="729.288" rx="3" ry="3" fill="#84BE84" style="stroke:#038048;stroke-width:1;"/></g><text x="27" y="732.635" fill="#000" font-size="14" textLength="126.232">~PasswordStore()</text><g data-visibility-modifier="PUBLIC_METHOD"><ellipse cx="18" cy="745.585" rx="3" ry="3" fill="#84BE84" style="stroke:#038048;stroke-width:1;"/></g><text x="27" y="748.932" fill="#000" font-size="14" textLength="574.342">password_hash_for(username : std::string_view) : std::optional&lt;std::string_view></text></g><!--class PasswordVerifier--><g class="entity" data-qualified-name="PasswordVerifier" id="ent0005" data-source-line="22"><rect x="642.5" y="675.64" width="529.337" height="80.594" fill="#F1F1F1" style="stroke:#181818;stroke-width:0.5;" rx="2.5" ry="2.5"/><ellipse cx="844.273" cy="691.64" rx="11" ry="11" fill="#A9DCDF" style="stroke:#181818;stroke-width:1;"/><path d="M844.382,686.984 L843.226,692.062 L845.554,692.062 L844.382,686.984 Z M842.898,684.749 L845.882,684.749 L849.242,697.14 L846.789,697.14 L846.023,694.078 L842.742,694.078 L841.992,697.14 L839.554,697.14 L842.898,684.749 Z " fill="#000"/><text x="864.773" y="696.487" fill="#000" font-size="14" textLength="117.291" font-style="italic">PasswordVerifier</text><line x1="643.5" y1="707.64" x2="1170.837" y2="707.64" style="stroke:#181818;stroke-width:0.5;"/><line x1="643.5" y1="715.64" x2="1170.837" y2="715.64" style="stroke:#181818;stroke-width:0.5;"/><g data-visibility-modifier="PUBLIC_METHOD"><ellipse cx="653.5" cy="729.288" rx="3" ry="3" fill="#84BE84" style="stroke:#038048;stroke-width:1;"/></g><text x="662.5" y="732.635" fill="#000" font-size="14" textLength="139.945">~PasswordVerifier()</text><g data-visibility-modifier="PUBLIC_METHOD"><ellipse cx="653.5" cy="745.585" rx="3" ry="3" fill="#84BE84" style="stroke:#038048;stroke-width:1;"/></g><text x="662.5" y="748.932" fill="#000" font-size="14" textLength="503.337">verify(password : std::string_view, stored_hash : std::string_view) : bool</text></g><!--class InMemoryPasswordStore--><g class="entity" data-qualified-name="InMemoryPasswordStore" id="ent0006" data-source-line="27"><rect x="7" y="817.23" width="600.342" height="113.188" fill="#F1F1F1" style="stroke:#181818;stroke-width:0.5;" rx="2.5" ry="2.5"/><ellipse cx="216.163" cy="833.23" rx="11" ry="11" fill="#ADD1B2" style="stroke:#181818;stroke-width:1;"/><path d="M219.131,838.871 Q218.553,839.167 217.913,839.308 Q217.272,839.464 216.569,839.464 Q214.069,839.464 212.741,837.824 Q211.428,836.167 211.428,833.042 Q211.428,829.917 212.741,828.261 Q214.069,826.605 216.569,826.605 Q217.272,826.605 217.913,826.761 Q218.569,826.917 219.131,827.214 L219.131,829.933 Q218.506,829.355 217.913,829.089 Q217.319,828.808 216.694,828.808 Q215.35,828.808 214.663,829.886 Q213.975,830.949 213.975,833.042 Q213.975,835.136 214.663,836.214 Q215.35,837.277 216.694,837.277 Q217.319,837.277 217.913,837.011 Q218.506,836.73 219.131,836.152 L219.131,838.871 Z " fill="#000"/><text x="236.663" y="838.077" fill="#000" font-size="14" textLength="173.517">InMemoryPasswordStore</text><line x1="8" y1="849.23" x2="606.342" y2="849.23" style="stroke:#181818;stroke-width:0.5;"/><g data-visibility-modifier="PRIVATE_FIELD"><rect x="15" y="859.878" width="6" height="6" fill="none" style="stroke:#C82930;stroke-width:1;"/></g><text x="27" y="866.225" fill="#000" font-size="14" textLength="162.148">username_ : std::string</text><g data-visibility-modifier="PRIVATE_FIELD"><rect x="15" y="876.175" width="6" height="6" fill="none" style="stroke:#C82930;stroke-width:1;"/></g><text x="27" y="882.522" fill="#000" font-size="14" textLength="199.24">password_hash_ : std::string</text><line x1="8" y1="889.824" x2="606.342" y2="889.824" style="stroke:#181818;stroke-width:0.5;"/><g data-visibility-modifier="PUBLIC_METHOD"><ellipse cx="18" cy="903.472" rx="3" ry="3" fill="#84BE84" style="stroke:#038048;stroke-width:1;"/></g><text x="27" y="906.819" fill="#000" font-size="14" textLength="540.729">InMemoryPasswordStore(username : std::string, password_hash : std::string)</text><g data-visibility-modifier="PUBLIC_METHOD"><ellipse cx="18" cy="919.769" rx="3" ry="3" fill="#84BE84" style="stroke:#038048;stroke-width:1;"/></g><text x="27" y="923.116" fill="#000" font-size="14" textLength="574.342">password_hash_for(username : std::string_view) : std::optional&lt;std::string_view></text></g><!--class DemoPasswordVerifier--><g class="entity" data-qualified-name="DemoPasswordVerifier" id="ent0007" data-source-line="35"><rect x="642.5" y="841.68" width="529.337" height="64.297" fill="#F1F1F1" style="stroke:#181818;stroke-width:0.5;" rx="2.5" ry="2.5"/><ellipse cx="823.475" cy="857.68" rx="11" ry="11" fill="#ADD1B2" style="stroke:#181818;stroke-width:1;"/><path d="M826.443,863.321 Q825.865,863.618 825.225,863.758 Q824.584,863.914 823.881,863.914 Q821.381,863.914 820.053,862.274 Q818.74,860.618 818.74,857.493 Q818.74,854.368 820.053,852.711 Q821.381,851.055 823.881,851.055 Q824.584,851.055 825.225,851.211 Q825.881,851.368 826.443,851.664 L826.443,854.383 Q825.818,853.805 825.225,853.539 Q824.631,853.258 824.006,853.258 Q822.662,853.258 821.975,854.336 Q821.287,855.399 821.287,857.493 Q821.287,859.586 821.975,860.664 Q822.662,861.727 824.006,861.727 Q824.631,861.727 825.225,861.461 Q825.818,861.18 826.443,860.602 L826.443,863.321 Z " fill="#000"/><text x="843.975" y="862.527" fill="#000" font-size="14" textLength="158.888">DemoPasswordVerifier</text><line x1="643.5" y1="873.68" x2="1170.837" y2="873.68" style="stroke:#181818;stroke-width:0.5;"/><line x1="643.5" y1="881.68" x2="1170.837" y2="881.68" style="stroke:#181818;stroke-width:0.5;"/><g data-visibility-modifier="PUBLIC_METHOD"><ellipse cx="653.5" cy="895.328" rx="3" ry="3" fill="#84BE84" style="stroke:#038048;stroke-width:1;"/></g><text x="662.5" y="898.675" fill="#000" font-size="14" textLength="503.337">verify(password : std::string_view, stored_hash : std::string_view) : bool</text></g><!--class PasswordLogin--><g class="entity" data-qualified-name="PasswordLogin" id="ent0008" data-source-line="39"><rect x="592.06" y="485.45" width="590.231" height="113.188" fill="#F1F1F1" style="stroke:#181818;stroke-width:0.5;" rx="2.5" ry="2.5"/><ellipse cx="830.785" cy="501.45" rx="11" ry="11" fill="#ADD1B2" style="stroke:#181818;stroke-width:1;"/><path d="M833.753,507.091 Q833.175,507.387 832.535,507.528 Q831.894,507.684 831.191,507.684 Q828.691,507.684 827.363,506.044 Q826.05,504.387 826.05,501.262 Q826.05,498.137 827.363,496.481 Q828.691,494.825 831.191,494.825 Q831.894,494.825 832.535,494.981 Q833.191,495.137 833.753,495.434 L833.753,498.153 Q833.128,497.575 832.535,497.309 Q831.941,497.028 831.316,497.028 Q829.972,497.028 829.285,498.106 Q828.597,499.169 828.597,501.262 Q828.597,503.356 829.285,504.434 Q829.972,505.497 831.316,505.497 Q831.941,505.497 832.535,505.231 Q833.128,504.95 833.753,504.372 L833.753,507.091 Z " fill="#000"/><text x="851.285" y="506.297" fill="#000" font-size="14" textLength="104.282">PasswordLogin</text><line x1="593.06" y1="517.45" x2="1181.291" y2="517.45" style="stroke:#181818;stroke-width:0.5;"/><g data-visibility-modifier="PRIVATE_FIELD"><rect x="600.06" y="528.098" width="6" height="6" fill="none" style="stroke:#C82930;stroke-width:1;"/></g><text x="612.06" y="534.445" fill="#000" font-size="14" textLength="213.199">store_ : const PasswordStore&amp;</text><g data-visibility-modifier="PRIVATE_FIELD"><rect x="600.06" y="544.395" width="6" height="6" fill="none" style="stroke:#C82930;stroke-width:1;"/></g><text x="612.06" y="550.742" fill="#000" font-size="14" textLength="240.926">verifier_ : const PasswordVerifier&amp;</text><line x1="593.06" y1="558.044" x2="1181.291" y2="558.044" style="stroke:#181818;stroke-width:0.5;"/><g data-visibility-modifier="PUBLIC_METHOD"><ellipse cx="603.06" cy="571.692" rx="3" ry="3" fill="#84BE84" style="stroke:#038048;stroke-width:1;"/></g><text x="612.06" y="575.039" fill="#000" font-size="14" textLength="564.231">PasswordLogin(store : const PasswordStore&amp;, verifier : const PasswordVerifier&amp;)</text><g data-visibility-modifier="PUBLIC_METHOD"><ellipse cx="603.06" cy="587.989" rx="3" ry="3" fill="#84BE84" style="stroke:#038048;stroke-width:1;"/></g><text x="612.06" y="591.336" fill="#000" font-size="14" textLength="537.653">authenticate(username : std::string_view, password : std::string_view) : bool</text></g><!--class OAuthTokenVerifier--><g class="entity" data-qualified-name="OAuthTokenVerifier" id="ent0009" data-source-line="48"><rect x="1262.17" y="675.64" width="284.002" height="80.594" fill="#F1F1F1" style="stroke:#181818;stroke-width:0.5;" rx="2.5" ry="2.5"/><ellipse cx="1331.138" cy="691.64" rx="11" ry="11" fill="#A9DCDF" style="stroke:#181818;stroke-width:1;"/><path d="M1331.247,686.984 L1330.091,692.062 L1332.419,692.062 L1331.247,686.984 Z M1329.763,684.749 L1332.747,684.749 L1336.107,697.14 L1333.653,697.14 L1332.888,694.078 L1329.607,694.078 L1328.857,697.14 L1326.419,697.14 L1329.763,684.749 Z " fill="#000"/><text x="1351.638" y="696.487" fill="#000" font-size="14" textLength="137.566" font-style="italic">OAuthTokenVerifier</text><line x1="1263.17" y1="707.64" x2="1545.172" y2="707.64" style="stroke:#181818;stroke-width:0.5;"/><line x1="1263.17" y1="715.64" x2="1545.172" y2="715.64" style="stroke:#181818;stroke-width:0.5;"/><g data-visibility-modifier="PUBLIC_METHOD"><ellipse cx="1273.17" cy="729.288" rx="3" ry="3" fill="#84BE84" style="stroke:#038048;stroke-width:1;"/></g><text x="1282.17" y="732.635" fill="#000" font-size="14" textLength="160.221">~OAuthTokenVerifier()</text><g data-visibility-modifier="PUBLIC_METHOD"><ellipse cx="1273.17" cy="745.585" rx="3" ry="3" fill="#84BE84" style="stroke:#038048;stroke-width:1;"/></g><text x="1282.17" y="748.932" fill="#000" font-size="14" textLength="258.002">verify(token : std::string_view) : bool</text></g><!--class DemoOAuthTokenVerifier--><g class="entity" data-qualified-name="DemoOAuthTokenVerifier" id="ent0010" data-source-line="53"><rect x="1213.58" y="825.38" width="381.175" height="96.891" fill="#F1F1F1" style="stroke:#181818;stroke-width:0.5;" rx="2.5" ry="2.5"/><ellipse cx="1310.336" cy="841.38" rx="11" ry="11" fill="#ADD1B2" style="stroke:#181818;stroke-width:1;"/><path d="M1313.305,847.021 Q1312.726,847.318 1312.086,847.458 Q1311.445,847.614 1310.742,847.614 Q1308.242,847.614 1306.914,845.974 Q1305.601,844.318 1305.601,841.193 Q1305.601,838.068 1306.914,836.411 Q1308.242,834.755 1310.742,834.755 Q1311.445,834.755 1312.086,834.911 Q1312.742,835.068 1313.305,835.364 L1313.305,838.083 Q1312.68,837.505 1312.086,837.239 Q1311.492,836.958 1310.867,836.958 Q1309.523,836.958 1308.836,838.036 Q1308.148,839.099 1308.148,841.193 Q1308.148,843.286 1308.836,844.364 Q1309.523,845.427 1310.867,845.427 Q1311.492,845.427 1312.086,845.161 Q1312.68,844.88 1313.305,844.302 L1313.305,847.021 Z " fill="#000"/><text x="1330.836" y="846.227" fill="#000" font-size="14" textLength="179.163">DemoOAuthTokenVerifier</text><line x1="1214.58" y1="857.38" x2="1593.755" y2="857.38" style="stroke:#181818;stroke-width:0.5;"/><g data-visibility-modifier="PRIVATE_FIELD"><rect x="1221.58" y="868.028" width="6" height="6" fill="none" style="stroke:#C82930;stroke-width:1;"/></g><text x="1233.58" y="874.375" fill="#000" font-size="14" textLength="172.088">valid_token_ : std::string</text><line x1="1214.58" y1="881.677" x2="1593.755" y2="881.677" style="stroke:#181818;stroke-width:0.5;"/><g data-visibility-modifier="PUBLIC_METHOD"><ellipse cx="1224.58" cy="895.325" rx="3" ry="3" fill="#84BE84" style="stroke:#038048;stroke-width:1;"/></g><text x="1233.58" y="898.672" fill="#000" font-size="14" textLength="355.175">DemoOAuthTokenVerifier(valid_token : std::string)</text><g data-visibility-modifier="PUBLIC_METHOD"><ellipse cx="1224.58" cy="911.622" rx="3" ry="3" fill="#84BE84" style="stroke:#038048;stroke-width:1;"/></g><text x="1233.58" y="914.969" fill="#000" font-size="14" textLength="258.002">verify(token : std::string_view) : bool</text></g><!--class OAuthLogin--><g class="entity" data-qualified-name="OAuthLogin" id="ent0011" data-source-line="60"><rect x="1217.69" y="493.6" width="372.972" height="96.891" fill="#F1F1F1" style="stroke:#181818;stroke-width:0.5;" rx="2.5" ry="2.5"/><ellipse cx="1359.003" cy="509.6" rx="11" ry="11" fill="#ADD1B2" style="stroke:#181818;stroke-width:1;"/><path d="M1361.971,515.241 Q1361.393,515.537 1360.753,515.678 Q1360.112,515.834 1359.409,515.834 Q1356.909,515.834 1355.581,514.194 Q1354.268,512.537 1354.268,509.412 Q1354.268,506.287 1355.581,504.631 Q1356.909,502.975 1359.409,502.975 Q1360.112,502.975 1360.753,503.131 Q1361.409,503.287 1361.971,503.584 L1361.971,506.303 Q1361.346,505.725 1360.753,505.459 Q1360.159,505.178 1359.534,505.178 Q1358.19,505.178 1357.503,506.256 Q1356.815,507.319 1356.815,509.412 Q1356.815,511.506 1357.503,512.584 Q1358.19,513.647 1359.534,513.647 Q1360.159,513.647 1360.753,513.381 Q1361.346,513.1 1361.971,512.522 L1361.971,515.241 Z " fill="#000"/><text x="1379.503" y="514.447" fill="#000" font-size="14" textLength="81.847">OAuthLogin</text><line x1="1218.69" y1="525.6" x2="1589.662" y2="525.6" style="stroke:#181818;stroke-width:0.5;"/><g data-visibility-modifier="PRIVATE_FIELD"><rect x="1225.69" y="536.248" width="6" height="6" fill="none" style="stroke:#C82930;stroke-width:1;"/></g><text x="1237.69" y="542.595" fill="#000" font-size="14" textLength="261.201">verifier_ : const OAuthTokenVerifier&amp;</text><line x1="1218.69" y1="549.897" x2="1589.662" y2="549.897" style="stroke:#181818;stroke-width:0.5;"/><g data-visibility-modifier="PUBLIC_METHOD"><ellipse cx="1228.69" cy="563.545" rx="3" ry="3" fill="#84BE84" style="stroke:#038048;stroke-width:1;"/></g><text x="1237.69" y="566.892" fill="#000" font-size="14" textLength="346.972">OAuthLogin(verifier : const OAuthTokenVerifier&amp;)</text><g data-visibility-modifier="PUBLIC_METHOD"><ellipse cx="1228.69" cy="579.842" rx="3" ry="3" fill="#84BE84" style="stroke:#038048;stroke-width:1;"/></g><text x="1237.69" y="583.189" fill="#000" font-size="14" textLength="307.303">authenticate(token : std::string_view) : bool</text></g><!--class ApiTokenVerifier--><g class="entity" data-qualified-name="ApiTokenVerifier" id="ent0012" data-source-line="68"><rect x="1670.17" y="675.64" width="284.002" height="80.594" fill="#F1F1F1" style="stroke:#181818;stroke-width:0.5;" rx="2.5" ry="2.5"/><ellipse cx="1749.877" cy="691.64" rx="11" ry="11" fill="#A9DCDF" style="stroke:#181818;stroke-width:1;"/><path d="M1749.986,686.984 L1748.83,692.062 L1751.158,692.062 L1749.986,686.984 Z M1748.502,684.749 L1751.486,684.749 L1754.846,697.14 L1752.393,697.14 L1751.627,694.078 L1748.346,694.078 L1747.596,697.14 L1745.158,697.14 L1748.502,684.749 Z " fill="#000"/><text x="1770.377" y="696.487" fill="#000" font-size="14" textLength="116.088" font-style="italic">ApiTokenVerifier</text><line x1="1671.17" y1="707.64" x2="1953.172" y2="707.64" style="stroke:#181818;stroke-width:0.5;"/><line x1="1671.17" y1="715.64" x2="1953.172" y2="715.64" style="stroke:#181818;stroke-width:0.5;"/><g data-visibility-modifier="PUBLIC_METHOD"><ellipse cx="1681.17" cy="729.288" rx="3" ry="3" fill="#84BE84" style="stroke:#038048;stroke-width:1;"/></g><text x="1690.17" y="732.635" fill="#000" font-size="14" textLength="138.742">~ApiTokenVerifier()</text><g data-visibility-modifier="PUBLIC_METHOD"><ellipse cx="1681.17" cy="745.585" rx="3" ry="3" fill="#84BE84" style="stroke:#038048;stroke-width:1;"/></g><text x="1690.17" y="748.932" fill="#000" font-size="14" textLength="258.002">verify(token : std::string_view) : bool</text></g><!--class DemoApiTokenVerifier--><g class="entity" data-qualified-name="DemoApiTokenVerifier" id="ent0013" data-source-line="73"><rect x="1632.32" y="825.38" width="359.696" height="96.891" fill="#F1F1F1" style="stroke:#181818;stroke-width:0.5;" rx="2.5" ry="2.5"/><ellipse cx="1729.076" cy="841.38" rx="11" ry="11" fill="#ADD1B2" style="stroke:#181818;stroke-width:1;"/><path d="M1732.045,847.021 Q1731.466,847.318 1730.826,847.458 Q1730.185,847.614 1729.482,847.614 Q1726.982,847.614 1725.654,845.974 Q1724.341,844.318 1724.341,841.193 Q1724.341,838.068 1725.654,836.411 Q1726.982,834.755 1729.482,834.755 Q1730.185,834.755 1730.826,834.911 Q1731.482,835.068 1732.045,835.364 L1732.045,838.083 Q1731.42,837.505 1730.826,837.239 Q1730.232,836.958 1729.607,836.958 Q1728.263,836.958 1727.576,838.036 Q1726.888,839.099 1726.888,841.193 Q1726.888,843.286 1727.576,844.364 Q1728.263,845.427 1729.607,845.427 Q1730.232,845.427 1730.826,845.161 Q1731.42,844.88 1732.045,844.302 L1732.045,847.021 Z " fill="#000"/><text x="1749.576" y="846.227" fill="#000" font-size="14" textLength="157.685">DemoApiTokenVerifier</text><line x1="1633.32" y1="857.38" x2="1991.016" y2="857.38" style="stroke:#181818;stroke-width:0.5;"/><g data-visibility-modifier="PRIVATE_FIELD"><rect x="1640.32" y="868.028" width="6" height="6" fill="none" style="stroke:#C82930;stroke-width:1;"/></g><text x="1652.32" y="874.375" fill="#000" font-size="14" textLength="172.088">valid_token_ : std::string</text><line x1="1633.32" y1="881.677" x2="1991.016" y2="881.677" style="stroke:#181818;stroke-width:0.5;"/><g data-visibility-modifier="PUBLIC_METHOD"><ellipse cx="1643.32" cy="895.325" rx="3" ry="3" fill="#84BE84" style="stroke:#038048;stroke-width:1;"/></g><text x="1652.32" y="898.672" fill="#000" font-size="14" textLength="333.696">DemoApiTokenVerifier(valid_token : std::string)</text><g data-visibility-modifier="PUBLIC_METHOD"><ellipse cx="1643.32" cy="911.622" rx="3" ry="3" fill="#84BE84" style="stroke:#038048;stroke-width:1;"/></g><text x="1652.32" y="914.969" fill="#000" font-size="14" textLength="258.002">verify(token : std::string_view) : bool</text></g><!--class ApiTokenLogin--><g class="entity" data-qualified-name="ApiTokenLogin" id="ent0014" data-source-line="80"><rect x="1625.81" y="493.6" width="372.726" height="96.891" fill="#F1F1F1" style="stroke:#181818;stroke-width:0.5;" rx="2.5" ry="2.5"/><ellipse cx="1756.383" cy="509.6" rx="11" ry="11" fill="#ADD1B2" style="stroke:#181818;stroke-width:1;"/><path d="M1759.352,515.241 Q1758.774,515.537 1758.133,515.678 Q1757.493,515.834 1756.789,515.834 Q1754.289,515.834 1752.961,514.194 Q1751.649,512.537 1751.649,509.412 Q1751.649,506.287 1752.961,504.631 Q1754.289,502.975 1756.789,502.975 Q1757.493,502.975 1758.133,503.131 Q1758.789,503.287 1759.352,503.584 L1759.352,506.303 Q1758.727,505.725 1758.133,505.459 Q1757.539,505.178 1756.914,505.178 Q1755.571,505.178 1754.883,506.256 Q1754.196,507.319 1754.196,509.412 Q1754.196,511.506 1754.883,512.584 Q1755.571,513.647 1756.914,513.647 Q1757.539,513.647 1758.133,513.381 Q1758.727,513.1 1759.352,512.522 L1759.352,515.241 Z " fill="#000"/><text x="1776.883" y="514.447" fill="#000" font-size="14" textLength="103.079">ApiTokenLogin</text><line x1="1626.81" y1="525.6" x2="1997.536" y2="525.6" style="stroke:#181818;stroke-width:0.5;"/><g data-visibility-modifier="PRIVATE_FIELD"><rect x="1633.81" y="536.248" width="6" height="6" fill="none" style="stroke:#C82930;stroke-width:1;"/></g><text x="1645.81" y="542.595" fill="#000" font-size="14" textLength="239.723">verifier_ : const ApiTokenVerifier&amp;</text><line x1="1626.81" y1="549.897" x2="1997.536" y2="549.897" style="stroke:#181818;stroke-width:0.5;"/><g data-visibility-modifier="PUBLIC_METHOD"><ellipse cx="1636.81" cy="563.545" rx="3" ry="3" fill="#84BE84" style="stroke:#038048;stroke-width:1;"/></g><text x="1645.81" y="566.892" fill="#000" font-size="14" textLength="346.726">ApiTokenLogin(verifier : const ApiTokenVerifier&amp;)</text><g data-visibility-modifier="PUBLIC_METHOD"><ellipse cx="1636.81" cy="579.842" rx="3" ry="3" fill="#84BE84" style="stroke:#038048;stroke-width:1;"/></g><text x="1645.81" y="583.189" fill="#000" font-size="14" textLength="307.303">authenticate(token : std::string_view) : bool</text></g><!--class AuthenticationService--><g class="entity" data-qualified-name="AuthenticationService" id="ent0015" data-source-line="88"><rect x="1094.61" y="7" width="619.113" height="259.859" fill="#F1F1F1" style="stroke:#181818;stroke-width:0.5;" rx="2.5" ry="2.5"/><ellipse cx="1322.66" cy="23" rx="11" ry="11" fill="#ADD1B2" style="stroke:#181818;stroke-width:1;"/><path d="M1325.629,28.641 Q1325.051,28.938 1324.41,29.078 Q1323.77,29.234 1323.067,29.234 Q1320.567,29.234 1319.238,27.594 Q1317.926,25.938 1317.926,22.813 Q1317.926,19.688 1319.238,18.031 Q1320.567,16.375 1323.067,16.375 Q1323.77,16.375 1324.41,16.531 Q1325.067,16.688 1325.629,16.984 L1325.629,19.703 Q1325.004,19.125 1324.41,18.859 Q1323.817,18.578 1323.192,18.578 Q1321.848,18.578 1321.16,19.656 Q1320.473,20.719 1320.473,22.813 Q1320.473,24.906 1321.16,25.984 Q1321.848,27.047 1323.192,27.047 Q1323.817,27.047 1324.41,26.781 Q1325.004,26.5 1325.629,25.922 L1325.629,28.641 Z " fill="#000"/><text x="1343.16" y="27.847" fill="#000" font-size="14" textLength="154.513">AuthenticationService</text><line x1="1095.61" y1="39" x2="1712.723" y2="39" style="stroke:#181818;stroke-width:0.5;"/><g data-visibility-modifier="PRIVATE_FIELD"><rect x="1102.61" y="49.648" width="6" height="6" fill="none" style="stroke:#C82930;stroke-width:1;"/></g><text x="1114.61" y="55.995" fill="#000" font-size="14" textLength="404.414">password_authenticator_ : const PasswordAuthenticator&amp;</text><g data-visibility-modifier="PRIVATE_FIELD"><rect x="1102.61" y="65.945" width="6" height="6" fill="none" style="stroke:#C82930;stroke-width:1;"/></g><text x="1114.61" y="72.292" fill="#000" font-size="14" textLength="355.646">oauth_authenticator_ : const OAuthAuthenticator&amp;</text><g data-visibility-modifier="PRIVATE_FIELD"><rect x="1102.61" y="82.242" width="6" height="6" fill="none" style="stroke:#C82930;stroke-width:1;"/></g><text x="1114.61" y="88.589" fill="#000" font-size="14" textLength="404.503">api_token_authenticator_ : const ApiTokenAuthenticator&amp;</text><text x="1114.61" y="104.886" fill="#000" font-size="14"> </text><text x="1114.61" y="121.183" fill="#000" font-size="14" textLength="401.864">password_authenticator : const PasswordAuthenticator&amp;,</text><text x="1114.61" y="137.479" fill="#000" font-size="14" textLength="353.097">oauth_authenticator : const OAuthAuthenticator&amp;,</text><text x="1114.61" y="153.776" fill="#000" font-size="14" textLength="397.503">api_token_authenticator : const ApiTokenAuthenticator&amp;</text><line x1="1095.61" y1="161.078" x2="1712.723" y2="161.078" style="stroke:#181818;stroke-width:0.5;"/><g data-visibility-modifier="PUBLIC_METHOD"><ellipse cx="1105.61" cy="174.727" rx="3" ry="3" fill="#84BE84" style="stroke:#038048;stroke-width:1;"/></g><text x="1114.61" y="178.073" fill="#000" font-size="14" textLength="159.975">AuthenticationService(</text><text x="1114.61" y="194.37" fill="#000" font-size="14">)</text><text x="1114.61" y="210.667" fill="#000" font-size="14"> </text><g data-visibility-modifier="PUBLIC_METHOD"><ellipse cx="1105.61" cy="223.617" rx="3" ry="3" fill="#84BE84" style="stroke:#038048;stroke-width:1;"/></g><text x="1114.61" y="226.964" fill="#000" font-size="14" textLength="593.113">login_with_password(username : std::string_view, password : std::string_view) : bool</text><g data-visibility-modifier="PUBLIC_METHOD"><ellipse cx="1105.61" cy="239.914" rx="3" ry="3" fill="#84BE84" style="stroke:#038048;stroke-width:1;"/></g><text x="1114.61" y="243.261" fill="#000" font-size="14" textLength="336.431">login_with_oauth(token : std::string_view) : bool</text><g data-visibility-modifier="PUBLIC_METHOD"><ellipse cx="1105.61" cy="256.211" rx="3" ry="3" fill="#84BE84" style="stroke:#038048;stroke-width:1;"/></g><text x="1114.61" y="259.558" fill="#000" font-size="14" textLength="364.055">login_with_api_token(token : std::string_view) : bool</text></g><!--reverse link PasswordAuthenticator to PasswordLogin--><g class="link" data-entity-1="ent0001" data-entity-2="ent0008" id="lnk16" data-source-line="105" data-link-type="extension"><path d="M903.582,442.655 C900.532,460.965 899.81,465.26 896.48,485.2" style="stroke:#181818;stroke-width:1;" fill="none" id="PasswordAuthenticator-backto-PasswordLogin" codeLine="105"/><polygon points="906.54,424.9,897.664,441.669,909.501,443.641,906.54,424.9" fill="none" style="stroke:#181818;stroke-width:1;stroke-linejoin:miter;stroke-miterlimit:10;"/></g><!--reverse link OAuthAuthenticator to OAuthLogin--><g class="link" data-entity-1="ent0002" data-entity-2="ent0011" id="lnk17" data-source-line="106" data-link-type="extension"><path d="M1404.17,442.9 C1404.17,463.73 1404.17,471.41 1404.17,493.32" style="stroke:#181818;stroke-width:1;" fill="none" id="OAuthAuthenticator-backto-OAuthLogin" codeLine="106"/><polygon points="1404.17,424.9,1398.17,442.9,1410.17,442.9,1404.17,424.9" fill="none" style="stroke:#181818;stroke-width:1;stroke-linejoin:miter;stroke-miterlimit:10;"/></g><!--reverse link ApiTokenAuthenticator to ApiTokenLogin--><g class="link" data-entity-1="ent0003" data-entity-2="ent0014" id="lnk18" data-source-line="107" data-link-type="extension"><path d="M1799.559,442.754 C1802.229,463.584 1803.24,471.41 1806.05,493.32" style="stroke:#181818;stroke-width:1;" fill="none" id="ApiTokenAuthenticator-backto-ApiTokenLogin" codeLine="107"/><polygon points="1797.27,424.9,1793.607,443.517,1805.51,441.991,1797.27,424.9" fill="none" style="stroke:#181818;stroke-width:1;stroke-linejoin:miter;stroke-miterlimit:10;"/></g><!--reverse link PasswordStore to InMemoryPasswordStore--><g class="link" data-entity-1="ent0004" data-entity-2="ent0006" id="lnk19" data-source-line="109" data-link-type="extension"><path d="M307.17,774.68 C307.17,792.99 307.17,797.04 307.17,816.98" style="stroke:#181818;stroke-width:1;" fill="none" id="PasswordStore-backto-InMemoryPasswordStore" codeLine="109"/><polygon points="307.17,756.68,301.17,774.68,313.17,774.68,307.17,756.68" fill="none" style="stroke:#181818;stroke-width:1;stroke-linejoin:miter;stroke-miterlimit:10;"/></g><!--reverse link PasswordVerifier to DemoPasswordVerifier--><g class="link" data-entity-1="ent0005" data-entity-2="ent0007" id="lnk20" data-source-line="110" data-link-type="extension"><path d="M907.17,774.68 C907.17,800.93 907.17,816.86 907.17,841.26" style="stroke:#181818;stroke-width:1;" fill="none" id="PasswordVerifier-backto-DemoPasswordVerifier" codeLine="110"/><polygon points="907.17,756.68,901.17,774.68,913.17,774.68,907.17,756.68" fill="none" style="stroke:#181818;stroke-width:1;stroke-linejoin:miter;stroke-miterlimit:10;"/></g><!--reverse link OAuthTokenVerifier to DemoOAuthTokenVerifier--><g class="link" data-entity-1="ent0009" data-entity-2="ent0010" id="lnk21" data-source-line="112" data-link-type="extension"><path d="M1404.17,774.68 C1404.17,795.51 1404.17,803.19 1404.17,825.1" style="stroke:#181818;stroke-width:1;" fill="none" id="OAuthTokenVerifier-backto-DemoOAuthTokenVerifier" codeLine="112"/><polygon points="1404.17,756.68,1398.17,774.68,1410.17,774.68,1404.17,756.68" fill="none" style="stroke:#181818;stroke-width:1;stroke-linejoin:miter;stroke-miterlimit:10;"/></g><!--reverse link ApiTokenVerifier to DemoApiTokenVerifier--><g class="link" data-entity-1="ent0012" data-entity-2="ent0013" id="lnk22" data-source-line="113" data-link-type="extension"><path d="M1812.17,774.68 C1812.17,795.51 1812.17,803.19 1812.17,825.1" style="stroke:#181818;stroke-width:1;" fill="none" id="ApiTokenVerifier-backto-DemoApiTokenVerifier" codeLine="113"/><polygon points="1812.17,756.68,1806.17,774.68,1818.17,774.68,1812.17,756.68" fill="none" style="stroke:#181818;stroke-width:1;stroke-linejoin:miter;stroke-miterlimit:10;"/></g><!--link PasswordLogin to PasswordStore--><g class="link" data-entity-1="ent0008" data-entity-2="ent0004" id="lnk23" data-source-line="115" data-link-type="dependency"><path d="M698.06,599.09 C614.26,623.93 522.414,651.149 446.184,673.739" style="stroke:#181818;stroke-width:1;" fill="none" id="PasswordLogin-to-PasswordStore" codeLine="115"/><polygon points="441.39,675.16,451.156,676.438,446.184,673.739,448.883,668.768,441.39,675.16" fill="#181818" style="stroke:#181818;stroke-width:1;stroke-linejoin:miter;stroke-miterlimit:10;"/><text x="598.17" y="641.707" fill="#000" font-size="13" textLength="29.783">uses</text></g><!--link PasswordLogin to PasswordVerifier--><g class="link" data-entity-1="ent0008" data-entity-2="ent0005" id="lnk24" data-source-line="116" data-link-type="dependency"><path d="M893.66,598.85 C896.56,623.75 899.331,647.554 901.971,670.214" style="stroke:#181818;stroke-width:1;" fill="none" id="PasswordLogin-to-PasswordVerifier" codeLine="116"/><polygon points="902.55,675.18,905.482,665.778,901.971,670.214,897.535,666.703,902.55,675.18" fill="#181818" style="stroke:#181818;stroke-width:1;stroke-linejoin:miter;stroke-miterlimit:10;"/><text x="900.17" y="641.707" fill="#000" font-size="13" textLength="29.783">uses</text></g><!--link OAuthLogin to OAuthTokenVerifier--><g class="link" data-entity-1="ent0011" data-entity-2="ent0009" id="lnk25" data-source-line="118" data-link-type="dependency"><path d="M1404.17,590.93 C1404.17,617.45 1404.17,645.03 1404.17,670.14" style="stroke:#181818;stroke-width:1;" fill="none" id="OAuthLogin-to-OAuthTokenVerifier" codeLine="118"/><polygon points="1404.17,675.14,1408.17,666.14,1404.17,670.14,1400.17,666.14,1404.17,675.14" fill="#181818" style="stroke:#181818;stroke-width:1;stroke-linejoin:miter;stroke-miterlimit:10;"/><text x="1405.17" y="641.707" fill="#000" font-size="13" textLength="29.783">uses</text></g><!--link ApiTokenLogin to ApiTokenVerifier--><g class="link" data-entity-1="ent0014" data-entity-2="ent0012" id="lnk26" data-source-line="119" data-link-type="dependency"><path d="M1812.17,590.93 C1812.17,617.45 1812.17,645.03 1812.17,670.14" style="stroke:#181818;stroke-width:1;" fill="none" id="ApiTokenLogin-to-ApiTokenVerifier" codeLine="119"/><polygon points="1812.17,675.14,1816.17,666.14,1812.17,670.14,1808.17,666.14,1812.17,675.14" fill="#181818" style="stroke:#181818;stroke-width:1;stroke-linejoin:miter;stroke-miterlimit:10;"/><text x="1813.17" y="641.707" fill="#000" font-size="13" textLength="29.783">uses</text></g><!--link AuthenticationService to PasswordAuthenticator--><g class="link" data-entity-1="ent0015" data-entity-2="ent0001" id="lnk27" data-source-line="121" data-link-type="dependency"><path d="M1145.37,267.18 C1089.75,294.96 1039.523,320.045 997.193,341.195" style="stroke:#181818;stroke-width:1;" fill="none" id="AuthenticationService-to-PasswordAuthenticator" codeLine="121"/><polygon points="992.72,343.43,1002.559,342.986,997.193,341.195,998.983,335.829,992.72,343.43" fill="#181818" style="stroke:#181818;stroke-width:1;stroke-linejoin:miter;stroke-miterlimit:10;"/><text x="1073.17" y="309.927" fill="#000" font-size="13" textLength="29.783">uses</text></g><!--link AuthenticationService to OAuthAuthenticator--><g class="link" data-entity-1="ent0015" data-entity-2="ent0002" id="lnk28" data-source-line="122" data-link-type="dependency"><path d="M1404.17,267 C1404.17,294.93 1404.17,317.4 1404.17,338.62" style="stroke:#181818;stroke-width:1;" fill="none" id="AuthenticationService-to-OAuthAuthenticator" codeLine="122"/><polygon points="1404.17,343.62,1408.17,334.62,1404.17,338.62,1400.17,334.62,1404.17,343.62" fill="#181818" style="stroke:#181818;stroke-width:1;stroke-linejoin:miter;stroke-miterlimit:10;"/><text x="1405.17" y="309.927" fill="#000" font-size="13" textLength="29.783">uses</text></g><!--link AuthenticationService to ApiTokenAuthenticator--><g class="link" data-entity-1="ent0015" data-entity-2="ent0003" id="lnk29" data-source-line="123" data-link-type="dependency"><path d="M1608.68,267.18 C1652.63,294.96 1691.634,319.608 1725.084,340.758" style="stroke:#181818;stroke-width:1;" fill="none" id="AuthenticationService-to-ApiTokenAuthenticator" codeLine="123"/><polygon points="1729.31,343.43,1723.841,335.239,1725.084,340.758,1719.565,342.001,1729.31,343.43" fill="#181818" style="stroke:#181818;stroke-width:1;stroke-linejoin:miter;stroke-miterlimit:10;"/><text x="1679.17" y="309.927" fill="#000" font-size="13" textLength="29.783">uses</text></g><?plantuml-src jLRBQkim4DthAxGg3hL_89H2e9j2BosqT6jKHst4TQrWgmcbZs-ldhObZUpqaImCqSoPEVFGQCX39rfI2LpLfElmZVpiURjUlOWDRGIhYE0jVaCOd-9FK9Wjj90CPpHxwMZRa6UAbxWJw-LIkc3DKxbZT9_ZhRK221Vox87p6dqWH7nYryefo2gMG9G4_q-RxxbSRTcTGe5UGU5F7OUUNQ9lfKqQPbyVMaykb-M6T9loKJAOIFt2dV6jOBmXzLceSGvamRczforxP3Hg1dTk6UtKtzTieiYvF94H6CupYJ4KBfj_z9ctht5Q2kpYBNrBMkPd9r3GR47BYHpclZrVUBnoc1HSI9g9IXmZuyxL5NzYZSsqjg6oMF6c4twFdcYDdIKMApdA9oRjdlbC6qxOpNkZQPj76a3W1D9tFhmAiSI_38UCWA7C2JyolQHcwr8R0viP1cSZ6DIpt-QeNOmR8ovxpC8MVi1cKLq1q1-DKpUhmxg5vx-f6kZZi9f5DFwwOix1TD526hPa7ZYkMeJwQSqirG4dP-8jRNUiSgE-dwva_ER6myPxairauWgImiKBX06HBRELIm317S2b3GeaaoBrWoEP2IItO22MgL0SB17DN30AkZ0XrQe3oZsJtbq0ln-qWM4Tt7p31AW-jiDQ3LvopzwBmd-P4B1qQgrXZ25uITHQtiqPl9hjHMk0wmUAtdcj2sq0206FHQyTor0qfNhbK3BmDLEZACw3jNIfTgzkGkr-c1LQ4urU3gK7SBUQ_i1IkX5nPnCU66CQgw3TZOSa3AZvB0Pk0WFx0W00?></g></svg>