<svg xmlns="http://www.w3.org/2000/svg" xmlns:xlink="http://www.w3.org/1999/xlink" contentStyleType="text/css" data-diagram-type="CLASS" height="260px" preserveAspectRatio="none" style="width:699px;height:260px;background:#FFFFFF;" version="1.1" viewBox="0 0 699 260" width="699px" zoomAndPan="magnify"><?plantuml 1.2026.4beta2?><defs/><g><!--class InvalidNotificationError--><g class="entity" data-qualified-name="InvalidNotificationError" data-source-line="4" id="ent0002"><rect fill="#F1F1F1" height="56.2656" rx="2.5" ry="2.5" style="stroke:#181818;stroke-width:0.5;" width="193.54" x="7" y="184.91"/><ellipse cx="22" cy="205.0428" fill="#ADD1B2" rx="11" ry="11" style="stroke:#181818;stroke-width:1;"/><path d="M24.9688,210.6834 Q24.3906,210.9803 23.75,211.1209 Q23.1094,211.2772 22.4063,211.2772 Q19.9063,211.2772 18.5781,209.6366 Q17.2656,207.9803 17.2656,204.8553 Q17.2656,201.7303 18.5781,200.0741 Q19.9063,198.4178 22.4063,198.4178 Q23.1094,198.4178 23.75,198.5741 Q24.4063,198.7303 24.9688,199.0272 L24.9688,201.7459 Q24.3438,201.1678 23.75,200.9022 Q23.1563,200.6209 22.5313,200.6209 Q21.1875,200.6209 20.5,201.6991 Q19.8125,202.7616 19.8125,204.8553 Q19.8125,206.9491 20.5,208.0272 Q21.1875,209.0897 22.5313,209.0897 Q23.1563,209.0897 23.75,208.8241 Q24.3438,208.5428 24.9688,207.9647 L24.9688,210.6834 Z " fill="#000000"/><text fill="#000000" font-family="sans-serif" font-size="12" font-style="italic" lengthAdjust="spacing" textLength="73.752" x="79.894" y="201.0487">&#171;exception&#187;</text><text fill="#000000" font-family="sans-serif" font-size="14" lengthAdjust="spacing" textLength="161.54" x="36" y="216.8739">InvalidNotificationError</text><line style="stroke:#181818;stroke-width:0.5;" x1="8" x2="199.54" y1="225.1756" y2="225.1756"/><line style="stroke:#181818;stroke-width:0.5;" x1="8" x2="199.54" y1="233.1756" y2="233.1756"/></g><!--class Notification--><g class="entity" data-qualified-name="Notification" data-source-line="9" id="ent0003"><rect fill="#F1F1F1" height="96.8906" rx="2.5" ry="2.5" style="stroke:#181818;stroke-width:0.5;" width="229.5537" x="223.99" y="7"/><ellipse cx="294.3523" cy="23" fill="#A9DCDF" rx="11" ry="11" style="stroke:#181818;stroke-width:1;"/><path d="M294.4617,18.3438 L293.3054,23.4219 L295.6336,23.4219 L294.4617,18.3438 Z M292.9773,16.1094 L295.9617,16.1094 L299.3211,28.5 L296.8679,28.5 L296.1023,25.4375 L292.8211,25.4375 L292.0711,28.5 L289.6336,28.5 L292.9773,16.1094 Z " fill="#000000"/><text fill="#000000" font-family="sans-serif" font-size="14" font-style="italic" lengthAdjust="spacing" textLength="80.3291" x="314.8523" y="27.8467">Notification</text><line style="stroke:#181818;stroke-width:0.5;" x1="224.99" x2="452.5437" y1="39" y2="39"/><line style="stroke:#181818;stroke-width:0.5;" x1="224.99" x2="452.5437" y1="47" y2="47"/><g data-visibility-modifier="PUBLIC_METHOD"><ellipse cx="234.99" cy="60.6484" fill="#84BE84" rx="3" ry="3" style="stroke:#038048;stroke-width:1;"/></g><text fill="#000000" font-family="sans-serif" font-size="14" lengthAdjust="spacing" textLength="174.0088" x="243.99" y="63.9951">send(message: str): void</text><g data-visibility-modifier="PRIVATE_METHOD"><rect fill="#F24D5C" height="6" style="stroke:#C82930;stroke-width:1;" width="6" x="231.99" y="73.9453"/></g><text fill="#000000" font-family="sans-serif" font-size="14" lengthAdjust="spacing" textLength="203.5537" x="243.99" y="80.292">_validate(message: str): void</text><g data-visibility-modifier="PRIVATE_METHOD"><rect fill="#F24D5C" height="6" style="stroke:#C82930;stroke-width:1;" width="6" x="231.99" y="90.2422"/></g><text fill="#000000" font-family="sans-serif" font-size="14" font-style="italic" lengthAdjust="spacing" textLength="181.0088" x="243.99" y="96.5889">_send(message: str): void</text></g><!--class Email--><g class="entity" data-qualified-name="Email" data-source-line="18" id="ent0004"><rect fill="#F1F1F1" height="64.2969" rx="2.5" ry="2.5" style="stroke:#181818;stroke-width:0.5;" width="207.0088" x="235.27" y="180.89"/><ellipse cx="315.1035" cy="196.89" fill="#ADD1B2" rx="11" ry="11" style="stroke:#181818;stroke-width:1;"/><path d="M318.0722,202.5306 Q317.4941,202.8275 316.8535,202.9681 Q316.2129,203.1244 315.5097,203.1244 Q313.0097,203.1244 311.6816,201.4838 Q310.3691,199.8275 310.3691,196.7025 Q310.3691,193.5775 311.6816,191.9213 Q313.0097,190.265 315.5097,190.265 Q316.2129,190.265 316.8535,190.4213 Q317.5097,190.5775 318.0722,190.8744 L318.0722,193.5931 Q317.4472,193.015 316.8535,192.7494 Q316.2597,192.4681 315.6347,192.4681 Q314.291,192.4681 313.6035,193.5463 Q312.916,194.6088 312.916,196.7025 Q312.916,198.7963 313.6035,199.8744 Q314.291,200.9369 315.6347,200.9369 Q316.2597,200.9369 316.8535,200.6713 Q317.4472,200.39 318.0722,199.8119 L318.0722,202.5306 Z " fill="#000000"/><text fill="#000000" font-family="sans-serif" font-size="14" lengthAdjust="spacing" textLength="38.8418" x="335.6035" y="201.7367">Email</text><line style="stroke:#181818;stroke-width:0.5;" x1="236.27" x2="441.2788" y1="212.89" y2="212.89"/><line style="stroke:#181818;stroke-width:0.5;" x1="236.27" x2="441.2788" y1="220.89" y2="220.89"/><g data-visibility-modifier="PRIVATE_METHOD"><rect fill="#F24D5C" height="6" style="stroke:#C82930;stroke-width:1;" width="6" x="243.27" y="231.5384"/></g><text fill="#000000" font-family="sans-serif" font-size="14" lengthAdjust="spacing" textLength="181.0088" x="255.27" y="237.8851">_send(message: str): void</text></g><!--class SMS--><g class="entity" data-qualified-name="SMS" data-source-line="22" id="ent0005"><rect fill="#F1F1F1" height="64.2969" rx="2.5" ry="2.5" style="stroke:#181818;stroke-width:0.5;" width="207.0088" x="477.27" y="180.89"/><ellipse cx="561.5981" cy="196.89" fill="#ADD1B2" rx="11" ry="11" style="stroke:#181818;stroke-width:1;"/><path d="M564.5669,202.5306 Q563.9888,202.8275 563.3481,202.9681 Q562.7075,203.1244 562.0044,203.1244 Q559.5044,203.1244 558.1763,201.4838 Q556.8638,199.8275 556.8638,196.7025 Q556.8638,193.5775 558.1763,191.9213 Q559.5044,190.265 562.0044,190.265 Q562.7075,190.265 563.3481,190.4213 Q564.0044,190.5775 564.5669,190.8744 L564.5669,193.5931 Q563.9419,193.015 563.3481,192.7494 Q562.7544,192.4681 562.1294,192.4681 Q560.7856,192.4681 560.0981,193.5463 Q559.4106,194.6088 559.4106,196.7025 Q559.4106,198.7963 560.0981,199.8744 Q560.7856,200.9369 562.1294,200.9369 Q562.7544,200.9369 563.3481,200.6713 Q563.9419,200.39 564.5669,199.8119 L564.5669,202.5306 Z " fill="#000000"/><text fill="#000000" font-family="sans-serif" font-size="14" lengthAdjust="spacing" textLength="29.8525" x="582.0981" y="201.7367">SMS</text><line style="stroke:#181818;stroke-width:0.5;" x1="478.27" x2="683.2788" y1="212.89" y2="212.89"/><line style="stroke:#181818;stroke-width:0.5;" x1="478.27" x2="683.2788" y1="220.89" y2="220.89"/><g data-visibility-modifier="PRIVATE_METHOD"><rect fill="#F24D5C" height="6" style="stroke:#C82930;stroke-width:1;" width="6" x="485.27" y="231.5384"/></g><text fill="#000000" font-family="sans-serif" font-size="14" lengthAdjust="spacing" textLength="181.0088" x="497.27" y="237.8851">_send(message: str): void</text></g><!--reverse link Notification to Email--><g class="link" data-entity-1="ent0003" data-entity-2="ent0004" data-link-type="extension" data-source-line="26" id="lnk6"><path codeLine="26" d="M338.77,121.98 C338.77,146.82 338.77,158.55 338.77,180.53" fill="none" id="Notification-backto-Email" style="stroke:#181818;stroke-width:1;"/><polygon fill="none" points="338.77,103.98,332.77,121.98,344.77,121.98,338.77,103.98" style="stroke:#181818;stroke-width:1;"/></g><!--reverse link Notification to SMS--><g class="link" data-entity-1="ent0003" data-entity-2="ent0005" data-link-type="extension" data-source-line="27" id="lnk7"><path codeLine="27" d="M428.1618,113.9226 C466.7918,138.7526 497.78,158.69 531.89,180.61" fill="none" id="Notification-backto-SMS" style="stroke:#181818;stroke-width:1;"/><polygon fill="none" points="413.02,104.19,424.9176,118.9699,431.4061,108.8754,413.02,104.19" style="stroke:#181818;stroke-width:1;"/></g><!--link Notification to InvalidNotificationError--><g class="link" data-entity-1="ent0003" data-entity-2="ent0002" data-link-type="dependency" data-source-line="32" id="lnk8"><path codeLine="32" d="M266.67,104.19 C226.86,130.54 183.8531,159.018 150.3031,181.228" fill="none" id="Notification-to-InvalidNotificationError" style="stroke:#181818;stroke-width:1;stroke-dasharray:7,7;"/><polygon fill="#181818" points="145.3,184.54,155.0126,182.9074,149.4692,181.78,150.5966,176.2366,145.3,184.54" style="stroke:#181818;stroke-width:1;"/><text fill="#000000" font-family="sans-serif" font-size="13" lengthAdjust="spacing" textLength="44.04" x="222.77" y="146.9569">throws</text></g><?plantuml-src ZLBDRi8m3BxtANmhQ2eFK7ML4Eg10rpWFdc9WKXjKYKMC37UVQO51D9Iy2cAFty_bbFuZ5MIGdLKrB9nLjvndAen19ZRFTP6BnsRZL5ucQgyTnwAWcuqPPaCCgKm_GxiKLt0C5fJqzR810lYdTFG8ZDvEnxam2i3zBOU_S0f0QcFG5QF6We1jvI3mCSvx9tHNJVxwdA8R1HokccS1HqbEx_AEdDMUP9uHc9IGvOxb-6DPLSDcleQPzX2ZryjLc-XdxPL_6PPh_JFlp2-odU_7j3KYYXPzJCuygGocPJncyg1TzuTmXy0?></g></svg>