<svg xmlns="http://www.w3.org/2000/svg" xmlns:xlink="http://www.w3.org/1999/xlink" contentStyleType="text/css" data-diagram-type="CLASS" height="656px" preserveAspectRatio="none" style="width:1058px;height:656px;background:#FFFFFF;" version="1.1" viewBox="0 0 1058 656" width="1058px" zoomAndPan="magnify"><?plantuml 1.2026.4beta2?><defs/><g><!--class ShippingInfo--><g class="entity" data-qualified-name="ShippingInfo" data-source-line="4" id="ent0002"><rect fill="#F1F1F1" height="80.5938" rx="2.5" ry="2.5" style="stroke:#181818;stroke-width:0.5;" width="132.1484" x="349.59" y="561.27"/><ellipse cx="370.251" cy="577.27" fill="#ADD1B2" rx="11" ry="11" style="stroke:#181818;stroke-width:1;"/><path d="M373.2198,582.9106 Q372.6417,583.2075 372.001,583.3481 Q371.3604,583.5044 370.6573,583.5044 Q368.1573,583.5044 366.8292,581.8638 Q365.5167,580.2075 365.5167,577.0825 Q365.5167,573.9575 366.8292,572.3013 Q368.1573,570.645 370.6573,570.645 Q371.3604,570.645 372.001,570.8013 Q372.6573,570.9575 373.2198,571.2544 L373.2198,573.9731 Q372.5948,573.395 372.001,573.1294 Q371.4073,572.8481 370.7823,572.8481 Q369.4385,572.8481 368.751,573.9263 Q368.0635,574.9888 368.0635,577.0825 Q368.0635,579.1763 368.751,580.2544 Q369.4385,581.3169 370.7823,581.3169 Q371.4073,581.3169 372.001,581.0513 Q372.5948,580.77 373.2198,580.1919 L373.2198,582.9106 Z " fill="#000000"/><text fill="#000000" font-family="sans-serif" font-size="14" lengthAdjust="spacing" textLength="87.5684" x="385.509" y="582.1167">ShippingInfo</text><line style="stroke:#181818;stroke-width:0.5;" x1="350.59" x2="480.7384" y1="593.27" y2="593.27"/><g data-visibility-modifier="PUBLIC_FIELD"><ellipse cx="360.59" cy="606.9184" fill="none" rx="3" ry="3" style="stroke:#038048;stroke-width:1;"/></g><text fill="#000000" font-family="sans-serif" font-size="14" lengthAdjust="spacing" textLength="106.1484" x="369.59" y="610.2651">destination: str</text><g data-visibility-modifier="PUBLIC_FIELD"><ellipse cx="360.59" cy="623.2153" fill="none" rx="3" ry="3" style="stroke:#038048;stroke-width:1;"/></g><text fill="#000000" font-family="sans-serif" font-size="14" lengthAdjust="spacing" textLength="87.8213" x="369.59" y="626.562">weight: float</text><line style="stroke:#181818;stroke-width:0.5;" x1="350.59" x2="480.7384" y1="633.8638" y2="633.8638"/></g><!--class Rule--><g class="entity" data-qualified-name="Rule" data-source-line="9" id="ent0003"><rect fill="#F1F1F1" height="96.8906" rx="2.5" ry="2.5" style="stroke:#181818;stroke-width:0.5;" width="190.958" x="49.18" y="387.38"/><ellipse cx="124.8572" cy="403.38" fill="#ADD1B2" rx="11" ry="11" style="stroke:#181818;stroke-width:1;"/><path d="M127.826,409.0206 Q127.2479,409.3175 126.6072,409.4581 Q125.9666,409.6144 125.2635,409.6144 Q122.7635,409.6144 121.4354,407.9738 Q120.1229,406.3175 120.1229,403.1925 Q120.1229,400.0675 121.4354,398.4113 Q122.7635,396.755 125.2635,396.755 Q125.9666,396.755 126.6072,396.9113 Q127.2635,397.0675 127.826,397.3644 L127.826,400.0831 Q127.201,399.505 126.6072,399.2394 Q126.0135,398.9581 125.3885,398.9581 Q124.0447,398.9581 123.3572,400.0363 Q122.6697,401.0988 122.6697,403.1925 Q122.6697,405.2863 123.3572,406.3644 Q124.0447,407.4269 125.3885,407.4269 Q126.0135,407.4269 126.6072,407.1613 Q127.201,406.88 127.826,406.3019 L127.826,409.0206 Z " fill="#000000"/><text fill="#000000" font-family="sans-serif" font-size="14" lengthAdjust="spacing" textLength="31.1035" x="145.3572" y="408.2267">Rule</text><line style="stroke:#181818;stroke-width:0.5;" x1="50.18" x2="239.138" y1="419.38" y2="419.38"/><g data-visibility-modifier="PUBLIC_FIELD"><ellipse cx="60.18" cy="433.0284" fill="none" rx="3" ry="3" style="stroke:#038048;stroke-width:1;"/></g><text fill="#000000" font-family="sans-serif" font-size="14" lengthAdjust="spacing" textLength="71.7295" x="69.18" y="436.3751">limits: List</text><g data-visibility-modifier="PUBLIC_FIELD"><ellipse cx="60.18" cy="449.3253" fill="none" rx="3" ry="3" style="stroke:#038048;stroke-width:1;"/></g><text fill="#000000" font-family="sans-serif" font-size="14" lengthAdjust="spacing" textLength="118.1523" x="69.18" y="452.672">prices: List[float]</text><g data-visibility-modifier="PUBLIC_FIELD"><ellipse cx="60.18" cy="465.6222" fill="none" rx="3" ry="3" style="stroke:#038048;stroke-width:1;"/></g><text fill="#000000" font-family="sans-serif" font-size="14" lengthAdjust="spacing" textLength="164.958" x="69.18" y="468.9689">delivery_times: List[int]</text><line style="stroke:#181818;stroke-width:0.5;" x1="50.18" x2="239.138" y1="476.2706" y2="476.2706"/></g><!--class ShippingRule--><g class="entity" data-qualified-name="ShippingRule" data-source-line="18" id="ent0004"><rect fill="#F1F1F1" height="113.1875" rx="2.5" ry="2.5" style="stroke:#181818;stroke-width:0.5;" width="281.5889" x="107.87" y="197.19"/><ellipse cx="198.3265" cy="213.19" fill="#A9DCDF" rx="11" ry="11" style="stroke:#181818;stroke-width:1;"/><path d="M198.4359,208.5338 L197.2797,213.6119 L199.6078,213.6119 L198.4359,208.5338 Z M196.9515,206.2994 L199.9359,206.2994 L203.2953,218.69 L200.8422,218.69 L200.0765,215.6275 L196.7953,215.6275 L196.0453,218.69 L193.6078,218.69 L196.9515,206.2994 Z " fill="#000000"/><text fill="#000000" font-family="sans-serif" font-size="14" font-style="italic" lengthAdjust="spacing" textLength="92.1758" x="218.8265" y="218.0367">ShippingRule</text><line style="stroke:#181818;stroke-width:0.5;" x1="108.87" x2="388.4589" y1="229.19" y2="229.19"/><g data-visibility-modifier="PRIVATE_FIELD"><rect fill="none" height="6" style="stroke:#C82930;stroke-width:1;" width="6" x="115.87" y="239.8384"/></g><text fill="#000000" font-family="sans-serif" font-size="14" lengthAdjust="spacing" textLength="74.4023" x="127.87" y="246.1851">_rule: Rule</text><line style="stroke:#181818;stroke-width:0.5;" x1="108.87" x2="388.4589" y1="253.4869" y2="253.4869"/><g data-visibility-modifier="PUBLIC_METHOD"><ellipse cx="118.87" cy="267.1353" fill="#84BE84" rx="3" ry="3" style="stroke:#038048;stroke-width:1;"/></g><text fill="#000000" font-family="sans-serif" font-size="14" lengthAdjust="spacing" textLength="170.502" x="127.87" y="270.482">ShippingRule(rule: Rule)</text><g data-visibility-modifier="PUBLIC_METHOD"><ellipse cx="118.87" cy="283.4322" fill="#84BE84" rx="3" ry="3" style="stroke:#038048;stroke-width:1;"/></g><text fill="#000000" font-family="sans-serif" font-size="14" lengthAdjust="spacing" textLength="255.5889" x="127.87" y="286.7789">apply(info: ShippingInfo) : (float, int)</text><g data-visibility-modifier="PUBLIC_METHOD"><ellipse cx="118.87" cy="299.7291" fill="#84BE84" rx="3" ry="3" style="stroke:#038048;stroke-width:1;"/></g><text fill="#000000" font-family="sans-serif" font-size="14" lengthAdjust="spacing" textLength="111.6582" x="127.87" y="303.0757">rule_error() : str</text></g><!--class WeightRule--><g class="entity" data-qualified-name="WeightRule" data-source-line="27" id="ent0006"><rect fill="#F1F1F1" height="80.5938" rx="2.5" ry="2.5" style="stroke:#181818;stroke-width:0.5;" width="281.5889" x="274.87" y="395.52"/><ellipse cx="371.0653" cy="411.52" fill="#ADD1B2" rx="11" ry="11" style="stroke:#181818;stroke-width:1;"/><path d="M374.0341,417.1606 Q373.4559,417.4575 372.8153,417.5981 Q372.1747,417.7544 371.4716,417.7544 Q368.9716,417.7544 367.6434,416.1138 Q366.3309,414.4575 366.3309,411.3325 Q366.3309,408.2075 367.6434,406.5513 Q368.9716,404.895 371.4716,404.895 Q372.1747,404.895 372.8153,405.0513 Q373.4716,405.2075 374.0341,405.5044 L374.0341,408.2231 Q373.4091,407.645 372.8153,407.3794 Q372.2216,407.0981 371.5966,407.0981 Q370.2528,407.0981 369.5653,408.1763 Q368.8778,409.2388 368.8778,411.3325 Q368.8778,413.4263 369.5653,414.5044 Q370.2528,415.5669 371.5966,415.5669 Q372.2216,415.5669 372.8153,415.3013 Q373.4091,415.02 374.0341,414.4419 L374.0341,417.1606 Z " fill="#000000"/><text fill="#000000" font-family="sans-serif" font-size="14" lengthAdjust="spacing" textLength="80.6982" x="391.5653" y="416.3667">WeightRule</text><line style="stroke:#181818;stroke-width:0.5;" x1="275.87" x2="555.4589" y1="427.52" y2="427.52"/><line style="stroke:#181818;stroke-width:0.5;" x1="275.87" x2="555.4589" y1="435.52" y2="435.52"/><g data-visibility-modifier="PUBLIC_METHOD"><ellipse cx="285.87" cy="449.1684" fill="#84BE84" rx="3" ry="3" style="stroke:#038048;stroke-width:1;"/></g><text fill="#000000" font-family="sans-serif" font-size="14" lengthAdjust="spacing" textLength="255.5889" x="294.87" y="452.5151">apply(info: ShippingInfo) : (float, int)</text><g data-visibility-modifier="PUBLIC_METHOD"><ellipse cx="285.87" cy="465.4653" fill="#84BE84" rx="3" ry="3" style="stroke:#038048;stroke-width:1;"/></g><text fill="#000000" font-family="sans-serif" font-size="14" lengthAdjust="spacing" textLength="111.6582" x="294.87" y="468.812">rule_error() : str</text></g><!--class DestinationRule--><g class="entity" data-qualified-name="DestinationRule" data-source-line="32" id="ent0007"><rect fill="#F1F1F1" height="80.5938" rx="2.5" ry="2.5" style="stroke:#181818;stroke-width:0.5;" width="281.5889" x="591.87" y="395.52"/><ellipse cx="672.6947" cy="411.52" fill="#ADD1B2" rx="11" ry="11" style="stroke:#181818;stroke-width:1;"/><path d="M675.6635,417.1606 Q675.0853,417.4575 674.4447,417.5981 Q673.8041,417.7544 673.101,417.7544 Q670.601,417.7544 669.2728,416.1138 Q667.9603,414.4575 667.9603,411.3325 Q667.9603,408.2075 669.2728,406.5513 Q670.601,404.895 673.101,404.895 Q673.8041,404.895 674.4447,405.0513 Q675.101,405.2075 675.6635,405.5044 L675.6635,408.2231 Q675.0385,407.645 674.4447,407.3794 Q673.851,407.0981 673.226,407.0981 Q671.8822,407.0981 671.1947,408.1763 Q670.5072,409.2388 670.5072,411.3325 Q670.5072,413.4263 671.1947,414.5044 Q671.8822,415.5669 673.226,415.5669 Q673.851,415.5669 674.4447,415.3013 Q675.0385,415.02 675.6635,414.4419 L675.6635,417.1606 Z " fill="#000000"/><text fill="#000000" font-family="sans-serif" font-size="14" lengthAdjust="spacing" textLength="111.4395" x="693.1947" y="416.3667">DestinationRule</text><line style="stroke:#181818;stroke-width:0.5;" x1="592.87" x2="872.4589" y1="427.52" y2="427.52"/><line style="stroke:#181818;stroke-width:0.5;" x1="592.87" x2="872.4589" y1="435.52" y2="435.52"/><g data-visibility-modifier="PUBLIC_METHOD"><ellipse cx="602.87" cy="449.1684" fill="#84BE84" rx="3" ry="3" style="stroke:#038048;stroke-width:1;"/></g><text fill="#000000" font-family="sans-serif" font-size="14" lengthAdjust="spacing" textLength="255.5889" x="611.87" y="452.5151">apply(info: ShippingInfo) : (float, int)</text><g data-visibility-modifier="PUBLIC_METHOD"><ellipse cx="602.87" cy="465.4653" fill="#84BE84" rx="3" ry="3" style="stroke:#038048;stroke-width:1;"/></g><text fill="#000000" font-family="sans-serif" font-size="14" lengthAdjust="spacing" textLength="111.6582" x="611.87" y="468.812">rule_error() : str</text></g><!--class ShippingType--><g class="entity" data-qualified-name="ShippingType" data-source-line="46" id="ent0012"><rect fill="#F1F1F1" height="113.1875" rx="2.5" ry="2.5" style="stroke:#181818;stroke-width:0.5;" width="435.3906" x="297.96" y="7"/><ellipse cx="463.7007" cy="23" fill="#A9DCDF" rx="11" ry="11" style="stroke:#181818;stroke-width:1;"/><path d="M463.8101,18.3438 L462.6538,23.4219 L464.982,23.4219 L463.8101,18.3438 Z M462.3257,16.1094 L465.3101,16.1094 L468.6695,28.5 L466.2163,28.5 L465.4507,25.4375 L462.1695,25.4375 L461.4195,28.5 L458.982,28.5 L462.3257,16.1094 Z " fill="#000000"/><text fill="#000000" font-family="sans-serif" font-size="14" font-style="italic" lengthAdjust="spacing" textLength="95.4092" x="484.2007" y="27.8467">ShippingType</text><line style="stroke:#181818;stroke-width:0.5;" x1="298.96" x2="732.3506" y1="39" y2="39"/><g data-visibility-modifier="PUBLIC_FIELD"><ellipse cx="308.96" cy="52.6484" fill="none" rx="3" ry="3" style="stroke:#038048;stroke-width:1;"/></g><text fill="#000000" font-family="sans-serif" font-size="14" lengthAdjust="spacing" textLength="122.9922" x="317.96" y="55.9951">info: ShippingInfo</text><g data-visibility-modifier="PUBLIC_FIELD"><ellipse cx="308.96" cy="68.9453" fill="none" rx="3" ry="3" style="stroke:#038048;stroke-width:1;"/></g><text fill="#000000" font-family="sans-serif" font-size="14" lengthAdjust="spacing" textLength="171.165" x="317.96" y="72.292">rules: List[ShippingRule]</text><line style="stroke:#181818;stroke-width:0.5;" x1="298.96" x2="732.3506" y1="79.5938" y2="79.5938"/><g data-visibility-modifier="PUBLIC_METHOD"><ellipse cx="308.96" cy="93.2422" fill="#84BE84" rx="3" ry="3" style="stroke:#038048;stroke-width:1;"/></g><text fill="#000000" font-family="sans-serif" font-size="14" lengthAdjust="spacing" textLength="409.3906" x="317.96" y="96.5889">ShippingType(info: ShippingInfo, rules: List[ShippingRule])</text><g data-visibility-modifier="PUBLIC_METHOD"><ellipse cx="308.96" cy="109.5391" fill="#84BE84" rx="3" ry="3" style="stroke:#038048;stroke-width:1;"/></g><text fill="#000000" font-family="sans-serif" font-size="14" lengthAdjust="spacing" textLength="157.377" x="317.96" y="112.8857">calculate() : (float, int)</text></g><!--class StandardShipping--><g class="entity" data-qualified-name="StandardShipping" data-source-line="56" id="ent0015"><rect fill="#F1F1F1" height="64.2969" rx="2.5" ry="2.5" style="stroke:#181818;stroke-width:0.5;" width="183.377" x="423.97" y="221.63"/><ellipse cx="450.8357" cy="237.63" fill="#ADD1B2" rx="11" ry="11" style="stroke:#181818;stroke-width:1;"/><path d="M453.8044,243.2706 Q453.2263,243.5675 452.5857,243.7081 Q451.945,243.8644 451.2419,243.8644 Q448.7419,243.8644 447.4138,242.2238 Q446.1013,240.5675 446.1013,237.4425 Q446.1013,234.3175 447.4138,232.6613 Q448.7419,231.005 451.2419,231.005 Q451.945,231.005 452.5857,231.1613 Q453.2419,231.3175 453.8044,231.6144 L453.8044,234.3331 Q453.1794,233.755 452.5857,233.4894 Q451.9919,233.2081 451.3669,233.2081 Q450.0232,233.2081 449.3357,234.2863 Q448.6482,235.3488 448.6482,237.4425 Q448.6482,239.5363 449.3357,240.6144 Q450.0232,241.6769 451.3669,241.6769 Q451.9919,241.6769 452.5857,241.4113 Q453.1794,241.13 453.8044,240.5519 L453.8044,243.2706 Z " fill="#000000"/><text fill="#000000" font-family="sans-serif" font-size="14" lengthAdjust="spacing" textLength="125.0088" x="467.4725" y="242.4767">StandardShipping</text><line style="stroke:#181818;stroke-width:0.5;" x1="424.97" x2="606.347" y1="253.63" y2="253.63"/><line style="stroke:#181818;stroke-width:0.5;" x1="424.97" x2="606.347" y1="261.63" y2="261.63"/><g data-visibility-modifier="PUBLIC_METHOD"><ellipse cx="434.97" cy="275.2784" fill="#84BE84" rx="3" ry="3" style="stroke:#038048;stroke-width:1;"/></g><text fill="#000000" font-family="sans-serif" font-size="14" lengthAdjust="spacing" textLength="157.377" x="443.97" y="278.6251">calculate() : (float, int)</text></g><!--class ExpressShipping--><g class="entity" data-qualified-name="ExpressShipping" data-source-line="60" id="ent0016"><rect fill="#F1F1F1" height="64.2969" rx="2.5" ry="2.5" style="stroke:#181818;stroke-width:0.5;" width="183.377" x="641.97" y="221.63"/><ellipse cx="672.8685" cy="237.63" fill="#ADD1B2" rx="11" ry="11" style="stroke:#181818;stroke-width:1;"/><path d="M675.8373,243.2706 Q675.2592,243.5675 674.6185,243.7081 Q673.9779,243.8644 673.2748,243.8644 Q670.7748,243.8644 669.4467,242.2238 Q668.1342,240.5675 668.1342,237.4425 Q668.1342,234.3175 669.4467,232.6613 Q670.7748,231.005 673.2748,231.005 Q673.9779,231.005 674.6185,231.1613 Q675.2748,231.3175 675.8373,231.6144 L675.8373,234.3331 Q675.2123,233.755 674.6185,233.4894 Q674.0248,233.2081 673.3998,233.2081 Q672.056,233.2081 671.3685,234.2863 Q670.681,235.3488 670.681,237.4425 Q670.681,239.5363 671.3685,240.6144 Q672.056,241.6769 673.3998,241.6769 Q674.0248,241.6769 674.6185,241.4113 Q675.2123,241.13 675.8373,240.5519 L675.8373,243.2706 Z " fill="#000000"/><text fill="#000000" font-family="sans-serif" font-size="14" lengthAdjust="spacing" textLength="116.0469" x="690.4015" y="242.4767">ExpressShipping</text><line style="stroke:#181818;stroke-width:0.5;" x1="642.97" x2="824.347" y1="253.63" y2="253.63"/><line style="stroke:#181818;stroke-width:0.5;" x1="642.97" x2="824.347" y1="261.63" y2="261.63"/><g data-visibility-modifier="PUBLIC_METHOD"><ellipse cx="652.97" cy="275.2784" fill="#84BE84" rx="3" ry="3" style="stroke:#038048;stroke-width:1;"/></g><text fill="#000000" font-family="sans-serif" font-size="14" lengthAdjust="spacing" textLength="157.377" x="661.97" y="278.6251">calculate() : (float, int)</text></g><!--class InternationalShipping--><g class="entity" data-qualified-name="InternationalShipping" data-source-line="64" id="ent0017"><rect fill="#F1F1F1" height="64.2969" rx="2.5" ry="2.5" style="stroke:#181818;stroke-width:0.5;" width="183.377" x="859.97" y="221.63"/><ellipse cx="875.2877" cy="237.63" fill="#ADD1B2" rx="11" ry="11" style="stroke:#181818;stroke-width:1;"/><path d="M878.2565,243.2706 Q877.6783,243.5675 877.0377,243.7081 Q876.3971,243.8644 875.694,243.8644 Q873.194,243.8644 871.8658,242.2238 Q870.5533,240.5675 870.5533,237.4425 Q870.5533,234.3175 871.8658,232.6613 Q873.194,231.005 875.694,231.005 Q876.3971,231.005 877.0377,231.1613 Q877.694,231.3175 878.2565,231.6144 L878.2565,234.3331 Q877.6315,233.755 877.0377,233.4894 Q876.444,233.2081 875.819,233.2081 Q874.4752,233.2081 873.7877,234.2863 Q873.1002,235.3488 873.1002,237.4425 Q873.1002,239.5363 873.7877,240.6144 Q874.4752,241.6769 875.819,241.6769 Q876.444,241.6769 877.0377,241.4113 Q877.6315,241.13 878.2565,240.5519 L878.2565,243.2706 Z " fill="#000000"/><text fill="#000000" font-family="sans-serif" font-size="14" lengthAdjust="spacing" textLength="150.6709" x="889.3583" y="242.4767">InternationalShipping</text><line style="stroke:#181818;stroke-width:0.5;" x1="860.97" x2="1042.347" y1="253.63" y2="253.63"/><line style="stroke:#181818;stroke-width:0.5;" x1="860.97" x2="1042.347" y1="261.63" y2="261.63"/><g data-visibility-modifier="PUBLIC_METHOD"><ellipse cx="870.97" cy="275.2784" fill="#84BE84" rx="3" ry="3" style="stroke:#038048;stroke-width:1;"/></g><text fill="#000000" font-family="sans-serif" font-size="14" lengthAdjust="spacing" textLength="157.377" x="879.97" y="278.6251">calculate() : (float, int)</text></g><!--link ShippingRule to Rule--><g class="link" data-entity-1="ent0004" data-entity-2="ent0003" data-link-type="dependency" data-source-line="25" id="lnk5"><path codeLine="25" d="M216.32,310.76 C202.19,335.22 188.7919,358.4249 175.2419,381.8749" fill="none" id="ShippingRule-to-Rule" style="stroke:#181818;stroke-width:1;"/><polygon fill="#181818" points="172.24,387.07,180.2062,381.2786,174.7415,382.7408,173.2794,377.2761,172.24,387.07" style="stroke:#181818;stroke-width:1;"/><text fill="#000000" font-family="sans-serif" font-size="13" lengthAdjust="spacing" textLength="29.7832" x="197.66" y="353.4469">uses</text></g><!--reverse link ShippingRule to WeightRule--><g class="link" data-entity-1="ent0004" data-entity-2="ent0006" data-link-type="extension" data-source-line="37" id="lnk8"><path codeLine="37" d="M312.8239,323.9542 C338.2039,351.3042 355.89,370.39 378.87,395.16" fill="none" id="ShippingRule-backto-WeightRule" style="stroke:#181818;stroke-width:1;"/><polygon fill="none" points="300.58,310.76,308.4258,328.0355,317.2219,319.8729,300.58,310.76" style="stroke:#181818;stroke-width:1;"/></g><!--reverse link ShippingRule to DestinationRule--><g class="link" data-entity-1="ent0004" data-entity-2="ent0007" data-link-type="extension" data-source-line="38" id="lnk9"><path codeLine="38" d="M406.821,313.6146 C482.161,341.6346 556.47,369.28 625.84,395.09" fill="none" id="ShippingRule-backto-DestinationRule" style="stroke:#181818;stroke-width:1;"/><polygon fill="none" points="389.95,307.34,404.7295,319.2382,408.9125,307.9909,389.95,307.34" style="stroke:#181818;stroke-width:1;"/></g><!--link WeightRule to ShippingInfo--><g class="link" data-entity-1="ent0006" data-entity-2="ent0002" data-link-type="dependency" data-source-line="40" id="lnk10"><path codeLine="40" d="M415.66,476.46 C415.66,502.11 415.66,529.37 415.66,555.01" fill="none" id="WeightRule-to-ShippingInfo" style="stroke:#181818;stroke-width:1;"/><polygon fill="#181818" points="415.66,561.01,419.66,552.01,415.66,556.01,411.66,552.01,415.66,561.01" style="stroke:#181818;stroke-width:1;"/><text fill="#000000" font-family="sans-serif" font-size="13" lengthAdjust="spacing" textLength="63.3433" x="416.66" y="527.3369">evaluates</text></g><!--link DestinationRule to ShippingInfo--><g class="link" data-entity-1="ent0007" data-entity-2="ent0002" data-link-type="dependency" data-source-line="41" id="lnk11"><path codeLine="41" d="M655.92,476.46 C602.78,503.91 538.091,537.3268 487.361,563.5268" fill="none" id="DestinationRule-to-ShippingInfo" style="stroke:#181818;stroke-width:1;"/><polygon fill="#181818" points="482.03,566.28,491.862,565.7041,486.4725,563.9856,488.191,558.5961,482.03,566.28" style="stroke:#181818;stroke-width:1;"/><text fill="#000000" font-family="sans-serif" font-size="13" lengthAdjust="spacing" textLength="63.3433" x="575.66" y="527.3369">evaluates</text></g><!--link ShippingType to ShippingInfo--><g class="link" data-entity-1="ent0012" data-entity-2="ent0002" data-link-type="dependency" data-source-line="53" id="lnk13"><path codeLine="53" d="M297.58,90.8 C223.6,109.65 145.82,141.94 90.66,197.19 C28.13,259.82 44.92,299.87 31.66,387.38 C25.21,429.95 6,449.68 31.66,484.27 C69.69,535.52 244.1273,571.9702 343.5573,589.1202" fill="none" id="ShippingType-to-ShippingInfo" style="stroke:#181818;stroke-width:1;"/><polygon fill="#181818" points="349.47,590.14,341.2809,584.6684,344.5428,589.2901,339.9211,592.552,349.47,590.14" style="stroke:#181818;stroke-width:1;"/><text fill="#000000" font-family="sans-serif" font-size="13" lengthAdjust="spacing" textLength="29.7832" x="38.66" y="353.4469">uses</text></g><!--link ShippingType to ShippingRule--><g class="link" data-entity-1="ent0012" data-entity-2="ent0004" data-link-type="dependency" data-source-line="54" id="lnk14"><path codeLine="54" d="M436.27,120.55 C402.15,144.6 367.2438,169.1927 333.1038,193.2627" fill="none" id="ShippingType-to-ShippingRule" style="stroke:#181818;stroke-width:1;"/><polygon fill="#181818" points="328.2,196.72,337.8605,194.8032,332.2865,193.8389,333.2507,188.2648,328.2,196.72" style="stroke:#181818;stroke-width:1;"/><text fill="#000000" font-family="sans-serif" font-size="13" lengthAdjust="spacing" textLength="29.7832" x="391.66" y="163.2569">uses</text></g><!--reverse link ShippingType to StandardShipping--><g class="link" data-entity-1="ent0012" data-entity-2="ent0015" data-link-type="extension" data-source-line="68" id="lnk18"><path codeLine="68" d="M515.66,138.55 C515.66,171.48 515.66,193.93 515.66,221.35" fill="none" id="ShippingType-backto-StandardShipping" style="stroke:#181818;stroke-width:1;"/><polygon fill="none" points="515.66,120.55,509.66,138.55,521.66,138.55,515.66,120.55" style="stroke:#181818;stroke-width:1;"/></g><!--reverse link ShippingType to ExpressShipping--><g class="link" data-entity-1="ent0012" data-entity-2="ent0016" data-link-type="extension" data-source-line="69" id="lnk19"><path codeLine="69" d="M594.1059,132.3115 C632.2559,165.2415 665.48,193.93 697.25,221.35" fill="none" id="ShippingType-backto-ExpressShipping" style="stroke:#181818;stroke-width:1;"/><polygon fill="none" points="580.48,120.55,590.1854,136.8535,598.0265,127.7695,580.48,120.55" style="stroke:#181818;stroke-width:1;"/></g><!--reverse link ShippingType to InternationalShipping--><g class="link" data-entity-1="ent0012" data-entity-2="ent0017" data-link-type="extension" data-source-line="70" id="lnk20"><path codeLine="70" d="M678.4027,127.3397 C735.3527,150.0197 784.15,170.47 842.66,197.19 C858.89,204.6 876.21,213.14 892.15,221.26" fill="none" id="ShippingType-backto-InternationalShipping" style="stroke:#181818;stroke-width:1;"/><polygon fill="none" points="661.68,120.68,676.1828,132.9139,680.6226,121.7655,661.68,120.68" style="stroke:#181818;stroke-width:1;"/></g><?plantuml-src hLDTQuCm57ttLzotMbR_GDW6iaedb56gOvHHIchJDf2g9B5RsVRV5-D7rQhiexubzzoRSyuz3k2kwpC6CBPz6nwcjkSvdZfsGmE6XG1lJ-EOXZitt4RmOO3wRc13XAGXbZGA4GZ9y-itGdTxYM3B8YoDBoCVCKyOALiPFL0f44ofaFbLp6b0ygjNtRiits7qIFXf9UcXHD1GrTNmGQzCxz6TpTod2SoVfmvu_jpsdScYjmclbHGSIAWhhz2tOCNL2Mb9ESSgp3nNXtaPnp4xcLIvXsfU3W61gSMEG2aguEc05U4yucQAIBrLKcjKBEi-inH18eWeN7xHvjUylihRsVJnUUFNVw8cx_RJiYfYMeeDBePHaPwQKuii0dB4BC5IETKKqGl-QRxynUn_-V9FyTdFIoShpXL_GDMIPIE6wRIMVOow1nIx2J0B4gQqcnVBg-n8isqnJaUn4zIILq_YS8Fvfe2K5lJpo9gTzvWJ8VxKwuQIy2m5cFroGasW3cDJHWkaGRO5qKhf6m00?></g></svg>