<svg xmlns="http://www.w3.org/2000/svg" xmlns:xlink="http://www.w3.org/1999/xlink" contentStyleType="text/css" data-diagram-type="CLASS" height="499px" preserveAspectRatio="none" style="width:677px;height:499px;background:#FFFFFF;" version="1.1" viewBox="0 0 677 499" width="677px" zoomAndPan="magnify"><?plantuml 1.2026.4beta2?><defs/><g><!--class Item--><g class="entity" data-qualified-name="Item" data-source-line="4" id="ent0002"><rect fill="#F1F1F1" height="96.8906" rx="2.5" ry="2.5" style="stroke:#181818;stroke-width:0.5;" width="111.7842" x="71.35" y="387.38"/><ellipse cx="107.9118" cy="403.38" fill="#ADD1B2" rx="11" ry="11" style="stroke:#181818;stroke-width:1;"/><path d="M110.8805,409.0206 Q110.3024,409.3175 109.6618,409.4581 Q109.0211,409.6144 108.318,409.6144 Q105.818,409.6144 104.4899,407.9738 Q103.1774,406.3175 103.1774,403.1925 Q103.1774,400.0675 104.4899,398.4113 Q105.818,396.755 108.318,396.755 Q109.0211,396.755 109.6618,396.9113 Q110.318,397.0675 110.8805,397.3644 L110.8805,400.0831 Q110.2555,399.505 109.6618,399.2394 Q109.068,398.9581 108.443,398.9581 Q107.0993,398.9581 106.4118,400.0363 Q105.7243,401.0988 105.7243,403.1925 Q105.7243,405.2863 106.4118,406.3644 Q107.0993,407.4269 108.443,407.4269 Q109.068,407.4269 109.6618,407.1613 Q110.2555,406.88 110.8805,406.3019 L110.8805,409.0206 Z " fill="#000000"/><text fill="#000000" font-family="sans-serif" font-size="14" lengthAdjust="spacing" textLength="31.8691" x="126.7033" y="408.2267">Item</text><line style="stroke:#181818;stroke-width:0.5;" x1="72.35" x2="182.1342" y1="419.38" y2="419.38"/><g data-visibility-modifier="PUBLIC_FIELD"><ellipse cx="82.35" cy="433.0284" fill="none" rx="3" ry="3" style="stroke:#038048;stroke-width:1;"/></g><text fill="#000000" font-family="sans-serif" font-size="14" lengthAdjust="spacing" textLength="67.4092" x="91.35" y="436.3751">name: str</text><g data-visibility-modifier="PUBLIC_FIELD"><ellipse cx="82.35" cy="449.3253" fill="none" rx="3" ry="3" style="stroke:#038048;stroke-width:1;"/></g><text fill="#000000" font-family="sans-serif" font-size="14" lengthAdjust="spacing" textLength="75.4619" x="91.35" y="452.672">price: float</text><g data-visibility-modifier="PUBLIC_FIELD"><ellipse cx="82.35" cy="465.6222" fill="none" rx="3" ry="3" style="stroke:#038048;stroke-width:1;"/></g><text fill="#000000" font-family="sans-serif" font-size="14" lengthAdjust="spacing" textLength="85.7842" x="91.35" y="468.9689">quantity: int</text><line style="stroke:#181818;stroke-width:0.5;" x1="72.35" x2="182.1342" y1="476.2706" y2="476.2706"/></g><!--class Items--><g class="entity" data-qualified-name="Items" data-source-line="10" id="ent0003"><rect fill="#F1F1F1" height="129.4844" rx="2.5" ry="2.5" style="stroke:#181818;stroke-width:0.5;" width="240.4844" x="7" y="180.9"/><ellipse cx="103.4106" cy="196.9" fill="#ADD1B2" rx="11" ry="11" style="stroke:#181818;stroke-width:1;"/><path d="M106.3794,202.5406 Q105.8013,202.8375 105.1606,202.9781 Q104.52,203.1344 103.8169,203.1344 Q101.3169,203.1344 99.9888,201.4937 Q98.6763,199.8375 98.6763,196.7125 Q98.6763,193.5875 99.9888,191.9312 Q101.3169,190.275 103.8169,190.275 Q104.52,190.275 105.1606,190.4312 Q105.8169,190.5875 106.3794,190.8844 L106.3794,193.6031 Q105.7544,193.025 105.1606,192.7594 Q104.5669,192.4781 103.9419,192.4781 Q102.5981,192.4781 101.9106,193.5562 Q101.2231,194.6187 101.2231,196.7125 Q101.2231,198.8062 101.9106,199.8844 Q102.5981,200.9469 103.9419,200.9469 Q104.5669,200.9469 105.1606,200.6812 Q105.7544,200.4 106.3794,199.8219 L106.3794,202.5406 Z " fill="#000000"/><text fill="#000000" font-family="sans-serif" font-size="14" lengthAdjust="spacing" textLength="39.1631" x="123.9106" y="201.7467">Items</text><line style="stroke:#181818;stroke-width:0.5;" x1="8" x2="246.4844" y1="212.9" y2="212.9"/><g data-visibility-modifier="PRIVATE_FIELD"><rect fill="none" height="6" style="stroke:#C82930;stroke-width:1;" width="6" x="15" y="223.5484"/></g><text fill="#000000" font-family="sans-serif" font-size="14" lengthAdjust="spacing" textLength="134.8936" x="27" y="229.8951">_items: List&lt;Item&gt;</text><line style="stroke:#181818;stroke-width:0.5;" x1="8" x2="246.4844" y1="237.1969" y2="237.1969"/><g data-visibility-modifier="PUBLIC_METHOD"><ellipse cx="18" cy="250.8453" fill="#84BE84" rx="3" ry="3" style="stroke:#038048;stroke-width:1;"/></g><text fill="#000000" font-family="sans-serif" font-size="14" lengthAdjust="spacing" textLength="187.3662" x="27" y="254.192">add_item(item: Item): void</text><g data-visibility-modifier="PUBLIC_METHOD"><ellipse cx="18" cy="267.1422" fill="#84BE84" rx="3" ry="3" style="stroke:#038048;stroke-width:1;"/></g><text fill="#000000" font-family="sans-serif" font-size="14" lengthAdjust="spacing" textLength="214.4844" x="27" y="270.4889">remove_item(item: Item): void</text><g data-visibility-modifier="PUBLIC_METHOD"><ellipse cx="18" cy="283.4391" fill="#84BE84" rx="3" ry="3" style="stroke:#038048;stroke-width:1;"/></g><text fill="#000000" font-family="sans-serif" font-size="14" lengthAdjust="spacing" textLength="83.5557" x="27" y="286.7857">total(): float</text><g data-visibility-modifier="PUBLIC_METHOD"><ellipse cx="18" cy="299.7359" fill="#84BE84" rx="3" ry="3" style="stroke:#038048;stroke-width:1;"/></g><text fill="#000000" font-family="sans-serif" font-size="14" lengthAdjust="spacing" textLength="124.2158" x="27" y="303.0826">__iter__(): Iterator</text></g><!--class Discount--><g class="entity" data-qualified-name="Discount" data-source-line="24" id="ent0005"><rect fill="#F1F1F1" height="64.2969" rx="2.5" ry="2.5" style="stroke:#181818;stroke-width:0.5;" width="188.7021" x="282.89" y="213.49"/><ellipse cx="342.2601" cy="229.49" fill="#A9DCDF" rx="11" ry="11" style="stroke:#181818;stroke-width:1;"/><path d="M342.3695,224.8338 L341.2132,229.9119 L343.5414,229.9119 L342.3695,224.8338 Z M340.8851,222.5994 L343.8695,222.5994 L347.2289,234.99 L344.7757,234.99 L344.0101,231.9275 L340.7289,231.9275 L339.9789,234.99 L337.5414,234.99 L340.8851,222.5994 Z " fill="#000000"/><text fill="#000000" font-family="sans-serif" font-size="14" font-style="italic" lengthAdjust="spacing" textLength="61.4619" x="362.7601" y="234.3367">Discount</text><line style="stroke:#181818;stroke-width:0.5;" x1="283.89" x2="470.5921" y1="245.49" y2="245.49"/><line style="stroke:#181818;stroke-width:0.5;" x1="283.89" x2="470.5921" y1="253.49" y2="253.49"/><g data-visibility-modifier="PUBLIC_METHOD"><ellipse cx="293.89" cy="267.1384" fill="#84BE84" rx="3" ry="3" style="stroke:#038048;stroke-width:1;"/></g><text fill="#000000" font-family="sans-serif" font-size="14" lengthAdjust="spacing" textLength="162.7021" x="302.89" y="270.4851">apply(total: float): float</text></g><!--class PercentageDiscount--><g class="entity" data-qualified-name="PercentageDiscount" data-source-line="28" id="ent0006"><rect fill="#F1F1F1" height="80.5938" rx="2.5" ry="2.5" style="stroke:#181818;stroke-width:0.5;" width="188.7021" x="249.89" y="395.53"/><ellipse cx="271.9445" cy="411.53" fill="#ADD1B2" rx="11" ry="11" style="stroke:#181818;stroke-width:1;"/><path d="M274.9133,417.1706 Q274.3352,417.4675 273.6945,417.6081 Q273.0539,417.7644 272.3508,417.7644 Q269.8508,417.7644 268.5227,416.1238 Q267.2102,414.4675 267.2102,411.3425 Q267.2102,408.2175 268.5227,406.5613 Q269.8508,404.905 272.3508,404.905 Q273.0539,404.905 273.6945,405.0613 Q274.3508,405.2175 274.9133,405.5144 L274.9133,408.2331 Q274.2883,407.655 273.6945,407.3894 Q273.1008,407.1081 272.4758,407.1081 Q271.132,407.1081 270.4445,408.1863 Q269.757,409.2488 269.757,411.3425 Q269.757,413.4363 270.4445,414.5144 Q271.132,415.5769 272.4758,415.5769 Q273.1008,415.5769 273.6945,415.3113 Q274.2883,415.03 274.9133,414.4519 L274.9133,417.1706 Z " fill="#000000"/><text fill="#000000" font-family="sans-serif" font-size="14" lengthAdjust="spacing" textLength="141.0254" x="287.5122" y="416.3767">PercentageDiscount</text><line style="stroke:#181818;stroke-width:0.5;" x1="250.89" x2="437.5921" y1="427.53" y2="427.53"/><g data-visibility-modifier="PRIVATE_FIELD"><rect fill="none" height="6" style="stroke:#C82930;stroke-width:1;" width="6" x="257.89" y="438.1784"/></g><text fill="#000000" font-family="sans-serif" font-size="14" lengthAdjust="spacing" textLength="76.0566" x="269.89" y="444.5251">_rate: float</text><line style="stroke:#181818;stroke-width:0.5;" x1="250.89" x2="437.5921" y1="451.8269" y2="451.8269"/><g data-visibility-modifier="PUBLIC_METHOD"><ellipse cx="260.89" cy="465.4753" fill="#84BE84" rx="3" ry="3" style="stroke:#038048;stroke-width:1;"/></g><text fill="#000000" font-family="sans-serif" font-size="14" lengthAdjust="spacing" textLength="162.7021" x="269.89" y="468.822">apply(total: float): float</text></g><!--class ThresholdDiscount--><g class="entity" data-qualified-name="ThresholdDiscount" data-source-line="33" id="ent0007"><rect fill="#F1F1F1" height="96.8906" rx="2.5" ry="2.5" style="stroke:#181818;stroke-width:0.5;" width="188.7021" x="473.89" y="387.38"/><ellipse cx="500.5619" cy="403.38" fill="#ADD1B2" rx="11" ry="11" style="stroke:#181818;stroke-width:1;"/><path d="M503.5306,409.0206 Q502.9525,409.3175 502.3119,409.4581 Q501.6713,409.6144 500.9681,409.6144 Q498.4681,409.6144 497.14,407.9738 Q495.8275,406.3175 495.8275,403.1925 Q495.8275,400.0675 497.14,398.4113 Q498.4681,396.755 500.9681,396.755 Q501.6713,396.755 502.3119,396.9113 Q502.9681,397.0675 503.5306,397.3644 L503.5306,400.0831 Q502.9056,399.505 502.3119,399.2394 Q501.7181,398.9581 501.0931,398.9581 Q499.7494,398.9581 499.0619,400.0363 Q498.3744,401.0988 498.3744,403.1925 Q498.3744,405.2863 499.0619,406.3644 Q499.7494,407.4269 501.0931,407.4269 Q501.7181,407.4269 502.3119,407.1613 Q502.9056,406.88 503.5306,406.3019 L503.5306,409.0206 Z " fill="#000000"/><text fill="#000000" font-family="sans-serif" font-size="14" lengthAdjust="spacing" textLength="130.7646" x="517.1556" y="408.2267">ThresholdDiscount</text><line style="stroke:#181818;stroke-width:0.5;" x1="474.89" x2="661.5921" y1="419.38" y2="419.38"/><g data-visibility-modifier="PRIVATE_FIELD"><rect fill="none" height="6" style="stroke:#C82930;stroke-width:1;" width="6" x="481.89" y="430.0284"/></g><text fill="#000000" font-family="sans-serif" font-size="14" lengthAdjust="spacing" textLength="113.8594" x="493.89" y="436.3751">_threshold: float</text><g data-visibility-modifier="PRIVATE_FIELD"><rect fill="none" height="6" style="stroke:#C82930;stroke-width:1;" width="6" x="481.89" y="446.3253"/></g><text fill="#000000" font-family="sans-serif" font-size="14" lengthAdjust="spacing" textLength="76.0566" x="493.89" y="452.672">_rate: float</text><line style="stroke:#181818;stroke-width:0.5;" x1="474.89" x2="661.5921" y1="459.9738" y2="459.9738"/><g data-visibility-modifier="PUBLIC_METHOD"><ellipse cx="484.89" cy="473.6222" fill="#84BE84" rx="3" ry="3" style="stroke:#038048;stroke-width:1;"/></g><text fill="#000000" font-family="sans-serif" font-size="14" lengthAdjust="spacing" textLength="162.7021" x="493.89" y="476.9689">apply(total: float): float</text></g><!--class Order--><g class="entity" data-qualified-name="Order" data-source-line="45" id="ent0010"><rect fill="#F1F1F1" height="96.8906" rx="2.5" ry="2.5" style="stroke:#181818;stroke-width:0.5;" width="163.1973" x="169.64" y="7"/><ellipse cx="226.973" cy="23" fill="#ADD1B2" rx="11" ry="11" style="stroke:#181818;stroke-width:1;"/><path d="M229.9418,28.6406 Q229.3636,28.9375 228.723,29.0781 Q228.0824,29.2344 227.3793,29.2344 Q224.8793,29.2344 223.5511,27.5938 Q222.2386,25.9375 222.2386,22.8125 Q222.2386,19.6875 223.5511,18.0313 Q224.8793,16.375 227.3793,16.375 Q228.0824,16.375 228.723,16.5313 Q229.3793,16.6875 229.9418,16.9844 L229.9418,19.7031 Q229.3168,19.125 228.723,18.8594 Q228.1293,18.5781 227.5043,18.5781 Q226.1605,18.5781 225.473,19.6563 Q224.7855,20.7188 224.7855,22.8125 Q224.7855,24.9063 225.473,25.9844 Q226.1605,27.0469 227.5043,27.0469 Q228.1293,27.0469 228.723,26.7813 Q229.3168,26.5 229.9418,25.9219 L229.9418,28.6406 Z " fill="#000000"/><text fill="#000000" font-family="sans-serif" font-size="14" lengthAdjust="spacing" textLength="40.0313" x="247.473" y="27.8467">Order</text><line style="stroke:#181818;stroke-width:0.5;" x1="170.64" x2="331.8373" y1="39" y2="39"/><g data-visibility-modifier="PRIVATE_FIELD"><rect fill="none" height="6" style="stroke:#C82930;stroke-width:1;" width="6" x="177.64" y="49.6484"/></g><text fill="#000000" font-family="sans-serif" font-size="14" lengthAdjust="spacing" textLength="94.2539" x="189.64" y="55.9951">_items: Items</text><g data-visibility-modifier="PRIVATE_FIELD"><rect fill="none" height="6" style="stroke:#C82930;stroke-width:1;" width="6" x="177.64" y="65.9453"/></g><text fill="#000000" font-family="sans-serif" font-size="14" lengthAdjust="spacing" textLength="137.1973" x="189.64" y="72.292">_discount: Discount</text><line style="stroke:#181818;stroke-width:0.5;" x1="170.64" x2="331.8373" y1="79.5938" y2="79.5938"/><g data-visibility-modifier="PUBLIC_METHOD"><ellipse cx="180.64" cy="93.2422" fill="#84BE84" rx="3" ry="3" style="stroke:#038048;stroke-width:1;"/></g><text fill="#000000" font-family="sans-serif" font-size="14" lengthAdjust="spacing" textLength="83.5557" x="189.64" y="96.5889">total(): float</text></g><!--link Items to Item--><g class="link" data-entity-1="ent0003" data-entity-2="ent0002" data-link-type="dependency" data-source-line="19" id="lnk4"><path codeLine="19" d="M127.24,310.87 C127.24,335.79 127.24,357.82 127.24,380.92" fill="none" id="Items-to-Item" style="stroke:#181818;stroke-width:1;"/><polygon fill="#181818" points="127.24,386.92,131.24,377.92,127.24,381.92,123.24,377.92,127.24,386.92" style="stroke:#181818;stroke-width:1;"/><text fill="#000000" font-family="sans-serif" font-size="13" lengthAdjust="spacing" textLength="55.0278" x="128.24" y="353.4469">contains</text></g><!--reverse link Discount to PercentageDiscount--><g class="link" data-entity-1="ent0005" data-entity-2="ent0006" data-link-type="extension" data-source-line="39" id="lnk8"><path codeLine="39" d="M368.6123,295.8697 C362.9823,327.9897 357.33,360.19 351.22,395.03" fill="none" id="Discount-backto-PercentageDiscount" style="stroke:#181818;stroke-width:1;"/><polygon fill="none" points="371.72,278.14,362.7024,294.8338,374.5222,296.9056,371.72,278.14" style="stroke:#181818;stroke-width:1;"/></g><!--reverse link Discount to ThresholdDiscount--><g class="link" data-entity-1="ent0005" data-entity-2="ent0007" data-link-type="extension" data-source-line="40" id="lnk9"><path codeLine="40" d="M422.0332,290.7719 C452.1932,320.4819 485,352.81 519.66,386.96" fill="none" id="Discount-backto-ThresholdDiscount" style="stroke:#181818;stroke-width:1;"/><polygon fill="none" points="409.21,278.14,417.8226,295.0463,426.2439,286.4975,409.21,278.14" style="stroke:#181818;stroke-width:1;"/></g><!--link Order to Items--><g class="link" data-entity-1="ent0010" data-entity-2="ent0003" data-link-type="dependency" data-source-line="52" id="lnk11"><path codeLine="52" d="M219.95,103.94 C204.67,127.13 189.3619,150.3703 172.8319,175.4503" fill="none" id="Order-to-Items" style="stroke:#181818;stroke-width:1;"/><polygon fill="#181818" points="169.53,180.46,177.8227,175.1466,172.2816,176.2852,171.143,170.7441,169.53,180.46" style="stroke:#181818;stroke-width:1;"/><text fill="#000000" font-family="sans-serif" font-size="13" lengthAdjust="spacing" textLength="29.7832" x="198.24" y="146.9669">uses</text></g><!--link Order to Discount--><g class="link" data-entity-1="ent0010" data-entity-2="ent0005" data-link-type="dependency" data-source-line="53" id="lnk12"><path codeLine="53" d="M283.04,103.94 C305.93,138.13 332.8322,178.3141 352.8022,208.1441" fill="none" id="Order-to-Discount" style="stroke:#181818;stroke-width:1;"/><polygon fill="#181818" points="356.14,213.13,354.4572,203.426,353.3585,208.9751,347.8093,207.8764,356.14,213.13" style="stroke:#181818;stroke-width:1;"/><text fill="#000000" font-family="sans-serif" font-size="13" lengthAdjust="spacing" textLength="96.7446" x="315.24" y="146.9669">uses (optional)</text></g><?plantuml-src bLBBRi8m4BpdA_P68fGVi2WI8b6B11Y5zD1Jv2PkiHJir5wGKDj_hnE7b7Uf3vPsrpkUsPqUF5mxNWyYEXjDvZ2ZKJoruVMdUScCWGdoDNnwO4zViZKdO52xiD8Yj_5RgHYwpCU6IHIu8o0aUj_U0OPfGS9Cr161gJ0ug2j3ppMpecXgVdsHfYaWi5MYS7NDrshBRpv1XQpqWoDEMTsXiwnEsmRDKEcQcYCLXaCdaK2k938XZNTpAdQ0a-MOFizJMAR9A8qVNy2dumNqRM4HtEnbhtPsB4TmOuc4oTL6udwyhAhAdTzeQ1LqIhfHBhZEkUNvpa-wmymgEzx6FNZfIdEpKcLn1eVxoY7clt_fO0TVONY1_Sc3Cpf_BOCcKPpO1IJZfxZP1qs2ErnDTS7rgICRHxIfelsVm2-JInQp4XtMtaZ6EcbZk3b8Tn9T1NnLeL2IbS4F?></g></svg>