<svg xmlns="http://www.w3.org/2000/svg" xmlns:xlink="http://www.w3.org/1999/xlink" contentStyleType="text/css" data-diagram-type="CLASS" height="432px" preserveAspectRatio="none" style="width:1584px;height:432px;background:#FFFFFF;" version="1.1" viewBox="0 0 1584 432" width="1584px" zoomAndPan="magnify"><?plantuml 1.2026.4beta2?><defs/><g><!--class Invoice--><g class="entity" data-qualified-name="Invoice" data-source-line="4" id="ent0002"><rect fill="#F1F1F1" height="129.4844" rx="2.5" ry="2.5" style="stroke:#181818;stroke-width:0.5;" width="166.335" x="695.84" y="147.59"/><ellipse cx="749.7311" cy="163.59" fill="#ADD1B2" rx="11" ry="11" style="stroke:#181818;stroke-width:1;"/><path d="M752.6999,169.2306 Q752.1217,169.5275 751.4811,169.6681 Q750.8405,169.8244 750.1374,169.8244 Q747.6374,169.8244 746.3092,168.1838 Q744.9967,166.5275 744.9967,163.4025 Q744.9967,160.2775 746.3092,158.6213 Q747.6374,156.965 750.1374,156.965 Q750.8405,156.965 751.4811,157.1213 Q752.1374,157.2775 752.6999,157.5744 L752.6999,160.2931 Q752.0749,159.715 751.4811,159.4494 Q750.8874,159.1681 750.2624,159.1681 Q748.9186,159.1681 748.2311,160.2463 Q747.5436,161.3088 747.5436,163.4025 Q747.5436,165.4963 748.2311,166.5744 Q748.9186,167.6369 750.2624,167.6369 Q750.8874,167.6369 751.4811,167.3713 Q752.0749,167.09 752.6999,166.5119 L752.6999,169.2306 Z " fill="#000000"/><text fill="#000000" font-family="sans-serif" font-size="14" lengthAdjust="spacing" textLength="50.0527" x="770.2311" y="168.4367">Invoice</text><line style="stroke:#181818;stroke-width:0.5;" x1="696.84" x2="861.175" y1="179.59" y2="179.59"/><g data-visibility-modifier="PUBLIC_FIELD"><ellipse cx="706.84" cy="193.2384" fill="none" rx="3" ry="3" style="stroke:#038048;stroke-width:1;"/></g><text fill="#000000" font-family="sans-serif" font-size="14" lengthAdjust="spacing" textLength="140.335" x="715.84" y="196.5851">customer_name: str</text><g data-visibility-modifier="PUBLIC_FIELD"><ellipse cx="706.84" cy="209.5353" fill="none" rx="3" ry="3" style="stroke:#038048;stroke-width:1;"/></g><text fill="#000000" font-family="sans-serif" font-size="14" lengthAdjust="spacing" textLength="82.8652" x="715.84" y="212.882">usage: float</text><g data-visibility-modifier="PUBLIC_FIELD"><ellipse cx="706.84" cy="225.8322" fill="none" rx="3" ry="3" style="stroke:#038048;stroke-width:1;"/></g><text fill="#000000" font-family="sans-serif" font-size="14" lengthAdjust="spacing" textLength="95.2998" x="715.84" y="229.1789">cost: Decimal</text><g data-visibility-modifier="PUBLIC_FIELD"><ellipse cx="706.84" cy="242.1291" fill="none" rx="3" ry="3" style="stroke:#038048;stroke-width:1;"/></g><text fill="#000000" font-family="sans-serif" font-size="14" lengthAdjust="spacing" textLength="125.8223" x="715.84" y="245.4757">discount: Decimal</text><g data-visibility-modifier="PUBLIC_FIELD"><ellipse cx="706.84" cy="258.4259" fill="none" rx="3" ry="3" style="stroke:#038048;stroke-width:1;"/></g><text fill="#000000" font-family="sans-serif" font-size="14" lengthAdjust="spacing" textLength="98.2666" x="715.84" y="261.7726">total: Decimal</text><line style="stroke:#181818;stroke-width:0.5;" x1="696.84" x2="861.175" y1="269.0744" y2="269.0744"/></g><!--class PricingModel--><g class="entity" data-qualified-name="PricingModel" data-source-line="15" id="ent0003"><rect fill="#F1F1F1" height="64.2969" rx="2.5" ry="2.5" style="stroke:#181818;stroke-width:0.5;" width="249.3506" x="205.33" y="180.19"/><ellipse cx="281.0209" cy="196.19" fill="#A9DCDF" rx="11" ry="11" style="stroke:#181818;stroke-width:1;"/><path d="M281.1303,191.5338 L279.974,196.6119 L282.3022,196.6119 L281.1303,191.5338 Z M279.6459,189.2994 L282.6303,189.2994 L285.9897,201.69 L283.5365,201.69 L282.7709,198.6275 L279.4897,198.6275 L278.7397,201.69 L276.3022,201.69 L279.6459,189.2994 Z " fill="#000000"/><text fill="#000000" font-family="sans-serif" font-size="14" font-style="italic" lengthAdjust="spacing" textLength="89.4688" x="301.5209" y="201.0367">PricingModel</text><line style="stroke:#181818;stroke-width:0.5;" x1="206.33" x2="453.6806" y1="212.19" y2="212.19"/><line style="stroke:#181818;stroke-width:0.5;" x1="206.33" x2="453.6806" y1="220.19" y2="220.19"/><g data-visibility-modifier="PUBLIC_METHOD"><ellipse cx="216.33" cy="233.8384" fill="#84BE84" rx="3" ry="3" style="stroke:#038048;stroke-width:1;"/></g><text fill="#000000" font-family="sans-serif" font-size="14" lengthAdjust="spacing" textLength="223.3506" x="225.33" y="237.1851">calculate(usage: float): Decimal</text></g><!--class FlatRatePricing--><g class="entity" data-qualified-name="FlatRatePricing" data-source-line="19" id="ent0004"><rect fill="#F1F1F1" height="80.5938" rx="2.5" ry="2.5" style="stroke:#181818;stroke-width:0.5;" width="249.3506" x="164.33" y="337.08"/><ellipse cx="231.828" cy="353.08" fill="#ADD1B2" rx="11" ry="11" style="stroke:#181818;stroke-width:1;"/><path d="M234.7968,358.7206 Q234.2187,359.0175 233.578,359.1581 Q232.9374,359.3144 232.2343,359.3144 Q229.7343,359.3144 228.4062,357.6738 Q227.0937,356.0175 227.0937,352.8925 Q227.0937,349.7675 228.4062,348.1113 Q229.7343,346.455 232.2343,346.455 Q232.9374,346.455 233.578,346.6113 Q234.2343,346.7675 234.7968,347.0644 L234.7968,349.7831 Q234.1718,349.205 233.578,348.9394 Q232.9843,348.6581 232.3593,348.6581 Q231.0155,348.6581 230.328,349.7363 Q229.6405,350.7988 229.6405,352.8925 Q229.6405,354.9863 230.328,356.0644 Q231.0155,357.1269 232.3593,357.1269 Q232.9843,357.1269 233.578,356.8613 Q234.1718,356.58 234.7968,356.0019 L234.7968,358.7206 Z " fill="#000000"/><text fill="#000000" font-family="sans-serif" font-size="14" lengthAdjust="spacing" textLength="105.8545" x="252.328" y="357.9267">FlatRatePricing</text><line style="stroke:#181818;stroke-width:0.5;" x1="165.33" x2="412.6806" y1="369.08" y2="369.08"/><g data-visibility-modifier="PRIVATE_FIELD"><rect fill="none" height="6" style="stroke:#C82930;stroke-width:1;" width="6" x="172.33" y="379.7284"/></g><text fill="#000000" font-family="sans-serif" font-size="14" lengthAdjust="spacing" textLength="94.6914" x="184.33" y="386.0751">rate: Decimal</text><line style="stroke:#181818;stroke-width:0.5;" x1="165.33" x2="412.6806" y1="393.3769" y2="393.3769"/><g data-visibility-modifier="PUBLIC_METHOD"><ellipse cx="175.33" cy="407.0253" fill="#84BE84" rx="3" ry="3" style="stroke:#038048;stroke-width:1;"/></g><text fill="#000000" font-family="sans-serif" font-size="14" lengthAdjust="spacing" textLength="223.3506" x="184.33" y="410.372">calculate(usage: float): Decimal</text></g><!--class UsageBasedPricing--><g class="entity" data-qualified-name="UsageBasedPricing" data-source-line="24" id="ent0005"><rect fill="#F1F1F1" height="80.5938" rx="2.5" ry="2.5" style="stroke:#181818;stroke-width:0.5;" width="249.3506" x="448.33" y="337.08"/><ellipse cx="501.7392" cy="353.08" fill="#ADD1B2" rx="11" ry="11" style="stroke:#181818;stroke-width:1;"/><path d="M504.7079,358.7206 Q504.1298,359.0175 503.4892,359.1581 Q502.8486,359.3144 502.1454,359.3144 Q499.6454,359.3144 498.3173,357.6738 Q497.0048,356.0175 497.0048,352.8925 Q497.0048,349.7675 498.3173,348.1113 Q499.6454,346.455 502.1454,346.455 Q502.8486,346.455 503.4892,346.6113 Q504.1454,346.7675 504.7079,347.0644 L504.7079,349.7831 Q504.0829,349.205 503.4892,348.9394 Q502.8954,348.6581 502.2704,348.6581 Q500.9267,348.6581 500.2392,349.7363 Q499.5517,350.7988 499.5517,352.8925 Q499.5517,354.9863 500.2392,356.0644 Q500.9267,357.1269 502.2704,357.1269 Q502.8954,357.1269 503.4892,356.8613 Q504.0829,356.58 504.7079,356.0019 L504.7079,358.7206 Z " fill="#000000"/><text fill="#000000" font-family="sans-serif" font-size="14" lengthAdjust="spacing" textLength="134.0322" x="522.2392" y="357.9267">UsageBasedPricing</text><line style="stroke:#181818;stroke-width:0.5;" x1="449.33" x2="696.6806" y1="369.08" y2="369.08"/><g data-visibility-modifier="PRIVATE_FIELD"><rect fill="none" height="6" style="stroke:#C82930;stroke-width:1;" width="6" x="456.33" y="379.7284"/></g><text fill="#000000" font-family="sans-serif" font-size="14" lengthAdjust="spacing" textLength="165.4775" x="468.33" y="386.0751">price_per_unit: Decimal</text><line style="stroke:#181818;stroke-width:0.5;" x1="449.33" x2="696.6806" y1="393.3769" y2="393.3769"/><g data-visibility-modifier="PUBLIC_METHOD"><ellipse cx="459.33" cy="407.0253" fill="#84BE84" rx="3" ry="3" style="stroke:#038048;stroke-width:1;"/></g><text fill="#000000" font-family="sans-serif" font-size="14" lengthAdjust="spacing" textLength="223.3506" x="468.33" y="410.372">calculate(usage: float): Decimal</text></g><!--class Customer--><g class="entity" data-qualified-name="Customer" data-source-line="35" id="ent0008"><rect fill="#F1F1F1" height="80.5938" rx="2.5" ry="2.5" style="stroke:#181818;stroke-width:0.5;" width="192.7354" x="988.64" y="172.04"/><ellipse cx="1046.7557" cy="188.04" fill="#A9DCDF" rx="11" ry="11" style="stroke:#181818;stroke-width:1;"/><path d="M1046.8651,183.3838 L1045.7088,188.4619 L1048.037,188.4619 L1046.8651,183.3838 Z M1045.3807,181.1494 L1048.3651,181.1494 L1051.7245,193.54 L1049.2713,193.54 L1048.5057,190.4775 L1045.2245,190.4775 L1044.4745,193.54 L1042.037,193.54 L1045.3807,181.1494 Z " fill="#000000"/><text fill="#000000" font-family="sans-serif" font-size="14" font-style="italic" lengthAdjust="spacing" textLength="68.0039" x="1067.2557" y="192.8867">Customer</text><line style="stroke:#181818;stroke-width:0.5;" x1="989.64" x2="1180.3754" y1="204.04" y2="204.04"/><g data-visibility-modifier="PUBLIC_FIELD"><ellipse cx="999.64" cy="217.6884" fill="none" rx="3" ry="3" style="stroke:#038048;stroke-width:1;"/></g><text fill="#000000" font-family="sans-serif" font-size="14" lengthAdjust="spacing" textLength="67.4092" x="1008.64" y="221.0351">name: str</text><line style="stroke:#181818;stroke-width:0.5;" x1="989.64" x2="1180.3754" y1="228.3369" y2="228.3369"/><g data-visibility-modifier="PUBLIC_METHOD"><ellipse cx="999.64" cy="241.9853" fill="#84BE84" rx="3" ry="3" style="stroke:#038048;stroke-width:1;"/></g><text fill="#000000" font-family="sans-serif" font-size="14" lengthAdjust="spacing" textLength="166.7354" x="1008.64" y="245.332">get_discount(): Decimal</text></g><!--class RegularCustomer--><g class="entity" data-qualified-name="RegularCustomer" data-source-line="40" id="ent0009"><rect fill="#F1F1F1" height="64.2969" rx="2.5" ry="2.5" style="stroke:#181818;stroke-width:0.5;" width="192.7354" x="874.64" y="345.22"/><ellipse cx="906.9228" cy="361.22" fill="#ADD1B2" rx="11" ry="11" style="stroke:#181818;stroke-width:1;"/><path d="M909.8916,366.8606 Q909.3134,367.1575 908.6728,367.2981 Q908.0322,367.4544 907.3291,367.4544 Q904.8291,367.4544 903.5009,365.8138 Q902.1884,364.1575 902.1884,361.0325 Q902.1884,357.9075 903.5009,356.2513 Q904.8291,354.595 907.3291,354.595 Q908.0322,354.595 908.6728,354.7513 Q909.3291,354.9075 909.8916,355.2044 L909.8916,357.9231 Q909.2666,357.345 908.6728,357.0794 Q908.0791,356.7981 907.4541,356.7981 Q906.1103,356.7981 905.4228,357.8763 Q904.7353,358.9388 904.7353,361.0325 Q904.7353,363.1263 905.4228,364.2044 Q906.1103,365.2669 907.4541,365.2669 Q908.0791,365.2669 908.6728,365.0013 Q909.2666,364.72 909.8916,364.1419 L909.8916,366.8606 Z " fill="#000000"/><text fill="#000000" font-family="sans-serif" font-size="14" lengthAdjust="spacing" textLength="122.3291" x="924.7634" y="366.0667">RegularCustomer</text><line style="stroke:#181818;stroke-width:0.5;" x1="875.64" x2="1066.3754" y1="377.22" y2="377.22"/><line style="stroke:#181818;stroke-width:0.5;" x1="875.64" x2="1066.3754" y1="385.22" y2="385.22"/><g data-visibility-modifier="PUBLIC_METHOD"><ellipse cx="885.64" cy="398.8684" fill="#84BE84" rx="3" ry="3" style="stroke:#038048;stroke-width:1;"/></g><text fill="#000000" font-family="sans-serif" font-size="14" lengthAdjust="spacing" textLength="166.7354" x="894.64" y="402.2151">get_discount(): Decimal</text></g><!--class PremiumCustomer--><g class="entity" data-qualified-name="PremiumCustomer" data-source-line="44" id="ent0010"><rect fill="#F1F1F1" height="80.5938" rx="2.5" ry="2.5" style="stroke:#181818;stroke-width:0.5;" width="192.7354" x="1102.64" y="337.08"/><ellipse cx="1131.0868" cy="353.08" fill="#ADD1B2" rx="11" ry="11" style="stroke:#181818;stroke-width:1;"/><path d="M1134.0556,358.7206 Q1133.4775,359.0175 1132.8368,359.1581 Q1132.1962,359.3144 1131.4931,359.3144 Q1128.9931,359.3144 1127.665,357.6738 Q1126.3525,356.0175 1126.3525,352.8925 Q1126.3525,349.7675 1127.665,348.1113 Q1128.9931,346.455 1131.4931,346.455 Q1132.1962,346.455 1132.8368,346.6113 Q1133.4931,346.7675 1134.0556,347.0644 L1134.0556,349.7831 Q1133.4306,349.205 1132.8368,348.9394 Q1132.2431,348.6581 1131.6181,348.6581 Q1130.2743,348.6581 1129.5868,349.7363 Q1128.8993,350.7988 1128.8993,352.8925 Q1128.8993,354.9863 1129.5868,356.0644 Q1130.2743,357.1269 1131.6181,357.1269 Q1132.2431,357.1269 1132.8368,356.8613 Q1133.4306,356.58 1134.0556,356.0019 L1134.0556,358.7206 Z " fill="#000000"/><text fill="#000000" font-family="sans-serif" font-size="14" lengthAdjust="spacing" textLength="130.8535" x="1148.075" y="357.9267">PremiumCustomer</text><line style="stroke:#181818;stroke-width:0.5;" x1="1103.64" x2="1294.3754" y1="369.08" y2="369.08"/><text fill="#000000" font-family="sans-serif" font-size="14" lengthAdjust="spacing" text-decoration="underline" textLength="140.1162" x="1108.64" y="386.0751">DISCOUNT: Decimal</text><line style="stroke:#181818;stroke-width:0.5;" x1="1103.64" x2="1294.3754" y1="393.3769" y2="393.3769"/><g data-visibility-modifier="PUBLIC_METHOD"><ellipse cx="1113.64" cy="407.0253" fill="#84BE84" rx="3" ry="3" style="stroke:#038048;stroke-width:1;"/></g><text fill="#000000" font-family="sans-serif" font-size="14" lengthAdjust="spacing" textLength="166.7354" x="1122.64" y="410.372">get_discount(): Decimal</text></g><!--class CustomerFactory--><g class="entity" data-qualified-name="CustomerFactory" data-source-line="55" id="ent0013"><rect fill="#F1F1F1" height="64.2969" rx="2.5" ry="2.5" style="stroke:#181818;stroke-width:0.5;" width="425.9844" x="1143.02" y="15.15"/><ellipse cx="1291.5478" cy="31.15" fill="#ADD1B2" rx="11" ry="11" style="stroke:#181818;stroke-width:1;"/><path d="M1294.5166,36.7906 Q1293.9385,37.0875 1293.2978,37.2281 Q1292.6572,37.3844 1291.9541,37.3844 Q1289.4541,37.3844 1288.126,35.7438 Q1286.8135,34.0875 1286.8135,30.9625 Q1286.8135,27.8375 1288.126,26.1813 Q1289.4541,24.525 1291.9541,24.525 Q1292.6572,24.525 1293.2978,24.6813 Q1293.9541,24.8375 1294.5166,25.1344 L1294.5166,27.8531 Q1293.8916,27.275 1293.2978,27.0094 Q1292.7041,26.7281 1292.0791,26.7281 Q1290.7353,26.7281 1290.0478,27.8063 Q1289.3603,28.8688 1289.3603,30.9625 Q1289.3603,33.0563 1290.0478,34.1344 Q1290.7353,35.1969 1292.0791,35.1969 Q1292.7041,35.1969 1293.2978,34.9313 Q1293.8916,34.65 1294.5166,34.0719 L1294.5166,36.7906 Z " fill="#000000"/><text fill="#000000" font-family="sans-serif" font-size="14" lengthAdjust="spacing" textLength="120.4287" x="1312.0478" y="35.9967">CustomerFactory</text><line style="stroke:#181818;stroke-width:0.5;" x1="1144.02" x2="1568.0044" y1="47.15" y2="47.15"/><line style="stroke:#181818;stroke-width:0.5;" x1="1144.02" x2="1568.0044" y1="55.15" y2="55.15"/><text fill="#000000" font-family="sans-serif" font-size="14" lengthAdjust="spacing" text-decoration="underline" textLength="413.9844" x="1149.02" y="72.1451">create_customer(customer_type: str, name: str): Customer</text></g><!--class PricingFactory--><g class="entity" data-qualified-name="PricingFactory" data-source-line="59" id="ent0014"><rect fill="#F1F1F1" height="64.2969" rx="2.5" ry="2.5" style="stroke:#181818;stroke-width:0.5;" width="408.0195" x="7" y="15.15"/><ellipse cx="156.8301" cy="31.15" fill="#ADD1B2" rx="11" ry="11" style="stroke:#181818;stroke-width:1;"/><path d="M159.7988,36.7906 Q159.2207,37.0875 158.5801,37.2281 Q157.9395,37.3844 157.2363,37.3844 Q154.7363,37.3844 153.4082,35.7438 Q152.0957,34.0875 152.0957,30.9625 Q152.0957,27.8375 153.4082,26.1813 Q154.7363,24.525 157.2363,24.525 Q157.9395,24.525 158.5801,24.6813 Q159.2363,24.8375 159.7988,25.1344 L159.7988,27.8531 Q159.1738,27.275 158.5801,27.0094 Q157.9863,26.7281 157.3613,26.7281 Q156.0176,26.7281 155.3301,27.8063 Q154.6426,28.8688 154.6426,30.9625 Q154.6426,33.0563 155.3301,34.1344 Q156.0176,35.1969 157.3613,35.1969 Q157.9863,35.1969 158.5801,34.9313 Q159.1738,34.65 159.7988,34.0719 L159.7988,36.7906 Z " fill="#000000"/><text fill="#000000" font-family="sans-serif" font-size="14" lengthAdjust="spacing" textLength="99.8594" x="177.3301" y="35.9967">PricingFactory</text><line style="stroke:#181818;stroke-width:0.5;" x1="8" x2="414.0195" y1="47.15" y2="47.15"/><line style="stroke:#181818;stroke-width:0.5;" x1="8" x2="414.0195" y1="55.15" y2="55.15"/><text fill="#000000" font-family="sans-serif" font-size="14" lengthAdjust="spacing" text-decoration="underline" textLength="396.0195" x="13" y="72.1451">create_pricing(pricing_type: str, **kwargs): PricingModel</text></g><!--class BillingService--><g class="entity" data-qualified-name="BillingService" data-source-line="69" id="ent0017"><rect fill="#F1F1F1" height="80.5938" rx="2.5" ry="2.5" style="stroke:#181818;stroke-width:0.5;" width="657.251" x="450.38" y="7"/><ellipse cx="727.4235" cy="23" fill="#ADD1B2" rx="11" ry="11" style="stroke:#181818;stroke-width:1;"/><path d="M730.3922,28.6406 Q729.8141,28.9375 729.1735,29.0781 Q728.5328,29.2344 727.8297,29.2344 Q725.3297,29.2344 724.0016,27.5938 Q722.6891,25.9375 722.6891,22.8125 Q722.6891,19.6875 724.0016,18.0313 Q725.3297,16.375 727.8297,16.375 Q728.5328,16.375 729.1735,16.5313 Q729.8297,16.6875 730.3922,16.9844 L730.3922,19.7031 Q729.7672,19.125 729.1735,18.8594 Q728.5797,18.5781 727.9547,18.5781 Q726.611,18.5781 725.9235,19.6563 Q725.236,20.7188 725.236,22.8125 Q725.236,24.9063 725.9235,25.9844 Q726.611,27.0469 727.9547,27.0469 Q728.5797,27.0469 729.1735,26.7813 Q729.7672,26.5 730.3922,25.9219 L730.3922,28.6406 Z " fill="#000000"/><text fill="#000000" font-family="sans-serif" font-size="14" lengthAdjust="spacing" textLength="94.6641" x="747.9235" y="27.8467">BillingService</text><line style="stroke:#181818;stroke-width:0.5;" x1="451.38" x2="1106.631" y1="39" y2="39"/><g data-visibility-modifier="PRIVATE_FIELD"><rect fill="none" height="6" style="stroke:#C82930;stroke-width:1;" width="6" x="458.38" y="49.6484"/></g><text fill="#000000" font-family="sans-serif" font-size="14" lengthAdjust="spacing" textLength="164.2607" x="470.38" y="55.9951">invoices: List&lt;Invoice&gt;</text><line style="stroke:#181818;stroke-width:0.5;" x1="451.38" x2="1106.631" y1="63.2969" y2="63.2969"/><g data-visibility-modifier="PUBLIC_METHOD"><ellipse cx="461.38" cy="76.9453" fill="#84BE84" rx="3" ry="3" style="stroke:#038048;stroke-width:1;"/></g><text fill="#000000" font-family="sans-serif" font-size="14" lengthAdjust="spacing" textLength="631.251" x="470.38" y="80.292">generate_invoice(customer: Customer, pricing_model: PricingModel, usage: float): Invoice</text></g><!--reverse link PricingModel to FlatRatePricing--><g class="link" data-entity-1="ent0003" data-entity-2="ent0004" data-link-type="extension" data-source-line="29" id="lnk6"><path codeLine="29" d="M317.714,262.2275 C311.134,288.4175 306.1,308.4 299,336.66" fill="none" id="PricingModel-backto-FlatRatePricing" style="stroke:#181818;stroke-width:1;"/><polygon fill="none" points="322.1,244.77,311.8948,260.7654,323.5331,263.6895,322.1,244.77" style="stroke:#181818;stroke-width:1;"/></g><!--reverse link PricingModel to UsageBasedPricing--><g class="link" data-entity-1="ent0003" data-entity-2="ent0005" data-link-type="extension" data-source-line="30" id="lnk7"><path codeLine="30" d="M392.0968,254.9896 C431.1568,281.1996 471.93,308.55 513.96,336.75" fill="none" id="PricingModel-backto-UsageBasedPricing" style="stroke:#181818;stroke-width:1;"/><polygon fill="none" points="377.15,244.96,388.7536,259.9719,395.44,250.0073,377.15,244.96" style="stroke:#181818;stroke-width:1;"/></g><!--reverse link Customer to RegularCustomer--><g class="link" data-entity-1="ent0008" data-entity-2="ent0009" data-link-type="extension" data-source-line="49" id="lnk11"><path codeLine="49" d="M1047.0943,267.5508 C1027.3243,295.8208 1011.38,318.64 993.02,344.9" fill="none" id="Customer-backto-RegularCustomer" style="stroke:#181818;stroke-width:1;"/><polygon fill="none" points="1057.41,252.8,1042.1774,264.1123,1052.0113,270.9894,1057.41,252.8" style="stroke:#181818;stroke-width:1;"/></g><!--reverse link Customer to PremiumCustomer--><g class="link" data-entity-1="ent0008" data-entity-2="ent0010" data-link-type="extension" data-source-line="50" id="lnk12"><path codeLine="50" d="M1122.9226,267.553 C1140.7126,293.003 1153.45,311.22 1171.27,336.7" fill="none" id="Customer-backto-PremiumCustomer" style="stroke:#181818;stroke-width:1;"/><polygon fill="none" points="1112.61,252.8,1118.0049,270.9905,1127.8403,264.1154,1112.61,252.8" style="stroke:#181818;stroke-width:1;"/></g><!--link CustomerFactory to Customer--><g class="link" data-entity-1="ent0013" data-entity-2="ent0008" data-link-type="dependency" data-source-line="63" id="lnk15"><path codeLine="63" d="M1303.44,79.92 C1259.88,106.13 1202.8812,140.4167 1156.0112,168.6167" fill="none" id="CustomerFactory-to-Customer" style="stroke:#181818;stroke-width:1;stroke-dasharray:7,7;"/><polygon fill="#181818" points="1150.87,171.71,1160.6439,170.4976,1155.1543,169.1323,1156.5196,163.6427,1150.87,171.71" style="stroke:#181818;stroke-width:1;"/></g><!--link PricingFactory to PricingModel--><g class="link" data-entity-1="ent0014" data-entity-2="ent0003" data-link-type="dependency" data-source-line="64" id="lnk16"><path codeLine="64" d="M233.95,79.73 C254.96,108.51 282.3538,146.0328 303.3938,174.8728" fill="none" id="PricingFactory-to-PricingModel" style="stroke:#181818;stroke-width:1;stroke-dasharray:7,7;"/><polygon fill="#181818" points="306.93,179.72,304.8571,170.0918,303.9831,175.6807,298.3942,174.8067,306.93,179.72" style="stroke:#181818;stroke-width:1;"/></g><!--reverse link BillingService to Invoice--><g class="link" data-entity-1="ent0017" data-entity-2="ent0002" data-link-type="aggregation" data-source-line="74" id="lnk18"><path codeLine="74" d="M779.01,99.76 C779.01,117.57 779.01,127.07 779.01,147.11" fill="none" id="BillingService-backto-Invoice" style="stroke:#181818;stroke-width:1;"/><polygon fill="none" points="779.01,87.76,775.01,93.76,779.01,99.76,783.01,93.76,779.01,87.76" style="stroke:#181818;stroke-width:1;"/><text fill="#000000" font-family="sans-serif" font-size="13" lengthAdjust="spacing" textLength="8.271" x="770.3707" y="107.7818">1</text><text fill="#000000" font-family="sans-serif" font-size="13" lengthAdjust="spacing" textLength="6.5" x="772.7267" y="136.6843">*</text></g><!--link BillingService to Customer--><g class="link" data-entity-1="ent0017" data-entity-2="ent0008" data-link-type="dependency" data-source-line="75" id="lnk19"><path codeLine="75" d="M853.47,87.97 C901.15,113.37 957.4947,143.3886 1005.1847,168.7986" fill="none" id="BillingService-to-Customer" style="stroke:#181818;stroke-width:1;stroke-dasharray:7,7;"/><polygon fill="#181818" points="1010.48,171.62,1004.418,163.8577,1006.0673,169.2688,1000.6562,170.9181,1010.48,171.62" style="stroke:#181818;stroke-width:1;"/></g><!--link BillingService to PricingModel--><g class="link" data-entity-1="ent0017" data-entity-2="ent0003" data-link-type="dependency" data-source-line="76" id="lnk20"><path codeLine="76" d="M669.46,88.07 C591.84,116.26 494.7497,151.5121 422.7097,177.6721" fill="none" id="BillingService-to-PricingModel" style="stroke:#181818;stroke-width:1;stroke-dasharray:7,7;"/><polygon fill="#181818" points="417.07,179.72,426.8948,180.4079,421.7697,178.0134,424.1642,172.8883,417.07,179.72" style="stroke:#181818;stroke-width:1;"/></g><?plantuml-src dLJBRi8m4Bpp5IikK0f8lIBA0H0gKXy8oZbopJQrwiJ8TgWGvT_hO2SaRXhQ-X9bFJkU7U-w1RVLgz62YP08Kw89F8WDSXFv2KivKGhcyKumYd1eW5dND55QH2Y3c4Gu0AMbZIUAXER_bGkY7L8eFO0fKXOHRaCRfgX8OZ-iXIRy73isQaIrO24PPN48Aos9nd1V0oOlHX-X6cmfBlDKTruFuJJXXgXThE2gfCPcpmngQO3P-PQWbuhmwlazvphT7nE56uzrQtuns1gVavZfV_2NQXr-zdg-_Wh4DpNr5p5nhG1t32MHzEqFLv7dkclmkYb47MJDqguoRecXSK3wD1Vp5X8ZbaHUta5feXazmdI-cZoj7vyzmsjeSwQJWvuiRzSxlDxTcJ5BI8RgueHcV3PZxzT49PfR3xB1RUSJhFTRwtaNSljDSRcyWccdRgZdtrfGstsBx9tE-mUHeJBanQOhsfTnz_kZim3lt7Ilb5_htvXnVdecKExCB5rqqU4TF9j3Pby_DO1xflJGFOQZh2rYJCS_SAZSshE9NSZyY5B9PGEwuCsleq-DyUGqRveWJ0irEyqSvK5ArbNi5K_-0W00?></g></svg>