<svg xmlns="http://www.w3.org/2000/svg" xmlns:xlink="http://www.w3.org/1999/xlink" contentStyleType="text/css" data-diagram-type="CLASS" height="581px" preserveAspectRatio="none" style="width:462px;height:581px;background:#FFFFFF;" version="1.1" viewBox="0 0 462 581" width="462px" zoomAndPan="magnify"><?plantuml 1.2026.4beta2?><defs/><g><!--class Switchable--><g class="entity" data-qualified-name="Switchable" data-source-line="4" id="ent0002"><rect fill="#F1F1F1" height="96.8906" rx="2.5" ry="2.5" style="stroke:#181818;stroke-width:0.5;" width="130.1318" x="51.12" y="7"/><ellipse cx="75.9646" cy="23" fill="#B4A7E5" rx="11" ry="11" style="stroke:#181818;stroke-width:1;"/><path d="M71.8865,18.7656 L71.8865,16.6094 L79.2771,16.6094 L79.2771,18.7656 L76.8084,18.7656 L76.8084,26.8438 L79.2771,26.8438 L79.2771,29 L71.8865,29 L71.8865,26.8438 L74.3553,26.8438 L74.3553,18.7656 L71.8865,18.7656 Z " fill="#000000"/><text fill="#000000" font-family="sans-serif" font-size="14" font-style="italic" lengthAdjust="spacing" textLength="76.2549" x="92.1523" y="27.8467">Switchable</text><line style="stroke:#181818;stroke-width:0.5;" x1="52.12" x2="180.2518" y1="39" y2="39"/><g data-visibility-modifier="PUBLIC_FIELD"><ellipse cx="62.12" cy="52.6484" fill="none" rx="3" ry="3" style="stroke:#038048;stroke-width:1;"/></g><text fill="#000000" font-family="sans-serif" font-size="14" lengthAdjust="spacing" textLength="74.6963" x="71.12" y="55.9951">is_on: bool</text><line style="stroke:#181818;stroke-width:0.5;" x1="52.12" x2="180.2518" y1="63.2969" y2="63.2969"/><g data-visibility-modifier="PUBLIC_METHOD"><ellipse cx="62.12" cy="76.9453" fill="#84BE84" rx="3" ry="3" style="stroke:#038048;stroke-width:1;"/></g><text fill="#000000" font-family="sans-serif" font-size="14" lengthAdjust="spacing" textLength="103.1475" x="71.12" y="80.292">turn_on(): void</text><g data-visibility-modifier="PUBLIC_METHOD"><ellipse cx="62.12" cy="93.2422" fill="#84BE84" rx="3" ry="3" style="stroke:#038048;stroke-width:1;"/></g><text fill="#000000" font-family="sans-serif" font-size="14" lengthAdjust="spacing" textLength="104.1318" x="71.12" y="96.5889">turn_off(): void</text></g><!--class Adjustable--><g class="entity" data-qualified-name="Adjustable" data-source-line="10" id="ent0003"><rect fill="#F1F1F1" height="80.5938" rx="2.5" ry="2.5" style="stroke:#181818;stroke-width:0.5;" width="208.0137" x="230.18" y="15.15"/><ellipse cx="292.9476" cy="31.15" fill="#B4A7E5" rx="11" ry="11" style="stroke:#181818;stroke-width:1;"/><path d="M288.8695,26.9156 L288.8695,24.7594 L296.2601,24.7594 L296.2601,26.9156 L293.7913,26.9156 L293.7913,34.9937 L296.2601,34.9937 L296.2601,37.15 L288.8695,37.15 L288.8695,34.9937 L291.3382,34.9937 L291.3382,26.9156 L288.8695,26.9156 Z " fill="#000000"/><text fill="#000000" font-family="sans-serif" font-size="14" font-style="italic" lengthAdjust="spacing" textLength="73.9785" x="313.4476" y="35.9967">Adjustable</text><line style="stroke:#181818;stroke-width:0.5;" x1="231.18" x2="437.1937" y1="47.15" y2="47.15"/><g data-visibility-modifier="PUBLIC_FIELD"><ellipse cx="241.18" cy="60.7984" fill="none" rx="3" ry="3" style="stroke:#038048;stroke-width:1;"/></g><text fill="#000000" font-family="sans-serif" font-size="14" lengthAdjust="spacing" textLength="65.6592" x="250.18" y="64.1451">value: int</text><line style="stroke:#181818;stroke-width:0.5;" x1="231.18" x2="437.1937" y1="71.4469" y2="71.4469"/><g data-visibility-modifier="PUBLIC_METHOD"><ellipse cx="241.18" cy="85.0953" fill="#84BE84" rx="3" ry="3" style="stroke:#038048;stroke-width:1;"/></g><text fill="#000000" font-family="sans-serif" font-size="14" lengthAdjust="spacing" textLength="182.0137" x="250.18" y="88.442">set_value(value: int): void</text></g><!--class OnOffBehavior--><g class="entity" data-qualified-name="OnOffBehavior" data-source-line="18" id="ent0004"><rect fill="#F1F1F1" height="129.4844" rx="2.5" ry="2.5" style="stroke:#181818;stroke-width:0.5;" width="134.9355" x="51.72" y="428.42"/><ellipse cx="66.72" cy="444.42" fill="#ADD1B2" rx="11" ry="11" style="stroke:#181818;stroke-width:1;"/><path d="M69.6888,450.0606 Q69.1106,450.3575 68.47,450.4981 Q67.8294,450.6544 67.1263,450.6544 Q64.6263,450.6544 63.2981,449.0137 Q61.9856,447.3575 61.9856,444.2325 Q61.9856,441.1075 63.2981,439.4512 Q64.6263,437.795 67.1263,437.795 Q67.8294,437.795 68.47,437.9512 Q69.1263,438.1075 69.6888,438.4044 L69.6888,441.1231 Q69.0638,440.545 68.47,440.2794 Q67.8763,439.9981 67.2513,439.9981 Q65.9075,439.9981 65.22,441.0762 Q64.5325,442.1387 64.5325,444.2325 Q64.5325,446.3262 65.22,447.4044 Q65.9075,448.4669 67.2513,448.4669 Q67.8763,448.4669 68.47,448.2012 Q69.0638,447.92 69.6888,447.3419 L69.6888,450.0606 Z " fill="#000000"/><text fill="#000000" font-family="sans-serif" font-size="14" lengthAdjust="spacing" textLength="102.9355" x="80.72" y="449.2667">OnOffBehavior</text><line style="stroke:#181818;stroke-width:0.5;" x1="52.72" x2="185.6555" y1="460.42" y2="460.42"/><g data-visibility-modifier="PRIVATE_FIELD"><rect fill="none" height="6" style="stroke:#C82930;stroke-width:1;" width="6" x="59.72" y="471.0684"/></g><text fill="#000000" font-family="sans-serif" font-size="14" lengthAdjust="spacing" textLength="81.5391" x="71.72" y="477.4151">_state: bool</text><text fill="#000000" font-family="sans-serif" font-size="14" lengthAdjust="spacing" textLength="4.4502" x="71.72" y="493.712">&#160;</text><g data-visibility-modifier="PUBLIC_FIELD"><ellipse cx="62.72" cy="506.6622" fill="none" rx="3" ry="3" style="stroke:#038048;stroke-width:1;"/></g><text fill="#000000" font-family="sans-serif" font-size="14" lengthAdjust="spacing" textLength="74.6963" x="71.72" y="510.0089">is_on: bool</text><line style="stroke:#181818;stroke-width:0.5;" x1="52.72" x2="185.6555" y1="517.3106" y2="517.3106"/><g data-visibility-modifier="PUBLIC_METHOD"><ellipse cx="62.72" cy="530.9591" fill="#84BE84" rx="3" ry="3" style="stroke:#038048;stroke-width:1;"/></g><text fill="#000000" font-family="sans-serif" font-size="14" lengthAdjust="spacing" textLength="103.1475" x="71.72" y="534.3057">turn_on(): void</text><g data-visibility-modifier="PUBLIC_METHOD"><ellipse cx="62.72" cy="547.2559" fill="#84BE84" rx="3" ry="3" style="stroke:#038048;stroke-width:1;"/></g><text fill="#000000" font-family="sans-serif" font-size="14" lengthAdjust="spacing" textLength="104.1318" x="71.72" y="550.6026">turn_off(): void</text></g><!--class ValueBehavior--><g class="entity" data-qualified-name="ValueBehavior" data-source-line="26" id="ent0005"><rect fill="#F1F1F1" height="145.7813" rx="2.5" ry="2.5" style="stroke:#181818;stroke-width:0.5;" width="208.0137" x="239.18" y="420.27"/><ellipse cx="288.0877" cy="436.27" fill="#ADD1B2" rx="11" ry="11" style="stroke:#181818;stroke-width:1;"/><path d="M291.0565,441.9106 Q290.4783,442.2075 289.8377,442.3481 Q289.1971,442.5044 288.494,442.5044 Q285.994,442.5044 284.6658,440.8638 Q283.3533,439.2075 283.3533,436.0825 Q283.3533,432.9575 284.6658,431.3013 Q285.994,429.645 288.494,429.645 Q289.1971,429.645 289.8377,429.8013 Q290.494,429.9575 291.0565,430.2544 L291.0565,432.9731 Q290.4315,432.395 289.8377,432.1294 Q289.244,431.8481 288.619,431.8481 Q287.2752,431.8481 286.5877,432.9263 Q285.9002,433.9888 285.9002,436.0825 Q285.9002,438.1763 286.5877,439.2544 Q287.2752,440.3169 288.619,440.3169 Q289.244,440.3169 289.8377,440.0513 Q290.4315,439.77 291.0565,439.1919 L291.0565,441.9106 Z " fill="#000000"/><text fill="#000000" font-family="sans-serif" font-size="14" lengthAdjust="spacing" textLength="101.6982" x="308.5877" y="441.1167">ValueBehavior</text><line style="stroke:#181818;stroke-width:0.5;" x1="240.18" x2="446.1937" y1="452.27" y2="452.27"/><g data-visibility-modifier="PRIVATE_FIELD"><rect fill="none" height="6" style="stroke:#C82930;stroke-width:1;" width="6" x="247.18" y="462.9184"/></g><text fill="#000000" font-family="sans-serif" font-size="14" lengthAdjust="spacing" textLength="72.6592" x="259.18" y="469.2651">_value: int</text><g data-visibility-modifier="PRIVATE_FIELD"><rect fill="none" height="6" style="stroke:#C82930;stroke-width:1;" width="6" x="247.18" y="479.2153"/></g><text fill="#000000" font-family="sans-serif" font-size="14" lengthAdjust="spacing" textLength="60.8193" x="259.18" y="485.562">_min: int</text><g data-visibility-modifier="PRIVATE_FIELD"><rect fill="none" height="6" style="stroke:#C82930;stroke-width:1;" width="6" x="247.18" y="495.5122"/></g><text fill="#000000" font-family="sans-serif" font-size="14" lengthAdjust="spacing" textLength="64.9209" x="259.18" y="501.8589">_max: int</text><text fill="#000000" font-family="sans-serif" font-size="14" lengthAdjust="spacing" textLength="4.4502" x="259.18" y="518.1557">&#160;</text><g data-visibility-modifier="PUBLIC_FIELD"><ellipse cx="250.18" cy="531.1059" fill="none" rx="3" ry="3" style="stroke:#038048;stroke-width:1;"/></g><text fill="#000000" font-family="sans-serif" font-size="14" lengthAdjust="spacing" textLength="65.6592" x="259.18" y="534.4526">value: int</text><line style="stroke:#181818;stroke-width:0.5;" x1="240.18" x2="446.1937" y1="541.7544" y2="541.7544"/><g data-visibility-modifier="PUBLIC_METHOD"><ellipse cx="250.18" cy="555.4028" fill="#84BE84" rx="3" ry="3" style="stroke:#038048;stroke-width:1;"/></g><text fill="#000000" font-family="sans-serif" font-size="14" lengthAdjust="spacing" textLength="182.0137" x="259.18" y="558.7495">set_value(value: int): void</text></g><!--class Light--><g class="entity" data-qualified-name="Light" data-source-line="38" id="ent0006"><rect fill="#F1F1F1" height="129.4844" rx="2.5" ry="2.5" style="stroke:#181818;stroke-width:0.5;" width="188.374" x="7" y="189.34"/><ellipse cx="79.4678" cy="205.34" fill="#ADD1B2" rx="11" ry="11" style="stroke:#181818;stroke-width:1;"/><path d="M82.4365,210.9806 Q81.8584,211.2775 81.2178,211.4181 Q80.5771,211.5744 79.874,211.5744 Q77.374,211.5744 76.0459,209.9337 Q74.7334,208.2775 74.7334,205.1525 Q74.7334,202.0275 76.0459,200.3712 Q77.374,198.715 79.874,198.715 Q80.5771,198.715 81.2178,198.8712 Q81.874,199.0275 82.4365,199.3244 L82.4365,202.0431 Q81.8115,201.465 81.2178,201.1994 Q80.624,200.9181 79.999,200.9181 Q78.6553,200.9181 77.9678,201.9962 Q77.2803,203.0587 77.2803,205.1525 Q77.2803,207.2462 77.9678,208.3244 Q78.6553,209.3869 79.999,209.3869 Q80.624,209.3869 81.2178,209.1212 Q81.8115,208.84 82.4365,208.2619 L82.4365,210.9806 Z " fill="#000000"/><text fill="#000000" font-family="sans-serif" font-size="14" lengthAdjust="spacing" textLength="34.9385" x="99.9678" y="210.1867">Light</text><line style="stroke:#181818;stroke-width:0.5;" x1="8" x2="194.374" y1="221.34" y2="221.34"/><g data-visibility-modifier="PRIVATE_FIELD"><rect fill="none" height="6" style="stroke:#C82930;stroke-width:1;" width="6" x="15" y="231.9884"/></g><text fill="#000000" font-family="sans-serif" font-size="14" lengthAdjust="spacing" textLength="162.374" x="27" y="238.3351">_power: OnOffBehavior</text><text fill="#000000" font-family="sans-serif" font-size="14" lengthAdjust="spacing" textLength="4.4502" x="27" y="254.632">&#160;</text><g data-visibility-modifier="PUBLIC_FIELD"><ellipse cx="18" cy="267.5822" fill="none" rx="3" ry="3" style="stroke:#038048;stroke-width:1;"/></g><text fill="#000000" font-family="sans-serif" font-size="14" lengthAdjust="spacing" textLength="74.6963" x="27" y="270.9289">is_on: bool</text><line style="stroke:#181818;stroke-width:0.5;" x1="8" x2="194.374" y1="278.2306" y2="278.2306"/><g data-visibility-modifier="PUBLIC_METHOD"><ellipse cx="18" cy="291.8791" fill="#84BE84" rx="3" ry="3" style="stroke:#038048;stroke-width:1;"/></g><text fill="#000000" font-family="sans-serif" font-size="14" lengthAdjust="spacing" textLength="103.1475" x="27" y="295.2257">turn_on(): void</text><g data-visibility-modifier="PUBLIC_METHOD"><ellipse cx="18" cy="308.1759" fill="#84BE84" rx="3" ry="3" style="stroke:#038048;stroke-width:1;"/></g><text fill="#000000" font-family="sans-serif" font-size="14" lengthAdjust="spacing" textLength="104.1318" x="27" y="311.5226">turn_off(): void</text></g><!--class Fan--><g class="entity" data-qualified-name="Fan" data-source-line="46" id="ent0007"><rect fill="#F1F1F1" height="178.375" rx="2.5" ry="2.5" style="stroke:#181818;stroke-width:0.5;" width="208.0137" x="230.18" y="164.89"/><ellipse cx="317.1844" cy="180.89" fill="#ADD1B2" rx="11" ry="11" style="stroke:#181818;stroke-width:1;"/><path d="M320.1531,186.5306 Q319.575,186.8275 318.9344,186.9681 Q318.2938,187.1244 317.5906,187.1244 Q315.0906,187.1244 313.7625,185.4837 Q312.45,183.8275 312.45,180.7025 Q312.45,177.5775 313.7625,175.9212 Q315.0906,174.265 317.5906,174.265 Q318.2938,174.265 318.9344,174.4212 Q319.5906,174.5775 320.1531,174.8744 L320.1531,177.5931 Q319.5281,177.015 318.9344,176.7494 Q318.3406,176.4681 317.7156,176.4681 Q316.3719,176.4681 315.6844,177.5462 Q314.9969,178.6087 314.9969,180.7025 Q314.9969,182.7962 315.6844,183.8744 Q316.3719,184.9369 317.7156,184.9369 Q318.3406,184.9369 318.9344,184.6712 Q319.5281,184.39 320.1531,183.8119 L320.1531,186.5306 Z " fill="#000000"/><text fill="#000000" font-family="sans-serif" font-size="14" lengthAdjust="spacing" textLength="25.5049" x="337.6844" y="185.7367">Fan</text><line style="stroke:#181818;stroke-width:0.5;" x1="231.18" x2="437.1937" y1="196.89" y2="196.89"/><g data-visibility-modifier="PRIVATE_FIELD"><rect fill="none" height="6" style="stroke:#C82930;stroke-width:1;" width="6" x="238.18" y="207.5384"/></g><text fill="#000000" font-family="sans-serif" font-size="14" lengthAdjust="spacing" textLength="162.374" x="250.18" y="213.8851">_power: OnOffBehavior</text><g data-visibility-modifier="PRIVATE_FIELD"><rect fill="none" height="6" style="stroke:#C82930;stroke-width:1;" width="6" x="238.18" y="223.8353"/></g><text fill="#000000" font-family="sans-serif" font-size="14" lengthAdjust="spacing" textLength="160.1592" x="250.18" y="230.182">_speed: ValueBehavior</text><text fill="#000000" font-family="sans-serif" font-size="14" lengthAdjust="spacing" textLength="4.4502" x="250.18" y="246.4789">&#160;</text><g data-visibility-modifier="PUBLIC_FIELD"><ellipse cx="241.18" cy="259.4291" fill="none" rx="3" ry="3" style="stroke:#038048;stroke-width:1;"/></g><text fill="#000000" font-family="sans-serif" font-size="14" lengthAdjust="spacing" textLength="74.6963" x="250.18" y="262.7757">is_on: bool</text><g data-visibility-modifier="PUBLIC_FIELD"><ellipse cx="241.18" cy="275.7259" fill="none" rx="3" ry="3" style="stroke:#038048;stroke-width:1;"/></g><text fill="#000000" font-family="sans-serif" font-size="14" lengthAdjust="spacing" textLength="65.6592" x="250.18" y="279.0726">value: int</text><line style="stroke:#181818;stroke-width:0.5;" x1="231.18" x2="437.1937" y1="286.3744" y2="286.3744"/><g data-visibility-modifier="PUBLIC_METHOD"><ellipse cx="241.18" cy="300.0228" fill="#84BE84" rx="3" ry="3" style="stroke:#038048;stroke-width:1;"/></g><text fill="#000000" font-family="sans-serif" font-size="14" lengthAdjust="spacing" textLength="103.1475" x="250.18" y="303.3695">turn_on(): void</text><g data-visibility-modifier="PUBLIC_METHOD"><ellipse cx="241.18" cy="316.3197" fill="#84BE84" rx="3" ry="3" style="stroke:#038048;stroke-width:1;"/></g><text fill="#000000" font-family="sans-serif" font-size="14" lengthAdjust="spacing" textLength="104.1318" x="250.18" y="319.6664">turn_off(): void</text><g data-visibility-modifier="PUBLIC_METHOD"><ellipse cx="241.18" cy="332.6166" fill="#84BE84" rx="3" ry="3" style="stroke:#038048;stroke-width:1;"/></g><text fill="#000000" font-family="sans-serif" font-size="14" lengthAdjust="spacing" textLength="182.0137" x="250.18" y="335.9632">set_value(value: int): void</text></g><!--reverse link Switchable to Light--><g class="link" data-entity-1="ent0002" data-entity-2="ent0006" data-link-type="extension" data-source-line="60" id="lnk8"><path codeLine="60" d="M111.1654,122.2474 C109.2154,147.7074 108.18,161.42 106.08,188.99" fill="none" id="Switchable-backto-Light" style="stroke:#181818;stroke-width:1;stroke-dasharray:7,7;"/><polygon fill="none" points="112.54,104.3,105.1829,121.7892,117.1479,122.7056,112.54,104.3" style="stroke:#181818;stroke-width:1;"/></g><!--reverse link Switchable to Fan--><g class="link" data-entity-1="ent0002" data-entity-2="ent0007" data-link-type="extension" data-source-line="61" id="lnk9"><path codeLine="61" d="M182.6041,116.3582 C202.7641,134.5482 213.07,143.84 236.09,164.6" fill="none" id="Switchable-backto-Fan" style="stroke:#181818;stroke-width:1;stroke-dasharray:7,7;"/><polygon fill="none" points="169.24,104.3,178.5847,120.8129,186.6235,111.9035,169.24,104.3" style="stroke:#181818;stroke-width:1;"/></g><!--reverse link Adjustable to Fan--><g class="link" data-entity-1="ent0003" data-entity-2="ent0007" data-link-type="extension" data-source-line="62" id="lnk10"><path codeLine="62" d="M334.19,114.24 C334.19,133.99 334.19,140.7 334.19,164.62" fill="none" id="Adjustable-backto-Fan" style="stroke:#181818;stroke-width:1;stroke-dasharray:7,7;"/><polygon fill="none" points="334.19,96.24,328.19,114.24,340.19,114.24,334.19,96.24" style="stroke:#181818;stroke-width:1;"/></g><!--link Light to OnOffBehavior--><g class="link" data-entity-1="ent0006" data-entity-2="ent0004" data-link-type="dependency" data-source-line="64" id="lnk11"><path codeLine="64" d="M96.53,319.16 C95.74,341.69 95.83,367.15 98.19,390.27 C99.44,402.58 100.4052,409.6964 102.7852,422.1664" fill="none" id="Light-to-OnOffBehavior" style="stroke:#181818;stroke-width:1;"/><polygon fill="#181818" points="103.91,428.06,106.1518,418.4697,102.9726,423.1487,98.2937,419.9695,103.91,428.06" style="stroke:#181818;stroke-width:1;"/><text fill="#000000" font-family="sans-serif" font-size="13" lengthAdjust="spacing" textLength="79.2568" x="99.19" y="386.3369">composition</text></g><!--link Fan to OnOffBehavior--><g class="link" data-entity-1="ent0007" data-entity-2="ent0004" data-link-type="dependency" data-source-line="65" id="lnk12"><path codeLine="65" d="M253.82,343.7 C228.42,371.71 204.8813,397.666 181.3413,423.616" fill="none" id="Fan-to-OnOffBehavior" style="stroke:#181818;stroke-width:1;"/><polygon fill="#181818" points="177.31,428.06,186.3195,424.0815,180.6694,424.3567,180.3942,418.7065,177.31,428.06" style="stroke:#181818;stroke-width:1;"/><text fill="#000000" font-family="sans-serif" font-size="13" lengthAdjust="spacing" textLength="79.2568" x="228.19" y="386.3369">composition</text></g><!--link Fan to ValueBehavior--><g class="link" data-entity-1="ent0007" data-entity-2="ent0005" data-link-type="dependency" data-source-line="66" id="lnk13"><path codeLine="66" d="M337.55,343.7 C338.5,368.82 339.3029,389.8643 340.2129,413.8943" fill="none" id="Fan-to-ValueBehavior" style="stroke:#181818;stroke-width:1;"/><polygon fill="#181818" points="340.44,419.89,344.0966,410.7451,340.2508,414.8936,336.1023,411.0478,340.44,419.89" style="stroke:#181818;stroke-width:1;"/><text fill="#000000" font-family="sans-serif" font-size="13" lengthAdjust="spacing" textLength="79.2568" x="340.19" y="386.3369">composition</text></g><?plantuml-src jPFHQeCm58RlynIvqpBi0yWsi9sbGgUYugsa6cU6JKIZ7MnxzyKfRT9Irx8j5u7y7Cuv_vTpDFXmwG0DEcva1ojhQOTGTq9_9gJBuOHoNESenJ3S4vuMQ5jY-0wWE7UyhMd2g3upOST89ejvhgga4O4ct39MWayWPRMorxRXSjO6ywH3POlrxzk48bZ9TPJxLDgaruMzjcB72-3IU_OzrtOZONh9TXLh22UCJfjFIzGqqADUdYzmWJh2wh5B8n5DSpmw-YsEeKxS-pgh8xaTX1sXoXEz3Sz_eFTanuuOaoiORSXBmGyzLsoFQrC5zqUGLeXEbnb_fy8uCrMajtVm8qovnPlf1lR6YXpF3TUEFyrOMhtxZ_bye7sc2ZH0MgU31eRFCOp7ar4sONhS1D2JlJP67LKbvWi0?></g></svg>