<svg xmlns="http://www.w3.org/2000/svg" xmlns:xlink="http://www.w3.org/1999/xlink" contentStyleType="text/css" data-diagram-type="CLASS" height="515px" preserveAspectRatio="none" style="width:1248px;height:515px;background:#FFFFFF;" version="1.1" viewBox="0 0 1248 515" width="1248px" zoomAndPan="magnify"><?plantuml 1.2026.4beta2?><defs/><g><!--class Book--><g class="entity" data-qualified-name="Book" data-source-line="4" id="ent0002"><rect fill="#F1F1F1" height="145.7813" rx="2.5" ry="2.5" style="stroke:#181818;stroke-width:0.5;" width="128.2656" x="7" y="354.78"/><ellipse cx="49.6403" cy="370.78" fill="#ADD1B2" rx="11" ry="11" style="stroke:#181818;stroke-width:1;"/><path d="M52.609,376.4206 Q52.0309,376.7175 51.3903,376.8581 Q50.7497,377.0144 50.0465,377.0144 Q47.5465,377.0144 46.2184,375.3738 Q44.9059,373.7175 44.9059,370.5925 Q44.9059,367.4675 46.2184,365.8113 Q47.5465,364.155 50.0465,364.155 Q50.7497,364.155 51.3903,364.3113 Q52.0465,364.4675 52.609,364.7644 L52.609,367.4831 Q51.984,366.905 51.3903,366.6394 Q50.7965,366.3581 50.1715,366.3581 Q48.8278,366.3581 48.1403,367.4363 Q47.4528,368.4988 47.4528,370.5925 Q47.4528,372.6863 48.1403,373.7644 Q48.8278,374.8269 50.1715,374.8269 Q50.7965,374.8269 51.3903,374.5613 Q51.984,374.28 52.609,373.7019 L52.609,376.4206 Z " fill="#000000"/><text fill="#000000" font-family="sans-serif" font-size="14" lengthAdjust="spacing" textLength="34.8428" x="69.7826" y="375.6267">Book</text><line style="stroke:#181818;stroke-width:0.5;" x1="8" x2="134.2656" y1="386.78" y2="386.78"/><g data-visibility-modifier="PRIVATE_FIELD"><rect fill="none" height="6" style="stroke:#C82930;stroke-width:1;" width="6" x="15" y="397.4284"/></g><text fill="#000000" font-family="sans-serif" font-size="14" lengthAdjust="spacing" textLength="62.0771" x="27" y="403.7751">_title: str</text><g data-visibility-modifier="PRIVATE_FIELD"><rect fill="none" height="6" style="stroke:#C82930;stroke-width:1;" width="6" x="15" y="413.7253"/></g><text fill="#000000" font-family="sans-serif" font-size="14" lengthAdjust="spacing" textLength="80.8418" x="27" y="420.072">_author: str</text><g data-visibility-modifier="PUBLIC_FIELD"><ellipse cx="18" cy="433.0222" fill="none" rx="3" ry="3" style="stroke:#038048;stroke-width:1;"/></g><text fill="#000000" font-family="sans-serif" font-size="14" lengthAdjust="spacing" textLength="102.2656" x="27" y="436.3689">available: bool</text><text fill="#000000" font-family="sans-serif" font-size="14" lengthAdjust="spacing" textLength="4.4502" x="27" y="452.6657">&#160;</text><g data-visibility-modifier="PUBLIC_FIELD"><ellipse cx="18" cy="465.6159" fill="none" rx="3" ry="3" style="stroke:#038048;stroke-width:1;"/></g><text fill="#000000" font-family="sans-serif" font-size="14" lengthAdjust="spacing" textLength="55.0771" x="27" y="468.9626">title: str</text><g data-visibility-modifier="PUBLIC_FIELD"><ellipse cx="18" cy="481.9128" fill="none" rx="3" ry="3" style="stroke:#038048;stroke-width:1;"/></g><text fill="#000000" font-family="sans-serif" font-size="14" lengthAdjust="spacing" textLength="73.8418" x="27" y="485.2595">author: str</text><line style="stroke:#181818;stroke-width:0.5;" x1="8" x2="134.2656" y1="492.5613" y2="492.5613"/></g><!--class SearchStrategy--><g class="entity" data-qualified-name="SearchStrategy" data-source-line="16" id="ent0003"><rect fill="#F1F1F1" height="64.2969" rx="2.5" ry="2.5" style="stroke:#181818;stroke-width:0.5;" width="386.0625" x="170.1" y="205.33"/><ellipse cx="304.6859" cy="221.33" fill="#A9DCDF" rx="11" ry="11" style="stroke:#181818;stroke-width:1;"/><path d="M304.7953,216.6737 L303.6391,221.7519 L305.9672,221.7519 L304.7953,216.6737 Z M303.3109,214.4394 L306.2953,214.4394 L309.6547,226.83 L307.2016,226.83 L306.4359,223.7675 L303.1547,223.7675 L302.4047,226.83 L299.9672,226.83 L303.3109,214.4394 Z " fill="#000000"/><text fill="#000000" font-family="sans-serif" font-size="14" font-style="italic" lengthAdjust="spacing" textLength="108.3906" x="325.1859" y="226.1767">SearchStrategy</text><line style="stroke:#181818;stroke-width:0.5;" x1="171.1" x2="555.1625" y1="237.33" y2="237.33"/><line style="stroke:#181818;stroke-width:0.5;" x1="171.1" x2="555.1625" y1="245.33" y2="245.33"/><g data-visibility-modifier="PUBLIC_METHOD"><ellipse cx="181.1" cy="258.9784" fill="#84BE84" rx="3" ry="3" style="stroke:#038048;stroke-width:1;"/></g><text fill="#000000" font-family="sans-serif" font-size="14" lengthAdjust="spacing" textLength="360.0625" x="190.1" y="262.3251">search(books: List&lt;Book&gt;, query: str): List&lt;Book&gt;</text></g><!--class TitleSearchStrategy--><g class="entity" data-qualified-name="TitleSearchStrategy" data-source-line="20" id="ent0004"><rect fill="#F1F1F1" height="64.2969" rx="2.5" ry="2.5" style="stroke:#181818;stroke-width:0.5;" width="386.0625" x="170.1" y="395.52"/><ellipse cx="289.4691" cy="411.52" fill="#ADD1B2" rx="11" ry="11" style="stroke:#181818;stroke-width:1;"/><path d="M292.4379,417.1606 Q291.8598,417.4575 291.2191,417.5981 Q290.5785,417.7544 289.8754,417.7544 Q287.3754,417.7544 286.0473,416.1138 Q284.7348,414.4575 284.7348,411.3325 Q284.7348,408.2075 286.0473,406.5513 Q287.3754,404.895 289.8754,404.895 Q290.5785,404.895 291.2191,405.0513 Q291.8754,405.2075 292.4379,405.5044 L292.4379,408.2231 Q291.8129,407.645 291.2191,407.3794 Q290.6254,407.0981 290.0004,407.0981 Q288.6566,407.0981 287.9691,408.1763 Q287.2816,409.2388 287.2816,411.3325 Q287.2816,413.4263 287.9691,414.5044 Q288.6566,415.5669 290.0004,415.5669 Q290.6254,415.5669 291.2191,415.3013 Q291.8129,415.02 292.4379,414.4419 L292.4379,417.1606 Z " fill="#000000"/><text fill="#000000" font-family="sans-serif" font-size="14" lengthAdjust="spacing" textLength="138.8242" x="309.9691" y="416.3667">TitleSearchStrategy</text><line style="stroke:#181818;stroke-width:0.5;" x1="171.1" x2="555.1625" y1="427.52" y2="427.52"/><line style="stroke:#181818;stroke-width:0.5;" x1="171.1" x2="555.1625" y1="435.52" y2="435.52"/><g data-visibility-modifier="PUBLIC_METHOD"><ellipse cx="181.1" cy="449.1684" fill="#84BE84" rx="3" ry="3" style="stroke:#038048;stroke-width:1;"/></g><text fill="#000000" font-family="sans-serif" font-size="14" lengthAdjust="spacing" textLength="360.0625" x="190.1" y="452.5151">search(books: List&lt;Book&gt;, query: str): List&lt;Book&gt;</text></g><!--class AuthorSearchStrategy--><g class="entity" data-qualified-name="AuthorSearchStrategy" data-source-line="24" id="ent0005"><rect fill="#F1F1F1" height="64.2969" rx="2.5" ry="2.5" style="stroke:#181818;stroke-width:0.5;" width="386.0625" x="591.1" y="395.52"/><ellipse cx="702.119" cy="411.52" fill="#ADD1B2" rx="11" ry="11" style="stroke:#181818;stroke-width:1;"/><path d="M705.0878,417.1606 Q704.5097,417.4575 703.869,417.5981 Q703.2284,417.7544 702.5253,417.7544 Q700.0253,417.7544 698.6972,416.1138 Q697.3847,414.4575 697.3847,411.3325 Q697.3847,408.2075 698.6972,406.5513 Q700.0253,404.895 702.5253,404.895 Q703.2284,404.895 703.869,405.0513 Q704.5253,405.2075 705.0878,405.5044 L705.0878,408.2231 Q704.4628,407.645 703.869,407.3794 Q703.2753,407.0981 702.6503,407.0981 Q701.3065,407.0981 700.619,408.1763 Q699.9315,409.2388 699.9315,411.3325 Q699.9315,413.4263 700.619,414.5044 Q701.3065,415.5669 702.6503,415.5669 Q703.2753,415.5669 703.869,415.3013 Q704.4628,415.02 705.0878,414.4419 L705.0878,417.1606 Z " fill="#000000"/><text fill="#000000" font-family="sans-serif" font-size="14" lengthAdjust="spacing" textLength="155.5244" x="722.619" y="416.3667">AuthorSearchStrategy</text><line style="stroke:#181818;stroke-width:0.5;" x1="592.1" x2="976.1625" y1="427.52" y2="427.52"/><line style="stroke:#181818;stroke-width:0.5;" x1="592.1" x2="976.1625" y1="435.52" y2="435.52"/><g data-visibility-modifier="PUBLIC_METHOD"><ellipse cx="602.1" cy="449.1684" fill="#84BE84" rx="3" ry="3" style="stroke:#038048;stroke-width:1;"/></g><text fill="#000000" font-family="sans-serif" font-size="14" lengthAdjust="spacing" textLength="360.0625" x="611.1" y="452.5151">search(books: List&lt;Book&gt;, query: str): List&lt;Book&gt;</text></g><!--class BookRepositoryInterface--><g class="entity" data-qualified-name="BookRepositoryInterface" data-source-line="34" id="ent0008"><rect fill="#F1F1F1" height="80.5938" rx="2.5" ry="2.5" style="stroke:#181818;stroke-width:0.5;" width="221.3301" x="840.47" y="197.18"/><ellipse cx="863.0013" cy="213.18" fill="#B4A7E5" rx="11" ry="11" style="stroke:#181818;stroke-width:1;"/><path d="M858.9232,208.9456 L858.9232,206.7894 L866.3138,206.7894 L866.3138,208.9456 L863.8451,208.9456 L863.8451,217.0238 L866.3138,217.0238 L866.3138,219.18 L858.9232,219.18 L858.9232,217.0238 L861.392,217.0238 L861.392,208.9456 L858.9232,208.9456 Z " fill="#000000"/><text fill="#000000" font-family="sans-serif" font-size="14" font-style="italic" lengthAdjust="spacing" textLength="172.5938" x="878.675" y="218.0267">BookRepositoryInterface</text><line style="stroke:#181818;stroke-width:0.5;" x1="841.47" x2="1060.8001" y1="229.18" y2="229.18"/><line style="stroke:#181818;stroke-width:0.5;" x1="841.47" x2="1060.8001" y1="237.18" y2="237.18"/><g data-visibility-modifier="PUBLIC_METHOD"><ellipse cx="851.47" cy="250.8284" fill="#84BE84" rx="3" ry="3" style="stroke:#038048;stroke-width:1;"/></g><text fill="#000000" font-family="sans-serif" font-size="14" lengthAdjust="spacing" textLength="195.3301" x="860.47" y="254.1751">add_book(book: Book): void</text><g data-visibility-modifier="PUBLIC_METHOD"><ellipse cx="851.47" cy="267.1253" fill="#84BE84" rx="3" ry="3" style="stroke:#038048;stroke-width:1;"/></g><text fill="#000000" font-family="sans-serif" font-size="14" lengthAdjust="spacing" textLength="171.8486" x="860.47" y="270.472">list_books(): List&lt;Book&gt;</text></g><!--class BookRepository--><g class="entity" data-qualified-name="BookRepository" data-source-line="39" id="ent0009"><rect fill="#F1F1F1" height="96.8906" rx="2.5" ry="2.5" style="stroke:#181818;stroke-width:0.5;" width="221.3301" x="1012.47" y="379.22"/><ellipse cx="1063.9275" cy="395.22" fill="#ADD1B2" rx="11" ry="11" style="stroke:#181818;stroke-width:1;"/><path d="M1066.8963,400.8606 Q1066.3181,401.1575 1065.6775,401.2981 Q1065.0369,401.4544 1064.3338,401.4544 Q1061.8338,401.4544 1060.5056,399.8137 Q1059.1931,398.1575 1059.1931,395.0325 Q1059.1931,391.9075 1060.5056,390.2512 Q1061.8338,388.595 1064.3338,388.595 Q1065.0369,388.595 1065.6775,388.7512 Q1066.3338,388.9075 1066.8963,389.2044 L1066.8963,391.9231 Q1066.2713,391.345 1065.6775,391.0794 Q1065.0838,390.7981 1064.4588,390.7981 Q1063.115,390.7981 1062.4275,391.8762 Q1061.74,392.9387 1061.74,395.0325 Q1061.74,397.1262 1062.4275,398.2044 Q1063.115,399.2669 1064.4588,399.2669 Q1065.0838,399.2669 1065.6775,399.0012 Q1066.2713,398.72 1066.8963,398.1419 L1066.8963,400.8606 Z " fill="#000000"/><text fill="#000000" font-family="sans-serif" font-size="14" lengthAdjust="spacing" textLength="109.915" x="1084.4275" y="400.0667">BookRepository</text><line style="stroke:#181818;stroke-width:0.5;" x1="1013.47" x2="1232.8001" y1="411.22" y2="411.22"/><g data-visibility-modifier="PRIVATE_FIELD"><rect fill="none" height="6" style="stroke:#C82930;stroke-width:1;" width="6" x="1020.47" y="421.8684"/></g><text fill="#000000" font-family="sans-serif" font-size="14" lengthAdjust="spacing" textLength="140.3623" x="1032.47" y="428.2151">_books: List&lt;Book&gt;</text><line style="stroke:#181818;stroke-width:0.5;" x1="1013.47" x2="1232.8001" y1="435.5169" y2="435.5169"/><g data-visibility-modifier="PUBLIC_METHOD"><ellipse cx="1023.47" cy="449.1653" fill="#84BE84" rx="3" ry="3" style="stroke:#038048;stroke-width:1;"/></g><text fill="#000000" font-family="sans-serif" font-size="14" lengthAdjust="spacing" textLength="195.3301" x="1032.47" y="452.512">add_book(book: Book): void</text><g data-visibility-modifier="PUBLIC_METHOD"><ellipse cx="1023.47" cy="465.4622" fill="#84BE84" rx="3" ry="3" style="stroke:#038048;stroke-width:1;"/></g><text fill="#000000" font-family="sans-serif" font-size="14" lengthAdjust="spacing" textLength="171.8486" x="1032.47" y="468.8089">list_books(): List&lt;Book&gt;</text></g><!--class Library--><g class="entity" data-qualified-name="Library" data-source-line="51" id="ent0011"><rect fill="#F1F1F1" height="113.1875" rx="2.5" ry="2.5" style="stroke:#181818;stroke-width:0.5;" width="477.0693" x="124.6" y="7"/><ellipse cx="334.4086" cy="23" fill="#ADD1B2" rx="11" ry="11" style="stroke:#181818;stroke-width:1;"/><path d="M337.3773,28.6406 Q336.7992,28.9375 336.1586,29.0781 Q335.518,29.2344 334.8148,29.2344 Q332.3148,29.2344 330.9867,27.5938 Q329.6742,25.9375 329.6742,22.8125 Q329.6742,19.6875 330.9867,18.0313 Q332.3148,16.375 334.8148,16.375 Q335.518,16.375 336.1586,16.5313 Q336.8148,16.6875 337.3773,16.9844 L337.3773,19.7031 Q336.7523,19.125 336.1586,18.8594 Q335.5648,18.5781 334.9398,18.5781 Q333.5961,18.5781 332.9086,19.6563 Q332.2211,20.7188 332.2211,22.8125 Q332.2211,24.9063 332.9086,25.9844 Q333.5961,27.0469 334.9398,27.0469 Q335.5648,27.0469 336.1586,26.7813 Q336.7523,26.5 337.3773,25.9219 L337.3773,28.6406 Z " fill="#000000"/><text fill="#000000" font-family="sans-serif" font-size="14" lengthAdjust="spacing" textLength="48.9521" x="354.9086" y="27.8467">Library</text><line style="stroke:#181818;stroke-width:0.5;" x1="125.6" x2="600.6693" y1="39" y2="39"/><g data-visibility-modifier="PRIVATE_FIELD"><rect fill="none" height="6" style="stroke:#C82930;stroke-width:1;" width="6" x="132.6" y="49.6484"/></g><text fill="#000000" font-family="sans-serif" font-size="14" lengthAdjust="spacing" textLength="252.8613" x="144.6" y="55.9951">repository: BookRepositoryInterface</text><line style="stroke:#181818;stroke-width:0.5;" x1="125.6" x2="600.6693" y1="63.2969" y2="63.2969"/><g data-visibility-modifier="PUBLIC_METHOD"><ellipse cx="135.6" cy="76.9453" fill="#84BE84" rx="3" ry="3" style="stroke:#038048;stroke-width:1;"/></g><text fill="#000000" font-family="sans-serif" font-size="14" lengthAdjust="spacing" textLength="195.3301" x="144.6" y="80.292">add_book(book: Book): void</text><g data-visibility-modifier="PUBLIC_METHOD"><ellipse cx="135.6" cy="93.2422" fill="#84BE84" rx="3" ry="3" style="stroke:#038048;stroke-width:1;"/></g><text fill="#000000" font-family="sans-serif" font-size="14" lengthAdjust="spacing" textLength="244.4668" x="144.6" y="96.5889">get_available_books(): List&lt;Book&gt;</text><g data-visibility-modifier="PUBLIC_METHOD"><ellipse cx="135.6" cy="109.5391" fill="#84BE84" rx="3" ry="3" style="stroke:#038048;stroke-width:1;"/></g><text fill="#000000" font-family="sans-serif" font-size="14" lengthAdjust="spacing" textLength="451.0693" x="144.6" y="112.8857">search_books(query: str, strategy: SearchStrategy): List&lt;Book&gt;</text></g><!--reverse link SearchStrategy to TitleSearchStrategy--><g class="link" data-entity-1="ent0003" data-entity-2="ent0004" data-link-type="extension" data-source-line="28" id="lnk6"><path codeLine="28" d="M363.13,287.98 C363.13,322.72 363.13,360.29 363.13,395.07" fill="none" id="SearchStrategy-backto-TitleSearchStrategy" style="stroke:#181818;stroke-width:1;"/><polygon fill="none" points="363.13,269.98,357.13,287.98,369.13,287.98,363.13,269.98" style="stroke:#181818;stroke-width:1;"/></g><!--reverse link SearchStrategy to AuthorSearchStrategy--><g class="link" data-entity-1="ent0003" data-entity-2="ent0005" data-link-type="extension" data-source-line="29" id="lnk7"><path codeLine="29" d="M450.0327,277.3262 C527.7427,312.0662 635.63,360.29 713.44,395.07" fill="none" id="SearchStrategy-backto-AuthorSearchStrategy" style="stroke:#181818;stroke-width:1;"/><polygon fill="none" points="433.6,269.98,447.584,282.8038,452.4814,271.8486,433.6,269.98" style="stroke:#181818;stroke-width:1;"/></g><!--reverse link BookRepositoryInterface to BookRepository--><g class="link" data-entity-1="ent0008" data-entity-2="ent0009" data-link-type="extension" data-source-line="46" id="lnk10"><path codeLine="46" d="M999.3316,291.2184 C1026.2216,320.6484 1050.95,347.69 1079.5,378.93" fill="none" id="BookRepositoryInterface-backto-BookRepository" style="stroke:#181818;stroke-width:1;stroke-dasharray:7,7;"/><polygon fill="none" points="987.19,277.93,994.9021,295.2656,1003.761,287.1713,987.19,277.93" style="stroke:#181818;stroke-width:1;"/></g><!--link Library to BookRepositoryInterface--><g class="link" data-entity-1="ent0011" data-entity-2="ent0008" data-link-type="dependency" data-source-line="62" id="lnk12"><path codeLine="62" d="M554.85,120.64 C649.36,148.26 754.2211,178.9163 834.5311,202.3963" fill="none" id="Library-to-BookRepositoryInterface" style="stroke:#181818;stroke-width:1;"/><polygon fill="#181818" points="840.29,204.08,832.7741,197.7151,835.4909,202.6769,830.5292,205.3937,840.29,204.08" style="stroke:#181818;stroke-width:1;"/><text fill="#000000" font-family="sans-serif" font-size="13" lengthAdjust="spacing" textLength="29.7832" x="711.13" y="163.2469">uses</text></g><!--link Library to SearchStrategy--><g class="link" data-entity-1="ent0011" data-entity-2="ent0003" data-link-type="dependency" data-source-line="63" id="lnk13"><path codeLine="63" d="M363.13,120.4 C363.13,148.44 363.13,175.37 363.13,198.98" fill="none" id="Library-to-SearchStrategy" style="stroke:#181818;stroke-width:1;"/><polygon fill="#181818" points="363.13,204.98,367.13,195.98,363.13,199.98,359.13,195.98,363.13,204.98" style="stroke:#181818;stroke-width:1;"/><text fill="#000000" font-family="sans-serif" font-size="13" lengthAdjust="spacing" textLength="29.7832" x="364.13" y="163.2469">uses</text></g><!--link Library to Book--><g class="link" data-entity-1="ent0011" data-entity-2="ent0002" data-link-type="dependency" data-source-line="64" id="lnk14"><path codeLine="64" d="M181.66,120.64 C146.47,139.56 113.6,164.5 91.13,197.18 C59.88,242.67 56.0748,299.8158 59.6048,348.3558" fill="none" id="Library-to-Book" style="stroke:#181818;stroke-width:1;"/><polygon fill="#181818" points="60.04,354.34,63.3767,345.0736,59.6773,349.3532,55.3977,345.6538,60.04,354.34" style="stroke:#181818;stroke-width:1;"/><text fill="#000000" font-family="sans-serif" font-size="13" lengthAdjust="spacing" textLength="59.8584" x="92.13" y="242.0469">manages</text></g><!--link SearchStrategy to Book--><g class="link" data-entity-1="ent0003" data-entity-2="ent0002" data-link-type="dependency" data-source-line="66" id="lnk15"><path codeLine="66" d="M255.6,270.05 C230.05,280.04 203.69,292.55 181.13,307.78 C162.02,320.68 147.9706,333.14 132.1206,350.07" fill="none" id="SearchStrategy-to-Book" style="stroke:#181818;stroke-width:1;stroke-dasharray:7,7;"/><polygon fill="#181818" points="128.02,354.45,137.091,350.6137,131.4372,350.8,131.2509,345.1462,128.02,354.45" style="stroke:#181818;stroke-width:1;"/><text fill="#000000" font-family="sans-serif" font-size="13" lengthAdjust="spacing" textLength="172.3579" x="182.13" y="320.8469">uses (search input/output)</text></g><?plantuml-src hLJ1Re904Btp5NCJez0xiIPjRT8c7fhQknbWYXjNrkuk9gJstxiiY1O1JUeU8Co-cNtlxGm3kEzQpW1cOeCiXUTKCvsRxsvin54fU1HY3TyEcEKjJGwd09IMLG0plHBo61dX3Xd7i425Gd2dZ3RoHgTfFqulYm4ij4HDIGvlg3N9j1UEeQc9aOQI_O9GHgkwGgbZf6pKDGJNAe0vKtfIo9oEuIiZcLjUmzEDWcHPyADGSlEg3zQF6vPjb9hiFQ-DUYkkZSobEtgdhL1C2vd377EIlN2Mcclyn8XiSnrJN-ju9HtZU5dejk83YpPATuB5vJutcYr0kHt6_ZsWxkCpCvt_7zYbPRBt_GQFIsxEMIZHq7LVMBBoEEs8mqR46QVX5HDxoAx4olhOeCllAzKdf9VrVBVQSDAmrVwnHyV5mpPJq1ZBColxtNaIKfAPy1bjAOqfZHYftfI38PutxUou039bofn26xFHWh3_nW0sc69YjfhJvFirf4W5jtG6MBhDz9t8j7aDVm40?></g></svg>