<svg xmlns="http://www.w3.org/2000/svg" xmlns:xlink="http://www.w3.org/1999/xlink" contentStyleType="text/css" data-diagram-type="CLASS" height="543px" preserveAspectRatio="none" style="width:1051px;height:543px;background:#FFFFFF;" version="1.1" viewBox="0 0 1051 543" width="1051px" zoomAndPan="magnify"><?plantuml 1.2026.4beta2?><defs/><g><!--class Event--><g class="entity" data-qualified-name="Event" data-source-line="1" id="ent0002"><rect fill="#F1F1F1" height="64.2969" rx="2.5" ry="2.5" style="stroke:#181818;stroke-width:0.5;" width="104.333" x="188.67" y="306.18"/><ellipse cx="218.172" cy="322.18" fill="#A9DCDF" rx="11" ry="11" style="stroke:#181818;stroke-width:1;"/><path d="M218.2813,317.5238 L217.1251,322.6019 L219.4532,322.6019 L218.2813,317.5238 Z M216.797,315.2894 L219.7813,315.2894 L223.1407,327.68 L220.6876,327.68 L219.922,324.6175 L216.6407,324.6175 L215.8907,327.68 L213.4532,327.68 L216.797,315.2894 Z " fill="#000000"/><text fill="#000000" font-family="sans-serif" font-size="14" font-style="italic" lengthAdjust="spacing" textLength="40.1064" x="235.3946" y="327.0267">Event</text><line style="stroke:#181818;stroke-width:0.5;" x1="189.67" x2="292.003" y1="338.18" y2="338.18"/><line style="stroke:#181818;stroke-width:0.5;" x1="189.67" x2="292.003" y1="346.18" y2="346.18"/><g data-visibility-modifier="PUBLIC_METHOD"><ellipse cx="199.67" cy="359.8284" fill="#84BE84" rx="3" ry="3" style="stroke:#038048;stroke-width:1;"/></g><text fill="#000000" font-family="sans-serif" font-size="14" lengthAdjust="spacing" textLength="78.333" x="208.67" y="363.1751">name(): str</text></g><!--class UserRegistered--><g class="entity" data-qualified-name="UserRegistered" data-source-line="5" id="ent0003"><rect fill="#F1F1F1" height="80.5938" rx="2.5" ry="2.5" style="stroke:#181818;stroke-width:0.5;" width="139.6797" x="7" y="439.63"/><ellipse cx="22" cy="455.63" fill="#ADD1B2" rx="11" ry="11" style="stroke:#181818;stroke-width:1;"/><path d="M24.9688,461.2706 Q24.3906,461.5675 23.75,461.7081 Q23.1094,461.8644 22.4063,461.8644 Q19.9063,461.8644 18.5781,460.2238 Q17.2656,458.5675 17.2656,455.4425 Q17.2656,452.3175 18.5781,450.6613 Q19.9063,449.005 22.4063,449.005 Q23.1094,449.005 23.75,449.1613 Q24.4063,449.3175 24.9688,449.6144 L24.9688,452.3331 Q24.3438,451.755 23.75,451.4894 Q23.1563,451.2081 22.5313,451.2081 Q21.1875,451.2081 20.5,452.2863 Q19.8125,453.3488 19.8125,455.4425 Q19.8125,457.5363 20.5,458.6144 Q21.1875,459.6769 22.5313,459.6769 Q23.1563,459.6769 23.75,459.4113 Q24.3438,459.13 24.9688,458.5519 L24.9688,461.2706 Z " fill="#000000"/><text fill="#000000" font-family="sans-serif" font-size="14" lengthAdjust="spacing" textLength="107.6797" x="36" y="460.4767">UserRegistered</text><line style="stroke:#181818;stroke-width:0.5;" x1="8" x2="145.6797" y1="471.63" y2="471.63"/><g data-visibility-modifier="PUBLIC_FIELD"><ellipse cx="18" cy="485.2784" fill="none" rx="3" ry="3" style="stroke:#038048;stroke-width:1;"/></g><text fill="#000000" font-family="sans-serif" font-size="14" lengthAdjust="spacing" textLength="97.9453" x="27" y="488.6251">username: str</text><line style="stroke:#181818;stroke-width:0.5;" x1="8" x2="145.6797" y1="495.9269" y2="495.9269"/><g data-visibility-modifier="PUBLIC_METHOD"><ellipse cx="18" cy="509.5753" fill="#84BE84" rx="3" ry="3" style="stroke:#038048;stroke-width:1;"/></g><text fill="#000000" font-family="sans-serif" font-size="14" lengthAdjust="spacing" textLength="78.333" x="27" y="512.922">name(): str</text></g><!--class OrderPlaced--><g class="entity" data-qualified-name="OrderPlaced" data-source-line="10" id="ent0004"><rect fill="#F1F1F1" height="80.5938" rx="2.5" ry="2.5" style="stroke:#181818;stroke-width:0.5;" width="118.1396" x="181.77" y="439.63"/><ellipse cx="196.77" cy="455.63" fill="#ADD1B2" rx="11" ry="11" style="stroke:#181818;stroke-width:1;"/><path d="M199.7388,461.2706 Q199.1606,461.5675 198.52,461.7081 Q197.8794,461.8644 197.1763,461.8644 Q194.6763,461.8644 193.3481,460.2238 Q192.0356,458.5675 192.0356,455.4425 Q192.0356,452.3175 193.3481,450.6613 Q194.6763,449.005 197.1763,449.005 Q197.8794,449.005 198.52,449.1613 Q199.1763,449.3175 199.7388,449.6144 L199.7388,452.3331 Q199.1138,451.755 198.52,451.4894 Q197.9263,451.2081 197.3013,451.2081 Q195.9575,451.2081 195.27,452.2863 Q194.5825,453.3488 194.5825,455.4425 Q194.5825,457.5363 195.27,458.6144 Q195.9575,459.6769 197.3013,459.6769 Q197.9263,459.6769 198.52,459.4113 Q199.1138,459.13 199.7388,458.5519 L199.7388,461.2706 Z " fill="#000000"/><text fill="#000000" font-family="sans-serif" font-size="14" lengthAdjust="spacing" textLength="86.1396" x="210.77" y="460.4767">OrderPlaced</text><line style="stroke:#181818;stroke-width:0.5;" x1="182.77" x2="298.9096" y1="471.63" y2="471.63"/><g data-visibility-modifier="PUBLIC_FIELD"><ellipse cx="192.77" cy="485.2784" fill="none" rx="3" ry="3" style="stroke:#038048;stroke-width:1;"/></g><text fill="#000000" font-family="sans-serif" font-size="14" lengthAdjust="spacing" textLength="84.7725" x="201.77" y="488.6251">order_id: int</text><line style="stroke:#181818;stroke-width:0.5;" x1="182.77" x2="298.9096" y1="495.9269" y2="495.9269"/><g data-visibility-modifier="PUBLIC_METHOD"><ellipse cx="192.77" cy="509.5753" fill="#84BE84" rx="3" ry="3" style="stroke:#038048;stroke-width:1;"/></g><text fill="#000000" font-family="sans-serif" font-size="14" lengthAdjust="spacing" textLength="78.333" x="201.77" y="512.922">name(): str</text></g><!--class PaymentFailed--><g class="entity" data-qualified-name="PaymentFailed" data-source-line="15" id="ent0005"><rect fill="#F1F1F1" height="96.8906" rx="2.5" ry="2.5" style="stroke:#181818;stroke-width:0.5;" width="135.8311" x="334.92" y="431.48"/><ellipse cx="349.92" cy="447.48" fill="#ADD1B2" rx="11" ry="11" style="stroke:#181818;stroke-width:1;"/><path d="M352.8888,453.1206 Q352.3106,453.4175 351.67,453.5581 Q351.0294,453.7144 350.3263,453.7144 Q347.8263,453.7144 346.4981,452.0738 Q345.1856,450.4175 345.1856,447.2925 Q345.1856,444.1675 346.4981,442.5113 Q347.8263,440.855 350.3263,440.855 Q351.0294,440.855 351.67,441.0113 Q352.3263,441.1675 352.8888,441.4644 L352.8888,444.1831 Q352.2638,443.605 351.67,443.3394 Q351.0763,443.0581 350.4513,443.0581 Q349.1075,443.0581 348.42,444.1363 Q347.7325,445.1988 347.7325,447.2925 Q347.7325,449.3863 348.42,450.4644 Q349.1075,451.5269 350.4513,451.5269 Q351.0763,451.5269 351.67,451.2613 Q352.2638,450.98 352.8888,450.4019 L352.8888,453.1206 Z " fill="#000000"/><text fill="#000000" font-family="sans-serif" font-size="14" lengthAdjust="spacing" textLength="103.8311" x="363.92" y="452.3267">PaymentFailed</text><line style="stroke:#181818;stroke-width:0.5;" x1="335.92" x2="469.7511" y1="463.48" y2="463.48"/><g data-visibility-modifier="PUBLIC_FIELD"><ellipse cx="345.92" cy="477.1284" fill="none" rx="3" ry="3" style="stroke:#038048;stroke-width:1;"/></g><text fill="#000000" font-family="sans-serif" font-size="14" lengthAdjust="spacing" textLength="84.7725" x="354.92" y="480.4751">order_id: int</text><g data-visibility-modifier="PUBLIC_FIELD"><ellipse cx="345.92" cy="493.4253" fill="none" rx="3" ry="3" style="stroke:#038048;stroke-width:1;"/></g><text fill="#000000" font-family="sans-serif" font-size="14" lengthAdjust="spacing" textLength="75.3867" x="354.92" y="496.772">reason: str</text><line style="stroke:#181818;stroke-width:0.5;" x1="335.92" x2="469.7511" y1="504.0738" y2="504.0738"/><g data-visibility-modifier="PUBLIC_METHOD"><ellipse cx="345.92" cy="517.7222" fill="#84BE84" rx="3" ry="3" style="stroke:#038048;stroke-width:1;"/></g><text fill="#000000" font-family="sans-serif" font-size="14" lengthAdjust="spacing" textLength="78.333" x="354.92" y="521.0689">name(): str</text></g><!--class EventListener--><g class="entity" data-qualified-name="EventListener" data-source-line="26" id="ent0009"><rect fill="#F1F1F1" height="64.2969" rx="2.5" ry="2.5" style="stroke:#181818;stroke-width:0.5;" width="212.5801" x="338.55" y="164.89"/><ellipse cx="392.3728" cy="180.89" fill="#A9DCDF" rx="11" ry="11" style="stroke:#181818;stroke-width:1;"/><path d="M392.4821,176.2338 L391.3259,181.3119 L393.654,181.3119 L392.4821,176.2338 Z M390.9978,173.9994 L393.9821,173.9994 L397.3415,186.39 L394.8884,186.39 L394.1228,183.3275 L390.8415,183.3275 L390.0915,186.39 L387.654,186.39 L390.9978,173.9994 Z " fill="#000000"/><text fill="#000000" font-family="sans-serif" font-size="14" font-style="italic" lengthAdjust="spacing" textLength="96.4346" x="412.8728" y="185.7367">EventListener</text><line style="stroke:#181818;stroke-width:0.5;" x1="339.55" x2="550.1301" y1="196.89" y2="196.89"/><line style="stroke:#181818;stroke-width:0.5;" x1="339.55" x2="550.1301" y1="204.89" y2="204.89"/><g data-visibility-modifier="PUBLIC_METHOD"><ellipse cx="349.55" cy="218.5384" fill="#84BE84" rx="3" ry="3" style="stroke:#038048;stroke-width:1;"/></g><text fill="#000000" font-family="sans-serif" font-size="14" lengthAdjust="spacing" textLength="186.5801" x="358.55" y="221.8851">handle(event: Event): void</text></g><!--class EmailNotifier--><g class="entity" data-qualified-name="EmailNotifier" data-source-line="30" id="ent0010"><rect fill="#F1F1F1" height="64.2969" rx="2.5" ry="2.5" style="stroke:#181818;stroke-width:0.5;" width="212.5801" x="327.55" y="306.18"/><ellipse cx="384.3669" cy="322.18" fill="#ADD1B2" rx="11" ry="11" style="stroke:#181818;stroke-width:1;"/><path d="M387.3356,327.8206 Q386.7575,328.1175 386.1169,328.2581 Q385.4763,328.4144 384.7731,328.4144 Q382.2731,328.4144 380.945,326.7738 Q379.6325,325.1175 379.6325,321.9925 Q379.6325,318.8675 380.945,317.2113 Q382.2731,315.555 384.7731,315.555 Q385.4763,315.555 386.1169,315.7113 Q386.7731,315.8675 387.3356,316.1644 L387.3356,318.8831 Q386.7106,318.305 386.1169,318.0394 Q385.5231,317.7581 384.8981,317.7581 Q383.5544,317.7581 382.8669,318.8363 Q382.1794,319.8988 382.1794,321.9925 Q382.1794,324.0863 382.8669,325.1644 Q383.5544,326.2269 384.8981,326.2269 Q385.5231,326.2269 386.1169,325.9613 Q386.7106,325.68 387.3356,325.1019 L387.3356,327.8206 Z " fill="#000000"/><text fill="#000000" font-family="sans-serif" font-size="14" lengthAdjust="spacing" textLength="90.4463" x="404.8669" y="327.0267">EmailNotifier</text><line style="stroke:#181818;stroke-width:0.5;" x1="328.55" x2="539.1301" y1="338.18" y2="338.18"/><line style="stroke:#181818;stroke-width:0.5;" x1="328.55" x2="539.1301" y1="346.18" y2="346.18"/><g data-visibility-modifier="PUBLIC_METHOD"><ellipse cx="338.55" cy="359.8284" fill="#84BE84" rx="3" ry="3" style="stroke:#038048;stroke-width:1;"/></g><text fill="#000000" font-family="sans-serif" font-size="14" lengthAdjust="spacing" textLength="186.5801" x="347.55" y="363.1751">handle(event: Event): void</text></g><!--class AnalyticsTracker--><g class="entity" data-qualified-name="AnalyticsTracker" data-source-line="34" id="ent0011"><rect fill="#F1F1F1" height="64.2969" rx="2.5" ry="2.5" style="stroke:#181818;stroke-width:0.5;" width="212.5801" x="575.55" y="306.18"/><ellipse cx="619.3254" cy="322.18" fill="#ADD1B2" rx="11" ry="11" style="stroke:#181818;stroke-width:1;"/><path d="M622.2941,327.8206 Q621.716,328.1175 621.0754,328.2581 Q620.4348,328.4144 619.7316,328.4144 Q617.2316,328.4144 615.9035,326.7738 Q614.591,325.1175 614.591,321.9925 Q614.591,318.8675 615.9035,317.2113 Q617.2316,315.555 619.7316,315.555 Q620.4348,315.555 621.0754,315.7113 Q621.7316,315.8675 622.2941,316.1644 L622.2941,318.8831 Q621.6691,318.305 621.0754,318.0394 Q620.4816,317.7581 619.8566,317.7581 Q618.5129,317.7581 617.8254,318.8363 Q617.1379,319.8988 617.1379,321.9925 Q617.1379,324.0863 617.8254,325.1644 Q618.5129,326.2269 619.8566,326.2269 Q620.4816,326.2269 621.0754,325.9613 Q621.6691,325.68 622.2941,325.1019 L622.2941,327.8206 Z " fill="#000000"/><text fill="#000000" font-family="sans-serif" font-size="14" lengthAdjust="spacing" textLength="116.6348" x="639.7199" y="327.0267">AnalyticsTracker</text><line style="stroke:#181818;stroke-width:0.5;" x1="576.55" x2="787.1301" y1="338.18" y2="338.18"/><line style="stroke:#181818;stroke-width:0.5;" x1="576.55" x2="787.1301" y1="346.18" y2="346.18"/><g data-visibility-modifier="PUBLIC_METHOD"><ellipse cx="586.55" cy="359.8284" fill="#84BE84" rx="3" ry="3" style="stroke:#038048;stroke-width:1;"/></g><text fill="#000000" font-family="sans-serif" font-size="14" lengthAdjust="spacing" textLength="186.5801" x="595.55" y="363.1751">handle(event: Event): void</text></g><!--class FraudDetector--><g class="entity" data-qualified-name="FraudDetector" data-source-line="38" id="ent0012"><rect fill="#F1F1F1" height="64.2969" rx="2.5" ry="2.5" style="stroke:#181818;stroke-width:0.5;" width="212.5801" x="823.55" y="306.18"/><ellipse cx="875.0144" cy="322.18" fill="#ADD1B2" rx="11" ry="11" style="stroke:#181818;stroke-width:1;"/><path d="M877.9831,327.8206 Q877.405,328.1175 876.7644,328.2581 Q876.1237,328.4144 875.4206,328.4144 Q872.9206,328.4144 871.5925,326.7738 Q870.28,325.1175 870.28,321.9925 Q870.28,318.8675 871.5925,317.2113 Q872.9206,315.555 875.4206,315.555 Q876.1237,315.555 876.7644,315.7113 Q877.4206,315.8675 877.9831,316.1644 L877.9831,318.8831 Q877.3581,318.305 876.7644,318.0394 Q876.1706,317.7581 875.5456,317.7581 Q874.2019,317.7581 873.5144,318.8363 Q872.8269,319.8988 872.8269,321.9925 Q872.8269,324.0863 873.5144,325.1644 Q874.2019,326.2269 875.5456,326.2269 Q876.1706,326.2269 876.7644,325.9613 Q877.3581,325.68 877.9831,325.1019 L877.9831,327.8206 Z " fill="#000000"/><text fill="#000000" font-family="sans-serif" font-size="14" lengthAdjust="spacing" textLength="101.1514" x="895.5144" y="327.0267">FraudDetector</text><line style="stroke:#181818;stroke-width:0.5;" x1="824.55" x2="1035.1301" y1="338.18" y2="338.18"/><line style="stroke:#181818;stroke-width:0.5;" x1="824.55" x2="1035.1301" y1="346.18" y2="346.18"/><g data-visibility-modifier="PUBLIC_METHOD"><ellipse cx="834.55" cy="359.8284" fill="#84BE84" rx="3" ry="3" style="stroke:#038048;stroke-width:1;"/></g><text fill="#000000" font-family="sans-serif" font-size="14" lengthAdjust="spacing" textLength="186.5801" x="843.55" y="363.1751">handle(event: Event): void</text></g><!--class EventManager--><g class="entity" data-qualified-name="EventManager" data-source-line="47" id="ent0016"><rect fill="#F1F1F1" height="96.8906" rx="2.5" ry="2.5" style="stroke:#181818;stroke-width:0.5;" width="347.4531" x="87.11" y="7"/><ellipse cx="205.8502" cy="23" fill="#ADD1B2" rx="11" ry="11" style="stroke:#181818;stroke-width:1;"/><path d="M208.819,28.6406 Q208.2409,28.9375 207.6002,29.0781 Q206.9596,29.2344 206.2565,29.2344 Q203.7565,29.2344 202.4284,27.5938 Q201.1159,25.9375 201.1159,22.8125 Q201.1159,19.6875 202.4284,18.0313 Q203.7565,16.375 206.2565,16.375 Q206.9596,16.375 207.6002,16.5313 Q208.2565,16.6875 208.819,16.9844 L208.819,19.7031 Q208.194,19.125 207.6002,18.8594 Q207.0065,18.5781 206.3815,18.5781 Q205.0377,18.5781 204.3502,19.6563 Q203.6627,20.7188 203.6627,22.8125 Q203.6627,24.9063 204.3502,25.9844 Q205.0377,27.0469 206.3815,27.0469 Q207.0065,27.0469 207.6002,26.7813 Q208.194,26.5 208.819,25.9219 L208.819,28.6406 Z " fill="#000000"/><text fill="#000000" font-family="sans-serif" font-size="14" lengthAdjust="spacing" textLength="101.4727" x="226.3502" y="27.8467">EventManager</text><line style="stroke:#181818;stroke-width:0.5;" x1="88.11" x2="433.5631" y1="39" y2="39"/><g data-visibility-modifier="PRIVATE_FIELD"><rect fill="none" height="6" style="stroke:#C82930;stroke-width:1;" width="6" x="95.11" y="49.6484"/></g><text fill="#000000" font-family="sans-serif" font-size="14" lengthAdjust="spacing" textLength="213.2471" x="107.11" y="55.9951">listeners: List&lt;EventListener&gt;</text><line style="stroke:#181818;stroke-width:0.5;" x1="88.11" x2="433.5631" y1="63.2969" y2="63.2969"/><g data-visibility-modifier="PUBLIC_METHOD"><ellipse cx="98.11" cy="76.9453" fill="#84BE84" rx="3" ry="3" style="stroke:#038048;stroke-width:1;"/></g><text fill="#000000" font-family="sans-serif" font-size="14" lengthAdjust="spacing" textLength="321.4531" x="107.11" y="80.292">register_listener(listener: EventListener): void</text><g data-visibility-modifier="PUBLIC_METHOD"><ellipse cx="98.11" cy="93.2422" fill="#84BE84" rx="3" ry="3" style="stroke:#038048;stroke-width:1;"/></g><text fill="#000000" font-family="sans-serif" font-size="14" lengthAdjust="spacing" textLength="178.8965" x="107.11" y="96.5889">notify(event: Event): void</text></g><!--reverse link Event to UserRegistered--><g class="link" data-entity-1="ent0002" data-entity-2="ent0003" data-link-type="extension" data-source-line="21" id="lnk6"><path codeLine="21" d="M190.3336,382.3277 C166.5336,402.5877 149.05,417.46 123.52,439.19" fill="none" id="Event-backto-UserRegistered" style="stroke:#181818;stroke-width:1;"/><polygon fill="none" points="204.04,370.66,186.4444,377.7589,194.2229,386.8965,204.04,370.66" style="stroke:#181818;stroke-width:1;"/></g><!--reverse link Event to OrderPlaced--><g class="link" data-entity-1="ent0002" data-entity-2="ent0004" data-link-type="extension" data-source-line="22" id="lnk7"><path codeLine="22" d="M240.84,388.66 C240.84,408.92 240.84,417.46 240.84,439.19" fill="none" id="Event-backto-OrderPlaced" style="stroke:#181818;stroke-width:1;"/><polygon fill="none" points="240.84,370.66,234.84,388.66,246.84,388.66,240.84,370.66" style="stroke:#181818;stroke-width:1;"/></g><!--reverse link Event to PaymentFailed--><g class="link" data-entity-1="ent0002" data-entity-2="ent0005" data-link-type="extension" data-source-line="23" id="lnk8"><path codeLine="23" d="M290.8378,382.4078 C311.5478,400.2478 324.28,411.23 347.51,431.25" fill="none" id="Event-backto-PaymentFailed" style="stroke:#181818;stroke-width:1;"/><polygon fill="none" points="277.2,370.66,286.9218,386.9538,294.7537,377.8619,277.2,370.66" style="stroke:#181818;stroke-width:1;"/></g><!--reverse link EventListener to EmailNotifier--><g class="link" data-entity-1="ent0009" data-entity-2="ent0010" data-link-type="extension" data-source-line="42" id="lnk13"><path codeLine="42" d="M440.9234,247.5842 C439.1234,270.3842 438.12,283.08 436.33,305.85" fill="none" id="EventListener-backto-EmailNotifier" style="stroke:#181818;stroke-width:1;"/><polygon fill="none" points="442.34,229.64,434.942,247.112,446.9047,248.0564,442.34,229.64" style="stroke:#181818;stroke-width:1;"/></g><!--reverse link EventListener to AnalyticsTracker--><g class="link" data-entity-1="ent0009" data-entity-2="ent0011" data-link-type="extension" data-source-line="43" id="lnk14"><path codeLine="43" d="M514.1379,238.7611 C552.9279,261.5611 589.54,283.08 628.27,305.85" fill="none" id="EventListener-backto-AnalyticsTracker" style="stroke:#181818;stroke-width:1;"/><polygon fill="none" points="498.62,229.64,511.0975,243.9338,517.1783,233.5885,498.62,229.64" style="stroke:#181818;stroke-width:1;"/></g><!--reverse link EventListener to FraudDetector--><g class="link" data-entity-1="ent0009" data-entity-2="ent0012" data-link-type="extension" data-source-line="44" id="lnk15"><path codeLine="44" d="M568.8805,233.659 C649.6205,256.849 742.69,283.58 823.37,306.75" fill="none" id="EventListener-backto-FraudDetector" style="stroke:#181818;stroke-width:1;"/><polygon fill="none" points="551.58,228.69,567.2242,239.4259,570.5369,227.8922,551.58,228.69" style="stroke:#181818;stroke-width:1;"/></g><!--reverse link EventManager to EventListener--><g class="link" data-entity-1="ent0016" data-entity-2="ent0009" data-link-type="aggregation" data-source-line="53" id="lnk17"><path codeLine="53" d="M333.4622,111.5401 C359.6822,131.4201 379.83,146.71 403.24,164.47" fill="none" id="EventManager-backto-EventListener" style="stroke:#181818;stroke-width:1;"/><polygon fill="none" points="323.9,104.29,326.2644,111.1025,333.4622,111.5401,331.0978,104.7276,323.9,104.29" style="stroke:#181818;stroke-width:1;"/></g><!--link EventListener to Event--><g class="link" data-entity-1="ent0009" data-entity-2="ent0002" data-link-type="dependency" data-source-line="56" id="lnk18"><path codeLine="56" d="M398.55,229.64 C365.16,252.44 325.2447,279.6961 291.9047,302.4661" fill="none" id="EventListener-to-Event" style="stroke:#181818;stroke-width:1;stroke-dasharray:7,7;"/><polygon fill="#181818" points="286.95,305.85,296.638,304.0773,291.0789,303.0301,292.1262,297.471,286.95,305.85" style="stroke:#181818;stroke-width:1;"/><text fill="#000000" font-family="sans-serif" font-size="13" lengthAdjust="spacing" textLength="51.0796" x="355.84" y="272.2469">handles</text></g><!--link EventManager to Event--><g class="link" data-entity-1="ent0016" data-entity-2="ent0002" data-link-type="dependency" data-source-line="57" id="lnk19"><path codeLine="57" d="M257.45,104.09 C253.35,161.69 246.9858,250.9951 243.4958,300.0451" fill="none" id="EventManager-to-Event" style="stroke:#181818;stroke-width:1;stroke-dasharray:7,7;"/><polygon fill="#181818" points="243.07,306.03,247.6987,297.3366,243.4249,301.0426,239.7188,296.7688,243.07,306.03" style="stroke:#181818;stroke-width:1;"/><text fill="#000000" font-family="sans-serif" font-size="13" lengthAdjust="spacing" textLength="61.75" x="254.84" y="201.5969">publishes</text></g><?plantuml-src bPDFQm8n4CNl-HHpgwLexui81HKA_IEbFSkOp6feJ2I9jalRxzwaCReHbRgd9NblzlTcPd7cl4NkWIjq3aORqXw-68JdHkEIEjSL10NxOImftXpP5vfBvycIoD9rE8to93xjVhQ2x4GXtrjDF9fAKO7K_enrWiqom8rHghDcI-YCFWsI8lQ_kzs3BEsR5cVxk61WZE6HxZt4SffiHboW5eew5E-g90am6oF5Fjje6Ie-6IzhUPdnJgDglEJkDM2yN-OTMroB8NdYtlpJM0RyQqc1VanmY7XCKw2mNLUYy14rpdV1kchhSnN44lsYs21lG1hfD8ix-QKgHvIJfJM96PgpoJEBYRdRXHYxWj7dIaakFGXQaHQaUGDrQAmdv0kfvp2ydy0j2FG8jJ8VSMUizCr1FtgzmVOlh20DmvKVRmjMwrc8jY3t2m00?></g></svg>