<svg xmlns="http://www.w3.org/2000/svg" xmlns:xlink="http://www.w3.org/1999/xlink" contentStyleType="text/css" data-diagram-type="CLASS" height="417px" preserveAspectRatio="none" style="width:1081px;height:417px;background:#FFFFFF;" version="1.1" viewBox="0 0 1081 417" width="1081px" zoomAndPan="magnify"><?plantuml 1.2026.4beta2?><defs/><g><!--class PaymentResult--><g class="entity" data-qualified-name="PaymentResult" data-source-line="4" id="ent0002"><rect fill="#F1F1F1" height="80.5938" rx="2.5" ry="2.5" style="stroke:#181818;stroke-width:0.5;" width="137.8066" x="7" y="322.19"/><ellipse cx="22" cy="338.19" fill="#ADD1B2" rx="11" ry="11" style="stroke:#181818;stroke-width:1;"/><path d="M24.9688,343.8306 Q24.3906,344.1275 23.75,344.2681 Q23.1094,344.4244 22.4063,344.4244 Q19.9063,344.4244 18.5781,342.7837 Q17.2656,341.1275 17.2656,338.0025 Q17.2656,334.8775 18.5781,333.2212 Q19.9063,331.565 22.4063,331.565 Q23.1094,331.565 23.75,331.7212 Q24.4063,331.8775 24.9688,332.1744 L24.9688,334.8931 Q24.3438,334.315 23.75,334.0494 Q23.1563,333.7681 22.5313,333.7681 Q21.1875,333.7681 20.5,334.8462 Q19.8125,335.9087 19.8125,338.0025 Q19.8125,340.0962 20.5,341.1744 Q21.1875,342.2369 22.5313,342.2369 Q23.1563,342.2369 23.75,341.9712 Q24.3438,341.69 24.9688,341.1119 L24.9688,343.8306 Z " fill="#000000"/><text fill="#000000" font-family="sans-serif" font-size="14" lengthAdjust="spacing" textLength="105.8066" x="36" y="343.0367">PaymentResult</text><line style="stroke:#181818;stroke-width:0.5;" x1="8" x2="143.8066" y1="354.19" y2="354.19"/><g data-visibility-modifier="PUBLIC_FIELD"><ellipse cx="18" cy="367.8384" fill="none" rx="3" ry="3" style="stroke:#038048;stroke-width:1;"/></g><text fill="#000000" font-family="sans-serif" font-size="14" lengthAdjust="spacing" textLength="93.8369" x="27" y="371.1851">success: bool</text><g data-visibility-modifier="PUBLIC_FIELD"><ellipse cx="18" cy="384.1353" fill="none" rx="3" ry="3" style="stroke:#038048;stroke-width:1;"/></g><text fill="#000000" font-family="sans-serif" font-size="14" lengthAdjust="spacing" textLength="90.624" x="27" y="387.482">message: str</text><line style="stroke:#181818;stroke-width:0.5;" x1="8" x2="143.8066" y1="394.7837" y2="394.7837"/></g><!--class InvalidPaymentError--><g class="entity" data-qualified-name="InvalidPaymentError" data-source-line="9" id="ent0003"><rect fill="#F1F1F1" height="56.2656" rx="2.5" ry="2.5" style="stroke:#181818;stroke-width:0.5;" width="175.1309" x="123.34" y="184.9"/><ellipse cx="138.34" cy="205.0328" fill="#ADD1B2" rx="11" ry="11" style="stroke:#181818;stroke-width:1;"/><path d="M141.3088,210.6734 Q140.7306,210.9703 140.09,211.1109 Q139.4494,211.2672 138.7463,211.2672 Q136.2463,211.2672 134.9181,209.6266 Q133.6056,207.9703 133.6056,204.8453 Q133.6056,201.7203 134.9181,200.0641 Q136.2463,198.4078 138.7463,198.4078 Q139.4494,198.4078 140.09,198.5641 Q140.7463,198.7203 141.3088,199.0172 L141.3088,201.7359 Q140.6838,201.1578 140.09,200.8922 Q139.4963,200.6109 138.8713,200.6109 Q137.5275,200.6109 136.84,201.6891 Q136.1525,202.7516 136.1525,204.8453 Q136.1525,206.9391 136.84,208.0172 Q137.5275,209.0797 138.8713,209.0797 Q139.4963,209.0797 140.09,208.8141 Q140.6838,208.5328 141.3088,207.9547 L141.3088,210.6734 Z " fill="#000000"/><text fill="#000000" font-family="sans-serif" font-size="12" font-style="italic" lengthAdjust="spacing" textLength="73.752" x="187.0295" y="201.0387">&#171;exception&#187;</text><text fill="#000000" font-family="sans-serif" font-size="14" lengthAdjust="spacing" textLength="143.1309" x="152.34" y="216.8639">InvalidPaymentError</text><line style="stroke:#181818;stroke-width:0.5;" x1="124.34" x2="297.4709" y1="225.1656" y2="225.1656"/><line style="stroke:#181818;stroke-width:0.5;" x1="124.34" x2="297.4709" y1="233.1656" y2="233.1656"/></g><!--class PaymentMethod--><g class="entity" data-qualified-name="PaymentMethod" data-source-line="14" id="ent0004"><rect fill="#F1F1F1" height="64.2969" rx="2.5" ry="2.5" style="stroke:#181818;stroke-width:0.5;" width="272.2852" x="333.76" y="180.89"/><ellipse cx="408.4392" cy="196.89" fill="#A9DCDF" rx="11" ry="11" style="stroke:#181818;stroke-width:1;"/><path d="M408.5486,192.2338 L407.3923,197.3119 L409.7204,197.3119 L408.5486,192.2338 Z M407.0642,189.9994 L410.0486,189.9994 L413.4079,202.39 L410.9548,202.39 L410.1892,199.3275 L406.9079,199.3275 L406.1579,202.39 L403.7204,202.39 L407.0642,189.9994 Z " fill="#000000"/><text fill="#000000" font-family="sans-serif" font-size="14" font-style="italic" lengthAdjust="spacing" textLength="114.4268" x="428.9392" y="201.7367">PaymentMethod</text><line style="stroke:#181818;stroke-width:0.5;" x1="334.76" x2="605.0452" y1="212.89" y2="212.89"/><line style="stroke:#181818;stroke-width:0.5;" x1="334.76" x2="605.0452" y1="220.89" y2="220.89"/><g data-visibility-modifier="PUBLIC_METHOD"><ellipse cx="344.76" cy="234.5384" fill="#84BE84" rx="3" ry="3" style="stroke:#038048;stroke-width:1;"/></g><text fill="#000000" font-family="sans-serif" font-size="14" lengthAdjust="spacing" textLength="246.2852" x="353.76" y="237.8851">pay(amount: float): PaymentResult</text></g><!--class CreditCard--><g class="entity" data-qualified-name="CreditCard" data-source-line="18" id="ent0005"><rect fill="#F1F1F1" height="64.2969" rx="2.5" ry="2.5" style="stroke:#181818;stroke-width:0.5;" width="272.2852" x="179.76" y="330.33"/><ellipse cx="273.949" cy="346.33" fill="#ADD1B2" rx="11" ry="11" style="stroke:#181818;stroke-width:1;"/><path d="M276.9177,351.9706 Q276.3396,352.2675 275.699,352.4081 Q275.0583,352.5644 274.3552,352.5644 Q271.8552,352.5644 270.5271,350.9238 Q269.2146,349.2675 269.2146,346.1425 Q269.2146,343.0175 270.5271,341.3613 Q271.8552,339.705 274.3552,339.705 Q275.0583,339.705 275.699,339.8613 Q276.3552,340.0175 276.9177,340.3144 L276.9177,343.0331 Q276.2927,342.455 275.699,342.1894 Q275.1052,341.9081 274.4802,341.9081 Q273.1365,341.9081 272.449,342.9863 Q271.7615,344.0488 271.7615,346.1425 Q271.7615,348.2363 272.449,349.3144 Q273.1365,350.3769 274.4802,350.3769 Q275.1052,350.3769 275.699,350.1113 Q276.2927,349.83 276.9177,349.2519 L276.9177,351.9706 Z " fill="#000000"/><text fill="#000000" font-family="sans-serif" font-size="14" lengthAdjust="spacing" textLength="75.4072" x="294.449" y="351.1767">CreditCard</text><line style="stroke:#181818;stroke-width:0.5;" x1="180.76" x2="451.0452" y1="362.33" y2="362.33"/><line style="stroke:#181818;stroke-width:0.5;" x1="180.76" x2="451.0452" y1="370.33" y2="370.33"/><g data-visibility-modifier="PUBLIC_METHOD"><ellipse cx="190.76" cy="383.9784" fill="#84BE84" rx="3" ry="3" style="stroke:#038048;stroke-width:1;"/></g><text fill="#000000" font-family="sans-serif" font-size="14" lengthAdjust="spacing" textLength="246.2852" x="199.76" y="387.3251">pay(amount: float): PaymentResult</text></g><!--class PayPal--><g class="entity" data-qualified-name="PayPal" data-source-line="22" id="ent0006"><rect fill="#F1F1F1" height="64.2969" rx="2.5" ry="2.5" style="stroke:#181818;stroke-width:0.5;" width="272.2852" x="486.76" y="330.33"/><ellipse cx="595.5437" cy="346.33" fill="#ADD1B2" rx="11" ry="11" style="stroke:#181818;stroke-width:1;"/><path d="M598.5124,351.9706 Q597.9343,352.2675 597.2937,352.4081 Q596.6531,352.5644 595.9499,352.5644 Q593.4499,352.5644 592.1218,350.9238 Q590.8093,349.2675 590.8093,346.1425 Q590.8093,343.0175 592.1218,341.3613 Q593.4499,339.705 595.9499,339.705 Q596.6531,339.705 597.2937,339.8613 Q597.9499,340.0175 598.5124,340.3144 L598.5124,343.0331 Q597.8874,342.455 597.2937,342.1894 Q596.6999,341.9081 596.0749,341.9081 Q594.7312,341.9081 594.0437,342.9863 Q593.3562,344.0488 593.3562,346.1425 Q593.3562,348.2363 594.0437,349.3144 Q594.7312,350.3769 596.0749,350.3769 Q596.6999,350.3769 597.2937,350.1113 Q597.8874,349.83 598.5124,349.2519 L598.5124,351.9706 Z " fill="#000000"/><text fill="#000000" font-family="sans-serif" font-size="14" lengthAdjust="spacing" textLength="46.2178" x="616.0437" y="351.1767">PayPal</text><line style="stroke:#181818;stroke-width:0.5;" x1="487.76" x2="758.0452" y1="362.33" y2="362.33"/><line style="stroke:#181818;stroke-width:0.5;" x1="487.76" x2="758.0452" y1="370.33" y2="370.33"/><g data-visibility-modifier="PUBLIC_METHOD"><ellipse cx="497.76" cy="383.9784" fill="#84BE84" rx="3" ry="3" style="stroke:#038048;stroke-width:1;"/></g><text fill="#000000" font-family="sans-serif" font-size="14" lengthAdjust="spacing" textLength="246.2852" x="506.76" y="387.3251">pay(amount: float): PaymentResult</text></g><!--class Crypto--><g class="entity" data-qualified-name="Crypto" data-source-line="26" id="ent0007"><rect fill="#F1F1F1" height="64.2969" rx="2.5" ry="2.5" style="stroke:#181818;stroke-width:0.5;" width="272.2852" x="793.76" y="330.33"/><ellipse cx="902.2737" cy="346.33" fill="#ADD1B2" rx="11" ry="11" style="stroke:#181818;stroke-width:1;"/><path d="M905.2424,351.9706 Q904.6643,352.2675 904.0237,352.4081 Q903.383,352.5644 902.6799,352.5644 Q900.1799,352.5644 898.8518,350.9238 Q897.5393,349.2675 897.5393,346.1425 Q897.5393,343.0175 898.8518,341.3613 Q900.1799,339.705 902.6799,339.705 Q903.383,339.705 904.0237,339.8613 Q904.6799,340.0175 905.2424,340.3144 L905.2424,343.0331 Q904.6174,342.455 904.0237,342.1894 Q903.4299,341.9081 902.8049,341.9081 Q901.4612,341.9081 900.7737,342.9863 Q900.0862,344.0488 900.0862,346.1425 Q900.0862,348.2363 900.7737,349.3144 Q901.4612,350.3769 902.8049,350.3769 Q903.4299,350.3769 904.0237,350.1113 Q904.6174,349.83 905.2424,349.2519 L905.2424,351.9706 Z " fill="#000000"/><text fill="#000000" font-family="sans-serif" font-size="14" lengthAdjust="spacing" textLength="46.7578" x="922.7737" y="351.1767">Crypto</text><line style="stroke:#181818;stroke-width:0.5;" x1="794.76" x2="1065.0452" y1="362.33" y2="362.33"/><line style="stroke:#181818;stroke-width:0.5;" x1="794.76" x2="1065.0452" y1="370.33" y2="370.33"/><g data-visibility-modifier="PUBLIC_METHOD"><ellipse cx="804.76" cy="383.9784" fill="#84BE84" rx="3" ry="3" style="stroke:#038048;stroke-width:1;"/></g><text fill="#000000" font-family="sans-serif" font-size="14" lengthAdjust="spacing" textLength="246.2852" x="813.76" y="387.3251">pay(amount: float): PaymentResult</text></g><!--class PaymentProcessor--><g class="entity" data-qualified-name="PaymentProcessor" data-source-line="37" id="ent0011"><rect fill="#F1F1F1" height="96.8906" rx="2.5" ry="2.5" style="stroke:#181818;stroke-width:0.5;" width="300.6406" x="103.58" y="7"/><ellipse cx="184.6987" cy="23" fill="#ADD1B2" rx="11" ry="11" style="stroke:#181818;stroke-width:1;"/><path d="M187.6674,28.6406 Q187.0893,28.9375 186.4487,29.0781 Q185.808,29.2344 185.1049,29.2344 Q182.6049,29.2344 181.2768,27.5938 Q179.9643,25.9375 179.9643,22.8125 Q179.9643,19.6875 181.2768,18.0313 Q182.6049,16.375 185.1049,16.375 Q185.808,16.375 186.4487,16.5313 Q187.1049,16.6875 187.6674,16.9844 L187.6674,19.7031 Q187.0424,19.125 186.4487,18.8594 Q185.8549,18.5781 185.2299,18.5781 Q183.8862,18.5781 183.1987,19.6563 Q182.5112,20.7188 182.5112,22.8125 Q182.5112,24.9063 183.1987,25.9844 Q183.8862,27.0469 185.2299,27.0469 Q185.8549,27.0469 186.4487,26.7813 Q187.0424,26.5 187.6674,25.9219 L187.6674,28.6406 Z " fill="#000000"/><text fill="#000000" font-family="sans-serif" font-size="14" lengthAdjust="spacing" textLength="129.9033" x="205.1987" y="27.8467">PaymentProcessor</text><line style="stroke:#181818;stroke-width:0.5;" x1="104.58" x2="403.2206" y1="39" y2="39"/><g data-visibility-modifier="PRIVATE_FIELD"><rect fill="none" height="6" style="stroke:#C82930;stroke-width:1;" width="6" x="111.58" y="49.6484"/></g><text fill="#000000" font-family="sans-serif" font-size="14" lengthAdjust="spacing" textLength="254.0234" x="123.58" y="55.9951">_payment_method: PaymentMethod</text><line style="stroke:#181818;stroke-width:0.5;" x1="104.58" x2="403.2206" y1="63.2969" y2="63.2969"/><g data-visibility-modifier="PUBLIC_METHOD"><ellipse cx="114.58" cy="76.9453" fill="#84BE84" rx="3" ry="3" style="stroke:#038048;stroke-width:1;"/></g><text fill="#000000" font-family="sans-serif" font-size="14" lengthAdjust="spacing" textLength="274.6406" x="123.58" y="80.292">process(amount: float): PaymentResult</text><g data-visibility-modifier="PRIVATE_METHOD"><rect fill="#F24D5C" height="6" style="stroke:#C82930;stroke-width:1;" width="6" x="111.58" y="90.2422"/></g><text fill="#000000" font-family="sans-serif" font-size="14" lengthAdjust="spacing" textLength="207.5664" x="123.58" y="96.5889">_validate(amount: float): void</text></g><!--reverse link PaymentMethod to CreditCard--><g class="link" data-entity-1="ent0004" data-entity-2="ent0005" data-link-type="extension" data-source-line="30" id="lnk8"><path codeLine="30" d="M423.8674,258.1172 C397.8774,282.9972 374.86,305.04 348.89,329.9" fill="none" id="PaymentMethod-backto-CreditCard" style="stroke:#181818;stroke-width:1;"/><polygon fill="none" points="436.87,245.67,419.7184,253.783,428.0165,262.4514,436.87,245.67" style="stroke:#181818;stroke-width:1;"/></g><!--reverse link PaymentMethod to PayPal--><g class="link" data-entity-1="ent0004" data-entity-2="ent0006" data-link-type="extension" data-source-line="31" id="lnk9"><path codeLine="31" d="M515.6893,258.1623 C541.4993,283.0423 564.33,305.04 590.14,329.9" fill="none" id="PaymentMethod-backto-PayPal" style="stroke:#181818;stroke-width:1;"/><polygon fill="none" points="502.73,245.67,511.5252,262.4821,519.8534,253.8426,502.73,245.67" style="stroke:#181818;stroke-width:1;"/></g><!--reverse link PaymentMethod to Crypto--><g class="link" data-entity-1="ent0004" data-entity-2="ent0007" data-link-type="extension" data-source-line="32" id="lnk10"><path codeLine="32" d="M585.721,251.1643 C663.341,276.0443 753.81,305.04 831.38,329.9" fill="none" id="PaymentMethod-backto-Crypto" style="stroke:#181818;stroke-width:1;"/><polygon fill="none" points="568.58,245.67,583.8895,256.878,587.5524,245.4506,568.58,245.67" style="stroke:#181818;stroke-width:1;"/></g><!--link PaymentProcessor to PaymentMethod--><g class="link" data-entity-1="ent0011" data-entity-2="ent0004" data-link-type="dependency" data-source-line="47" id="lnk12"><path codeLine="47" d="M320.18,104.18 C354.65,129.02 390.9618,155.1728 421.4018,177.1028" fill="none" id="PaymentProcessor-to-PaymentMethod" style="stroke:#181818;stroke-width:1;"/><polygon fill="#181818" points="426.27,180.61,421.3058,172.1037,422.2132,177.6873,416.6295,178.5946,426.27,180.61" style="stroke:#181818;stroke-width:1;"/><text fill="#000000" font-family="sans-serif" font-size="13" lengthAdjust="spacing" textLength="29.7832" x="381.9" y="146.9569">uses</text></g><!--link PaymentMethod to PaymentResult--><g class="link" data-entity-1="ent0004" data-entity-2="ent0002" data-link-type="dependency" data-source-line="48" id="lnk13"><path codeLine="48" d="M372.65,245.66 C311.61,266.13 231.55,294.11 161.9,322.19 C156.42,324.4 156.2903,324.3859 150.6503,326.8159" fill="none" id="PaymentMethod-to-PaymentResult" style="stroke:#181818;stroke-width:1;stroke-dasharray:7,7;"/><polygon fill="#181818" points="145.14,329.19,154.9882,329.3024,149.7319,327.2116,151.8227,321.9553,145.14,329.19" style="stroke:#181818;stroke-width:1;"/><text fill="#000000" font-family="sans-serif" font-size="13" lengthAdjust="spacing" textLength="47.0361" x="280.9" y="288.2569">returns</text></g><!--link PaymentProcessor to InvalidPaymentError--><g class="link" data-entity-1="ent0011" data-entity-2="ent0003" data-link-type="dependency" data-source-line="49" id="lnk14"><path codeLine="49" d="M240.77,103.97 C233.46,130.43 226.2189,156.627 220.0589,178.907" fill="none" id="PaymentProcessor-to-InvalidPaymentError" style="stroke:#181818;stroke-width:1;stroke-dasharray:7,7;"/><polygon fill="#181818" points="218.46,184.69,224.7137,177.0814,219.7924,179.8708,217.003,174.9495,218.46,184.69" style="stroke:#181818;stroke-width:1;"/><text fill="#000000" font-family="sans-serif" font-size="13" lengthAdjust="spacing" textLength="44.04" x="233.9" y="146.9569">throws</text></g><?plantuml-src dLFHRe8m57tdA-uRMnRyWCQHC6YKH8KeMUAJgT1D4g2alRYHRVy-41U786xswRRtdjjpRazrUBoqD1qSRswvYoguN1GcJ2dmMPdo39TS5Gd2XmRLUb1567Ab26o5I9gZjDgpLqv0eTI-j2FQpVOiYQDZ4ogba30Uy_UGvnYBp3IrGGewh8Ab5T396godEhG3rnjcpROL0HOYjEZFEUv4z4C_P-KTIqMH8O6NH32y9ssT9m6sv56CDfEtWAjZdoKttLhcAFu5R0iTVnh6B-vzsOPSFww-_ThBJDt9r9ZHPpe3tvkvzlhlPlAbgErJUQ5HQ6po9h593pH8-zcqunWQr9LHDFqEhcF8EyLx4KVrk8QrETId2uSkR9Uk1aixWWp3FFCSWK9nTJRdqSWy-ra49CT2PghRioxk-qW4S2V5c_e6?></g></svg>