<svg xmlns="http://www.w3.org/2000/svg" xmlns:xlink="http://www.w3.org/1999/xlink" contentStyleType="text/css" data-diagram-type="CLASS" height="349px" preserveAspectRatio="none" style="width:411px;height:349px;background:#FFFFFF;" version="1.1" viewBox="0 0 411 349" width="411px" zoomAndPan="magnify"><?plantuml 1.2026.4beta2?><defs/><g><!--class InvalidAmountError--><g class="entity" data-qualified-name="InvalidAmountError" data-source-line="4" id="ent0002"><rect fill="#F1F1F1" height="56.2656" rx="2.5" ry="2.5" style="stroke:#181818;stroke-width:0.5;" width="168.2266" x="7" y="278.67"/><ellipse cx="22" cy="298.8028" fill="#ADD1B2" rx="11" ry="11" style="stroke:#181818;stroke-width:1;"/><path d="M24.9688,304.4434 Q24.3906,304.7403 23.75,304.8809 Q23.1094,305.0372 22.4063,305.0372 Q19.9063,305.0372 18.5781,303.3966 Q17.2656,301.7403 17.2656,298.6153 Q17.2656,295.4903 18.5781,293.8341 Q19.9063,292.1778 22.4063,292.1778 Q23.1094,292.1778 23.75,292.3341 Q24.4063,292.4903 24.9688,292.7872 L24.9688,295.5059 Q24.3438,294.9278 23.75,294.6622 Q23.1563,294.3809 22.5313,294.3809 Q21.1875,294.3809 20.5,295.4591 Q19.8125,296.5216 19.8125,298.6153 Q19.8125,300.7091 20.5,301.7872 Q21.1875,302.8497 22.5313,302.8497 Q23.1563,302.8497 23.75,302.5841 Q24.3438,302.3028 24.9688,301.7247 L24.9688,304.4434 Z " fill="#000000"/><text fill="#000000" font-family="sans-serif" font-size="12" font-style="italic" lengthAdjust="spacing" textLength="73.752" x="67.2373" y="294.8087">&#171;exception&#187;</text><text fill="#000000" font-family="sans-serif" font-size="14" lengthAdjust="spacing" textLength="136.2266" x="36" y="310.6339">InvalidAmountError</text><line style="stroke:#181818;stroke-width:0.5;" x1="8" x2="174.2266" y1="318.9356" y2="318.9356"/><line style="stroke:#181818;stroke-width:0.5;" x1="8" x2="174.2266" y1="326.9356" y2="326.9356"/></g><!--class InsufficientFundsError--><g class="entity" data-qualified-name="InsufficientFundsError" data-source-line="5" id="ent0003"><rect fill="#F1F1F1" height="56.2656" rx="2.5" ry="2.5" style="stroke:#181818;stroke-width:0.5;" width="186.1367" x="210.04" y="278.67"/><ellipse cx="225.04" cy="298.8028" fill="#ADD1B2" rx="11" ry="11" style="stroke:#181818;stroke-width:1;"/><path d="M228.0088,304.4434 Q227.4306,304.7403 226.79,304.8809 Q226.1494,305.0372 225.4463,305.0372 Q222.9463,305.0372 221.6181,303.3966 Q220.3056,301.7403 220.3056,298.6153 Q220.3056,295.4903 221.6181,293.8341 Q222.9463,292.1778 225.4463,292.1778 Q226.1494,292.1778 226.79,292.3341 Q227.4463,292.4903 228.0088,292.7872 L228.0088,295.5059 Q227.3838,294.9278 226.79,294.6622 Q226.1963,294.3809 225.5713,294.3809 Q224.2275,294.3809 223.54,295.4591 Q222.8525,296.5216 222.8525,298.6153 Q222.8525,300.7091 223.54,301.7872 Q224.2275,302.8497 225.5713,302.8497 Q226.1963,302.8497 226.79,302.5841 Q227.3838,302.3028 228.0088,301.7247 L228.0088,304.4434 Z " fill="#000000"/><text fill="#000000" font-family="sans-serif" font-size="12" font-style="italic" lengthAdjust="spacing" textLength="73.752" x="279.2324" y="294.8087">&#171;exception&#187;</text><text fill="#000000" font-family="sans-serif" font-size="14" lengthAdjust="spacing" textLength="154.1367" x="239.04" y="310.6339">InsufficientFundsError</text><line style="stroke:#181818;stroke-width:0.5;" x1="211.04" x2="395.1767" y1="318.9356" y2="318.9356"/><line style="stroke:#181818;stroke-width:0.5;" x1="211.04" x2="395.1767" y1="326.9356" y2="326.9356"/></g><!--class BankAccount--><g class="entity" data-qualified-name="BankAccount" data-source-line="10" id="ent0004"><rect fill="#F1F1F1" height="194.6719" rx="2.5" ry="2.5" style="stroke:#181818;stroke-width:0.5;" width="294.584" x="49.82" y="7"/><ellipse cx="146.8937" cy="23" fill="#ADD1B2" rx="11" ry="11" style="stroke:#181818;stroke-width:1;"/><path d="M149.8625,28.6406 Q149.2844,28.9375 148.6437,29.0781 Q148.0031,29.2344 147.3,29.2344 Q144.8,29.2344 143.4719,27.5938 Q142.1594,25.9375 142.1594,22.8125 Q142.1594,19.6875 143.4719,18.0313 Q144.8,16.375 147.3,16.375 Q148.0031,16.375 148.6437,16.5313 Q149.3,16.6875 149.8625,16.9844 L149.8625,19.7031 Q149.2375,19.125 148.6437,18.8594 Q148.05,18.5781 147.425,18.5781 Q146.0812,18.5781 145.3937,19.6563 Q144.7062,20.7188 144.7062,22.8125 Q144.7062,24.9063 145.3937,25.9844 Q146.0812,27.0469 147.425,27.0469 Q148.05,27.0469 148.6437,26.7813 Q149.2375,26.5 149.8625,25.9219 L149.8625,28.6406 Z " fill="#000000"/><text fill="#000000" font-family="sans-serif" font-size="14" lengthAdjust="spacing" textLength="91.9365" x="167.3937" y="27.8467">BankAccount</text><line style="stroke:#181818;stroke-width:0.5;" x1="50.82" x2="343.404" y1="39" y2="39"/><g data-visibility-modifier="PRIVATE_FIELD"><rect fill="none" height="6" style="stroke:#C82930;stroke-width:1;" width="6" x="57.82" y="49.6484"/></g><text fill="#000000" font-family="sans-serif" font-size="14" lengthAdjust="spacing" textLength="102.7373" x="69.82" y="55.9951">_balance: float</text><text fill="#000000" font-family="sans-serif" font-size="14" lengthAdjust="spacing" textLength="4.4502" x="69.82" y="72.292">&#160;</text><text fill="#000000" font-family="sans-serif" font-size="14" lengthAdjust="spacing" textLength="4.4502" x="69.82" y="88.5889">&#160;</text><g data-visibility-modifier="PUBLIC_FIELD"><ellipse cx="60.82" cy="101.5391" fill="none" rx="3" ry="3" style="stroke:#038048;stroke-width:1;"/></g><text fill="#000000" font-family="sans-serif" font-size="14" lengthAdjust="spacing" textLength="95.7373" x="69.82" y="104.8857">balance: float</text><line style="stroke:#181818;stroke-width:0.5;" x1="50.82" x2="343.404" y1="112.1875" y2="112.1875"/><g data-visibility-modifier="PUBLIC_METHOD"><ellipse cx="60.82" cy="125.8359" fill="#84BE84" rx="3" ry="3" style="stroke:#038048;stroke-width:1;"/></g><text fill="#000000" font-family="sans-serif" font-size="14" lengthAdjust="spacing" textLength="241.4932" x="69.82" y="129.1826">BankAccount(balance: float = 0.0)</text><text fill="#000000" font-family="sans-serif" font-size="14" lengthAdjust="spacing" textLength="4.4502" x="69.82" y="145.4795">&#160;</text><g data-visibility-modifier="PUBLIC_METHOD"><ellipse cx="60.82" cy="158.4297" fill="#84BE84" rx="3" ry="3" style="stroke:#038048;stroke-width:1;"/></g><text fill="#000000" font-family="sans-serif" font-size="14" lengthAdjust="spacing" textLength="195.9795" x="69.82" y="161.7764">deposit(amount: float): void</text><g data-visibility-modifier="PUBLIC_METHOD"><ellipse cx="60.82" cy="174.7266" fill="#84BE84" rx="3" ry="3" style="stroke:#038048;stroke-width:1;"/></g><text fill="#000000" font-family="sans-serif" font-size="14" lengthAdjust="spacing" textLength="208.7285" x="69.82" y="178.0732">withdraw(amount: float): void</text><g data-visibility-modifier="PRIVATE_METHOD"><rect fill="#F24D5C" height="6" style="stroke:#C82930;stroke-width:1;" width="6" x="57.82" y="188.0234"/></g><text fill="#000000" font-family="sans-serif" font-size="14" lengthAdjust="spacing" textLength="268.584" x="69.82" y="194.3701">_validate_amount(amount: float): void</text></g><!--link BankAccount to InvalidAmountError--><g class="link" data-entity-1="ent0004" data-entity-2="ent0002" data-link-type="dependency" data-source-line="25" id="lnk5"><path codeLine="25" d="M145.98,202.05 C131.15,230.08 118.9337,253.1853 108.3737,273.1653" fill="none" id="BankAccount-to-InvalidAmountError" style="stroke:#181818;stroke-width:1;stroke-dasharray:7,7;"/><polygon fill="#181818" points="105.57,278.47,113.3119,272.3821,107.9064,274.0494,106.2391,268.6439,105.57,278.47" style="stroke:#181818;stroke-width:1;"/><text fill="#000000" font-family="sans-serif" font-size="13" lengthAdjust="spacing" textLength="44.04" x="130.11" y="244.7369">throws</text></g><!--link BankAccount to InsufficientFundsError--><g class="link" data-entity-1="ent0004" data-entity-2="ent0003" data-link-type="dependency" data-source-line="26" id="lnk6"><path codeLine="26" d="M248.25,202.05 C263.07,230.08 275.2843,253.1864 285.8543,273.1664" fill="none" id="BankAccount-to-InsufficientFundsError" style="stroke:#181818;stroke-width:1;stroke-dasharray:7,7;"/><polygon fill="#181818" points="288.66,278.47,287.9871,268.6442,286.3219,274.0504,280.9157,272.3851,288.66,278.47" style="stroke:#181818;stroke-width:1;"/><text fill="#000000" font-family="sans-serif" font-size="13" lengthAdjust="spacing" textLength="44.04" x="272.11" y="244.7369">throws</text></g><?plantuml-src ZP71QiCm38RlUGhTab0IUWvje6CTxB1BNo1ejaB4N3lOJbCOU_UcIJjISBFfQ7-_z4j_3Djd5SMmFmjgFHlj87arHsITkPO4ropIuVkvL2Xq3jxr2HNBtT5qsk-jDHOs6xhtBCjVp7Nrq999-xTEInT25yV5y8BwQoV4TH1CJk73I5B_S3cNVaSmL5Pzea8jg81Q6VJH-BgQWSaZ05jOv-lqnabgZMEVuBZt3KaBE1cM4z6pRwJ5VW49ESYgyPxegPg4OVtFNySwaC8nrOPRjyZERvFdPIZH0dnZJUy2R33MEty1?></g></svg>