<svg xmlns="http://www.w3.org/2000/svg" xmlns:xlink="http://www.w3.org/1999/xlink" contentStyleType="text/css" data-diagram-type="CLASS" height="657px" preserveAspectRatio="none" style="width:792px;height:657px;background:#FFFFFF;" version="1.1" viewBox="0 0 792 657" width="792px" zoomAndPan="magnify"><?plantuml 1.2026.4beta2?><defs/><g><!--class Storage--><g class="entity" data-qualified-name="Storage" data-source-line="4" id="ent0002"><rect fill="#F1F1F1" height="80.5938" rx="2.5" ry="2.5" style="stroke:#181818;stroke-width:0.5;" width="325.0586" x="192" y="197.19"/><ellipse cx="322.8911" cy="213.19" fill="#A9DCDF" rx="11" ry="11" style="stroke:#181818;stroke-width:1;"/><path d="M323.0005,208.5337 L321.8442,213.6119 L324.1724,213.6119 L323.0005,208.5337 Z M321.5161,206.2994 L324.5005,206.2994 L327.8599,218.69 L325.4067,218.69 L324.6411,215.6275 L321.3599,215.6275 L320.6099,218.69 L318.1724,218.69 L321.5161,206.2994 Z " fill="#000000"/><text fill="#000000" font-family="sans-serif" font-size="14" font-style="italic" lengthAdjust="spacing" textLength="54.7764" x="343.3911" y="218.0367">Storage</text><line style="stroke:#181818;stroke-width:0.5;" x1="193" x2="516.0586" y1="229.19" y2="229.19"/><line style="stroke:#181818;stroke-width:0.5;" x1="193" x2="516.0586" y1="237.19" y2="237.19"/><g data-visibility-modifier="PUBLIC_METHOD"><ellipse cx="203" cy="250.8384" fill="#84BE84" rx="3" ry="3" style="stroke:#038048;stroke-width:1;"/></g><text fill="#000000" font-family="sans-serif" font-size="14" lengthAdjust="spacing" textLength="299.0586" x="212" y="254.1851">save_file(filename: str, data: bytes) : None</text><g data-visibility-modifier="PUBLIC_METHOD"><ellipse cx="203" cy="267.1353" fill="#84BE84" rx="3" ry="3" style="stroke:#038048;stroke-width:1;"/></g><text fill="#000000" font-family="sans-serif" font-size="14" lengthAdjust="spacing" textLength="211.9961" x="212" y="270.482">read_file(filename: str) : bytes</text></g><!--class LocalStorage--><g class="entity" data-qualified-name="LocalStorage" data-source-line="9" id="ent0003"><rect fill="#F1F1F1" height="113.1875" rx="2.5" ry="2.5" style="stroke:#181818;stroke-width:0.5;" width="325.0586" x="7" y="346.93"/><ellipse cx="119.6255" cy="362.93" fill="#ADD1B2" rx="11" ry="11" style="stroke:#181818;stroke-width:1;"/><path d="M122.5942,368.5706 Q122.0161,368.8675 121.3755,369.0081 Q120.7349,369.1644 120.0317,369.1644 Q117.5317,369.1644 116.2036,367.5237 Q114.8911,365.8675 114.8911,362.7425 Q114.8911,359.6175 116.2036,357.9612 Q117.5317,356.305 120.0317,356.305 Q120.7349,356.305 121.3755,356.4612 Q122.0317,356.6175 122.5942,356.9144 L122.5942,359.6331 Q121.9692,359.055 121.3755,358.7894 Q120.7817,358.5081 120.1567,358.5081 Q118.813,358.5081 118.1255,359.5862 Q117.438,360.6487 117.438,362.7425 Q117.438,364.8362 118.1255,365.9144 Q118.813,366.9769 120.1567,366.9769 Q120.7817,366.9769 121.3755,366.7112 Q121.9692,366.43 122.5942,365.8519 L122.5942,368.5706 Z " fill="#000000"/><text fill="#000000" font-family="sans-serif" font-size="14" lengthAdjust="spacing" textLength="91.3076" x="140.1255" y="367.7767">LocalStorage</text><line style="stroke:#181818;stroke-width:0.5;" x1="8" x2="331.0586" y1="378.93" y2="378.93"/><g data-visibility-modifier="PRIVATE_FIELD"><rect fill="none" height="6" style="stroke:#C82930;stroke-width:1;" width="6" x="15" y="389.5784"/></g><text fill="#000000" font-family="sans-serif" font-size="14" lengthAdjust="spacing" textLength="104.3574" x="27" y="395.9251">base_path : str</text><line style="stroke:#181818;stroke-width:0.5;" x1="8" x2="331.0586" y1="403.2269" y2="403.2269"/><g data-visibility-modifier="PUBLIC_METHOD"><ellipse cx="18" cy="416.8753" fill="#84BE84" rx="3" ry="3" style="stroke:#038048;stroke-width:1;"/></g><text fill="#000000" font-family="sans-serif" font-size="14" lengthAdjust="spacing" textLength="202.1387" x="27" y="420.222">LocalStorage(base_path: str)</text><g data-visibility-modifier="PUBLIC_METHOD"><ellipse cx="18" cy="433.1722" fill="#84BE84" rx="3" ry="3" style="stroke:#038048;stroke-width:1;"/></g><text fill="#000000" font-family="sans-serif" font-size="14" lengthAdjust="spacing" textLength="299.0586" x="27" y="436.5189">save_file(filename: str, data: bytes) : None</text><g data-visibility-modifier="PUBLIC_METHOD"><ellipse cx="18" cy="449.4691" fill="#84BE84" rx="3" ry="3" style="stroke:#038048;stroke-width:1;"/></g><text fill="#000000" font-family="sans-serif" font-size="14" lengthAdjust="spacing" textLength="211.9961" x="27" y="452.8157">read_file(filename: str) : bytes</text></g><!--class CloudStorage--><g class="entity" data-qualified-name="CloudStorage" data-source-line="16" id="ent0004"><rect fill="#F1F1F1" height="129.4844" rx="2.5" ry="2.5" style="stroke:#181818;stroke-width:0.5;" width="346.0313" x="367.51" y="338.79"/><ellipse cx="488.8923" cy="354.79" fill="#ADD1B2" rx="11" ry="11" style="stroke:#181818;stroke-width:1;"/><path d="M491.8611,360.4306 Q491.2829,360.7275 490.6423,360.8681 Q490.0017,361.0244 489.2986,361.0244 Q486.7986,361.0244 485.4704,359.3837 Q484.1579,357.7275 484.1579,354.6025 Q484.1579,351.4775 485.4704,349.8212 Q486.7986,348.165 489.2986,348.165 Q490.0017,348.165 490.6423,348.3212 Q491.2986,348.4775 491.8611,348.7744 L491.8611,351.4931 Q491.2361,350.915 490.6423,350.6494 Q490.0486,350.3681 489.4236,350.3681 Q488.0798,350.3681 487.3923,351.4462 Q486.7048,352.5087 486.7048,354.6025 Q486.7048,356.6962 487.3923,357.7744 Q488.0798,358.8369 489.4236,358.8369 Q490.0486,358.8369 490.6423,358.5712 Q491.2361,358.29 491.8611,357.7119 L491.8611,360.4306 Z " fill="#000000"/><text fill="#000000" font-family="sans-serif" font-size="14" lengthAdjust="spacing" textLength="94.7666" x="509.3923" y="359.6367">CloudStorage</text><line style="stroke:#181818;stroke-width:0.5;" x1="368.51" x2="712.5413" y1="370.79" y2="370.79"/><g data-visibility-modifier="PRIVATE_FIELD"><rect fill="none" height="6" style="stroke:#C82930;stroke-width:1;" width="6" x="375.51" y="381.4384"/></g><text fill="#000000" font-family="sans-serif" font-size="14" lengthAdjust="spacing" textLength="83.3643" x="387.51" y="387.7851">cloud_client</text><g data-visibility-modifier="PRIVATE_FIELD"><rect fill="none" height="6" style="stroke:#C82930;stroke-width:1;" width="6" x="375.51" y="397.7353"/></g><text fill="#000000" font-family="sans-serif" font-size="14" lengthAdjust="spacing" textLength="126.5264" x="387.51" y="404.082">bucket_name : str</text><line style="stroke:#181818;stroke-width:0.5;" x1="368.51" x2="712.5413" y1="411.3837" y2="411.3837"/><g data-visibility-modifier="PUBLIC_METHOD"><ellipse cx="378.51" cy="425.0322" fill="#84BE84" rx="3" ry="3" style="stroke:#038048;stroke-width:1;"/></g><text fill="#000000" font-family="sans-serif" font-size="14" lengthAdjust="spacing" textLength="320.0313" x="387.51" y="428.3789">CloudStorage(cloud_client, bucket_name: str)</text><g data-visibility-modifier="PUBLIC_METHOD"><ellipse cx="378.51" cy="441.3291" fill="#84BE84" rx="3" ry="3" style="stroke:#038048;stroke-width:1;"/></g><text fill="#000000" font-family="sans-serif" font-size="14" lengthAdjust="spacing" textLength="299.0586" x="387.51" y="444.6757">save_file(filename: str, data: bytes) : None</text><g data-visibility-modifier="PUBLIC_METHOD"><ellipse cx="378.51" cy="457.6259" fill="#84BE84" rx="3" ry="3" style="stroke:#038048;stroke-width:1;"/></g><text fill="#000000" font-family="sans-serif" font-size="14" lengthAdjust="spacing" textLength="211.9961" x="387.51" y="460.9726">read_file(filename: str) : bytes</text></g><!--class DummyCloudClient--><g class="entity" data-qualified-name="DummyCloudClient" data-source-line="28" id="ent0007"><rect fill="#F1F1F1" height="96.8906" rx="2.5" ry="2.5" style="stroke:#181818;stroke-width:0.5;" width="206.6123" x="437.22" y="545.27"/><ellipse cx="469.7151" cy="561.27" fill="#ADD1B2" rx="11" ry="11" style="stroke:#181818;stroke-width:1;"/><path d="M472.6838,566.9106 Q472.1057,567.2075 471.4651,567.3481 Q470.8244,567.5044 470.1213,567.5044 Q467.6213,567.5044 466.2932,565.8638 Q464.9807,564.2075 464.9807,561.0825 Q464.9807,557.9575 466.2932,556.3013 Q467.6213,554.645 470.1213,554.645 Q470.8244,554.645 471.4651,554.8013 Q472.1213,554.9575 472.6838,555.2544 L472.6838,557.9731 Q472.0588,557.395 471.4651,557.1294 Q470.8713,556.8481 470.2463,556.8481 Q468.9026,556.8481 468.2151,557.9263 Q467.5276,558.9888 467.5276,561.0825 Q467.5276,563.1763 468.2151,564.2544 Q468.9026,565.3169 470.2463,565.3169 Q470.8713,565.3169 471.4651,565.0513 Q472.0588,564.77 472.6838,564.1919 L472.6838,566.9106 Z " fill="#000000"/><text fill="#000000" font-family="sans-serif" font-size="14" lengthAdjust="spacing" textLength="135.7344" x="487.6029" y="566.1167">DummyCloudClient</text><line style="stroke:#181818;stroke-width:0.5;" x1="438.22" x2="642.8323" y1="577.27" y2="577.27"/><g data-visibility-modifier="PRIVATE_FIELD"><rect fill="none" height="6" style="stroke:#C82930;stroke-width:1;" width="6" x="445.22" y="587.9184"/></g><text fill="#000000" font-family="sans-serif" font-size="14" lengthAdjust="spacing" textLength="35.7178" x="457.22" y="594.2651">store</text><line style="stroke:#181818;stroke-width:0.5;" x1="438.22" x2="642.8323" y1="601.5669" y2="601.5669"/><g data-visibility-modifier="PUBLIC_METHOD"><ellipse cx="448.22" cy="615.2153" fill="#84BE84" rx="3" ry="3" style="stroke:#038048;stroke-width:1;"/></g><text fill="#000000" font-family="sans-serif" font-size="14" lengthAdjust="spacing" textLength="180.6123" x="457.22" y="618.562">upload(bucket, key, data)</text><g data-visibility-modifier="PUBLIC_METHOD"><ellipse cx="448.22" cy="631.5122" fill="#84BE84" rx="3" ry="3" style="stroke:#038048;stroke-width:1;"/></g><text fill="#000000" font-family="sans-serif" font-size="14" lengthAdjust="spacing" textLength="160.1934" x="457.22" y="634.8589">download(bucket, key)</text></g><!--class FilenameValidator--><g class="entity" data-qualified-name="FilenameValidator" data-source-line="34" id="ent0009"><rect fill="#F1F1F1" height="64.2969" rx="2.5" ry="2.5" style="stroke:#181818;stroke-width:0.5;" width="225.3906" x="551.83" y="205.34"/><ellipse cx="596.5951" cy="221.34" fill="#ADD1B2" rx="11" ry="11" style="stroke:#181818;stroke-width:1;"/><path d="M599.5639,226.9806 Q598.9858,227.2775 598.3451,227.4181 Q597.7045,227.5744 597.0014,227.5744 Q594.5014,227.5744 593.1733,225.9337 Q591.8608,224.2775 591.8608,221.1525 Q591.8608,218.0275 593.1733,216.3712 Q594.5014,214.715 597.0014,214.715 Q597.7045,214.715 598.3451,214.8712 Q599.0014,215.0275 599.5639,215.3244 L599.5639,218.0431 Q598.9389,217.465 598.3451,217.1994 Q597.7514,216.9181 597.1264,216.9181 Q595.7826,216.9181 595.0951,217.9962 Q594.4076,219.0587 594.4076,221.1525 Q594.4076,223.2462 595.0951,224.3244 Q595.7826,225.3869 597.1264,225.3869 Q597.7514,225.3869 598.3451,225.1212 Q598.9389,224.84 599.5639,224.2619 L599.5639,226.9806 Z " fill="#000000"/><text fill="#000000" font-family="sans-serif" font-size="14" lengthAdjust="spacing" textLength="127.3604" x="617.0951" y="226.1867">FilenameValidator</text><line style="stroke:#181818;stroke-width:0.5;" x1="552.83" x2="776.2206" y1="237.34" y2="237.34"/><line style="stroke:#181818;stroke-width:0.5;" x1="552.83" x2="776.2206" y1="245.34" y2="245.34"/><g data-visibility-modifier="PUBLIC_METHOD"><ellipse cx="562.83" cy="258.9884" fill="#84BE84" rx="3" ry="3" style="stroke:#038048;stroke-width:1;"/></g><text fill="#000000" font-family="sans-serif" font-size="14" lengthAdjust="spacing" text-decoration="underline" textLength="199.3906" x="571.83" y="262.3351">validate(filename: str) : bool</text></g><!--class DirectoryValidator--><g class="entity" data-qualified-name="DirectoryValidator" data-source-line="38" id="ent0010"><rect fill="#F1F1F1" height="64.2969" rx="2.5" ry="2.5" style="stroke:#181818;stroke-width:0.5;" width="196.1943" x="71.43" y="561.57"/><ellipse cx="102.6977" cy="577.57" fill="#ADD1B2" rx="11" ry="11" style="stroke:#181818;stroke-width:1;"/><path d="M105.6664,583.2106 Q105.0883,583.5075 104.4477,583.6481 Q103.8071,583.8044 103.1039,583.8044 Q100.6039,583.8044 99.2758,582.1637 Q97.9633,580.5075 97.9633,577.3825 Q97.9633,574.2575 99.2758,572.6012 Q100.6039,570.945 103.1039,570.945 Q103.8071,570.945 104.4477,571.1012 Q105.1039,571.2575 105.6664,571.5544 L105.6664,574.2731 Q105.0414,573.695 104.4477,573.4294 Q103.8539,573.1481 103.2289,573.1481 Q101.8852,573.1481 101.1977,574.2262 Q100.5102,575.2887 100.5102,577.3825 Q100.5102,579.4762 101.1977,580.5544 Q101.8852,581.6169 103.2289,581.6169 Q103.8539,581.6169 104.4477,581.3512 Q105.0414,581.07 105.6664,580.4919 L105.6664,583.2106 Z " fill="#000000"/><text fill="#000000" font-family="sans-serif" font-size="14" lengthAdjust="spacing" textLength="128.0439" x="120.3127" y="582.4167">DirectoryValidator</text><line style="stroke:#181818;stroke-width:0.5;" x1="72.43" x2="266.6243" y1="593.57" y2="593.57"/><line style="stroke:#181818;stroke-width:0.5;" x1="72.43" x2="266.6243" y1="601.57" y2="601.57"/><g data-visibility-modifier="PUBLIC_METHOD"><ellipse cx="82.43" cy="615.2184" fill="#84BE84" rx="3" ry="3" style="stroke:#038048;stroke-width:1;"/></g><text fill="#000000" font-family="sans-serif" font-size="14" lengthAdjust="spacing" text-decoration="underline" textLength="170.1943" x="91.43" y="618.5651">validate(path: str) : bool</text></g><!--class FileManager--><g class="entity" data-qualified-name="FileManager" data-source-line="43" id="ent0012"><rect fill="#F1F1F1" height="113.1875" rx="2.5" ry="2.5" style="stroke:#181818;stroke-width:0.5;" width="246.5957" x="386.23" y="7"/><ellipse cx="462.3721" cy="23" fill="#ADD1B2" rx="11" ry="11" style="stroke:#181818;stroke-width:1;"/><path d="M465.3408,28.6406 Q464.7627,28.9375 464.1221,29.0781 Q463.4815,29.2344 462.7783,29.2344 Q460.2783,29.2344 458.9502,27.5938 Q457.6377,25.9375 457.6377,22.8125 Q457.6377,19.6875 458.9502,18.0313 Q460.2783,16.375 462.7783,16.375 Q463.4815,16.375 464.1221,16.5313 Q464.7783,16.6875 465.3408,16.9844 L465.3408,19.7031 Q464.7158,19.125 464.1221,18.8594 Q463.5283,18.5781 462.9033,18.5781 Q461.5596,18.5781 460.8721,19.6563 Q460.1846,20.7188 460.1846,22.8125 Q460.1846,24.9063 460.8721,25.9844 Q461.5596,27.0469 462.9033,27.0469 Q463.5283,27.0469 464.1221,26.7813 Q464.7158,26.5 465.3408,25.9219 L465.3408,28.6406 Z " fill="#000000"/><text fill="#000000" font-family="sans-serif" font-size="14" lengthAdjust="spacing" textLength="85.8115" x="482.8721" y="27.8467">FileManager</text><line style="stroke:#181818;stroke-width:0.5;" x1="387.23" x2="631.8257" y1="39" y2="39"/><g data-visibility-modifier="PRIVATE_FIELD"><rect fill="none" height="6" style="stroke:#C82930;stroke-width:1;" width="6" x="394.23" y="49.6484"/></g><text fill="#000000" font-family="sans-serif" font-size="14" lengthAdjust="spacing" textLength="53.1836" x="406.23" y="55.9951">storage</text><line style="stroke:#181818;stroke-width:0.5;" x1="387.23" x2="631.8257" y1="63.2969" y2="63.2969"/><g data-visibility-modifier="PUBLIC_METHOD"><ellipse cx="397.23" cy="76.9453" fill="#84BE84" rx="3" ry="3" style="stroke:#038048;stroke-width:1;"/></g><text fill="#000000" font-family="sans-serif" font-size="14" lengthAdjust="spacing" textLength="149.9189" x="406.23" y="80.292">FileManager(storage)</text><g data-visibility-modifier="PUBLIC_METHOD"><ellipse cx="397.23" cy="93.2422" fill="#84BE84" rx="3" ry="3" style="stroke:#038048;stroke-width:1;"/></g><text fill="#000000" font-family="sans-serif" font-size="14" lengthAdjust="spacing" textLength="220.5957" x="406.23" y="96.5889">save(filename: str, data: bytes)</text><g data-visibility-modifier="PUBLIC_METHOD"><ellipse cx="397.23" cy="109.5391" fill="#84BE84" rx="3" ry="3" style="stroke:#038048;stroke-width:1;"/></g><text fill="#000000" font-family="sans-serif" font-size="14" lengthAdjust="spacing" textLength="183.6748" x="406.23" y="112.8857">read(filename: str) : bytes</text></g><!--reverse link Storage to LocalStorage--><g class="link" data-entity-1="ent0002" data-entity-2="ent0003" data-link-type="extension" data-source-line="24" id="lnk5"><path codeLine="24" d="M296.2812,290.1412 C273.1812,310.6212 258.08,324.01 232.78,346.45" fill="none" id="Storage-backto-LocalStorage" style="stroke:#181818;stroke-width:1;"/><polygon fill="none" points="309.75,278.2,292.3008,285.6516,300.2616,294.6308,309.75,278.2" style="stroke:#181818;stroke-width:1;"/></g><!--reverse link Storage to CloudStorage--><g class="link" data-entity-1="ent0002" data-entity-2="ent0004" data-link-type="extension" data-source-line="25" id="lnk6"><path codeLine="25" d="M413.0515,290.1042 C433.5915,308.2142 444.92,318.21 467.99,338.55" fill="none" id="Storage-backto-CloudStorage" style="stroke:#181818;stroke-width:1;"/><polygon fill="none" points="399.55,278.2,409.0834,294.6047,417.0196,285.6037,399.55,278.2" style="stroke:#181818;stroke-width:1;"/></g><!--link CloudStorage to DummyCloudClient--><g class="link" data-entity-1="ent0004" data-entity-2="ent0007" data-link-type="dependency" data-source-line="28" id="lnk8"><path codeLine="28" d="M540.53,468.76 C540.53,493.68 540.53,515.71 540.53,538.81" fill="none" id="CloudStorage-to-DummyCloudClient" style="stroke:#181818;stroke-width:1;"/><polygon fill="#181818" points="540.53,544.81,544.53,535.81,540.53,539.81,536.53,535.81,540.53,544.81" style="stroke:#181818;stroke-width:1;"/><text fill="#000000" font-family="sans-serif" font-size="13" lengthAdjust="spacing" textLength="29.7832" x="541.53" y="511.3369">uses</text></g><!--link LocalStorage to DirectoryValidator--><g class="link" data-entity-1="ent0003" data-entity-2="ent0010" data-link-type="dependency" data-source-line="42" id="lnk11"><path codeLine="42" d="M169.53,460.48 C169.53,493.42 169.53,527.86 169.53,555.28" fill="none" id="LocalStorage-to-DirectoryValidator" style="stroke:#181818;stroke-width:1;"/><polygon fill="#181818" points="169.53,561.28,173.53,552.28,169.53,556.28,165.53,552.28,169.53,561.28" style="stroke:#181818;stroke-width:1;"/><text fill="#000000" font-family="sans-serif" font-size="13" lengthAdjust="spacing" textLength="58.9697" x="170.53" y="511.3369">validates</text></g><!--link FileManager to FilenameValidator--><g class="link" data-entity-1="ent0012" data-entity-2="ent0009" data-link-type="dependency" data-source-line="43" id="lnk13"><path codeLine="43" d="M559.85,120.41 C585.13,148.44 610.8109,176.925 632.1109,200.535" fill="none" id="FileManager-to-FilenameValidator" style="stroke:#181818;stroke-width:1;"/><polygon fill="#181818" points="636.13,204.99,633.0713,195.6281,632.7807,201.2775,627.1314,200.9869,636.13,204.99" style="stroke:#181818;stroke-width:1;"/><text fill="#000000" font-family="sans-serif" font-size="13" lengthAdjust="spacing" textLength="58.9697" x="601.53" y="163.2569">validates</text></g><!--link FileManager to Storage--><g class="link" data-entity-1="ent0012" data-entity-2="ent0002" data-link-type="dependency" data-source-line="56" id="lnk14"><path codeLine="56" d="M459.21,120.41 C436.75,145.3 414.8388,169.6147 394.3988,192.2747" fill="none" id="FileManager-to-Storage" style="stroke:#181818;stroke-width:1;"/><polygon fill="#181818" points="390.38,196.73,399.3784,192.7263,393.729,193.0173,393.438,187.3679,390.38,196.73" style="stroke:#181818;stroke-width:1;"/><text fill="#000000" font-family="sans-serif" font-size="13" lengthAdjust="spacing" textLength="76.0894" x="433.53" y="163.2569">depends on</text></g><?plantuml-src lLJBRi8m4BpxA_P6KCaFH6sbb425H8B4er9Fo2IcTGasYXqgHFdtRbxWy3xXWm_UcVNEU986l5nQf06ZyM3eldV0VHkDXsvxt1i4U7gPGMTA9pJK4CPKAHXfcT0l1bi2k9v0qJMRpddCh6mJTCaSG48B8ggf0xEDPge93WHIi9AIC1gTeMIe74vsX1INzML8u_gDDioeOjCLrT-Gqygc9jJQGuh6ZnYr7SiqEXurp0wdOSoPqDNqQRXWUfgrgirlyYsJrp8fZz1JYNZ-i-sQhVMAEJ311DKCI1LJmCKF2pMB84c5vgXNph83iAY2YCsvm18NY4L6azJujlqANhfSRlBJTcu4pfYr9UHgN1lmuVPxdeif7rq55i_MBMtue357ssHIljrMQQfvk4FFraNfd6LIneS4U3n1TJBPtDFh44wZJotkkGMdBPrz3qMouNqg49tay5Cn9lgMRzrUlmE-6-3FONYdSzNbLTvL6OSYR0R2AYjcTA-breZhbQGUww-iSp1UAoOY1LBSbErDVFyJslt1nCEzrmd6TuW_oQRfGAK_NSKIvoy-tnOisAOGMQcBvAyuHZJ9xXy0?></g></svg>