<svg xmlns="http://www.w3.org/2000/svg" xmlns:xlink="http://www.w3.org/1999/xlink" contentStyleType="text/css" data-diagram-type="CLASS" height="243px" preserveAspectRatio="none" style="width:292px;height:243px;background:#FFFFFF;" version="1.1" viewBox="0 0 292 243" width="292px" zoomAndPan="magnify"><?plantuml 1.2026.4beta2?><defs/><g><!--class Shape--><g class="entity" data-qualified-name="Shape" data-source-line="4" id="ent0002"><rect fill="#F1F1F1" height="64.2969" rx="2.5" ry="2.5" style="stroke:#181818;stroke-width:0.5;" width="109.0703" x="87.59" y="7"/><ellipse cx="117.5442" cy="23" fill="#A9DCDF" rx="11" ry="11" style="stroke:#181818;stroke-width:1;"/><path d="M117.6535,18.3438 L116.4973,23.4219 L118.8254,23.4219 L117.6535,18.3438 Z M116.1692,16.1094 L119.1535,16.1094 L122.5129,28.5 L120.0598,28.5 L119.2942,25.4375 L116.0129,25.4375 L115.2629,28.5 L112.8254,28.5 L116.1692,16.1094 Z " fill="#000000"/><text fill="#000000" font-family="sans-serif" font-size="14" font-style="italic" lengthAdjust="spacing" textLength="43.8389" x="134.8673" y="27.8467">Shape</text><line style="stroke:#181818;stroke-width:0.5;" x1="88.59" x2="195.6603" y1="39" y2="39"/><line style="stroke:#181818;stroke-width:0.5;" x1="88.59" x2="195.6603" y1="47" y2="47"/><g data-visibility-modifier="PUBLIC_METHOD"><ellipse cx="98.59" cy="60.6484" fill="#84BE84" rx="3" ry="3" style="stroke:#038048;stroke-width:1;"/></g><text fill="#000000" font-family="sans-serif" font-size="14" lengthAdjust="spacing" textLength="83.0703" x="107.59" y="63.9951">area(): float</text></g><!--class Rectangle--><g class="entity" data-qualified-name="Rectangle" data-source-line="11" id="ent0003"><rect fill="#F1F1F1" height="96.8906" rx="2.5" ry="2.5" style="stroke:#181818;stroke-width:0.5;" width="118.2441" x="7" y="131.3"/><ellipse cx="29.1438" cy="147.3" fill="#ADD1B2" rx="11" ry="11" style="stroke:#181818;stroke-width:1;"/><path d="M32.1125,152.9406 Q31.5344,153.2375 30.8938,153.3781 Q30.2531,153.5344 29.55,153.5344 Q27.05,153.5344 25.7219,151.8938 Q24.4094,150.2375 24.4094,147.1125 Q24.4094,143.9875 25.7219,142.3313 Q27.05,140.675 29.55,140.675 Q30.2531,140.675 30.8938,140.8313 Q31.55,140.9875 32.1125,141.2844 L32.1125,144.0031 Q31.4875,143.425 30.8938,143.1594 Q30.3,142.8781 29.675,142.8781 Q28.3313,142.8781 27.6438,143.9563 Q26.9563,145.0188 26.9563,147.1125 Q26.9563,149.2063 27.6438,150.2844 Q28.3313,151.3469 29.675,151.3469 Q30.3,151.3469 30.8938,151.0813 Q31.4875,150.8 32.1125,150.2219 L32.1125,152.9406 Z " fill="#000000"/><text fill="#000000" font-family="sans-serif" font-size="14" lengthAdjust="spacing" textLength="70.3691" x="44.7312" y="152.1467">Rectangle</text><line style="stroke:#181818;stroke-width:0.5;" x1="8" x2="124.2441" y1="163.3" y2="163.3"/><g data-visibility-modifier="PRIVATE_FIELD"><rect fill="none" height="6" style="stroke:#C82930;stroke-width:1;" width="6" x="15" y="173.9484"/></g><text fill="#000000" font-family="sans-serif" font-size="14" lengthAdjust="spacing" textLength="92.2441" x="27" y="180.2951">_height: float</text><g data-visibility-modifier="PRIVATE_FIELD"><rect fill="none" height="6" style="stroke:#C82930;stroke-width:1;" width="6" x="15" y="190.2453"/></g><text fill="#000000" font-family="sans-serif" font-size="14" lengthAdjust="spacing" textLength="86.208" x="27" y="196.592">_width: float</text><line style="stroke:#181818;stroke-width:0.5;" x1="8" x2="124.2441" y1="203.8938" y2="203.8938"/><g data-visibility-modifier="PUBLIC_METHOD"><ellipse cx="18" cy="217.5422" fill="#84BE84" rx="3" ry="3" style="stroke:#038048;stroke-width:1;"/></g><text fill="#000000" font-family="sans-serif" font-size="14" lengthAdjust="spacing" textLength="83.0703" x="27" y="220.8889">area(): float</text></g><!--class Circle--><g class="entity" data-qualified-name="Circle" data-source-line="21" id="ent0004"><rect fill="#F1F1F1" height="80.5938" rx="2.5" ry="2.5" style="stroke:#181818;stroke-width:0.5;" width="116.8975" x="160.67" y="139.45"/><ellipse cx="196.0444" cy="155.45" fill="#ADD1B2" rx="11" ry="11" style="stroke:#181818;stroke-width:1;"/><path d="M199.0131,161.0906 Q198.435,161.3875 197.7944,161.5281 Q197.1537,161.6844 196.4506,161.6844 Q193.9506,161.6844 192.6225,160.0438 Q191.31,158.3875 191.31,155.2625 Q191.31,152.1375 192.6225,150.4813 Q193.9506,148.825 196.4506,148.825 Q197.1537,148.825 197.7944,148.9813 Q198.4506,149.1375 199.0131,149.4344 L199.0131,152.1531 Q198.3881,151.575 197.7944,151.3094 Q197.2006,151.0281 196.5756,151.0281 Q195.2319,151.0281 194.5444,152.1063 Q193.8569,153.1688 193.8569,155.2625 Q193.8569,157.3563 194.5444,158.4344 Q195.2319,159.4969 196.5756,159.4969 Q197.2006,159.4969 197.7944,159.2313 Q198.3881,158.95 199.0131,158.3719 L199.0131,161.0906 Z " fill="#000000"/><text fill="#000000" font-family="sans-serif" font-size="14" lengthAdjust="spacing" textLength="39.6211" x="214.572" y="160.2967">Circle</text><line style="stroke:#181818;stroke-width:0.5;" x1="161.67" x2="276.5675" y1="171.45" y2="171.45"/><g data-visibility-modifier="PRIVATE_FIELD"><rect fill="none" height="6" style="stroke:#C82930;stroke-width:1;" width="6" x="168.67" y="182.0984"/></g><text fill="#000000" font-family="sans-serif" font-size="14" lengthAdjust="spacing" textLength="90.8975" x="180.67" y="188.4451">_radius: float</text><line style="stroke:#181818;stroke-width:0.5;" x1="161.67" x2="276.5675" y1="195.7469" y2="195.7469"/><g data-visibility-modifier="PUBLIC_METHOD"><ellipse cx="171.67" cy="209.3953" fill="#84BE84" rx="3" ry="3" style="stroke:#038048;stroke-width:1;"/></g><text fill="#000000" font-family="sans-serif" font-size="14" lengthAdjust="spacing" textLength="83.0703" x="180.67" y="212.742">area(): float</text></g><!--reverse link Shape to Rectangle--><g class="link" data-entity-1="ent0002" data-entity-2="ent0003" data-link-type="extension" data-source-line="30" id="lnk5"><path codeLine="30" d="M116.2259,87.3831 C106.6359,104.8731 103.15,111.22 92.4,130.82" fill="none" id="Shape-backto-Rectangle" style="stroke:#181818;stroke-width:1;"/><polygon fill="none" points="124.88,71.6,110.9649,84.4984,121.4869,90.2678,124.88,71.6" style="stroke:#181818;stroke-width:1;"/></g><!--reverse link Shape to Circle--><g class="link" data-entity-1="ent0002" data-entity-2="ent0004" data-link-type="extension" data-source-line="31" id="lnk6"><path codeLine="31" d="M168.3349,87.333 C179.4349,107.303 185.14,117.58 197.03,138.97" fill="none" id="Shape-backto-Circle" style="stroke:#181818;stroke-width:1;"/><polygon fill="none" points="159.59,71.6,163.0906,90.2479,173.5792,84.418,159.59,71.6" style="stroke:#181818;stroke-width:1;"/></g><?plantuml-src fP4n3i8m34NtdC9RGAWNG30W9bOu03AfQIn5QUK4CG1t9oXjrQKH0c_-Ul7_ZZLivqffs5r253IHMv-wUH9x3ep34E1aiIDuA4YrGY5SBDTmTIr6zLB5GHgEP2Bwnb6HopuZstjLPqlSs3YOPUtETRI3z5EcFOlvAb06npI2DT_2NzO7RqauRMa8X1n-JX4iTw7uBXzWywogoNzEn9pp3G00?></g></svg>