<svg xmlns="http://www.w3.org/2000/svg" xmlns:xlink="http://www.w3.org/1999/xlink" contentStyleType="text/css" data-diagram-type="CLASS" height="450px" preserveAspectRatio="none" style="width:687px;height:450px;background:#FFFFFF;" version="1.1" viewBox="0 0 687 450" width="687px" zoomAndPan="magnify"><?plantuml 1.2026.4beta2?><defs/><g><!--class ReportStrategy--><g class="entity" data-qualified-name="ReportStrategy" data-source-line="4" id="ent0002"><rect fill="#F1F1F1" height="113.1875" rx="2.5" ry="2.5" style="stroke:#181818;stroke-width:0.5;" width="315.4951" x="182" y="197.19"/><ellipse cx="281.9858" cy="213.19" fill="#A9DCDF" rx="11" ry="11" style="stroke:#181818;stroke-width:1;"/><path d="M282.0952,208.5338 L280.939,213.6119 L283.2671,213.6119 L282.0952,208.5338 Z M280.6108,206.2994 L283.5952,206.2994 L286.9546,218.69 L284.5015,218.69 L283.7358,215.6275 L280.4546,215.6275 L279.7046,218.69 L277.2671,218.69 L280.6108,206.2994 Z " fill="#000000"/><text fill="#000000" font-family="sans-serif" font-size="14" font-style="italic" lengthAdjust="spacing" textLength="107.0234" x="302.4858" y="218.0367">ReportStrategy</text><line style="stroke:#181818;stroke-width:0.5;" x1="183" x2="496.4951" y1="229.19" y2="229.19"/><g data-visibility-modifier="PRIVATE_FIELD"><rect fill="none" height="6" style="stroke:#C82930;stroke-width:1;" width="6" x="190" y="239.8384"/></g><text fill="#000000" font-family="sans-serif" font-size="14" lengthAdjust="spacing" textLength="74.4092" x="202" y="246.1851">_name: str</text><g data-visibility-modifier="PUBLIC_FIELD"><ellipse cx="193" cy="259.1353" fill="none" rx="3" ry="3" style="stroke:#038048;stroke-width:1;"/></g><text fill="#000000" font-family="sans-serif" font-size="14" lengthAdjust="spacing" textLength="67.4092" x="202" y="262.482">name: str</text><line style="stroke:#181818;stroke-width:0.5;" x1="183" x2="496.4951" y1="269.7838" y2="269.7838"/><g data-visibility-modifier="PUBLIC_METHOD"><ellipse cx="193" cy="283.4322" fill="#84BE84" rx="3" ry="3" style="stroke:#038048;stroke-width:1;"/></g><text fill="#000000" font-family="sans-serif" font-size="14" lengthAdjust="spacing" textLength="185.3564" x="202" y="286.7789">ReportStrategy(name: str)</text><g data-visibility-modifier="PUBLIC_METHOD"><ellipse cx="193" cy="299.7291" fill="#84BE84" rx="3" ry="3" style="stroke:#038048;stroke-width:1;"/></g><text fill="#000000" font-family="sans-serif" font-size="14" lengthAdjust="spacing" textLength="289.4951" x="202" y="303.0757">generate_report(output_dir: str = "."): str</text></g><!--class PdfReport--><g class="entity" data-qualified-name="PdfReport" data-source-line="14" id="ent0003"><rect fill="#F1F1F1" height="64.2969" rx="2.5" ry="2.5" style="stroke:#181818;stroke-width:0.5;" width="315.4951" x="7" y="371.37"/><ellipse cx="125.8496" cy="387.37" fill="#ADD1B2" rx="11" ry="11" style="stroke:#181818;stroke-width:1;"/><path d="M128.8184,393.0106 Q128.2402,393.3075 127.5996,393.4481 Q126.959,393.6044 126.2559,393.6044 Q123.7559,393.6044 122.4277,391.9638 Q121.1152,390.3075 121.1152,387.1825 Q121.1152,384.0575 122.4277,382.4013 Q123.7559,380.745 126.2559,380.745 Q126.959,380.745 127.5996,380.9013 Q128.2559,381.0575 128.8184,381.3544 L128.8184,384.0731 Q128.1934,383.495 127.5996,383.2294 Q127.0059,382.9481 126.3809,382.9481 Q125.0371,382.9481 124.3496,384.0263 Q123.6621,385.0888 123.6621,387.1825 Q123.6621,389.2763 124.3496,390.3544 Q125.0371,391.4169 126.3809,391.4169 Q127.0059,391.4169 127.5996,391.1513 Q128.1934,390.87 128.8184,390.2919 L128.8184,393.0106 Z " fill="#000000"/><text fill="#000000" font-family="sans-serif" font-size="14" lengthAdjust="spacing" textLength="69.2959" x="146.3496" y="392.2167">PdfReport</text><line style="stroke:#181818;stroke-width:0.5;" x1="8" x2="321.4951" y1="403.37" y2="403.37"/><line style="stroke:#181818;stroke-width:0.5;" x1="8" x2="321.4951" y1="411.37" y2="411.37"/><g data-visibility-modifier="PUBLIC_METHOD"><ellipse cx="18" cy="425.0184" fill="#84BE84" rx="3" ry="3" style="stroke:#038048;stroke-width:1;"/></g><text fill="#000000" font-family="sans-serif" font-size="14" lengthAdjust="spacing" textLength="289.4951" x="27" y="428.3651">generate_report(output_dir: str = "."): str</text></g><!--class CsvReport--><g class="entity" data-qualified-name="CsvReport" data-source-line="18" id="ent0004"><rect fill="#F1F1F1" height="64.2969" rx="2.5" ry="2.5" style="stroke:#181818;stroke-width:0.5;" width="315.4951" x="357" y="371.37"/><ellipse cx="474.3013" cy="387.37" fill="#ADD1B2" rx="11" ry="11" style="stroke:#181818;stroke-width:1;"/><path d="M477.27,393.0106 Q476.6919,393.3075 476.0513,393.4481 Q475.4106,393.6044 474.7075,393.6044 Q472.2075,393.6044 470.8794,391.9638 Q469.5669,390.3075 469.5669,387.1825 Q469.5669,384.0575 470.8794,382.4013 Q472.2075,380.745 474.7075,380.745 Q475.4106,380.745 476.0513,380.9013 Q476.7075,381.0575 477.27,381.3544 L477.27,384.0731 Q476.645,383.495 476.0513,383.2294 Q475.4575,382.9481 474.8325,382.9481 Q473.4888,382.9481 472.8013,384.0263 Q472.1138,385.0888 472.1138,387.1825 Q472.1138,389.2763 472.8013,390.3544 Q473.4888,391.4169 474.8325,391.4169 Q475.4575,391.4169 476.0513,391.1513 Q476.645,390.87 477.27,390.2919 L477.27,393.0106 Z " fill="#000000"/><text fill="#000000" font-family="sans-serif" font-size="14" lengthAdjust="spacing" textLength="72.3926" x="494.8013" y="392.2167">CsvReport</text><line style="stroke:#181818;stroke-width:0.5;" x1="358" x2="671.4951" y1="403.37" y2="403.37"/><line style="stroke:#181818;stroke-width:0.5;" x1="358" x2="671.4951" y1="411.37" y2="411.37"/><g data-visibility-modifier="PUBLIC_METHOD"><ellipse cx="368" cy="425.0184" fill="#84BE84" rx="3" ry="3" style="stroke:#038048;stroke-width:1;"/></g><text fill="#000000" font-family="sans-serif" font-size="14" lengthAdjust="spacing" textLength="289.4951" x="377" y="428.3651">generate_report(output_dir: str = "."): str</text></g><!--class ReportManager--><g class="entity" data-qualified-name="ReportManager" data-source-line="25" id="ent0005"><rect fill="#F1F1F1" height="113.1875" rx="2.5" ry="2.5" style="stroke:#181818;stroke-width:0.5;" width="324.1836" x="177.66" y="7"/><ellipse cx="281.2996" cy="23" fill="#ADD1B2" rx="11" ry="11" style="stroke:#181818;stroke-width:1;"/><path d="M284.2684,28.6406 Q283.6903,28.9375 283.0496,29.0781 Q282.409,29.2344 281.7059,29.2344 Q279.2059,29.2344 277.8778,27.5938 Q276.5653,25.9375 276.5653,22.8125 Q276.5653,19.6875 277.8778,18.0313 Q279.2059,16.375 281.7059,16.375 Q282.409,16.375 283.0496,16.5313 Q283.7059,16.6875 284.2684,16.9844 L284.2684,19.7031 Q283.6434,19.125 283.0496,18.8594 Q282.4559,18.5781 281.8309,18.5781 Q280.4871,18.5781 279.7996,19.6563 Q279.1121,20.7188 279.1121,22.8125 Q279.1121,24.9063 279.7996,25.9844 Q280.4871,27.0469 281.8309,27.0469 Q282.4559,27.0469 283.0496,26.7813 Q283.6434,26.5 284.2684,25.9219 L284.2684,28.6406 Z " fill="#000000"/><text fill="#000000" font-family="sans-serif" font-size="14" lengthAdjust="spacing" textLength="108.4043" x="301.7996" y="27.8467">ReportManager</text><line style="stroke:#181818;stroke-width:0.5;" x1="178.66" x2="500.8436" y1="39" y2="39"/><g data-visibility-modifier="PRIVATE_FIELD"><rect fill="none" height="6" style="stroke:#C82930;stroke-width:1;" width="6" x="185.66" y="49.6484"/></g><text fill="#000000" font-family="sans-serif" font-size="14" lengthAdjust="spacing" textLength="208.9473" x="197.66" y="55.9951">_reports: List[ReportStrategy]</text><line style="stroke:#181818;stroke-width:0.5;" x1="178.66" x2="500.8436" y1="63.2969" y2="63.2969"/><g data-visibility-modifier="PUBLIC_METHOD"><ellipse cx="188.66" cy="76.9453" fill="#84BE84" rx="3" ry="3" style="stroke:#038048;stroke-width:1;"/></g><text fill="#000000" font-family="sans-serif" font-size="14" lengthAdjust="spacing" textLength="119.3281" x="197.66" y="80.292">ReportManager()</text><g data-visibility-modifier="PUBLIC_METHOD"><ellipse cx="188.66" cy="93.2422" fill="#84BE84" rx="3" ry="3" style="stroke:#038048;stroke-width:1;"/></g><text fill="#000000" font-family="sans-serif" font-size="14" lengthAdjust="spacing" textLength="246.5996" x="197.66" y="96.5889">add_report(report: ReportStrategy)</text><g data-visibility-modifier="PUBLIC_METHOD"><ellipse cx="188.66" cy="109.5391" fill="#84BE84" rx="3" ry="3" style="stroke:#038048;stroke-width:1;"/></g><text fill="#000000" font-family="sans-serif" font-size="14" lengthAdjust="spacing" textLength="298.1836" x="197.66" y="112.8857">generate_all(output_dir: str = "."): List[str]</text></g><!--reverse link ReportStrategy to PdfReport--><g class="link" data-entity-1="ent0002" data-entity-2="ent0003" data-link-type="extension" data-source-line="36" id="lnk6"><path codeLine="36" d="M259.8359,322.2414 C235.6359,342.6714 222.87,353.45 202.07,371.01" fill="none" id="ReportStrategy-backto-PdfReport" style="stroke:#181818;stroke-width:1;"/><polygon fill="none" points="273.59,310.63,255.9654,317.6567,263.7064,326.8261,273.59,310.63" style="stroke:#181818;stroke-width:1;"/></g><!--reverse link ReportStrategy to CsvReport--><g class="link" data-entity-1="ent0002" data-entity-2="ent0004" data-link-type="extension" data-source-line="37" id="lnk7"><path codeLine="37" d="M419.6641,322.2414 C443.8641,342.6714 456.62,353.45 477.42,371.01" fill="none" id="ReportStrategy-backto-CsvReport" style="stroke:#181818;stroke-width:1;"/><polygon fill="none" points="405.91,310.63,415.7936,326.8261,423.5346,317.6567,405.91,310.63" style="stroke:#181818;stroke-width:1;"/></g><!--reverse link ReportManager to ReportStrategy--><g class="link" data-entity-1="ent0005" data-entity-2="ent0002" data-link-type="aggregation" data-source-line="39" id="lnk8"><path codeLine="39" d="M339.75,132.54 C339.75,156.6 339.75,172.65 339.75,196.72" fill="none" id="ReportManager-backto-ReportStrategy" style="stroke:#181818;stroke-width:1;"/><polygon fill="none" points="339.75,120.54,335.75,126.54,339.75,132.54,343.75,126.54,339.75,120.54" style="stroke:#181818;stroke-width:1;"/><text fill="#000000" font-family="sans-serif" font-size="13" lengthAdjust="spacing" textLength="59.8584" x="340.75" y="163.2569">manages</text></g><?plantuml-src fL91IyCm6BttLtpiqXQfteiUOWbpq7KZoK6HKU8Qow1hHvC9elvtiwJTM72sOYw1xxsNl9SN7wBBo_C1tLD6KCBWi34yVO8aHPHgv3STVv6gvMi5wufB2KJicbPHFLAYV8SF3_IA8A_vLiIWgMPmvV228nnskCilHIqEtBmrmg3PgzrUvSMcDIouWydr9BIABs_0im_98ai8PjX6n4CXRRPbyMfjTx7-xCeUayYt_nqp8Xp3ZmnkO8uoDCLaL3hhQSvhNehsL9or96D8Dr8zdzUsEYkpamPzXRme-a1sYvtMGpS-hwgBsStrUh0Qym84fuZD5Xbzc2s7klMSBtlx6KMdgdz4ZmtsulxL6WqwWXYs1fJV?></g></svg>