<svg xmlns="http://www.w3.org/2000/svg" xmlns:xlink="http://www.w3.org/1999/xlink" contentStyleType="text/css" data-diagram-type="CLASS" height="418px" preserveAspectRatio="none" style="width:623px;height:418px;background:#FFFFFF;" version="1.1" viewBox="0 0 623 418" width="623px" zoomAndPan="magnify"><?plantuml 1.2026.4beta2?><defs/><g><!--class PayPolicy--><g class="entity" data-qualified-name="PayPolicy" data-source-line="4" id="ent0002"><rect fill="#F1F1F1" height="64.2969" rx="2.5" ry="2.5" style="stroke:#181818;stroke-width:0.5;" width="177.0332" x="219" y="180.89"/><ellipse cx="270.2285" cy="196.89" fill="#A9DCDF" rx="11" ry="11" style="stroke:#181818;stroke-width:1;"/><path d="M270.3379,192.2338 L269.1816,197.3119 L271.5098,197.3119 L270.3379,192.2338 Z M268.8535,189.9994 L271.8379,189.9994 L275.1973,202.39 L272.7441,202.39 L271.9785,199.3275 L268.6973,199.3275 L267.9473,202.39 L265.5098,202.39 L268.8535,189.9994 Z " fill="#000000"/><text fill="#000000" font-family="sans-serif" font-size="14" font-style="italic" lengthAdjust="spacing" textLength="66.0762" x="290.7285" y="201.7367">PayPolicy</text><line style="stroke:#181818;stroke-width:0.5;" x1="220" x2="395.0332" y1="212.89" y2="212.89"/><line style="stroke:#181818;stroke-width:0.5;" x1="220" x2="395.0332" y1="220.89" y2="220.89"/><g data-visibility-modifier="PUBLIC_METHOD"><ellipse cx="230" cy="234.5384" fill="#84BE84" rx="3" ry="3" style="stroke:#038048;stroke-width:1;"/></g><text fill="#000000" font-family="sans-serif" font-size="14" lengthAdjust="spacing" textLength="151.0332" x="239" y="237.8851">calculate_salary(): int</text></g><!--class FullTimePay--><g class="entity" data-qualified-name="FullTimePay" data-source-line="11" id="ent0003"><rect fill="#F1F1F1" height="80.5938" rx="2.5" ry="2.5" style="stroke:#181818;stroke-width:0.5;" width="177.0332" x="7" y="314.34"/><ellipse cx="49.1481" cy="330.34" fill="#ADD1B2" rx="11" ry="11" style="stroke:#181818;stroke-width:1;"/><path d="M52.1168,335.9806 Q51.5387,336.2775 50.8981,336.4181 Q50.2575,336.5744 49.5543,336.5744 Q47.0543,336.5744 45.7262,334.9338 Q44.4137,333.2775 44.4137,330.1525 Q44.4137,327.0275 45.7262,325.3713 Q47.0543,323.715 49.5543,323.715 Q50.2575,323.715 50.8981,323.8713 Q51.5543,324.0275 52.1168,324.3244 L52.1168,327.0431 Q51.4918,326.465 50.8981,326.1994 Q50.3043,325.9181 49.6793,325.9181 Q48.3356,325.9181 47.6481,326.9963 Q46.9606,328.0588 46.9606,330.1525 Q46.9606,332.2463 47.6481,333.3244 Q48.3356,334.3869 49.6793,334.3869 Q50.3043,334.3869 50.8981,334.1213 Q51.4918,333.84 52.1168,333.2619 L52.1168,335.9806 Z " fill="#000000"/><text fill="#000000" font-family="sans-serif" font-size="14" lengthAdjust="spacing" textLength="84.7041" x="69.181" y="335.1867">FullTimePay</text><line style="stroke:#181818;stroke-width:0.5;" x1="8" x2="183.0332" y1="346.34" y2="346.34"/><g data-visibility-modifier="PRIVATE_FIELD"><rect fill="none" height="6" style="stroke:#C82930;stroke-width:1;" width="6" x="15" y="356.9884"/></g><text fill="#000000" font-family="sans-serif" font-size="14" lengthAdjust="spacing" textLength="141.415" x="27" y="363.3351">_monthly_salary: int</text><line style="stroke:#181818;stroke-width:0.5;" x1="8" x2="183.0332" y1="370.6369" y2="370.6369"/><g data-visibility-modifier="PUBLIC_METHOD"><ellipse cx="18" cy="384.2853" fill="#84BE84" rx="3" ry="3" style="stroke:#038048;stroke-width:1;"/></g><text fill="#000000" font-family="sans-serif" font-size="14" lengthAdjust="spacing" textLength="151.0332" x="27" y="387.632">calculate_salary(): int</text></g><!--class PartTimePay--><g class="entity" data-qualified-name="PartTimePay" data-source-line="16" id="ent0004"><rect fill="#F1F1F1" height="96.8906" rx="2.5" ry="2.5" style="stroke:#181818;stroke-width:0.5;" width="177.0332" x="219" y="306.19"/><ellipse cx="259.5454" cy="322.19" fill="#ADD1B2" rx="11" ry="11" style="stroke:#181818;stroke-width:1;"/><path d="M262.5142,327.8306 Q261.936,328.1275 261.2954,328.2681 Q260.6548,328.4244 259.9517,328.4244 Q257.4517,328.4244 256.1235,326.7838 Q254.811,325.1275 254.811,322.0025 Q254.811,318.8775 256.1235,317.2213 Q257.4517,315.565 259.9517,315.565 Q260.6548,315.565 261.2954,315.7213 Q261.9517,315.8775 262.5142,316.1744 L262.5142,318.8931 Q261.8892,318.315 261.2954,318.0494 Q260.7017,317.7681 260.0767,317.7681 Q258.7329,317.7681 258.0454,318.8463 Q257.3579,319.9088 257.3579,322.0025 Q257.3579,324.0963 258.0454,325.1744 Q258.7329,326.2369 260.0767,326.2369 Q260.7017,326.2369 261.2954,325.9713 Q261.8892,325.69 262.5142,325.1119 L262.5142,327.8306 Z " fill="#000000"/><text fill="#000000" font-family="sans-serif" font-size="14" lengthAdjust="spacing" textLength="88.2656" x="279.2222" y="327.0367">PartTimePay</text><line style="stroke:#181818;stroke-width:0.5;" x1="220" x2="395.0332" y1="338.19" y2="338.19"/><g data-visibility-modifier="PRIVATE_FIELD"><rect fill="none" height="6" style="stroke:#C82930;stroke-width:1;" width="6" x="227" y="348.8384"/></g><text fill="#000000" font-family="sans-serif" font-size="14" lengthAdjust="spacing" textLength="114.0986" x="239" y="355.1851">_hourly_rate: int</text><g data-visibility-modifier="PRIVATE_FIELD"><rect fill="none" height="6" style="stroke:#C82930;stroke-width:1;" width="6" x="227" y="365.1353"/></g><text fill="#000000" font-family="sans-serif" font-size="14" lengthAdjust="spacing" textLength="73.7803" x="239" y="371.482">_hours: int</text><line style="stroke:#181818;stroke-width:0.5;" x1="220" x2="395.0332" y1="378.7838" y2="378.7838"/><g data-visibility-modifier="PUBLIC_METHOD"><ellipse cx="230" cy="392.4322" fill="#84BE84" rx="3" ry="3" style="stroke:#038048;stroke-width:1;"/></g><text fill="#000000" font-family="sans-serif" font-size="14" lengthAdjust="spacing" textLength="151.0332" x="239" y="395.7789">calculate_salary(): int</text></g><!--class ContractorPay--><g class="entity" data-qualified-name="ContractorPay" data-source-line="22" id="ent0005"><rect fill="#F1F1F1" height="96.8906" rx="2.5" ry="2.5" style="stroke:#181818;stroke-width:0.5;" width="177.0332" x="431" y="306.19"/><ellipse cx="466.3313" cy="322.19" fill="#ADD1B2" rx="11" ry="11" style="stroke:#181818;stroke-width:1;"/><path d="M469.3,327.8306 Q468.7219,328.1275 468.0813,328.2681 Q467.4407,328.4244 466.7375,328.4244 Q464.2375,328.4244 462.9094,326.7838 Q461.5969,325.1275 461.5969,322.0025 Q461.5969,318.8775 462.9094,317.2213 Q464.2375,315.565 466.7375,315.565 Q467.4407,315.565 468.0813,315.7213 Q468.7375,315.8775 469.3,316.1744 L469.3,318.8931 Q468.675,318.315 468.0813,318.0494 Q467.4875,317.7681 466.8625,317.7681 Q465.5188,317.7681 464.8313,318.8463 Q464.1438,319.9088 464.1438,322.0025 Q464.1438,324.0963 464.8313,325.1744 Q465.5188,326.2369 466.8625,326.2369 Q467.4875,326.2369 468.0813,325.9713 Q468.675,325.69 469.3,325.1119 L469.3,327.8306 Z " fill="#000000"/><text fill="#000000" font-family="sans-serif" font-size="14" lengthAdjust="spacing" textLength="99.8525" x="484.8494" y="327.0367">ContractorPay</text><line style="stroke:#181818;stroke-width:0.5;" x1="432" x2="607.0332" y1="338.19" y2="338.19"/><g data-visibility-modifier="PRIVATE_FIELD"><rect fill="none" height="6" style="stroke:#C82930;stroke-width:1;" width="6" x="439" y="348.8384"/></g><text fill="#000000" font-family="sans-serif" font-size="14" lengthAdjust="spacing" textLength="100.543" x="451" y="355.1851">_base_pay: int</text><g data-visibility-modifier="PRIVATE_FIELD"><rect fill="none" height="6" style="stroke:#C82930;stroke-width:1;" width="6" x="439" y="365.1353"/></g><text fill="#000000" font-family="sans-serif" font-size="14" lengthAdjust="spacing" textLength="76.9111" x="451" y="371.482">_bonus: int</text><line style="stroke:#181818;stroke-width:0.5;" x1="432" x2="607.0332" y1="378.7838" y2="378.7838"/><g data-visibility-modifier="PUBLIC_METHOD"><ellipse cx="442" cy="392.4322" fill="#84BE84" rx="3" ry="3" style="stroke:#038048;stroke-width:1;"/></g><text fill="#000000" font-family="sans-serif" font-size="14" lengthAdjust="spacing" textLength="151.0332" x="451" y="395.7789">calculate_salary(): int</text></g><!--class Employee--><g class="entity" data-qualified-name="Employee" data-source-line="35" id="ent0009"><rect fill="#F1F1F1" height="96.8906" rx="2.5" ry="2.5" style="stroke:#181818;stroke-width:0.5;" width="182.208" x="216.41" y="7"/><ellipse cx="268.5955" cy="23" fill="#ADD1B2" rx="11" ry="11" style="stroke:#181818;stroke-width:1;"/><path d="M271.5643,28.6406 Q270.9862,28.9375 270.3455,29.0781 Q269.7049,29.2344 269.0018,29.2344 Q266.5018,29.2344 265.1737,27.5938 Q263.8612,25.9375 263.8612,22.8125 Q263.8612,19.6875 265.1737,18.0313 Q266.5018,16.375 269.0018,16.375 Q269.7049,16.375 270.3455,16.5313 Q271.0018,16.6875 271.5643,16.9844 L271.5643,19.7031 Q270.9393,19.125 270.3455,18.8594 Q269.7518,18.5781 269.1268,18.5781 Q267.783,18.5781 267.0955,19.6563 Q266.408,20.7188 266.408,22.8125 Q266.408,24.9063 267.0955,25.9844 Q267.783,27.0469 269.1268,27.0469 Q269.7518,27.0469 270.3455,26.7813 Q270.9393,26.5 271.5643,25.9219 L271.5643,28.6406 Z " fill="#000000"/><text fill="#000000" font-family="sans-serif" font-size="14" lengthAdjust="spacing" textLength="69.3369" x="289.0955" y="27.8467">Employee</text><line style="stroke:#181818;stroke-width:0.5;" x1="217.41" x2="397.618" y1="39" y2="39"/><g data-visibility-modifier="PRIVATE_FIELD"><rect fill="none" height="6" style="stroke:#C82930;stroke-width:1;" width="6" x="224.41" y="49.6484"/></g><text fill="#000000" font-family="sans-serif" font-size="14" lengthAdjust="spacing" textLength="74.4092" x="236.41" y="55.9951">_name: str</text><g data-visibility-modifier="PRIVATE_FIELD"><rect fill="none" height="6" style="stroke:#C82930;stroke-width:1;" width="6" x="224.41" y="65.9453"/></g><text fill="#000000" font-family="sans-serif" font-size="14" lengthAdjust="spacing" textLength="156.208" x="236.41" y="72.292">_pay_policy: PayPolicy</text><line style="stroke:#181818;stroke-width:0.5;" x1="217.41" x2="397.618" y1="79.5938" y2="79.5938"/><g data-visibility-modifier="PUBLIC_METHOD"><ellipse cx="227.41" cy="93.2422" fill="#84BE84" rx="3" ry="3" style="stroke:#038048;stroke-width:1;"/></g><text fill="#000000" font-family="sans-serif" font-size="14" lengthAdjust="spacing" textLength="110.7148" x="236.41" y="96.5889">get_salary(): int</text></g><!--reverse link PayPolicy to FullTimePay--><g class="link" data-entity-1="ent0002" data-entity-2="ent0003" data-link-type="extension" data-source-line="28" id="lnk6"><path codeLine="28" d="M244.647,255.4399 C213.867,275.7099 188.65,292.31 155.71,314" fill="none" id="PayPolicy-backto-FullTimePay" style="stroke:#181818;stroke-width:1;"/><polygon fill="none" points="259.68,245.54,241.347,250.4289,247.947,260.4509,259.68,245.54" style="stroke:#181818;stroke-width:1;"/></g><!--reverse link PayPolicy to PartTimePay--><g class="link" data-entity-1="ent0002" data-entity-2="ent0004" data-link-type="extension" data-source-line="29" id="lnk7"><path codeLine="29" d="M307.52,263.37 C307.52,281.21 307.52,285.94 307.52,305.96" fill="none" id="PayPolicy-backto-PartTimePay" style="stroke:#181818;stroke-width:1;"/><polygon fill="none" points="307.52,245.37,301.52,263.37,313.52,263.37,307.52,245.37" style="stroke:#181818;stroke-width:1;"/></g><!--reverse link PayPolicy to ContractorPay--><g class="link" data-entity-1="ent0002" data-entity-2="ent0005" data-link-type="extension" data-source-line="30" id="lnk8"><path codeLine="30" d="M370.3941,255.4383 C397.3841,273.2083 416.62,285.88 446.86,305.8" fill="none" id="PayPolicy-backto-ContractorPay" style="stroke:#181818;stroke-width:1;"/><polygon fill="none" points="355.36,245.54,367.0946,260.4497,373.6935,250.427,355.36,245.54" style="stroke:#181818;stroke-width:1;"/></g><!--link Employee to PayPolicy--><g class="link" data-entity-1="ent0009" data-entity-2="ent0002" data-link-type="dependency" data-source-line="42" id="lnk10"><path codeLine="42" d="M307.52,103.98 C307.52,128.82 307.52,152.54 307.52,174.52" fill="none" id="Employee-to-PayPolicy" style="stroke:#181818;stroke-width:1;"/><polygon fill="#181818" points="307.52,180.52,311.52,171.52,307.52,175.52,303.52,171.52,307.52,180.52" style="stroke:#181818;stroke-width:1;"/><text fill="#000000" font-family="sans-serif" font-size="13" lengthAdjust="spacing" textLength="29.7832" x="308.52" y="146.9569">uses</text></g><?plantuml-src bPB1RiCW38RlF8LlIJJb1Q9jKeVOr4jRDHnsYmX2RIG8KO03slRk8qlMi4pjCj_0-FFl7oVmS2rG0fkdaXutc6xtEqXBspChJZuBYUj5h3RX7RV09JC63imVj6ouXpS48Uuuazp90AeCawptQLP0qrhqWMvY4y3x7JuIIc2GHCdBbfGtAyR-pqvAsYWHT4mAyahfrfwbdmICxV_IzZrDRvUqitPzW0tUpAZnslo7ZOEgmJZTn_IQ6L5rpCVeMhTk9Ngs__uzpsCtbgbej6NgXx8LtqJ9AuKKQzLfqzX6jzcAZoAgazeBSPcyPIeO6fPfEWSJgkvBLJ5l5HeTE0dxU_OBCSyVepqim1bXFW40?></g></svg>